<?xml version="1.0" encoding="UTF-8" standalone="no"?>
<svg
   xmlns:dc="http://purl.org/dc/elements/1.1/"
   xmlns:cc="http://creativecommons.org/ns#"
   xmlns:rdf="http://www.w3.org/1999/02/22-rdf-syntax-ns#"
   xmlns:svg="http://www.w3.org/2000/svg"
   xmlns="http://www.w3.org/2000/svg"
   xmlns:sodipodi="http://sodipodi.sourceforge.net/DTD/sodipodi-0.dtd"
   xmlns:inkscape="http://www.inkscape.org/namespaces/inkscape"
   width="159.53757mm"
   height="36.705868mm"
   viewBox="0 0 159.53757 36.705868"
   version="1.1"
   id="svg2553"
   inkscape:version="1.0.1 (3bc2e813f5, 2020-09-07)"
   sodipodi:docname="brock-logo-black.svg">
  <defs
     id="defs2547">
    <rect
       x="94.422356"
       y="47.225052"
       width="98.281563"
       height="34.86536"
       id="rect2670" />
    <clipPath
       clipPathUnits="userSpaceOnUse"
       id="clipPath2664">
      <rect
         style="fill:#ffffff;fill-rule:evenodd;stroke-width:0.263585"
         id="rect2666"
         width="62.92617"
         height="36.429527"
         x="-27.916357"
         y="48.718803" />
    </clipPath>
  </defs>
  <sodipodi:namedview
     id="base"
     pagecolor="#ffffff"
     bordercolor="#666666"
     borderopacity="1.0"
     inkscape:pageopacity="0.0"
     inkscape:pageshadow="2"
     inkscape:zoom="1.4"
     inkscape:cx="253.7426"
     inkscape:cy="52.390889"
     inkscape:document-units="mm"
     inkscape:current-layer="layer1"
     inkscape:document-rotation="0"
     showgrid="false"
     fit-margin-top="0"
     fit-margin-left="0"
     fit-margin-right="0"
     fit-margin-bottom="0"
     inkscape:pagecheckerboard="true"
     showborder="false"
     inkscape:window-width="1920"
     inkscape:window-height="1017"
     inkscape:window-x="-8"
     inkscape:window-y="89"
     inkscape:window-maximized="1" />
  <metadata
     id="metadata2550">
    <rdf:RDF>
      <cc:Work
         rdf:about="">
        <dc:format>image/svg+xml</dc:format>
        <dc:type
           rdf:resource="http://purl.org/dc/dcmitype/StillImage" />
        <dc:title></dc:title>
      </cc:Work>
    </rdf:RDF>
  </metadata>
  <g
     inkscape:label="Layer 1"
     inkscape:groupmode="layer"
     id="layer1"
     transform="translate(-33.220406,-47.22505)">
    <text
       xml:space="preserve"
       id="text2668"
       style="font-style:normal;font-weight:normal;font-size:11.2889px;line-height:1.25;font-family:sans-serif;white-space:pre;shape-inside:url(#rect2670);fill:#000000;fill-opacity:1;stroke:none;"
       transform="matrix(1.1542338,0,0,1.1738348,-7.6980047,-7.7870928)"><tspan
         x="94.421875"
         y="57.46797"><tspan
           style="font-style:normal;font-variant:normal;font-weight:normal;font-stretch:normal;font-family:'Trebuchet MS';-inkscape-font-specification:'Trebuchet MS';fill:#000000">Brock Library
</tspan></tspan><tspan
         x="94.421875"
         y="71.834425"><tspan
           style="font-style:normal;font-variant:normal;font-weight:normal;font-stretch:normal;font-family:'Trebuchet MS';-inkscape-font-specification:'Trebuchet MS';fill:#000000">Digital Learning</tspan></tspan></text>
    <g
       id="g2616"
       transform="matrix(1,0,0,1.0075857,61.136762,-1.8633214)"
       clip-path="url(#clipPath2664)">
      <g
         id="g2635">
        <path
           id="path2561"
           style="fill:#ff0000;stroke-width:0.460373"
           transform="matrix(0.26458333,0,0,0.26458333,-5.544595,29.173745)"
           d="m -84.554688,73.871094 v 65.681636 65.68165 H 31.103516 146.75977 V 139.55273 73.871094 H 31.103516 Z m 24.035157,41.341796 13.328125,0.17773 c 14.671188,0.19473 15.979925,0.40149 19.435547,3.06641 2.964068,2.28584 3.879033,4.42255 3.882812,9.07227 0.003,3.58257 -0.137,4.23111 -1.318359,6.11132 -0.843568,1.34261 -2.108233,2.53398 -3.496094,3.29493 l -2.173828,1.19336 1.570312,0.61718 c 2.682792,1.05537 4.669272,2.77241 5.988282,5.17579 1.068472,1.94682 1.272749,2.906 1.298828,6.0957 0.02519,3.09918 -0.169377,4.16674 -1.076172,5.89453 -1.429931,2.72455 -4.602219,5.31584 -7.78711,6.36133 -2.173794,0.71358 -4.39907,0.85173 -16.08789,1 l -13.564453,0.17187 v -24.11523 z m 149.927734,0.0723 h 5.732422 5.732425 l -0.15821,12.35546 -0.15625,12.35743 4.53711,-4.45313 c 2.496,-2.44913 5.01992,-5.10234 5.60938,-5.89648 l 1.07226,-1.44532 7.84766,-0.002 7.84766,-0.004 -7.10352,6.65625 c -6.66686,6.2478 -7.0697,6.72295 -6.57617,7.73632 0.28913,0.59376 3.461,5.26352 7.04883,10.37696 3.58783,5.11343 6.62804,9.54737 6.7539,9.85351 0.17715,0.43046 -1.43099,0.55664 -7.09375,0.55664 h -7.32226 l -1.32422,-2.84375 c -1.00573,-2.15987 -6.00672,-10.86132 -6.76172,-11.76562 -0.0628,-0.0753 -1.11416,0.82651 -2.33789,2.0039 l -2.22656,2.14063 0.2832,5.23242 0.2832,5.23242 h -5.843747 -5.84375 v -24.04687 z m -138.265625,9.79492 v 4.51172 4.50976 l 5.115234,-0.22265 c 5.916125,-0.25709 6.572743,-0.44453 7.515626,-2.15039 1.307726,-2.36596 0.593611,-5.25268 -1.521485,-6.1543 -0.637893,-0.2719 -3.39843,-0.49414 -6.134765,-0.49414 z m 76.09961,1.84375 c 0.685195,-0.0174 1.386567,-0.0108 2.105468,0.0195 8.863616,0.37372 14.57636,4.41999 17.066406,12.08984 0.824504,2.53961 0.951386,3.81757 0.748047,7.57618 -0.135004,2.4976 -0.593995,5.41843 -1.02539,6.52539 -1.875421,4.81217 -6.507833,9.09131 -11.302735,10.4414 -1.181246,0.3326 -3.520228,0.70939 -5.199218,0.83789 -13.266229,1.01523 -22.1854644,-8.47413 -20.4277348,-21.73437 1.3132278,-9.90695 7.7572038,-15.49547 18.0351568,-15.75586 z m 41.699218,0.16797 c 4.858999,-0.006 6.044259,0.13646 7.9375,0.95508 4.130306,1.78586 7.79133,5.69007 8.984375,9.58203 0.4272,1.39363 0.68346,1.27244 -5.023437,2.37695 -2.094236,0.40531 -4.163201,0.82657 -4.597656,0.9375 -0.562545,0.14366 -0.942877,-0.23307 -1.322266,-1.30859 -0.811011,-2.29905 -2.488705,-3.52033 -5.13086,-3.73633 -4.307413,-0.35212 -6.839282,1.99231 -7.738281,7.16015 -0.79782,4.58618 0.49386,8.89626 3.339844,11.13672 2.937335,2.3124 8.581905,1.04108 9.712891,-2.1875 0.254702,-0.72716 0.504861,-1.38727 0.55664,-1.46679 0.05189,-0.0795 2.471416,0.20943 5.375,0.64257 6.056731,0.9035 6.098282,0.95323 4.138672,4.89063 -2.176479,4.37312 -6.580092,7.31083 -12.251953,8.17187 -1.665373,0.25282 -3.564287,0.43699 -4.21875,0.41016 -5.18555,-0.2122 -10.73914,-2.37624 -13.414063,-5.22656 -5.121296,-5.45707 -6.501296,-15.97686 -3.027343,-23.07617 1.546431,-3.16024 5.042398,-6.54618 8.291015,-8.03125 2.46429,-1.12655 3.132823,-1.22443 8.388672,-1.23047 z m -62.6464841,0.45508 c 4.1869081,0.006 3.8266281,0.41799 2.4375,5.55468 -0.7381229,2.72943 -1.4458027,5.05944 -1.5722657,5.17774 -0.1264591,0.11832 -1.4899482,-0.0287 -3.0292968,-0.32618 -4.83318046,-0.93396 -8.43817,0.39864 -10.3496094,3.82618 -0.9248013,1.65812 -0.9890927,2.46611 -0.9492188,11.68945 l 0.041016,9.9082 h -5.7539062 -5.753907 V 145.78714 128.1973 h 5.591797 5.5937505 v 2.05664 2.05468 l 1.9550782,-1.65234 c 2.9503218,-2.49373 4.78598525,-3.07996 9.7050781,-3.09961 0.7940031,-0.003 1.4858546,-0.0104 2.0839844,-0.01 z m 27.0917971,8.42578 c -0.56117,-0.0162 -0.621849,0.29986 0.3125,0.78906 1.473505,0.77149 3.050084,2.55955 3.667969,4.1582 0.656563,1.69872 1.582476,1.56309 1.11914,-0.16406 -0.454802,-1.69533 -2.029026,-3.57117 -3.658203,-4.35938 -0.588207,-0.28458 -1.104704,-0.41413 -1.441406,-0.42382 z m -4.96875,0.68554 c -1.739339,0 -1.33226,0.58683 1.041015,1.5 2.467593,0.94946 5.139411,3.87637 6.00586,6.58203 0.625066,1.95189 1.349609,2.26583 1.349609,0.58399 0,-1.20062 -1.311843,-3.80295 -2.720703,-5.39649 -1.302009,-1.47268 -4.42184,-3.26953 -5.675781,-3.26953 z m -3.4375,3.09375 c -1.751689,-0.0573 -3.408103,0.16221 -4.138672,0.68555 -0.835438,0.59846 -0.604504,0.6364 2.408203,0.39258 5.658384,-0.45791 8.513738,1.55655 9.84375,6.94726 0.642508,2.60421 1.583637,2.49736 1.134766,-0.1289 -0.47729,-2.79251 -2.473045,-5.83551 -4.539063,-6.92188 -1.109841,-0.58358 -2.957295,-0.91727 -4.708984,-0.97461 z m 0.0293,3.24024 c -0.751979,-0.0129 -1.55317,0.0781 -2.384766,0.28515 -2.24355,0.55871 -5.324219,2.83581 -5.324219,3.9336 0,0.93969 0.780366,0.66806 1.650391,-0.57422 1.107685,-1.58164 4.675339,-3.01268 6.65039,-2.66602 2.539722,0.44576 3.690577,2.00819 4.035157,5.47657 0.165018,1.66103 0.469747,3.27383 0.677734,3.58398 0.710755,1.05973 1.165665,0.11025 0.75,-1.56445 -0.22828,-0.91973 -0.419734,-2.39318 -0.425781,-3.27539 -0.02209,-3.12033 -2.370332,-5.14311 -5.628906,-5.19922 z m -73.867188,0.3457 v 5.12109 5.1211 h 5.011719 c 5.798551,0 7.886356,-0.60749 8.996094,-2.61524 0.8799,-1.5919 0.941592,-2.96238 0.21875,-4.90234 -0.828076,-2.2224 -2.437945,-2.72461 -8.730469,-2.72461 z m 73.351563,2.50781 c -0.564123,0.002 -1.255897,0.25096 -2.359375,0.74805 -1.120536,0.50478 -3.40625,4.13585 -3.40625,5.41211 0,1.33302 0.921951,0.65627 1.408203,-1.0332 0.967971,-3.36319 4.494639,-5.34404 5.714843,-3.21094 0.270996,0.47372 0.492188,2.24392 0.492188,3.93359 0,1.68967 0.141905,3.20587 0.316406,3.36914 0.631658,0.59096 0.775425,-0.19801 0.691406,-3.81445 -0.0768,-3.30599 -0.206823,-3.78292 -1.267578,-4.66797 -0.590366,-0.49255 -1.02572,-0.73784 -1.589843,-0.73633 z m -0.695313,3.4375 c -0.195195,-0.0197 -0.450342,0.16148 -0.697266,0.61133 -0.589556,1.07406 -1.127165,4.53111 -0.785156,5.04883 0.621075,0.94018 1.171875,0.31303 1.171875,-1.33398 0,-0.96372 0.205278,-2.25935 0.457031,-2.87891 0.335351,-0.82522 0.178842,-1.4144 -0.146484,-1.44727 z m 35.140625,21.43946 c 1.57954,0 2.17088,1.12849 1.177735,2.24804 -1.120706,1.26341 -3.007325,0.45477 -2.759766,-1.18359 0.128353,-0.84949 0.446056,-1.06445 1.582031,-1.06445 z m 43.794924,0 c 1.5731,0 2.16301,1.13075 1.17187,2.24804 -0.31544,0.35561 -0.84344,0.64649 -1.17187,0.64649 -0.88162,0 -1.76906,-1.17571 -1.58008,-2.09375 0.11455,-0.55654 0.5966,-0.80078 1.58008,-0.80078 z m -71.156252,0.22265 h 1.427734 1.429688 v 4.80078 c 0,5.6197 0.520816,6.77735 3.046875,6.77735 2.69269,0 3.138672,-0.9419 3.138672,-6.60352 v -4.97461 h 1.429687 1.427735 v 5.60157 c 0,5.59623 -0.0024,5.60168 -1.392578,6.90234 -1.258916,1.17782 -1.690939,1.30078 -4.556641,1.30078 -2.865702,0 -3.299679,-0.12296 -4.558594,-1.30078 -1.39031,-1.30066 -1.392578,-1.30611 -1.392578,-6.90234 z m 78.537102,0.95508 c 0.43987,0.0581 0.47266,0.46669 0.47266,1.49414 0,1.44311 0.10846,1.5586 1.46289,1.55859 1.13586,1e-5 1.42715,0.17412 1.30469,0.7793 -0.0953,0.47 -0.67592,0.83691 -1.46289,0.92188 -1.27079,0.13732 -1.30469,0.21191 -1.30469,3.0039 0,2.86276 0.001,2.86524 1.37695,2.86524 1.49915,0 2.41498,1.23417 1.375,1.85156 -0.93241,0.55352 -4.39262,0.44474 -5.03711,-0.1582 -0.34662,-0.32427 -0.57031,-1.90008 -0.57031,-4.00782 0,-3.17642 -0.0826,-3.4746 -0.95312,-3.4746 -0.63443,-1e-5 -0.95117,-0.2969 -0.95118,-0.89063 1e-5,-0.59371 0.31656,-0.89063 0.95118,-0.89063 0.73194,1e-5 0.95312,-0.29611 0.95312,-1.2832 0,-0.95508 0.2737,-1.35298 1.07031,-1.55273 0.63771,-0.15989 1.04858,-0.25164 1.3125,-0.2168 z m -13.914055,2.56641 c 1.365863,0.0595 2.488281,0.63204 2.488281,1.62109 0,0.93424 -0.198924,1.03093 -1.972656,0.95508 -2.431106,-0.10396 -2.915329,0.74318 -0.816406,1.42773 2.288617,0.74642 3.263672,1.77306 3.263671,3.42969 0,1.00834 -0.328212,1.67889 -1.05664,2.15625 -1.141191,0.74781 -5.400749,0.94273 -6.490234,0.29688 -0.405544,-0.24037 -0.526046,-0.73551 -0.324219,-1.33008 0.258784,-0.76279 0.569511,-0.89203 1.597656,-0.66602 1.369587,0.30112 1.336729,0.29782 2.585937,0.21875 1.448391,-0.0917 0.900542,-1.29706 -0.832031,-1.83203 -3.105222,-0.9588 -4.051119,-3.68659 -1.841797,-5.3125 0.800306,-0.58897 1.828782,-0.89782 2.800782,-0.95898 0.2025,-0.0127 0.402533,-0.0144 0.597656,-0.006 z m -43.621094,0.12109 c 0.594838,0.0392 1.008063,0.28588 1.625,0.82813 1.081928,0.95083 1.171875,1.34561 1.171875,5.18164 V 184.75 h -1.427734 -1.427735 v -3.54688 c 0,-3.89022 -0.586343,-4.74392 -2.736328,-3.98437 -0.988157,0.34908 -1.072265,0.65485 -1.072265,3.95508 V 184.75 h -1.427735 -1.427734 v -4.9082 -4.91016 l 1.785156,0.0625 c 0.981657,0.0344 2.595878,-0.087 3.587891,-0.27148 0.570075,-0.10604 0.992707,-0.15827 1.349609,-0.13477 z m 24.675781,0.0254 c 0.392265,-0.0118 0.799672,0.0182 1.21875,0.0918 1.99937,0.35092 3.551815,2.34522 3.554688,4.57031 l 0.002,1.42773 -3.355469,0.13086 c -3.16456,0.12343 -3.318345,0.17863 -2.710937,0.95313 0.689839,0.87958 2.330293,1.11838 4.003906,0.58398 0.810709,-0.25886 1.102367,-0.12277 1.359375,0.63477 0.207987,0.61325 0.09217,1.10429 -0.318359,1.34766 -0.890948,0.52817 -5.221627,0.47001 -6.238282,-0.084 -1.169272,-0.63717 -2.259765,-2.78067 -2.259765,-4.43945 0,-3.03615 1.99829,-5.134 4.74414,-5.2168 z m 11.886719,0.01 c 0.587216,-0.031 1.045263,0.0698 1.183594,0.27929 0.486123,0.73589 -0.603492,2.27735 -1.609375,2.27735 -2.178973,0 -2.402344,0.37777 -2.402344,4.05664 v 3.5134 h -1.427734 -1.427735 v -4.91602 -4.91601 l 1.783204,0.0293 c 0.981693,0.0157 2.455611,-0.0963 3.27539,-0.24805 0.21737,-0.0402 0.429261,-0.0658 0.625,-0.0762 z m -26.552734,0.32422 c 0.164982,0.002 0.356298,0.006 0.576172,0.006 1.445518,1e-5 1.629943,0.15978 2.18164,1.89258 0.331427,1.04088 0.872353,2.37753 1.201172,2.96875 0.572901,1.02998 0.64098,0.95072 1.652344,-1.89257 0.980409,-2.75634 1.155095,-2.96875 2.445312,-2.96876 0.763994,0 1.38968,0.1503 1.390625,0.33399 0.0011,0.18368 -0.878026,2.38808 -1.955078,4.89844 -1.713864,3.99455 -2.099873,4.56445 -3.089843,4.56445 -1.172448,0 -1.286605,-0.17415 -3.613282,-5.56641 -1.742636,-4.03891 -1.943939,-4.24702 -0.789062,-4.23632 z m -5.308594,0.006 h 1.427734 1.427735 v 4.89844 4.89844 H 58.708984 57.28125 v -4.89844 z m 43.787107,0 h 1.42773 1.42774 v 4.89844 4.89844 h -1.42774 -1.42773 v -4.89844 z m 14.77148,0 c 1.49231,0 1.65275,0.21861 3.89454,5.34376 0.45232,1.03406 0.56879,0.88357 1.6582,-2.11524 1.09674,-3.01893 1.26434,-3.22851 2.5625,-3.22852 0.7635,0 1.38672,0.17308 1.38672,0.38477 0,0.60862 -3.74691,9.78353 -4.73828,11.60156 -0.49274,0.90365 -1.45873,1.88261 -2.14649,2.17578 -1.52485,0.65 -3.89618,0.69642 -4.30078,0.084 -0.16365,-0.24711 -0.16364,-0.84782 0.002,-1.33594 0.22711,-0.66955 0.57582,-0.8247 1.41797,-0.62695 1.25401,0.29446 3.10352,-1.08891 3.10352,-2.32227 0,-0.39969 -0.96458,-2.71933 -2.14258,-5.15625 -1.178,-2.43691 -2.14258,-4.51484 -2.14258,-4.61719 0,-0.10233 0.65067,-0.18749 1.44531,-0.1875 z m -38.568353,1.78126 c -0.505133,0 -1.147671,0.40079 -1.427734,0.89062 -0.470665,0.82279 -0.362099,0.89063 1.427734,0.89062 1.789947,1e-5 1.898399,-0.0678 1.427735,-0.89062 -0.280177,-0.48983 -0.922601,-0.89062 -1.427735,-0.89062 z m 108.994133,55.21679 v 11.09961 c 0,10.19675 0.0669,11.1176 0.83204,11.30469 0.45811,0.11198 2.33163,0.22108 4.16406,0.24414 6.42123,0.0807 9.39156,-2.29124 9.67578,-7.72852 0.14041,-2.68781 0.009,-3.33467 -0.95703,-4.67773 -1.63623,-2.27492 -3.84997,-3.20125 -7.17188,-3.00195 l -2.73632,0.16406 v -3.70117 -3.70313 h -1.9043 z m -201.806633,0.30078 c -0.799506,0.36406 -1.590701,0.74728 -2.384765,1.12305 0.794894,0.034 1.589885,0.0678 2.384765,0.10156 z m 132.767573,0.0664 c -0.81327,0.0387 -1.56478,0.41889 -1.89062,1.2207 -0.49693,1.22281 -0.003,2.60682 1.07617,3.01367 0.33022,0.1245 0.868,0.24245 1.19531,0.26172 0.71033,0.042 2.5,-1.54746 2.5,-2.2207 0,-1.4564 -1.52541,-2.33984 -2.88086,-2.27539 z m -68.513666,0.0781 c -0.680618,0 -1.494515,0.24126 -1.808594,0.53516 -0.800806,0.74932 -0.709963,2.38825 0.177734,3.21875 0.11474,0.10733 0.225443,0.20006 0.333985,0.28125 0.313565,0.005 1.656319,0.0228 2.066406,0.0293 0.178606,-0.0935 0.345944,-0.1692 0.552734,-0.30469 1.967282,-1.28917 1.098295,-3.75977 -1.322265,-3.75977 z m 131.365226,0 c -0.6806,0 -1.49451,0.24126 -1.80859,0.53516 -0.85595,0.80094 -0.69507,2.91612 0.26172,3.4375 1.14947,0.62638 1.64537,0.58904 2.86914,-0.21289 1.96728,-1.28917 1.0983,-3.75977 -1.32227,-3.75977 z m -175.6288982,0.89063 0.00391,1.20898 c 1.2994953,0.0819 2.5985517,0.16579 3.8984375,0.23829 0.1269192,0.007 0.2539392,0.0125 0.3808594,0.0195 v -1.4668 h -2.140625 z m 14.7539062,0 v 2.01562 c 1.443347,0.0739 2.886632,0.15478 4.330078,0.22657 l 0.04492,-2.24219 h -2.1875 z m 143.740232,0 v 10.6875 10.6875 h 6.1875 6.1875 v -1.55859 -1.5586 h -4.04688 -4.04492 v -9.1289 -9.12891 h -2.14062 z m -33.79297,1.43164 -1.87891,0.44531 c -1.77222,0.42082 -1.88775,0.55174 -2.02343,2.29102 -0.13437,1.72242 -0.24676,1.85406 -1.69141,1.98437 -1.35186,0.12193 -1.54687,0.29996 -1.54687,1.41797 0,1.118 0.1952,1.298 1.54687,1.41992 l 1.54688,0.13868 0.13671,5.10937 c 0.11959,4.50643 0.25606,5.2285 1.1543,6.12305 0.81543,0.81209 1.52909,1.01367 3.58399,1.01367 3.56118,0 4.49396,-0.52573 3.87695,-2.18164 -0.44428,-1.19244 -0.57601,-1.24904 -1.83985,-0.80274 -2.38506,0.84228 -2.86523,-0.0106 -2.86523,-5.08593 v -4.39844 h 1.91602 c 1.61831,0 1.98674,-0.1776 2.3789,-1.14258 0.25516,-0.62822 0.46485,-1.22943 0.46485,-1.33594 0,-0.1065 -1.07197,-0.19336 -2.38086,-0.19336 h -2.37891 v -2.40234 z m -213.705075,1.92383 v 0.76953 c 0.147647,-0.25002 0.294367,-0.49991 0.441407,-0.75 -0.136904,0.01 -0.286545,-5e-4 -0.441407,-0.0195 z m 13.460938,1.55664 c -0.511826,0.0758 -1.024056,0.1481 -1.537109,0.21484 -0.663053,0.0863 -1.328613,0.15426 -1.992188,0.23633 0.30891,0.0866 0.33257,0.0982 0.576172,0.16797 0.991597,-0.006 1.983117,0.008 2.974609,0.008 0.0047,-0.20989 -9.67e-4,-0.41867 -0.02148,-0.62695 z m 313.585937,0.87695 c -1.11897,0 -2.31277,0.34893 -3.04883,0.89063 -1.44816,1.06577 -1.77539,1.10667 -1.77539,0.22265 0,-0.4824 -0.52735,-0.66797 -1.90235,-0.66797 h -1.90429 v 7.57032 7.57031 h 2.14062 2.14258 v -5.55664 c 0,-5.44184 0.0244,-5.57128 1.19531,-6.28906 0.75621,-0.46337 1.69418,-0.63919 2.55274,-0.47852 1.12048,0.20965 1.45181,0.0596 1.89844,-0.85742 0.95021,-1.95116 0.705,-2.4043 -1.29883,-2.4043 z m -29.18946,0.0137 c -1.03608,-0.0356 -2.44756,0.28105 -3.48828,0.88282 -1.33107,0.76965 -1.58686,0.80108 -1.82422,0.22265 -0.17442,-0.42519 -0.89589,-0.67383 -1.95703,-0.67383 h -1.68164 v 7.57032 7.57031 h 1.9043 1.90234 v -5.31055 c 0,-5.26354 0.0116,-5.3209 1.3086,-6.27539 0.94514,-0.69555 1.72791,-0.89935 2.81445,-0.73437 1.31048,0.19896 1.57683,0.0633 2.06836,-1.04688 0.3103,-0.70101 0.42354,-1.4864 0.25195,-1.74609 -0.19081,-0.28886 -0.67717,-0.43761 -1.29883,-0.45899 z m -105.36914,0.0293 c -0.74971,-0.014 -1.55061,0.008 -2.22265,0.0684 -0.0608,0.005 -0.0978,0.0158 -0.15625,0.0215 0.12674,1.92629 -0.26462,1.65037 -3.42188,1.41016 -0.069,0.0681 -0.13139,0.11239 -0.20312,0.1875 -2.602962,2.72554 -1.25885,5.59924 3.44726,7.36914 2.69885,1.015 3.38756,1.98093 2.29297,3.21484 -0.61236,0.69033 -3.42678,0.66039 -5.91601,-0.0645 -0.75602,-0.22012 -1.11348,-0.012 -1.56446,0.91406 -0.664659,1.36479 -0.680255,1.33032 0.89649,1.94922 0.64486,0.25312 2.8541,0.4105 4.9082,0.34961 3.42773,-0.1016 3.82711,-0.21165 4.87695,-1.35351 1.51994,-1.65323 1.55408,-4.27888 0.0742,-5.83008 -0.589,-0.61739 -2.1355,-1.50435 -3.43554,-1.9707 -2.93409,-1.05253 -3.74118,-2.07335 -2.39454,-3.02539 0.91919,-0.64986 2.52417,-0.61672 5.35352,0.10937 0.96544,0.24777 1.07031,0.11735 1.07031,-1.31641 0,-1.4697 -0.12717,-1.61217 -1.6914,-1.88672 -0.46547,-0.0817 -1.16435,-0.13245 -1.91407,-0.14648 z m 115.56446,0.19531 c -2.02284,0.008 -4.26481,0.25413 -4.98243,0.54493 -1.19416,0.48389 -1.25718,0.62608 -0.74218,1.68359 0.42954,0.88186 0.79488,1.0893 1.54297,0.875 3.78943,-1.08558 6.02156,-0.61524 6.66015,1.40234 0.27644,0.87347 0.0812,0.98344 -2.21289,1.24805 -4.44567,0.5128 -5.08509,0.72745 -6.36133,2.14648 -1.06605,1.18517 -1.21769,1.69568 -1.01172,3.4043 0.17424,1.44604 0.59689,2.29389 1.50586,3.02539 1.51329,1.21782 5.68189,1.4287 7.1875,0.36328 1.18897,-0.84118 1.63672,-0.84473 1.63672,-0.0137 0,0.46914 0.5065,0.66797 1.70118,0.66797 h 1.70117 l -0.1543,-6.44727 c -0.1522,-6.36906 -0.1691,-6.4633 -1.47266,-7.68164 -1.21799,-1.13836 -1.60365,-1.23311 -4.99804,-1.21875 z m -108.15039,0.20703 v 7.57032 7.57031 h 2.14062 2.14258 v -7.57031 -7.57032 h -2.14258 z m 20.02343,0 0.88282,1.89258 c 0.48536,1.04088 2.0965,4.3891 3.58007,7.43946 2.85317,5.86637 2.9444,6.54582 1.16016,8.66796 -1.26943,1.50985 -2.64662,2.01816 -4.2793,1.58008 -1.121,-0.3008 -1.29858,-0.18207 -1.73632,1.15235 -0.40944,1.24799 -0.36229,1.51667 0.29296,1.67968 2.0518,0.51048 5.15279,0.24338 6.57227,-0.5664 2.1357,-1.21834 3.47438,-3.61027 6.98437,-12.49414 1.69338,-4.28598 3.22843,-8.14367 3.41211,-8.57227 0.28782,-0.67148 0.0443,-0.7793 -1.76171,-0.7793 h -2.09571 l -1.85937,5.34375 c -1.02248,2.93833 -2.00968,5.1909 -2.19336,5.00782 -0.18361,-0.18306 -1.35119,-2.58653 -2.59375,-5.3418 l -2.25781,-5.00977 h -2.05469 z m 42.80274,0 v 7.57032 7.57031 h 1.90429 1.9043 v -7.57031 -7.57032 h -1.9043 z m 80.05078,0 -2.04102,5.41797 c -1.12301,2.9796 -2.11468,5.23408 -2.20312,5.00977 -0.0884,-0.22432 -1.17941,-2.6126 -2.42578,-5.30664 l -2.26563,-4.89844 -2.0039,-0.13672 c -1.10121,-0.0753 -2.00196,-0.0153 -2.00196,0.13281 0,0.14814 1.6003,3.58695 3.55469,7.64258 l 3.55273,7.375 -0.90039,1.65039 c -1.2523,2.29655 -2.05691,2.79713 -4.25781,2.64844 -2.17134,-0.14668 -2.18283,-0.13955 -2.5957,1.47266 -0.23259,0.90824 -0.10762,1.24513 0.52734,1.41797 0.45827,0.12472 1.96362,0.17356 3.34375,0.10742 2.7247,-0.13056 4.70111,-1.41593 6.13672,-3.98828 0.803,-1.43886 7.29688,-17.61794 7.29688,-18.17969 0,-0.20081 -0.83525,-0.36524 -1.85743,-0.36524 z m -166.558591,0.92188 c -1.149399,0.0441 -2.298251,0.0981 -3.447266,0.14844 v 6.5 l -0.002,7.57031 h 1.904297 1.904297 v -5.31055 c 0,-5.26354 0.01161,-5.3209 1.308593,-6.27539 0.948019,-0.69754 1.72643,-0.89879 2.822266,-0.73242 1.349065,0.20482 1.567739,0.0823 2.017578,-1.125 0.09431,-0.25245 0.160676,-0.50197 0.212891,-0.74023 -1.590679,-0.004 -3.673959,-0.0183 -5.621094,-0.0293 -0.393851,0.1704 -0.609879,0.1644 -0.753906,-0.004 -0.116223,-5.9e-4 -0.23161,-0.001 -0.345703,-0.002 z m -8.892578,0.43555 c -1.229245,0.0802 -2.458107,0.15404 -3.689454,0.18164 -2.1222,0.0476 -4.294515,0.0777 -6.46875,0.10547 -0.318611,0.37202 -0.600981,0.78496 -0.845703,1.23437 0.485627,0.0153 0.878753,0.15077 1.039063,0.58008 0.452993,1.21312 0.353796,2.04191 -0.04883,2.61523 -0.0669,0.28427 -0.163236,0.58936 -0.326172,0.9375 -0.265618,0.56754 -0.940727,0.39465 -1.671875,0.13086 -0.03167,0.006 -0.06396,0.008 -0.0957,0.0137 -0.03912,1.4738 0.233227,2.97407 0.876953,4.30079 0.527584,1.08737 1.579191,2.26269 2.488281,2.78125 2.6688,1.5223 10.378906,1.04516 10.378906,-0.64258 0,-0.28125 -0.284718,-0.87513 -0.632812,-1.32031 -0.516699,-0.66112 -0.81646,-0.71835 -1.634766,-0.3086 -0.551093,0.27592 -1.86043,0.50195 -2.910156,0.50195 -2.105575,0 -4.037954,-1.27075 -4.572266,-3.00585 -0.306708,-0.99625 -0.277853,-1.00196 4.958985,-1.00196 h 5.267578 v -1.79492 c 0,-2.02795 -0.767563,-3.9235 -2.113281,-5.30859 z m -63.570313,0.28125 c -4e-6,0.0108 -0.0019,0.0185 -0.002,0.0293 1.336526,0.0221 2.892686,0.0465 4.216797,0.0684 v -0.082 c -1.404939,-0.006 -2.809911,-0.009 -4.214844,-0.0156 z m 8.568359,0.0312 v 0.13867 c 4.284298,0.0709 8.208756,0.13617 13.419922,0.22265 0.219761,0.007 0.849996,0.0288 1.103516,0.0371 l -0.0078,-0.3457 c -4.838587,-0.0109 -9.677099,-0.0322 -14.515625,-0.0527 z m 40.681641,0.0176 c -1.315204,0.0107 -2.631826,0.0191 -3.953125,0.0254 l -0.417969,1.13085 c 1.405736,0.0609 2.667686,0.12143 3.800781,0.18165 0.134354,-0.31292 0.496162,-1.16831 0.570313,-1.3379 z m -10.648437,0.041 c -1.338888,0.001 -2.651921,0.004 -3.982422,0.004 l 0.316406,0.72656 c 1.388526,0.048 2.608237,0.0973 3.99414,0.14844 z m -7.1875,0.006 c -1.262158,-5e-4 -2.56306,0.002 -3.808594,0.002 v 0.48047 c 1.255844,0.0404 2.350946,0.0769 3.808594,0.125 z m 27.203124,0.49219 c 1.100372,0 3.257813,1.90405 3.257813,2.875 0,0.55578 -0.646595,0.6875 -3.363281,0.6875 -3.263244,0 -3.354719,-0.03 -3.052735,-1.00196 0.398778,-1.28302 1.974116,-2.56054 3.158203,-2.56054 z m 115.779295,0.51367 c 0.95319,0.0435 1.44418,0.30635 2.12109,0.98047 2.33741,2.32777 1.61608,6.63746 -1.34961,8.07226 -0.76788,0.37152 -1.78083,0.67153 -2.25195,0.66797 -1.88141,-0.015 -2.0878,-0.56228 -1.94531,-5.15039 l 0.13672,-4.41601 2.1582,-0.13086 c 0.44477,-0.0272 0.81313,-0.0379 1.13086,-0.0234 z m -268.150388,0.93945 c -0.661441,0.0328 -1.322795,0.0678 -1.984375,0.0996 -4.109005,0.0386 -4.87135,0.0677 -8.019532,0.01 v 0.61328 1.05469 c 4.704283,0.12611 9.408457,0.2476 14.113282,0.35742 -0.509383,-0.68572 -1.204156,-1.28656 -2.078125,-1.74414 -0.306998,-0.16076 -0.491083,-0.26821 -0.558594,-0.38868 -0.49087,-4.9e-4 -0.98174,-8.8e-4 -1.472656,-0.002 z m 20.25,1.67969 c -0.02977,0.11266 -0.0624,0.22458 -0.08398,0.33984 0.282064,0.0301 0.562641,0.0664 0.845704,0.0918 1.105672,0.0992 2.217603,0.0947 3.328124,0.11133 0.03022,-0.16382 0.05715,-0.33075 0.09766,-0.48438 -1.395915,-0.0184 -2.79169,-0.0339 -4.1875,-0.0586 z m 278.404298,2.65625 c 2.12292,0 2.14257,0.0128 2.14257,1.5332 0,1.07966 -0.31372,1.73845 -1.05859,2.22657 -1.53921,1.00865 -3.51133,0.87503 -4.38867,-0.29688 -0.95358,-1.27361 -0.9349,-1.50021 0.21094,-2.57227 0.66988,-0.6267 1.58655,-0.89062 3.09375,-0.89062 z m -216.0117201,0.0703 c 0.2618245,0.0253 0.5233301,0.0274 0.7851562,0.0449 -7.016e-4,-0.007 -0.00126,-0.0166 -0.00195,-0.0234 -0.2064102,-0.005 -0.4918595,-0.014 -0.7832031,-0.0215 z m -92.6464849,2.11914 v 4.93555 l 4.164063,-0.002 c 5.144859,-0.003 7.535107,-0.59502 9.21875,-2.28125 0.763406,-0.76459 1.262631,-1.62884 1.527344,-2.51758 -0.06186,10e-4 -0.123689,0.003 -0.185547,0.004 -1.411647,0.0247 -2.82417,0.0582 -4.236328,0.084 -0.274878,0.46046 -0.679361,0.84429 -1.21875,1.07422 -0.673032,0.28689 -2.176119,0.52148 -3.341797,0.52148 h -2.119141 v -1.63867 c -1.380892,-0.0519 -2.576512,-0.11743 -3.808594,-0.17969 z m 21.09961,0.0176 c -0.845773,0.0184 -1.691438,0.0326 -2.53711,0.0488 v 4.86914 h 2.140626 2.142578 v -1.66602 c -0.413219,-0.0818 -0.824169,-0.17813 -1.230469,-0.30273 -0.893286,-0.27391 -1.005395,-1.94956 -0.515625,-2.94922 z m 127.853516,1.00977 c -1.772494,0.25916 -3.726334,0.11433 -5.476563,0.043 -0.189052,0.19599 -0.383774,0.38286 -0.578125,0.57031 0.277588,0.46012 0.556025,0.91989 0.876953,1.33008 -0.363411,-0.41408 -0.585608,-0.65696 -0.775391,-0.79493 0.174327,0.40264 0.706789,1.62988 0.761719,1.75782 0.32383,0.75444 0.814626,1.00072 1.988281,0.99804 l 1.558594,-0.004 z m -13.78125,1.91015 c -1.040107,0.0447 -2.080003,0.10203 -3.119141,0.16602 -0.230306,0.0142 -0.459552,0.0446 -0.689453,0.0664 v 1.76563 h 1.904297 1.904297 z m -95.564454,0.39649 c -0.148727,0.0825 -0.29634,0.159 -0.445312,0.24218 -0.731588,0.40851 -1.430426,0.87252 -2.164063,1.27735 -0.026,0.0143 -0.05212,0.0286 -0.07813,0.043 0.477654,0.007 1.041183,-0.0131 1.740235,-0.0488 2.486994,-0.12726 3.2163,-0.31607 4.326172,-1.22656 -0.826732,-0.0914 -1.653217,-0.18195 -2.480469,-0.27149 -0.319958,-0.006 -0.614267,-0.0105 -0.898438,-0.0156 z m 87.507813,0.10937 c -1.21931,0.0341 -2.504199,0.0655 -3.841797,0.0957 v 0.0996 c 0.534533,0.0176 1.069055,0.0356 1.603516,0.0547 1.122091,0.0402 1.87203,0.42774 2.263672,0.9336 z m -73.462891,1.10352 c 0.825766,0.27556 1.773513,0.38867 3.273438,0.38867 0.81782,0 1.510829,-0.0419 2.144531,-0.10547 -1.832492,-0.0899 -3.643625,-0.18305 -5.417969,-0.2832 z" />
        <path
           style="fill:#ffffff;fill-rule:evenodd;stroke-width:0.714286"
           d="m -141.55506,149.9283 c -7.48555,-2.45446 -11.44689,-7.39148 -12.5395,-15.62797 -0.99423,-7.49491 2.40701,-14.78926 8.58391,-18.40916 3.02599,-1.77335 3.71642,-1.88404 10.32288,-1.65491 6.67443,0.23149 7.23713,0.37211 9.82295,2.45472 3.05703,2.46211 6.1219,6.58257 5.74261,7.72043 -0.39816,1.19449 -9.35428,2.79226 -9.70774,1.73186 -1.31917,-3.95749 -7.49135,-5.48242 -11.00464,-2.71887 -4.08324,3.21188 -4.15286,12.8282 -0.12206,16.859 2.59561,2.5956 6.92258,2.36337 9.81261,-0.52666 2.11194,-2.11194 2.42646,-2.20141 6.18544,-1.75962 2.1782,0.256 4.23769,0.74279 4.57664,1.08175 1.63395,1.63395 -2.40663,7.15336 -6.9369,9.47576 -3.19547,1.63812 -11.55355,2.41725 -14.7362,1.37367 z"
           id="path2563"
           transform="matrix(0.26458333,0,0,0.26458333,48.694988,32.764519)" />
        <path
           style="fill:#ffffff;fill-rule:evenodd;stroke-width:0.714286"
           d="m -115.12187,125.55324 v -23.57142 h 5.41133 5.41133 l -0.17682,12.13926 c -0.0973,6.6766 0.002,12.3179 0.22014,12.53623 0.21833,0.21833 2.9253,-2.34895 6.015491,-5.70507 l 5.618533,-6.10203 7.142857,-0.004 7.142857,-0.004 -6.607143,6.12768 c -3.633928,3.37021 -6.607143,6.62505 -6.607143,7.23296 0,1.05005 3.543175,6.58488 10.534992,16.45683 l 3.161833,4.46428 h -6.744873 -6.744872 l -3.742911,-6.60714 c -2.058601,-3.63393 -4.03871,-6.91744 -4.400243,-7.2967 -0.414905,-0.43525 -1.505088,0.15819 -2.955978,1.60909 -2.21207,2.21206 -2.28996,2.48692 -2.06776,7.2967 l 0.2309,4.99805 h -5.42126 -5.42126 z"
           id="path2565"
           transform="matrix(0.26458333,0,0,0.26458333,48.694988,32.764519)" />
        <path
           style="fill:#ffffff;fill-rule:evenodd;stroke-width:0.714286"
           d="m -183.6933,149.45569 c -4.31527,-1.33992 -8.09095,-4.60383 -10.09075,-8.72301 -3.15884,-6.50653 -1.53993,-17.77068 3.19309,-22.21712 6.73563,-6.3278 20.85432,-6.18611 27.31454,0.27411 7.45468,7.45467 6.70582,21.63347 -1.47202,27.87101 -4.82997,3.684 -12.45762,4.80933 -18.94486,2.79501 z m 2.42358,-8.60372 c 0.65691,-1.71187 0.51861,-5.29873 -0.2043,-5.29873 -0.8697,0 -1.50499,1.83377 -1.50499,4.34414 0,2.24138 1.00099,2.8004 1.70929,0.95459 z m 4.005,-2.7477 c 0,-5.34767 -2.11951,-7.33204 -5.75385,-5.38699 -1.35915,0.72739 -3.53187,4.20784 -3.53187,5.65764 0,1.41602 1.46428,0.74885 2.11545,-0.96388 0.70622,-1.85749 3.4934,-4.15013 4.37954,-3.60246 0.30134,0.18623 0.76813,2.1014 1.03732,4.25592 0.62994,5.04185 1.75341,5.06732 1.75341,0.0398 z m 3.23277,-3.7751 c -0.6408,-3.41579 -2.67413,-5.20505 -5.91135,-5.20183 -2.86461,0.003 -7.09785,2.15501 -7.7908,3.9608 -0.72337,1.88508 0.20433,1.88161 2.45139,-0.009 3.10555,-2.61314 6.06545,-3.04969 7.94358,-1.17156 0.82664,0.82664 1.50298,2.28562 1.50298,3.24219 0,0.95657 0.38344,2.64407 0.85209,3.75 l 0.85208,2.01079 0.27767,-2.0771 c 0.15272,-1.1424 0.0728,-3.16926 -0.17764,-4.50412 z m 3.63184,-0.34573 c -1.01735,-5.08672 -4.49336,-7.94538 -9.75487,-8.02236 -1.90573,-0.0279 -3.86718,0.35109 -4.35878,0.84216 -0.71517,0.7144 -0.091,0.89286 3.1228,0.89286 3.27907,0 4.42018,0.33957 6.21429,1.84921 1.20871,1.01707 2.19766,2.12114 2.19766,2.4535 0,1.44645 1.4641,4.26872 2.21446,4.26872 0.54284,0 0.66639,-0.77434 0.36444,-2.28409 z m 1.18511,-5.77167 c -1.51628,-2.59622 -5.45484,-5.51567 -7.44107,-5.51567 -2.03208,0 -1.5717,1.15222 0.8634,2.16087 2.10336,0.87124 5.6708,4.74426 5.6708,6.15655 0,0.37542 0.40179,1.08845 0.89286,1.5845 1.52331,1.53877 1.53392,-1.78381 0.014,-4.38625 z m 2.33385,-2.60742 c -1.1823,-2.28631 -4.25597,-4.27395 -5.18011,-3.34981 -0.27763,0.27763 0.33631,1.21377 1.36431,2.08031 1.02799,0.86655 2.25057,2.33326 2.71683,3.25937 0.56086,1.11402 1.08763,1.44393 1.55664,0.97493 0.46901,-0.46901 0.31413,-1.4723 -0.45767,-2.9648 z"
           id="path2567"
           transform="matrix(0.26458333,0,0,0.26458333,48.694988,32.764519)" />
        <path
           style="fill:#ffffff;fill-rule:evenodd;stroke-width:0.714286"
           d="m -222.97901,131.98182 v -17.14286 h 5 5 v 2.14286 c 0,2.59708 0.2818,2.63376 2.95479,0.38459 2.46212,-2.07174 6.21137,-3.23222 10.46049,-3.23775 3.81717,-0.005 4.20211,0.85525 2.69797,6.02928 l -1.15316,3.96673 h -5.05061 c -4.72899,0 -5.18257,0.14127 -7.1229,2.2184 l -2.07229,2.2184 v 10.2816 10.2816 h -5.35715 -5.35714 z"
           id="path2569"
           transform="matrix(0.26458333,0,0,0.26458333,48.694988,32.764519)" />
        <path
           style="fill:#ffffff;fill-rule:evenodd;stroke-width:0.714286"
           d="m -265.12187,125.68287 v -23.90132 l 13.39286,0.36124 c 14.46504,0.39016 16.9357,0.93248 20.15719,4.42461 1.44409,1.56541 1.81569,2.82156 2.04731,6.92066 l 0.28298,5.0081 -3.23025,3.09512 -3.23025,3.09513 2.55552,1.68342 c 3.67031,2.41778 5.31975,5.01403 5.70006,8.97202 0.44668,4.6487 -1.11476,8.16076 -4.82228,10.84647 -3.53996,2.56434 -5.19005,2.81266 -20.88885,3.14363 l -11.96429,0.25224 z m 22.23929,14.14121 c 2.97119,-0.82529 4.56363,-3.60204 3.80323,-6.63172 -0.71303,-2.84094 -1.63535,-3.23898 -8.74971,-3.77605 l -6.57852,-0.49661 v 5.81677 5.81677 l 4.46428,-0.004 c 2.45536,-0.002 5.63268,-0.32852 7.06072,-0.72517 z m 1.74687,-21.0145 c 1.428,-1.95293 1.25932,-4.43943 -0.41473,-6.11348 -1.19047,-1.19047 -2.38095,-1.42857 -7.14286,-1.42857 h -5.71428 v 4.71615 4.71616 l 6.12902,-0.25187 c 5.06274,-0.20805 6.3054,-0.49308 7.14285,-1.63839 z"
           id="path2571"
           transform="matrix(0.26458333,0,0,0.26458333,48.694988,32.764519)" />
        <path
           style="fill:#ffffff;fill-rule:evenodd;stroke-width:0.126269"
           d="m -170.14854,170.95918 c -0.99432,-0.24718 -2.71007,-1.80585 -2.99496,-2.72078 -0.10517,-0.33775 -0.17271,-2.1138 -0.21441,-5.63851 l -0.0609,-5.14547 h 1.40264 1.40263 l 9.6e-4,3.5671 c 0.002,6.98578 0.38464,7.9572 3.1313,7.94683 2.83345,-0.0107 3.17111,-0.86849 3.17793,-8.0731 l 0.003,-3.44083 h 1.40903 1.40903 l -0.0885,5.00625 c -0.0487,2.75344 -0.14849,5.28581 -0.22176,5.62749 -0.10519,0.49048 -0.28828,0.78699 -0.86981,1.40865 -0.40512,0.43307 -1.03882,0.95398 -1.40824,1.15758 l -0.67166,0.37018 -2.46225,0.0272 c -1.35423,0.015 -2.67916,-0.0267 -2.94428,-0.0926 z"
           id="path2573"
           transform="matrix(0.26458333,0,0,0.26458333,48.694988,32.764519)" />
        <path
           style="fill:#ffffff;fill-rule:evenodd;stroke-width:0.126269"
           d="m -159.1232,166.26169 -1.7e-4,-4.82979 1.4238,0.0417 c 0.78309,0.0229 1.9622,-0.0242 2.62025,-0.10469 0.65805,-0.0805 1.62261,-0.17536 2.14347,-0.21075 0.90257,-0.0613 0.97487,-0.0457 1.5405,0.33339 0.77594,0.51999 1.3145,1.14454 1.49715,1.7362 0.0905,0.29324 0.17187,1.89963 0.21119,4.17033 l 0.0639,3.69337 h -1.3909 -1.3909 l -0.0567,-3.06202 c -0.0782,-4.22124 -0.28134,-4.73288 -1.83253,-4.61596 -0.89579,0.0675 -1.58316,0.38466 -1.80756,0.83397 -0.12554,0.25138 -0.18288,1.19673 -0.21789,3.59258 l -0.0475,3.25143 h -1.37797 -1.37797 z"
           id="path2575"
           transform="matrix(0.26458333,0,0,0.26458333,48.694988,32.764519)" />
        <path
           style="fill:#ffffff;fill-rule:evenodd;stroke-width:0.126269"
           d="m -147.63255,166.29326 v -4.79823 h 1.32582 1.32583 v 4.79823 4.79822 h -1.32583 -1.32582 z"
           id="path2577"
           transform="matrix(0.26458333,0,0,0.26458333,48.694988,32.764519)" />
        <path
           style="fill:#ffffff;fill-rule:evenodd;stroke-width:0.126269"
           d="m -146.74488,159.8245 c -0.17153,-0.0902 -0.44598,-0.36209 -0.60987,-0.60415 -0.23958,-0.35383 -0.28256,-0.53912 -0.21925,-0.94518 0.10103,-0.64804 0.4064,-0.94873 1.05134,-1.03523 1.0876,-0.14588 2.04683,0.33939 2.04683,1.03547 0,1.06216 -1.39028,2.0113 -2.26905,1.54909 z"
           id="path2579"
           transform="matrix(0.26458333,0,0,0.26458333,48.694988,32.764519)" />
        <path
           style="fill:#ffffff;fill-rule:evenodd;stroke-width:0.126269"
           d="m -138.98077,170.78964 c -0.16601,-0.16601 -0.58065,-0.86207 -0.92142,-1.5468 -0.95254,-1.91396 -3.06639,-6.91343 -3.09556,-7.32127 l -0.026,-0.3634 1.10958,-0.0366 c 1.06899,-0.0352 1.12232,-0.0237 1.45765,0.31568 0.2228,0.22546 0.52265,0.85211 0.83315,1.74118 0.60234,1.72475 1.40148,3.34613 1.64922,3.34613 0.24607,0 0.52723,-0.58447 1.33048,-2.76581 0.42062,-1.14228 0.80772,-1.97594 1.04069,-2.24128 0.35252,-0.40151 0.41365,-0.42248 1.23141,-0.42248 0.97747,0 1.25994,0.075 1.25994,0.33468 0,0.36136 -2.02812,5.24001 -3.04757,7.33093 -0.75107,1.54049 -1.14641,1.93084 -1.95548,1.93084 -0.42663,0 -0.63789,-0.0736 -0.86611,-0.30184 z"
           id="path2581"
           transform="matrix(0.26458333,0,0,0.26458333,48.694988,32.764519)" />
        <path
           style="fill:#ffffff;fill-rule:evenodd;stroke-width:0.126269"
           d="m -128.90843,170.96615 c -1.03621,-0.14645 -1.59853,-0.4288 -2.11028,-1.05963 -1.04022,-1.28229 -1.5378,-2.94297 -1.32704,-4.42901 0.3924,-2.76678 2.44061,-4.50828 5.09563,-4.33257 1.25308,0.0829 2.0675,0.46759 2.90483,1.372 0.88128,0.95189 1.21744,1.81662 1.30355,3.35323 l 0.0647,1.15528 -1.05826,0.0722 c -0.58205,0.0397 -1.82535,0.10459 -2.7629,0.14417 -2.27585,0.0961 -2.52538,0.14488 -2.52538,0.49396 0,0.35316 0.54888,0.88237 1.19519,1.15235 0.62277,0.26015 2.13086,0.26106 3.08626,0.002 0.83746,-0.22721 1.08523,-0.12116 1.2865,0.55062 0.21493,0.71737 0.0691,1.12474 -0.4855,1.35648 -0.55627,0.23242 -3.47175,0.33803 -4.66734,0.16906 z m 2.4733,-6.0145 c 0.46925,-0.0939 0.52117,-0.42104 0.15494,-0.97653 -0.74262,-1.1264 -2.20801,-1.08838 -2.91776,0.0757 -0.32368,0.53088 -0.31691,0.70919 0.0323,0.84953 0.3299,0.13261 2.15279,0.16684 2.73057,0.0513 z"
           id="path2583"
           transform="matrix(0.26458333,0,0,0.26458333,48.694988,32.764519)" />
        <path
           style="fill:#ffffff;fill-rule:evenodd;stroke-width:0.126269"
           d="m -121.49485,166.23854 v -4.85294 h 1.73378 c 0.95357,0 2.31784,-0.0714 3.03169,-0.15863 1.62279,-0.19833 1.975,-0.10735 2.02433,0.5229 0.0419,0.53557 -0.32206,1.17027 -0.858,1.4962 -0.21118,0.12842 -0.74223,0.26695 -1.18012,0.30784 -1.8293,0.17083 -1.89793,0.32598 -1.95191,4.41241 l -0.0413,3.12516 h -1.37924 -1.37924 z"
           id="path2585"
           transform="matrix(0.26458333,0,0,0.26458333,48.694988,32.764519)" />
        <path
           style="fill:#ffffff;fill-rule:evenodd;stroke-width:0.126269"
           d="m -112.73508,170.95612 c -0.66018,-0.15947 -0.98427,-0.51207 -0.9689,-1.05415 0.0281,-0.99164 0.49236,-1.2701 1.6896,-1.01342 1.1371,0.24379 2.76075,0.23653 3.11834,-0.0139 0.15434,-0.10811 0.28063,-0.29583 0.28063,-0.41717 0,-0.38151 -0.78655,-1.0028 -1.70463,-1.3465 -1.90703,-0.71391 -2.8489,-1.66503 -2.94346,-2.97234 -0.0843,-1.16479 0.53787,-2.00531 1.9956,-2.69615 0.75559,-0.35808 0.92809,-0.38936 2.14741,-0.38936 1.13491,0 1.40273,0.0411 1.85987,0.28535 0.65242,0.34859 0.97176,0.90401 0.86056,1.49674 -0.0963,0.51338 -0.15809,0.53105 -2.03329,0.58168 -1.07463,0.029 -1.47462,0.089 -1.7362,0.2604 -0.18694,0.12249 -0.3399,0.27822 -0.3399,0.34606 0,0.27628 0.52475,0.6102 1.65177,1.05109 2.13805,0.83642 2.92108,1.69808 2.91743,3.2104 -0.005,2.00705 -1.06263,2.66167 -4.44293,2.74955 -1.00699,0.0262 -2.06535,-0.009 -2.3519,-0.0782 z"
           id="path2587"
           transform="matrix(0.26458333,0,0,0.26458333,48.694988,32.764519)" />
        <path
           style="fill:#ffffff;fill-rule:evenodd;stroke-width:0.126269"
           d="m -103.81719,166.29326 v -4.79823 h 1.32583 1.32583 v 4.79823 4.79822 h -1.32583 -1.32583 z"
           id="path2589"
           transform="matrix(0.26458333,0,0,0.26458333,48.694988,32.764519)" />
        <path
           style="fill:#ffffff;fill-rule:evenodd;stroke-width:0.126269"
           d="m -102.92047,159.70484 c -0.49616,-0.33906 -0.89672,-1.01912 -0.89672,-1.5224 0,-1.24894 2.63715,-1.31279 3.07855,-0.0745 0.22412,0.62871 -0.56671,1.6541 -1.40432,1.82084 -0.24192,0.0482 -0.47955,-0.0203 -0.77751,-0.2239 z"
           id="path2591"
           transform="matrix(0.26458333,0,0,0.26458333,48.694988,32.764519)" />
        <path
           style="fill:#ffffff;fill-rule:evenodd;stroke-width:0.126269"
           d="m -95.786923,170.91794 c -0.409991,-0.092 -0.816034,-0.26387 -0.902318,-0.38187 -0.281913,-0.38554 -0.449058,-1.73533 -0.543347,-4.38783 -0.102204,-2.87516 -0.141222,-3.01171 -0.860555,-3.01171 -0.481929,0 -1.052087,-0.46067 -1.052087,-0.85005 0,-0.36605 0.367002,-0.79145 0.682798,-0.79145 0.159319,0 0.468955,-0.0625 0.688081,-0.13888 0.425296,-0.14826 0.462897,-0.23784 0.575299,-1.37058 0.08821,-0.88895 0.422303,-1.23536 1.415728,-1.46796 1.200165,-0.281 1.305296,-0.16716 1.308326,1.41664 0.0025,1.28163 0.151052,1.43401 1.487798,1.52563 1.122963,0.077 1.368512,0.21758 1.244294,0.7125 -0.104849,0.41775 -0.597066,0.70646 -1.437682,0.84327 -1.220282,0.19861 -1.229552,0.22188 -1.229552,3.0872 0,2.01665 0.03377,2.48661 0.189404,2.63583 0.104172,0.0999 0.622106,0.23763 1.150965,0.30612 1.060029,0.13727 1.590545,0.40556 1.70519,0.86234 0.107179,0.42703 -0.0063,0.63516 -0.482114,0.88447 -0.54867,0.28747 -2.888173,0.36247 -3.940228,0.12633 z"
           id="path2593"
           transform="matrix(0.26458333,0,0,0.26458333,48.694988,32.764519)" />
      </g>
    </g>
  </g>
</svg>
