<?xml version="1.0" encoding="UTF-8" standalone="no"?>
<svg
   xmlns:dc="http://purl.org/dc/elements/1.1/"
   xmlns:cc="http://creativecommons.org/ns#"
   xmlns:rdf="http://www.w3.org/1999/02/22-rdf-syntax-ns#"
   xmlns:svg="http://www.w3.org/2000/svg"
   xmlns="http://www.w3.org/2000/svg"
   xmlns:sodipodi="http://sodipodi.sourceforge.net/DTD/sodipodi-0.dtd"
   xmlns:inkscape="http://www.inkscape.org/namespaces/inkscape"
   width="172.73624mm"
   height="59.469959mm"
   viewBox="0 0 172.73624 59.469959"
   version="1.1"
   id="svg771"
   sodipodi:docname="lesson-ribbon.svg"
   inkscape:version="1.0.1 (3bc2e813f5, 2020-09-07)">
  <defs
     id="defs765">
    <rect
       x="60.135644"
       y="45.703089"
       width="56.66114"
       height="30.735996"
       id="rect77" />
    <inkscape:path-effect
       effect="bspline"
       id="path-effect64"
       is_visible="true"
       lpeversion="1"
       weight="33.333333"
       steps="2"
       helper_size="0"
       apply_no_weight="true"
       apply_with_weight="true"
       only_selected="false" />
    <inkscape:path-effect
       effect="bspline"
       id="path-effect38"
       is_visible="true"
       lpeversion="1"
       weight="33.333333"
       steps="2"
       helper_size="0"
       apply_no_weight="true"
       apply_with_weight="true"
       only_selected="false" />
    <rect
       x="36.478031"
       y="71.967692"
       width="64.888197"
       height="2.9996382"
       id="rect32" />
    <inkscape:path-effect
       effect="bspline"
       id="path-effect825"
       is_visible="true"
       lpeversion="1"
       weight="33.333333"
       steps="2"
       helper_size="0"
       apply_no_weight="true"
       apply_with_weight="true"
       only_selected="false" />
    <rect
       x="289.76999"
       y="-55.46748"
       width="82.853554"
       height="15.768902"
       id="rect789" />
    <rect
       x="289.76999"
       y="-55.46748"
       width="82.853554"
       height="15.768902"
       id="rect789-7" />
    <rect
       x="289.76999"
       y="-55.46748"
       width="82.853554"
       height="15.768902"
       id="rect802" />
  </defs>
  <sodipodi:namedview
     id="base"
     pagecolor="#ffffff"
     bordercolor="#666666"
     borderopacity="1.0"
     inkscape:pageopacity="0.0"
     inkscape:pageshadow="2"
     inkscape:zoom="0.7"
     inkscape:cx="520.49887"
     inkscape:cy="70.112814"
     inkscape:document-units="mm"
     inkscape:current-layer="layer2"
     inkscape:document-rotation="0"
     showgrid="false"
     fit-margin-top="0"
     fit-margin-left="0"
     fit-margin-right="0"
     fit-margin-bottom="0"
     inkscape:pagecheckerboard="true"
     showborder="false"
     inkscape:window-width="1920"
     inkscape:window-height="1017"
     inkscape:window-x="-8"
     inkscape:window-y="89"
     inkscape:window-maximized="1" />
  <metadata
     id="metadata768">
    <rdf:RDF>
      <cc:Work
         rdf:about="">
        <dc:format>image/svg+xml</dc:format>
        <dc:type
           rdf:resource="http://purl.org/dc/dcmitype/StillImage" />
        <dc:title />
      </cc:Work>
    </rdf:RDF>
  </metadata>
  <g
     inkscape:label="Layer 1"
     inkscape:groupmode="layer"
     id="layer1"
     transform="translate(-247.00688,63.752836)">
    <path
       d="m 366.62184,-22.218101 c 13.19318,4.025196 25.2857,9.97303 36.54566,17.935223 -0.85655,-6.2865 -2.11984,-12.43189 -3.78354,-18.55611 6.70877,-1.919113 13.44577,-3.312586 20.35916,-4.25803 -13.89098,-9.863666 -28.91755,-17.254361 -45.22576,-22.19325 -2.63173,9.024056 -5.26345,18.048111 -7.89552,27.072167"
       style="fill:#c3171f;fill-opacity:1;fill-rule:nonzero;stroke:none;stroke-width:0.0352777"
       id="path230" />
    <path
       d="m 391.90754,-21.628961 c -7.36777,-3.70064 -14.91016,-6.71689 -22.80003,-9.11225 -0.82832,2.843387 -1.657,5.68325 -2.48567,8.52311 8.48783,-0.64911 16.83455,-0.433917 25.2857,0.58914"
       style="fill:#a30814;fill-opacity:1;fill-rule:nonzero;stroke:none;stroke-width:0.0352777"
       id="path232" />
    <path
       d="m 300.12816,-22.218101 c -13.19318,4.025196 -25.2857,9.97303 -36.54601,17.935223 0.74436,-6.448777 1.91276,-12.756443 3.49708,-19.053527 -6.62552,-1.739196 -13.26868,-2.970389 -20.07235,-3.760613 13.89133,-9.863666 28.9179,-17.254361 45.22541,-22.19325 2.63207,9.024056 5.26415,18.048111 7.89587,27.072167"
       style="fill:#c3171f;fill-opacity:1;fill-rule:nonzero;stroke:none;stroke-width:0.0352777"
       id="path234" />
    <path
       d="m 274.84281,-21.628961 c 7.36706,-3.70064 14.90945,-6.71689 22.79968,-9.11225 0.82867,2.843387 1.65735,5.68325 2.48567,8.52311 -8.48854,-0.64911 -16.83491,-0.433917 -25.28535,0.58914"
       style="fill:#a30814;fill-opacity:1;fill-rule:nonzero;stroke:none;stroke-width:0.0352777"
       id="path236" />
    <path
       d="m 391.94211,-21.611321 c -37.12069,-18.616086 -79.97226,-18.623141 -117.0993,-0.01764 -4.31165,-8.35378 -8.62295,-16.707557 -12.93424,-25.061335 45.17849,-22.757695 97.80341,-22.75064 142.97484,0.0247 -4.31377,8.35025 -8.62753,16.704027 -12.9413,25.05428"
       style="fill:#e81c2c;fill-opacity:1;fill-rule:nonzero;stroke:none;stroke-width:0.0352777"
       id="path238" />
  </g>
  <g
     inkscape:groupmode="layer"
     id="layer2"
     inkscape:label="Layer 2">
    <g
       aria-label="LESSON"
       id="text75"
       style="font-style:normal;font-weight:normal;font-size:10.5833px;line-height:1.25;font-family:sans-serif;white-space:pre;fill:#000000;fill-opacity:1;stroke:none"
       transform="matrix(1.1898189,0.03524271,-0.03381966,1.202303,-7.8582332,-9.4214518)">
      <path
         d="m 58.649603,16.541305 1.970362,-0.27555 0.86029,6.151624 3.459649,-0.483824 0.208273,1.489287 -5.43001,0.759374 z"
         style="font-weight:bold;fill:#ffffff"
         id="path84" />
      <path
         d="m 65.455684,15.589918 5.329046,-0.655134 0.183488,1.492542 -3.354375,0.412376 0.175291,1.425866 3.154343,-0.387785 0.183488,1.492543 -3.154343,0.387785 0.215646,1.754122 3.467213,-0.426247 0.183488,1.492543 -5.441884,0.669006 z"
         style="font-weight:bold;fill:#ffffff"
         id="path86" />
      <path
         d="m 78.270606,14.470314 0.142719,1.626722 q -0.658026,-0.22758 -1.272971,-0.318877 -0.614944,-0.0913 -1.150321,-0.04433 -0.710404,0.06233 -1.032999,0.287754 -0.322596,0.225427 -0.286465,0.637255 0.0271,0.308872 0.268961,0.464026 0.246557,0.149555 0.859695,0.220261 l 0.859152,0.09581 q 1.304398,0.144933 1.89099,0.622591 0.586592,0.477658 0.671502,1.445454 0.111556,1.27152 -0.590529,1.960802 -0.697389,0.683682 -2.246893,0.819627 -0.730995,0.06413 -1.479332,-0.01027 -0.748338,-0.07441 -1.508418,-0.282658 l -0.146784,-1.673052 q 0.770468,0.326652 1.472746,0.467349 0.706975,0.135098 1.345309,0.07909 0.648629,-0.05691 0.974566,-0.303377 0.325937,-0.24647 0.290709,-0.648002 -0.03162,-0.36035 -0.285579,-0.535193 -0.248816,-0.175294 -0.962473,-0.268306 l -0.781934,-0.10258 q -1.174798,-0.145928 -1.757598,-0.639482 -0.577651,-0.494005 -0.658044,-1.410323 -0.100717,-1.147971 0.586377,-1.83075 0.687093,-0.682779 2.077013,-0.804723 0.633186,-0.05555 1.310988,-0.01646 0.67735,0.03395 1.409613,0.161639 z"
         style="font-weight:bold;fill:#ffffff"
         id="path88" />
      <path
         d="m 85.821912,14.144784 0.05301,1.63211 q -0.644509,-0.263438 -1.253499,-0.38843 -0.608991,-0.124991 -1.146141,-0.107546 -0.712756,0.02315 -1.047266,0.230485 -0.33451,0.207337 -0.32109,0.620529 0.01006,0.309895 0.243023,0.478121 0.237956,0.162893 0.846276,0.267225 l 0.852579,0.142933 q 1.294448,0.216478 1.853872,0.725685 0.559425,0.509208 0.59096,1.48021 0.04143,1.275731 -0.697513,1.925342 -0.733947,0.644279 -2.288583,0.694768 -0.733416,0.02382 -1.476526,-0.09165 -0.743111,-0.115466 -1.490582,-0.365219 l -0.05452,-1.678594 q 0.751329,0.368546 1.444803,0.547668 0.698471,0.173789 1.338919,0.152989 0.650778,-0.02114 0.989782,-0.249299 0.339003,-0.228165 0.325919,-0.631027 -0.01174,-0.361544 -0.255701,-0.550094 -0.238795,-0.188718 -0.946254,-0.320852 l -0.775106,-0.145449 q -1.16499,-0.210342 -1.719753,-0.735212 -0.549597,-0.525037 -0.579455,-1.44439 -0.03741,-1.151774 0.686211,-1.795717 0.723618,-0.643943 2.118142,-0.689232 0.635283,-0.02063 1.309907,0.0557 0.674457,0.07116 1.398585,0.238947 z"
         style="font-weight:bold;fill:#ffffff"
         id="path90" />
      <path
         d="m 91.895635,15.504948 q -0.908581,-0.04091 -1.439554,0.607648 -0.530973,0.648563 -0.585834,1.866888 -0.05463,1.213163 0.415902,1.906823 0.470532,0.693661 1.379114,0.734575 0.913744,0.04115 1.444717,-0.607416 0.530972,-0.648563 0.585602,-1.861726 0.05486,-1.218325 -0.415671,-1.911985 -0.470532,-0.693661 -1.384276,-0.734807 z m 0.06486,-1.440309 q 1.858462,0.08369 2.863703,1.194564 1.005241,1.110876 0.920857,2.984826 -0.08415,1.868787 -1.185169,2.884818 -1.101016,1.01603 -2.959479,0.932343 -1.8533,-0.08346 -2.863703,-1.194563 -1.005241,-1.110877 -0.921089,-2.979664 0.08438,-1.873949 1.185401,-2.88998 1.106179,-1.015798 2.959479,-0.932344 z"
         style="font-weight:bold;fill:#ffffff"
         id="path92" />
      <path
         d="m 98.150895,14.42256 2.208625,0.244122 2.20769,5.567894 0.58135,-5.259618 1.87477,0.20722 -0.84762,7.668565 -2.20863,-0.244123 -2.207682,-5.567894 -0.581352,5.259619 -1.874766,-0.20722 z"
         style="font-weight:bold;fill:#ffffff"
         id="path94" />
    </g>
  </g>
</svg>
