<?xml version="1.0" encoding="UTF-8" standalone="no"?>
<svg
   xmlns:dc="http://purl.org/dc/elements/1.1/"
   xmlns:cc="http://creativecommons.org/ns#"
   xmlns:rdf="http://www.w3.org/1999/02/22-rdf-syntax-ns#"
   xmlns:svg="http://www.w3.org/2000/svg"
   xmlns="http://www.w3.org/2000/svg"
   xmlns:sodipodi="http://sodipodi.sourceforge.net/DTD/sodipodi-0.dtd"
   xmlns:inkscape="http://www.inkscape.org/namespaces/inkscape"
   width="84.991714mm"
   height="140.18286mm"
   viewBox="0 0 84.991715 140.18286"
   version="1.1"
   id="svg2806"
   inkscape:version="1.0.1 (3bc2e813f5, 2020-09-07)"
   sodipodi:docname="prof-waving.svg">
  <defs
     id="defs2800">
    <inkscape:path-effect
       effect="bspline"
       id="path-effect3002"
       is_visible="true"
       lpeversion="1"
       weight="33.333333"
       steps="2"
       helper_size="0"
       apply_no_weight="true"
       apply_with_weight="true"
       only_selected="false" />
    <clipPath
       clipPathUnits="userSpaceOnUse"
       id="clipPath1831">
      <path
         d="m 1264.51,4039.72 c 0,0 24.01,58.76 98.19,3.56 0,0 -40.32,-51.04 -98.19,-3.56"
         id="path1829" />
    </clipPath>
    <clipPath
       clipPathUnits="userSpaceOnUse"
       id="clipPath1845">
      <path
         d="m 1207.94,4047.96 c 0,0 -15.67,63.61 -65.3,27.85 0,0 17.86,-60.72 65.3,-27.85"
         id="path1843" />
    </clipPath>
  </defs>
  <sodipodi:namedview
     id="base"
     pagecolor="#ffffff"
     bordercolor="#666666"
     borderopacity="1.0"
     inkscape:pageopacity="0.0"
     inkscape:pageshadow="2"
     inkscape:zoom="0.7"
     inkscape:cx="206.34932"
     inkscape:cy="168.02222"
     inkscape:document-units="mm"
     inkscape:current-layer="layer10"
     inkscape:document-rotation="0"
     showgrid="false"
     fit-margin-top="0"
     fit-margin-left="0"
     fit-margin-right="0"
     fit-margin-bottom="0"
     inkscape:pagecheckerboard="true"
     showborder="false"
     inkscape:window-width="1920"
     inkscape:window-height="1017"
     inkscape:window-x="-8"
     inkscape:window-y="89"
     inkscape:window-maximized="1" />
  <metadata
     id="metadata2803">
    <rdf:RDF>
      <cc:Work
         rdf:about="">
        <dc:format>image/svg+xml</dc:format>
        <dc:type
           rdf:resource="http://purl.org/dc/dcmitype/StillImage" />
        <dc:title></dc:title>
      </cc:Work>
    </rdf:RDF>
  </metadata>
  <g
     inkscape:groupmode="layer"
     id="layer9"
     inkscape:label="Layer 3">
    <ellipse
       style="opacity:1;fill:#dde9af;fill-opacity:1;fill-rule:evenodd;stroke:none;stroke-width:0.264583"
       id="path3830"
       cx="43.364479"
       cy="134.83748"
       rx="41.627228"
       ry="5.3453903" />
  </g>
  <g
     inkscape:groupmode="layer"
     id="layer10"
     inkscape:label="Layer 4">
    <ellipse
       style="opacity:1;fill:#cdde87;fill-opacity:1;fill-rule:evenodd;stroke:none;stroke-width:0.264583"
       id="path3833"
       cx="44.032654"
       cy="133.96886"
       rx="27.32831"
       ry="3.6749561" />
  </g>
  <g
     inkscape:label="Layer 1"
     inkscape:groupmode="layer"
     id="layer1"
     transform="translate(-212.09196,-24.81267)">
    <path
       d="m 247.14077,150.86048 c 0,0 1.33527,-0.0502 1.27177,2.49054 -0.0635,2.54109 0,6.28869 0,6.28869 h -1.27177 v -4.39004 l -3.80964,4.39004 h -13.08506 c 0,0 0.69882,-2.41378 6.86015,-2.35053 l 10.03455,-6.4287"
       style="fill:#1f0c07;fill-opacity:1;fill-rule:nonzero;stroke:none;stroke-width:0.0352777"
       id="path1791" />
    <path
       d="m 247.14077,150.86048 v -3.26496 l -5.09234,-1.94733 0.762,5.2119 -6.25885,6.48518 h 2.87959 c 1.34796,0 2.64301,-0.49956 3.63996,-1.40656 1.3462,-1.22523 3.15736,-3.1097 4.06964,-5.07823"
       style="fill:#e9b089;fill-opacity:1;fill-rule:nonzero;stroke:none;stroke-width:0.0352777"
       id="path1793" />
    <path
       d="m 239.35532,70.982065 c 0,0 -4.59341,11.122025 -2.07186,42.344625 2.52165,31.22295 3.27907,35.23646 3.27907,35.23646 l 8.30368,-0.13158 -1.92828,-77.449505 h -7.58261"
       style="fill:#294286;fill-opacity:1;fill-rule:nonzero;stroke:none;stroke-width:0.0352777"
       id="path1795" />
    <path
       d="m 266.9182,150.86048 c 0,0 -1.33491,-0.0502 -1.27141,2.49054 0.0635,2.54109 0,6.28869 0,6.28869 h 1.27141 v -4.39004 l 3.81,4.39004 h 13.08488 c 0,0 -0.69885,-2.41378 -6.86012,-2.35053 l -10.03476,-6.4287"
       style="fill:#1f0c07;fill-opacity:1;fill-rule:nonzero;stroke:none;stroke-width:0.0352777"
       id="path1797" />
    <path
       d="m 266.9182,150.86048 -3.27131,-6.95741 5.092,-1.94706 2.50966,8.90408 6.25898,6.48518 h -2.87973 c -1.34761,0 -2.64301,-0.49956 -3.6396,-1.40656 -1.3462,-1.22523 -3.15772,-3.1097 -4.07,-5.07823"
       style="fill:#e9b089;fill-opacity:1;fill-rule:nonzero;stroke:none;stroke-width:0.0352777"
       id="path1799" />
    <path
       d="m 252.27298,70.982065 c 0,0 2.43558,6.513338 6.74123,21.76145 4.67784,16.567155 13.80843,55.688055 13.80843,55.688055 l -8.87695,0.46563 -24.50747,-71.927085 2.34597,-5.98805 h 10.48879"
       style="fill:#294286;fill-opacity:1;fill-rule:nonzero;stroke:none;stroke-width:0.0352777"
       id="path1801" />
    <path
       d="m 247.76836,100.69195 -4.59528,-13.11557 c -0.0148,-0.04233 -0.0607,-0.06421 -0.10301,-0.04974 -0.042,0.01482 -0.0642,0.06103 -0.0494,0.10301 l 4.59528,13.11593 c 0.0148,0.042 0.0607,0.0642 0.10266,0.0494 0.0423,-0.0148 0.0642,-0.0607 0.0497,-0.10302"
       style="fill:#000000;fill-opacity:1;fill-rule:nonzero;stroke:none;stroke-width:0.0352777"
       id="path1803" />
    <path
       d="m 258.62051,29.434723 c 0,0 1.32715,2.875492 0.64418,6.907741 -0.69886,4.126089 3.84669,3.727097 3.30235,7.725128 0,0 -12.88662,3.828344 -24.79301,-3.932061 0,0 -0.814,-3.540478 1.67195,-4.387145 3.48192,-1.186391 4.36457,-4.790016 4.36457,-4.790016 l 14.80996,-1.523647"
       style="fill:#000000;fill-opacity:1;fill-rule:nonzero;stroke:none;stroke-width:0.0352777"
       id="path1805" />
    <path
       d="m 243.81055,30.95837 c -0.53446,3.927122 2.46063,7.577313 6.68937,8.152694 4.22875,0.575733 8.09026,-2.141361 8.62507,-6.068483 0.53445,-3.927122 -2.46063,-7.577313 -6.68938,-8.153047 -4.2291,-0.57538 -8.09025,2.141714 -8.62506,6.068836"
       style="fill:#000000;fill-opacity:1;fill-rule:nonzero;stroke:none;stroke-width:0.0352777"
       id="path1807" />
    <path
       d="m 252.19184,37.882692 -0.15875,11.772194 -5.6769,-0.753181 1.75296,-10.337799 4.08269,-0.681214"
       style="fill:#e9b089;fill-opacity:1;fill-rule:nonzero;stroke:none;stroke-width:0.0352777"
       id="path1809" />
    <path
       d="m 247.08927,44.582647 4.41219,-3.269191 -3.50308,-2.017889 z"
       style="fill:#d7896d;fill-opacity:1;fill-rule:nonzero;stroke:none;stroke-width:0.0352777"
       id="path1811" />
    <path
       d="m 246.07997,37.093528 c 0.0243,-0.729544 -0.0762,-1.461558 -0.3302,-2.165703 -0.34854,-0.965199 -0.95144,-1.926872 -2.09938,-1.561394 -1.9551,0.621947 -0.54257,3.859741 1.30986,4.355394 0.54504,0.145697 1.1042,-0.169333 1.11972,-0.628297"
       style="fill:#d7896d;fill-opacity:1;fill-rule:nonzero;stroke:none;stroke-width:0.0352777"
       id="path1813" />
    <path
       d="m 253.42374,26.659067 c -1.24848,-0.530577 -2.61373,-0.797983 -3.96663,-0.699911 -1.83303,0.132645 -4.26967,0.94227 -4.99886,4.161367 -1.21532,5.364691 -0.94368,8.92563 1.40229,10.757958 1.64465,1.284463 3.47839,1.41605 6.03603,0.357716 0.95144,-0.3937 2.36714,-2.10573 2.74743,-3.112911 l 1.09749,-2.80423 c 0,0 3.64808,-6.123516 -2.31775,-8.659989"
       style="fill:#e9b089;fill-opacity:1;fill-rule:nonzero;stroke:none;stroke-width:0.0352777"
       id="path1815" />
    <path
       d="m 246.92523,34.786362 -0.80787,1.137002 -0.0134,0.06103 0.0349,0.0515 0.61101,0.3937 c 0.037,0.02364 0.0861,0.01305 0.10972,-0.02364 0.0236,-0.03704 0.013,-0.08608 -0.0236,-0.109714 l -0.54116,-0.348897 0.75953,-1.069269 c 0.0254,-0.03563 0.0173,-0.08537 -0.0187,-0.11042 -0.0356,-0.0254 -0.085,-0.01693 -0.11042,0.0187"
       style="fill:#000000;fill-opacity:1;fill-rule:nonzero;stroke:none;stroke-width:0.0352777"
       id="path1817" />
    <path
       d="m 246.8522,29.976237 c 0,0 0.15028,0.563386 -0.70026,0.5588 -0.64594,-0.0035 -1.05516,-0.01376 -1.42699,0.05997 -0.21096,0.04198 -0.4385,-0.04657 -0.53869,-0.208139 -0.0811,-0.130881 -0.0635,-0.282928 0.0494,-0.38735 0.22895,-0.211667 0.69956,-0.524228 1.48519,-0.528461 1.00895,-0.0053 1.13136,0.505178 1.13136,0.505178"
       style="fill:#000000;fill-opacity:1;fill-rule:nonzero;stroke:none;stroke-width:0.0352777"
       id="path1819" />
    <path
       d="m 249.25532,30.127931 c 0,0 -0.35031,0.498475 0.80927,0.754239 0.88089,0.194028 1.91206,0.585964 2.3996,0.77082 0.27658,0.105127 0.60925,0.08925 0.78775,-0.03669 0.14394,-0.1016 0.15946,-0.254353 0.0325,-0.38982 -0.25717,-0.274461 -1.28869,-0.997303 -2.35796,-1.241425 -1.37266,-0.313619 -1.67111,0.142875 -1.67111,0.142875"
       style="fill:#000000;fill-opacity:1;fill-rule:nonzero;stroke:none;stroke-width:0.0352777"
       id="path1821" />
    <path
       d="m 251.91597,33.84127 c -0.23636,-0.218017 -0.51153,-0.392642 -0.80786,-0.519994 -0.29386,-0.124178 -0.61348,-0.22225 -0.92287,-0.24765 -0.31609,-0.01976 -0.63711,0.02187 -0.91051,0.15628 -0.26812,0.132292 -0.49319,0.379942 -0.57997,0.643114 l -0.004,0.01305 c -0.0226,0.06809 -0.096,0.105128 -0.16369,0.08255 -0.0681,-0.02258 -0.10478,-0.0956 -0.0825,-0.163689 l 0.002,-0.0049 c 0.13476,-0.361597 0.40852,-0.618419 0.73237,-0.771172 0.32667,-0.145344 0.68368,-0.174272 1.02235,-0.141111 0.34677,0.04092 0.66392,0.150989 0.9719,0.291747 0.3055,0.142523 0.58914,0.334786 0.83079,0.571853 l 7.9e-4,0.0889 -0.0882,0.0011"
       style="fill:#000000;fill-opacity:1;fill-rule:nonzero;stroke:none;stroke-width:0.0352777"
       id="path1835" />
    <path
       d="m 244.15663,32.613603 c 0.14463,-0.167216 0.33196,-0.307622 0.54997,-0.377119 0.10831,-0.03634 0.22331,-0.05115 0.33797,-0.05045 0.11571,0.0021 0.22542,0.01764 0.3429,0.06032 l -0.0102,-0.0035 c 0.14358,0.0448 0.28786,0.09631 0.41416,0.181681 0.1277,0.08043 0.24553,0.178505 0.34431,0.292452 0.10054,0.112889 0.18697,0.237067 0.25894,0.368653 0.0713,0.133703 0.12982,0.2667 0.17286,0.421217 0.0162,0.05786 -0.0177,0.11818 -0.0762,0.134408 -0.0582,0.01658 -0.11818,-0.01764 -0.13441,-0.07585 l -7.9e-4,-0.0025 -0.002,-0.0078 c -0.0628,-0.251882 -0.18911,-0.509762 -0.3602,-0.715784 -0.0843,-0.105481 -0.18592,-0.195439 -0.29634,-0.271639 -0.109,-0.07973 -0.2353,-0.12947 -0.36265,-0.174978 l -0.01,-0.0035 c -0.17392,-0.06914 -0.39088,-0.08149 -0.58103,-0.02716 -0.19332,0.05362 -0.36724,0.17145 -0.508,0.322086 l -0.0748,0.0032 -0.005,-0.07373"
       style="fill:#000000;fill-opacity:1;fill-rule:nonzero;stroke:none;stroke-width:0.0352777"
       id="path1849" />
    <path
       d="m 245.66052,37.140095 3.40924,0.254705 c 0,0 -0.41063,1.225903 -1.74978,1.064683 -1.33914,-0.160866 -1.65946,-1.319388 -1.65946,-1.319388"
       style="fill:#ffffff;fill-opacity:1;fill-rule:nonzero;stroke:none;stroke-width:0.0352777"
       id="path1851" />
    <path
       d="m 242.70988,34.641723 c -0.19296,-0.363361 -0.27799,-0.69215 -0.27799,-0.69215 l 1.34091,-1.518356 c 0.0236,0.279753 0.0649,0.556331 0.12242,0.82797 -0.002,0.01623 -0.004,0.03246 -0.006,0.04833 -0.0769,0.01305 -0.15628,0.03246 -0.23883,0.05891 -0.64417,0.204963 -0.92287,0.693913 -0.94051,1.275291"
       style="fill:#383838;fill-opacity:1;fill-rule:nonzero;stroke:none;stroke-width:0.0352777"
       id="path1861" />
    <path
       d="m 243.89522,33.259187 c -0.0575,-0.271639 -0.0988,-0.548217 -0.12242,-0.82797 l 0.29175,-0.3302 c -0.067,0.398286 -0.12347,0.783873 -0.16933,1.15817"
       style="fill:#383838;fill-opacity:1;fill-rule:nonzero;stroke:none;stroke-width:0.0352777"
       id="path1863" />
    <path
       d="m 243.74952,35.570939 c -0.49318,-0.100189 -0.83009,-0.535164 -1.03964,-0.929216 0.0177,-0.581378 0.29634,-1.070328 0.94051,-1.275292 0.0826,-0.02646 0.16192,-0.04586 0.23883,-0.05891 -0.0974,0.809978 -0.14499,1.564217 -0.1397,2.263422"
       style="fill:#e0a38d;fill-opacity:1;fill-rule:nonzero;stroke:none;stroke-width:0.0352777"
       id="path1865" />
    <path
       d="m 247.87349,33.755898 -0.12488,-0.02081 c -0.0254,0.1524 -0.0378,0.304447 -0.0378,0.454025 0,1.309511 0.94438,2.464505 2.27824,2.688519 0.1524,0.02575 0.30444,0.0381 0.45402,0.0381 1.30951,0 2.46451,-0.944386 2.68852,-2.278592 0.0257,-0.1524 0.0381,-0.304094 0.0381,-0.454025 0,-1.309511 -0.94474,-2.464505 -2.27859,-2.688519 -0.1524,-0.0254 -0.30409,-0.0381 -0.45402,-0.0381 -1.30951,0 -2.46451,0.944739 -2.68852,2.278592 l 0.12488,0.02081 0.12488,0.02081 c 0.2025,-1.210028 1.25166,-2.066925 2.43876,-2.066925 0.13581,0 0.27375,0.01129 0.41239,0.03457 1.21003,0.202494 2.06693,1.252008 2.06693,2.438752 0,0.13582 -0.0113,0.273756 -0.0346,0.412398 -0.2025,1.210027 -1.25166,2.066924 -2.43875,2.066924 -0.13582,0 -0.27341,-0.01129 -0.4124,-0.03457 -1.21003,-0.202494 -2.06693,-1.251656 -2.06693,-2.438752 0,-0.13582 0.0113,-0.273756 0.0346,-0.412398 l -0.12488,-0.02081"
       style="fill:#c0653e;fill-opacity:1;fill-rule:nonzero;stroke:none;stroke-width:0.0352777"
       id="path1875" />
    <path
       d="m 242.42837,32.830209 -0.12489,-0.02046 c -0.0289,0.17533 -0.0427,0.349603 -0.0427,0.5207 0,0.633236 0.19086,1.22308 0.52388,1.681691 0.33231,0.458258 0.80998,0.785636 1.37513,0.881591 0.11359,0.0194 0.22718,0.02893 0.33972,0.02893 1.15852,-0.0028 2.1844,-0.987072 2.40559,-2.329391 0.0293,-0.175683 0.043,-0.349955 0.043,-0.5207 0,-0.633236 -0.1912,-1.223433 -0.52387,-1.681691 -0.33267,-0.458259 -0.80998,-0.785284 -1.37513,-0.881592 -0.11395,-0.0194 -0.22719,-0.02893 -0.34008,-0.02893 -1.15817,0.0028 -2.18404,0.987072 -2.40559,2.329392 l 0.12489,0.02046 0.12523,0.02046 c 0.20461,-1.241778 1.14935,-2.119842 2.15547,-2.11702 0.0984,0 0.19791,0.0081 0.2974,0.02505 0.49388,0.08431 0.91298,0.369006 1.21285,0.78105 0.29915,0.411692 0.47589,0.950736 0.47554,1.53282 0,0.156986 -0.0127,0.3175 -0.0395,0.479425 -0.20461,1.24213 -1.14935,2.120193 -2.15583,2.117371 -0.0984,0 -0.19755,-0.0081 -0.29704,-0.02505 -0.49389,-0.08431 -0.91334,-0.369006 -1.21285,-0.78105 -0.2995,-0.411691 -0.47589,-0.950736 -0.47589,-1.532819 0,-0.157339 0.013,-0.317853 0.0399,-0.479778 l -0.12524,-0.02046"
       style="fill:#c0653e;fill-opacity:1;fill-rule:nonzero;stroke:none;stroke-width:0.0352777"
       id="path1877" />
    <path
       d="m 247.95216,33.656767 c -0.0113,-0.0074 -0.33796,-0.270227 -0.81174,-0.272344 -0.12594,0 -0.26212,0.0194 -0.40217,0.06879 l 0.084,0.23883 c 0.11148,-0.03916 0.21802,-0.05468 0.31821,-0.05468 0.18732,0 0.35313,0.05503 0.47166,0.110773 0.0593,0.02787 0.10619,0.05539 0.13794,0.07585 l 0.0353,0.02399 0.008,0.006 0.001,0.0011 0.15734,-0.198261"
       style="fill:#c0653e;fill-opacity:1;fill-rule:nonzero;stroke:none;stroke-width:0.0352777"
       id="path1879" />
    <path
       d="m 254.74737,36.102928 -1.69757,-1.368425 -0.15875,0.197203 1.69757,1.368425"
       style="fill:#c0653e;fill-opacity:1;fill-rule:nonzero;stroke:none;stroke-width:0.0352777"
       id="path1881" />
    <path
       d="m 254.59179,36.468053 c 0.007,-0.496711 -1.41146,-4.490508 0.67734,-9.293577 0,0 1.90746,-0.227542 2.14277,3.257902 0.37747,5.590469 -2.82011,6.035675 -2.82011,6.035675"
       style="fill:#000000;fill-opacity:1;fill-rule:nonzero;stroke:none;stroke-width:0.0352777"
       id="path1883" />
    <path
       d="m 253.5765,38.100708 c 0.26035,-0.722136 0.64488,-1.398411 1.16769,-1.986844 0.7172,-0.807508 1.68134,-1.512005 2.6603,-0.706967 1.66758,1.371248 -0.97579,3.983214 -2.97956,3.744736 -0.58949,-0.0702 -1.01248,-0.596194 -0.84843,-1.050925"
       style="fill:#e9b089;fill-opacity:1;fill-rule:nonzero;stroke:none;stroke-width:0.0352777"
       id="path1885" />
    <path
       d="m 256.74515,36.732636 c -0.26035,-0.130527 -0.51047,-0.184502 -0.74331,-0.184502 -0.51329,3.44e-4 -0.93345,0.259644 -1.22378,0.513291 -0.29104,0.254353 -0.45544,0.506589 -0.45826,0.51047 -0.024,0.03669 -0.0138,0.08573 0.0229,0.109713 0.0367,0.02399 0.0861,0.01376 0.11007,-0.02293 l 0.0275,-0.03951 c 0.13053,-0.18415 0.72284,-0.91687 1.52153,-0.912283 0.20814,0 0.43251,0.04763 0.67239,0.167569 0.0392,0.01976 0.0871,0.0035 0.10654,-0.03563 0.0198,-0.03916 0.004,-0.08678 -0.0356,-0.106186"
       style="fill:#000000;fill-opacity:1;fill-rule:nonzero;stroke:none;stroke-width:0.0352777"
       id="path1887" />
    <path
       d="m 255.83428,27.580876 c 0,0 -2.61797,2.543527 -12.03537,1.02623 0,0 1.88207,-3.575755 6.75675,-3.759905 4.87468,-0.18415 5.27862,2.733675 5.27862,2.733675"
       style="fill:#000000;fill-opacity:1;fill-rule:nonzero;stroke:none;stroke-width:0.0352777"
       id="path1889" />
    <path
       d="m 250.29425,48.101253 c 0,0 -2.41758,8.203141 -19.64965,20.839641 l -4.48511,-5.852583 15.05955,-16.340314 9.07521,1.353256"
       style="fill:#be5640;fill-opacity:1;fill-rule:nonzero;stroke:none;stroke-width:0.0352777"
       id="path1891" />
    <path
       d="m 217.04502,51.018372 3.17708,-1.636536 4.7075,6.83119 c -1.11509,0.741537 -2.58642,1.558218 -3.70939,2.295525 l -4.17519,-7.490179"
       style="fill:#e9b089;fill-opacity:1;fill-rule:nonzero;stroke:none;stroke-width:0.0352777"
       id="path1893" />
    <path
       d="m 220.74435,49.003305 0.20659,-0.738716 c 0.27753,-0.992717 0.31778,-2.036586 0.11769,-3.048 l -0.35222,-1.780117 c -0.0838,-0.42298 -0.52768,-0.669219 -0.93087,-0.516466 -0.34064,0.129116 -0.56843,0.452261 -0.57588,0.816327 l -0.0393,1.925814 -2.87168,-5.189008 c -0.14898,-0.288925 -0.51802,-0.381706 -0.78602,-0.197556 l -0.17957,0.123825 c -0.2118,0.145698 -0.2916,0.420159 -0.19057,0.65652 l 2.00435,3.993797 -2.93688,-4.268964 c -0.167,-0.277989 -0.53936,-0.347133 -0.79498,-0.147814 l -0.12651,0.09878 c -0.21498,0.167922 -0.27093,0.469547 -0.13063,0.703086 l 2.38357,3.920067 -2.46309,-2.578453 c -0.2304,-0.256469 -0.63913,-0.233892 -0.84021,0.04621 l -0.0405,0.05644 c -0.13779,0.191911 -0.13462,0.451556 0.008,0.640292 l 2.36802,2.860681 -1.55649,-1.190272 c -0.2788,-0.283986 -0.75848,-0.179564 -0.89341,0.195086 -0.0639,0.178153 -0.0302,0.376766 0.0893,0.523522 l 5.74365,6.499225 1.56933,-1.428045 c 0.5837,-0.53093 1.00608,-1.216025 1.21856,-1.976261"
       style="fill:#e9b089;fill-opacity:1;fill-rule:nonzero;stroke:none;stroke-width:0.0352777"
       id="path1895" />
    <path
       d="m 219.10658,45.584889 c -0.0108,0.0088 -1.10797,0.919691 -1.10878,2.7051 0,0.06456 0.002,0.130175 0.004,0.197202 0.002,0.05503 0.0492,0.09807 0.10446,0.0956 0.0551,-0.0025 0.098,-0.04939 0.0955,-0.104422 -0.003,-0.06421 -0.004,-0.127 -0.004,-0.188383 1.4e-4,-0.849842 0.26112,-1.487664 0.52158,-1.914878 0.13021,-0.213431 0.26031,-0.373592 0.35719,-0.479778 0.0485,-0.05327 0.0886,-0.09313 0.11617,-0.118886 l 0.0316,-0.02893 0.01,-0.0085 c 0.0426,-0.03528 0.0487,-0.09807 0.0134,-0.140759 -0.0351,-0.04269 -0.0983,-0.04868 -0.14083,-0.01341"
       style="fill:#000000;fill-opacity:1;fill-rule:nonzero;stroke:none;stroke-width:0.0352777"
       id="path1897" />
    <path
       d="m 232.32802,64.261296 -10.36891,-13.583707 -4.1293,3.45193 7.12184,13.020675 c 1.20784,2.095146 3.00994,3.157009 5.00451,2.215092 1.79542,-0.847725 3.20449,-3.300942 2.37186,-5.10399"
       style="fill:#be5640;fill-opacity:1;fill-rule:nonzero;stroke:none;stroke-width:0.0352777"
       id="path1899" />
    <path
       d="m 228.98284,60.011736 2.23132,2.580569 c 0.0292,0.03351 0.08,0.0374 0.11381,0.0081 0.0338,-0.02928 0.0374,-0.08008 0.008,-0.113948 l -2.23146,-2.580568 c -0.0291,-0.03352 -0.0801,-0.03739 -0.11384,-0.0081 -0.0336,0.02928 -0.0373,0.08008 -0.008,0.113948"
       style="fill:#000000;fill-opacity:1;fill-rule:nonzero;stroke:none;stroke-width:0.0352777"
       id="path1901" />
    <path
       d="m 241.37638,49.027647 7.06226,4.950179 -0.43497,24.404105 -9.72485,-1.641826 c 0,0 -4.60308,-20.731338 3.09756,-27.712458"
       style="fill:#ffffff;fill-opacity:1;fill-rule:nonzero;stroke:none;stroke-width:0.0352777"
       id="path1903" />
    <path
       d="m 237.51717,76.662494 9.6109,1.865842 -0.21943,-2.422525 -9.39147,-1.601613 v 2.158296"
       style="fill:#000000;fill-opacity:1;fill-rule:nonzero;stroke:none;stroke-width:0.0352777"
       id="path1905" />
    <path
       d="m 252.00029,53.416909 c 0,0 -11.65296,3.901721 -11.09098,-3.234268 l 5.48992,-4.216047 3.68053,2.080684 1.92053,1.602316 1.9244,3.215217 -1.9244,0.552098"
       style="fill:#e9b089;fill-opacity:1;fill-rule:nonzero;stroke:none;stroke-width:0.0352777"
       id="path1907" />
    <path
       d="m 246.84373,46.217772 c 0,0 -5.11598,3.972983 -7.89079,10.962216 -1.53102,3.856567 -0.59408,11.5824 -0.33926,16.739658 0.25453,5.15761 0.59418,15.010694 0.59418,15.010694 l -3.79825,-2.121959 c 0,0 -0.0839,-22.616935 0.467,-25.587322 0.55094,-2.970742 3.18037,-14.431081 6.98073,-15.668979 0,0 1.29435,-0.383822 3.54189,0.414514 l 0.4445,0.251178"
       style="fill:#be5640;fill-opacity:1;fill-rule:nonzero;stroke:none;stroke-width:0.0352777"
       id="path1909" />
    <path
       d="m 235.6943,65.09244 c 0,-2.65e-4 -0.007,-0.12206 -0.0139,-0.343604 -0.007,-0.221898 -0.0139,-0.542573 -0.0139,-0.93839 -0.002,-2.232025 0.22793,-6.85306 1.91862,-9.487604 0.0241,-0.03775 0.0131,-0.08749 -0.0244,-0.111479 -0.0375,-0.024 -0.0873,-0.01304 -0.11148,0.02434 -1.72516,2.699456 -1.94236,7.330016 -1.94412,9.574741 0,0.79516 0.0281,1.290109 0.0281,1.291167 0.003,0.0448 0.0407,0.07867 0.0852,0.0762 0.0445,-0.0024 0.0786,-0.04057 0.076,-0.08537"
       style="fill:#000000;fill-opacity:1;fill-rule:nonzero;stroke:none;stroke-width:0.0352777"
       id="path1911" />
    <path
       d="m 254.269,49.578686 c 0,0 -1.7212,-1.488017 -4.20017,0.425803 -2.47897,1.91382 -5.59788,8.717845 -5.59788,16.585492 0,7.86765 2.3375,22.858942 2.3375,22.858942 0,0 8.5337,3.283657 14.48753,-0.968727 L 252.31249,73.32839 256.66895,61.221059 254.269,49.578686"
       style="fill:#be5640;fill-opacity:1;fill-rule:nonzero;stroke:none;stroke-width:0.0352777"
       id="path1913" />
    <path
       d="m 253.59625,49.210033 c 0,0 6.30485,1.514122 17.7038,19.589045 l -6.15244,4.064 -11.90661,-13.471173 0.35525,-10.181872"
       style="fill:#be5640;fill-opacity:1;fill-rule:nonzero;stroke:none;stroke-width:0.0352777"
       id="path1915" />
    <path
       d="m 256.08334,62.485767 -2.78201,-3.147131 c -0.0293,-0.03351 -0.0804,-0.03669 -0.11395,-0.0071 -0.0332,0.02928 -0.0363,0.08043 -0.007,0.113948 l 2.78201,3.147131 c 0.0296,0.03351 0.0804,0.03669 0.11395,0.0071 0.0335,-0.02928 0.0367,-0.08043 0.007,-0.113946"
       style="fill:#000000;fill-opacity:1;fill-rule:nonzero;stroke:none;stroke-width:0.0352777"
       id="path1917" />
    <path
       d="m 245.90358,71.669981 4.10104,-0.928158 -0.13264,-0.912635 c -0.0483,-0.331965 0.12523,-0.660752 0.42368,-0.802217 0.30833,-0.14605 0.66993,-0.05539 0.87172,0.219075 l 2.7619,3.832577 2.09373,2.952398 c -2.40383,1.201209 -4.6542,1.005417 -5.29519,0.47484 -0.0931,0.0064 -3.19158,0.2413 -3.19158,0.2413 -0.30939,0.04974 -0.59796,-0.15734 -0.65864,-0.472371 -0.0437,-0.228246 0.009,-0.561269 0.66463,-0.709435 l -0.65581,0.148166 c -0.32738,0.05221 -0.63077,-0.171802 -0.68686,-0.506235 -0.0575,-0.298098 0.19332,-0.603605 0.59232,-0.740833 l -0.48825,0.06068 c -0.35666,0.05715 -0.68792,-0.206024 -0.71296,-0.588786 -0.0215,-0.330906 0.22295,-0.623713 0.53869,-0.694621 l 0.72425,-0.162277 -0.80468,-0.01341 c -0.381,0.03387 -0.7165,-0.262467 -0.72884,-0.670629 -0.0106,-0.349604 0.25082,-0.652288 0.58349,-0.727429"
       style="fill:#e9b089;fill-opacity:1;fill-rule:nonzero;stroke:none;stroke-width:0.0352777"
       id="path1919" />
    <path
       d="m 253.92928,73.078623 6.80825,-1.818568 1.1176,4.091868 -7.00475,1.164167 -0.9211,-3.437467"
       style="fill:#e9b089;fill-opacity:1;fill-rule:nonzero;stroke:none;stroke-width:0.0352777"
       id="path1921" />
    <path
       d="m 267.02121,67.445115 -11.93271,4.08164 2.52448,5.395383 11.50197,-2.569633 c 2.14983,-0.494594 3.3602,-2.7813 2.5601,-4.836936 -0.72001,-1.850673 -2.79717,-2.774598 -4.65384,-2.070454"
       style="fill:#be5640;fill-opacity:1;fill-rule:nonzero;stroke:none;stroke-width:0.0352777"
       id="path1923" />
    <path
       d="m 261.88124,69.28838 3.98498,-1.362782 c 0.042,-0.01447 0.0646,-0.06032 0.0501,-0.102658 -0.0145,-0.04198 -0.0603,-0.06456 -0.10231,-0.05009 l -3.98498,1.363134 c -0.0423,0.0141 -0.0646,0.05997 -0.0505,0.102306 0.0145,0.04233 0.0603,0.06456 0.10266,0.05009"
       style="fill:#000000;fill-opacity:1;fill-rule:nonzero;stroke:none;stroke-width:0.0352777"
       id="path1925" />
    <circle
       style="fill:#241c1c;fill-rule:evenodd;stroke-width:0.175291"
       id="path2965-6"
       cx="245.22478"
       cy="33.370117"
       r="0.34432164" />
    <circle
       style="fill:#241c1c;fill-rule:evenodd;stroke-width:0.175291"
       id="path2965-6-5"
       cx="249.74355"
       cy="34.000061"
       r="0.34432164" />
  </g>
  <g
     inkscape:groupmode="layer"
     id="layer8"
     inkscape:label="Layer 2"
     style="opacity:0.0954199">
    <path
       style="fill:#ffffff;fill-opacity:1;stroke:none;stroke-width:0.264583px;stroke-linecap:butt;stroke-linejoin:miter;stroke-opacity:1"
       d="m 36.490968,9.8393466 c 0.327548,-0.601911 0.982707,-1.8058426 1.324858,-2.4195356 0.342153,-0.6136927 0.304405,-0.5117425 0.474784,-0.5153279 0.170381,-0.00359 0.590398,0.037603 0.879368,0.1123955 0.288973,0.074793 0.48024,0.2331556 0.682909,0.386366 0.202666,0.1532102 0.349979,0.2927695 0.417426,0.3888689 0.06746,0.0961 0.08873,-0.026612 -0.283713,0.6618264 -0.372435,0.6884388 -1.113472,2.0460771 -1.489809,2.7300781 -0.376338,0.683999 -0.388026,0.694447 -0.491614,0.678417 -0.103592,-0.01601 -0.299375,-0.05859 -0.525892,-0.154566 -0.226518,-0.09597 -0.483771,-0.245449 -0.678308,-0.395252 -0.194538,-0.149803 -0.326291,-0.300025 -0.42211,-0.445253 -0.09582,-0.145228 -0.15559,-0.285501 -0.185546,-0.355801 -0.02996,-0.0703 -0.0299,-0.07031 0.297647,-0.6722164 z"
       id="path3000"
       sodipodi:nodetypes="ssssscsscsssss" />
  </g>
</svg>
