<?xml version="1.0" encoding="UTF-8" standalone="no"?>
<svg
   xmlns:dc="http://purl.org/dc/elements/1.1/"
   xmlns:cc="http://creativecommons.org/ns#"
   xmlns:rdf="http://www.w3.org/1999/02/22-rdf-syntax-ns#"
   xmlns:svg="http://www.w3.org/2000/svg"
   xmlns="http://www.w3.org/2000/svg"
   xmlns:sodipodi="http://sodipodi.sourceforge.net/DTD/sodipodi-0.dtd"
   xmlns:inkscape="http://www.inkscape.org/namespaces/inkscape"
   width="37.514133mm"
   height="71.248512mm"
   viewBox="0 0 37.514133 71.248512"
   version="1.1"
   id="svg2422"
   inkscape:version="1.0.1 (3bc2e813f5, 2020-09-07)"
   sodipodi:docname="student-coffee-male.svg">
  <defs
     id="defs2416" />
  <sodipodi:namedview
     id="base"
     pagecolor="#ffffff"
     bordercolor="#666666"
     borderopacity="1.0"
     inkscape:pageopacity="0.0"
     inkscape:pageshadow="2"
     inkscape:zoom="1.979899"
     inkscape:cx="194.55778"
     inkscape:cy="152.11256"
     inkscape:document-units="mm"
     inkscape:current-layer="layer3"
     inkscape:document-rotation="0"
     showgrid="false"
     fit-margin-top="0"
     fit-margin-left="0"
     fit-margin-right="0"
     fit-margin-bottom="0"
     inkscape:pagecheckerboard="true"
     showborder="false"
     inkscape:window-width="1920"
     inkscape:window-height="1017"
     inkscape:window-x="-8"
     inkscape:window-y="89"
     inkscape:window-maximized="1" />
  <metadata
     id="metadata2419">
    <rdf:RDF>
      <cc:Work
         rdf:about="">
        <dc:format>image/svg+xml</dc:format>
        <dc:type
           rdf:resource="http://purl.org/dc/dcmitype/StillImage" />
        <dc:title></dc:title>
      </cc:Work>
    </rdf:RDF>
  </metadata>
  <g
     inkscape:groupmode="layer"
     id="layer2"
     inkscape:label="Layer 2">
    <ellipse
       style="fill:#ac9393;fill-rule:evenodd;stroke-width:0.264583"
       id="path56"
       cx="22.158854"
       cy="69.216888"
       rx="15.355282"
       ry="2.0316219" />
  </g>
  <g
     inkscape:groupmode="layer"
     id="layer3"
     inkscape:label="Layer 3">
    <ellipse
       style="fill:#916f6f;fill-rule:evenodd;stroke-width:0.264583"
       id="path59"
       cx="22.903833"
       cy="69.807274"
       rx="8.2682295"
       ry="1.1811756" />
  </g>
  <g
     inkscape:label="Layer 1"
     inkscape:groupmode="layer"
     id="layer1"
     transform="translate(-199.4449,0.81865187)">
    <path
       d="m 221.08605,54.802908 3.21522,0.633236 1.09643,-2.799644 -3.37079,-0.707073 -0.94086,2.873481"
       style="fill:#ed808d;fill-opacity:1;fill-rule:nonzero;stroke:none;stroke-width:0.0352777"
       id="path476" />
    <path
       d="m 223.23235,57.034933 2.07539,-5.301191 5.62893,0.946856 -4.59705,11.742137 -1.0093,-6.909469 -2.09797,-0.478333"
       style="fill:#f8efcd;fill-opacity:1;fill-rule:nonzero;stroke:none;stroke-width:0.0352777"
       id="path478" />
    <path
       d="m 226.153,62.493465 3.87456,-9.896229 -0.20214,-0.07895 -3.87456,9.896086"
       style="fill:#45283d;fill-opacity:1;fill-rule:nonzero;stroke:none;stroke-width:0.0352777"
       id="path480" />
    <path
       d="m 225.39417,57.707681 -0.0198,-0.106928 c -0.006,0.0013 -0.60042,0.111479 -1.20403,0.415221 -0.30197,0.1524 -0.60677,0.353446 -0.84067,0.619829 -0.23353,0.265678 -0.3944,0.601768 -0.39405,1.004993 0,0.130635 0.0166,0.267758 0.0522,0.41134 0.0621,0.25259 0.15946,0.44182 0.28999,0.570793 0.13017,0.129823 0.29527,0.192654 0.46425,0.191948 0.41981,-0.0052 0.85549,-0.340784 1.20368,-0.826948 0.34607,-0.488526 0.59972,-1.141163 0.60007,-1.818886 0,-0.159842 -0.0141,-0.321344 -0.0452,-0.481893 l -0.0205,-0.106117 -0.10583,0.01971 0.0198,0.106928 -0.10654,0.0204 c 0.0279,0.146367 0.0413,0.293936 0.0413,0.440973 3.5e-4,0.622334 -0.23706,1.238321 -0.56021,1.693333 -0.32103,0.457518 -0.73342,0.740588 -1.02658,0.73519 -0.11854,-7.94e-4 -0.21872,-0.03845 -0.31186,-0.129117 -0.0924,-0.09095 -0.17603,-0.241972 -0.23177,-0.4681 -0.0314,-0.128024 -0.0455,-0.24737 -0.0455,-0.359553 3.4e-4,-0.344911 0.13299,-0.624663 0.34007,-0.861836 0.3101,-0.354824 0.79164,-0.601099 1.19592,-0.752792 0.20214,-0.07623 0.38418,-0.1294 0.51541,-0.163301 0.066,-0.01696 0.11853,-0.02921 0.15487,-0.03708 0.0363,-0.0081 0.0547,-0.0113 0.0547,-0.01156 l -0.0198,-0.106537 -0.10654,0.0204 0.10654,-0.0204"
       style="fill:#45283d;fill-opacity:1;fill-rule:nonzero;stroke:none;stroke-width:0.0352777"
       id="path482" />
    <path
       d="m 225.39417,57.707681 0.0871,-0.06491 -0.0314,-0.0441 c -0.14569,-0.204364 -0.72813,-1.105323 -0.7246,-1.921653 0.002,-0.434657 0.15099,-0.835377 0.61348,-1.142963 0.2032,-0.134339 0.37289,-0.187396 0.50518,-0.186973 0.18274,0.0019 0.31256,0.09109 0.41698,0.268147 0.10195,0.176388 0.16051,0.439455 0.16016,0.741114 0.001,0.750078 -0.35454,1.724766 -1.09114,2.263847 l 0.0642,0.08749 0.0871,-0.06491 -0.0871,0.06491 0.0642,0.08752 c 0.80786,-0.597678 1.17828,-1.626095 1.17969,-2.438861 -2.6e-4,-0.328787 -0.0603,-0.624803 -0.18874,-0.849418 -0.12594,-0.224367 -0.33866,-0.378952 -0.60536,-0.376767 -0.1898,0 -0.39794,0.07303 -0.62477,0.222568 -0.52529,0.343535 -0.71367,0.838941 -0.7112,1.324292 0.001,0.522536 0.20249,1.042072 0.4004,1.43482 0.19861,0.392181 0.39617,0.657188 0.39864,0.660752 l 0.0646,0.08639 0.0868,-0.06378 -0.0642,-0.08752"
       style="fill:#45283d;fill-opacity:1;fill-rule:nonzero;stroke:none;stroke-width:0.0352777"
       id="path484" />
    <path
       d="m 213.62022,27.196953 -3.46181,17.524941 c -0.22825,1.487311 0.37571,2.980267 1.57409,3.890434 l 11.11956,8.260257 -0.20567,-7.606207 -5.55378,-4.305652 5.71535,-17.72779 -9.18774,-0.03598"
       style="fill:#aa5c8d;fill-opacity:1;fill-rule:nonzero;stroke:none;stroke-width:0.0352777"
       id="path486" />
    <path
       d="m 218.51677,46.065271 1.48449,8.689555 -2.37067,-1.7526 0.11536,-7.514098 0.77082,0.577143"
       style="fill:#97457c;fill-opacity:1;fill-rule:nonzero;stroke:none;stroke-width:0.0352777"
       id="path488" />
    <path
       d="m 222.85206,60.455078 0.58243,3.225024 h 3.00708 l -0.57079,-3.396157 -3.01872,0.171133"
       style="fill:#ed808d;fill-opacity:1;fill-rule:nonzero;stroke:none;stroke-width:0.0352777"
       id="path490" />
    <path
       d="m 221.55631,63.267387 h 5.69277 l 1.17052,5.586979 h -12.60969 l 6.06566,-3.458599 -0.31926,-2.12838"
       style="fill:#f8efcd;fill-opacity:1;fill-rule:nonzero;stroke:none;stroke-width:0.0352777"
       id="path492" />
    <path
       d="M 217.53817,67.976973 H 228.1656 V 67.760067 H 217.53817 Z"
       style="fill:#45283d;fill-opacity:1;fill-rule:nonzero;stroke:none;stroke-width:0.0352777"
       id="path494" />
    <path
       d="m 221.71788,65.525836 0.0921,-0.05743 c -0.003,-0.0043 -0.25118,-0.403931 -0.65441,-0.807545 -0.40322,-0.40213 -0.96273,-0.81774 -1.60655,-0.820491 -0.29068,-5.3e-4 -0.59478,0.0889 -0.89147,0.299193 -0.32067,0.225282 -0.48118,0.480377 -0.48154,0.740833 0,0.171696 0.0709,0.332915 0.18556,0.471557 0.34643,0.413527 1.08056,0.68199 1.8722,0.684741 0.52211,0 1.07068,-0.121671 1.54199,-0.419063 l 0.0914,-0.05747 -0.0572,-0.09176 -0.0921,0.05743 -0.0579,-0.09162 c -0.42898,0.270896 -0.93733,0.385551 -1.42628,0.385551 -0.49354,2.65e-4 -0.96626,-0.117546 -1.30669,-0.299156 -0.17039,-0.09028 -0.30692,-0.196499 -0.39794,-0.306883 -0.091,-0.110807 -0.13581,-0.222284 -0.13617,-0.333338 0,-0.164819 0.10019,-0.358177 0.38982,-0.563493 0.26459,-0.186585 0.51929,-0.25894 0.76624,-0.259221 0.54327,-0.0024 1.06856,0.370028 1.45273,0.756674 0.19227,0.192262 0.3489,0.385586 0.4572,0.530294 0.0543,0.07221 0.0963,0.132575 0.12454,0.174167 0.0282,0.04205 0.0423,0.06424 0.0423,0.06463 l 0.0921,-0.05761 -0.0579,-0.09162 0.0579,0.09162"
       style="fill:#45283d;fill-opacity:1;fill-rule:nonzero;stroke:none;stroke-width:0.0352777"
       id="path496" />
    <path
       d="m 221.71788,65.525836 0.0921,0.05761 c 0,-2.64e-4 0.0141,-0.02257 0.0423,-0.06463 0.0988,-0.146333 0.36653,-0.517842 0.73201,-0.847759 0.36583,-0.331541 0.82691,-0.614894 1.30246,-0.613376 0.24694,2.65e-4 0.50165,0.07264 0.76658,0.259221 0.28928,0.205316 0.38982,0.398674 0.38947,0.563493 0,0.111054 -0.0448,0.222531 -0.13617,0.333338 -0.27129,0.335423 -0.96414,0.608825 -1.70427,0.606039 -0.4893,0 -0.99766,-0.114655 -1.42664,-0.385551 l -0.0579,0.09162 0.0921,0.05761 -0.0921,-0.05761 -0.0579,0.09179 c 0.47132,0.297392 1.01989,0.419063 1.54235,0.419063 0.52775,-2.64e-4 1.02976,-0.123047 1.40829,-0.32413 0.18944,-0.101002 0.34854,-0.221298 0.46355,-0.360611 0.11465,-0.138642 0.18591,-0.299861 0.18591,-0.471557 -3.4e-4,-0.260456 -0.16086,-0.515551 -0.48154,-0.740833 -0.29704,-0.210293 -0.60113,-0.299617 -0.89182,-0.299193 -0.64382,0.0028 -1.20333,0.418361 -1.60655,0.820491 -0.40323,0.403614 -0.65158,0.803241 -0.6544,0.807545 l -0.0572,0.09176 0.0914,0.05747 0.0579,-0.09179"
       style="fill:#45283d;fill-opacity:1;fill-rule:nonzero;stroke:none;stroke-width:0.0352777"
       id="path498" />
    <path
       d="m 225.60761,27.196953 1.95791,33.905121 h -6.35423 l -6.07484,-33.905121 h 10.47116"
       style="fill:#aa5c8d;fill-opacity:1;fill-rule:nonzero;stroke:none;stroke-width:0.0352777"
       id="path500" />
    <path
       d="m 217.95092,42.502921 -1.64395,-9.176808 -0.14005,0.02506 1.64394,9.176808"
       style="fill:#45283d;fill-opacity:1;fill-rule:nonzero;stroke:none;stroke-width:0.0352777"
       id="path502" />
    <path
       d="m 231.57519,18.568007 c 0,0 1.54588,13.036904 -2.71356,13.403439 -6.74688,0.581025 -4.26367,-7.675033 -4.26367,-7.675033 l 1.16275,-7.210425 5.81448,1.482019"
       style="fill:#372131;fill-opacity:1;fill-rule:nonzero;stroke:none;stroke-width:0.0352777"
       id="path504" />
    <path
       d="m 226.92382,11.566426 c 0,0 5.74111,-1.040694 6.03532,8.241948 0.0205,0.645936 -0.39652,1.250245 -1.02517,1.399117 -0.78528,0.185914 -2.10326,0.09772 -4.2351,-0.998361 l -0.77505,-8.642704"
       style="fill:#45283d;fill-opacity:1;fill-rule:nonzero;stroke:none;stroke-width:0.0352777"
       id="path506" />
    <path
       d="m 213.23851,20.761227 c -3.63855,-2.22885 -8.72596,-6.230762 -8.72596,-6.230762 l -1.90394,1.795639 7.91316,8.175979 c 1.11866,0.954264 2.83175,0.639586 3.53836,-0.649817 v -3.44e-4 c 0.59443,-1.084792 0.23354,-2.444397 -0.82162,-3.090686"
       style="fill:#ed808d;fill-opacity:1;fill-rule:nonzero;stroke:none;stroke-width:0.0352777"
       id="path508" />
    <path
       d="m 201.56615,16.766724 c 1.00119,0.627239 2.32163,0.324203 2.94887,-0.676981 0.62759,-1.001183 0.32456,-2.32163 -0.67698,-2.948869 -1.00083,-0.627592 -2.32128,-0.324203 -2.94852,0.67698 -0.62759,1.001184 -0.32455,2.321278 0.67663,2.94887"
       style="fill:#ed808d;fill-opacity:1;fill-rule:nonzero;stroke:none;stroke-width:0.0352777"
       id="path510" />
    <path
       d="m 202.27665,12.858299 c 0,0 0.25153,-0.94227 1.24565,-0.420864 0.99413,0.521405 1.99002,1.744486 0.99272,3.652308 l -2.23837,-3.231444"
       style="fill:#ed808d;fill-opacity:1;fill-rule:nonzero;stroke:none;stroke-width:0.0352777"
       id="path512" />
    <path
       d="m 199.77157,10.464701 0.70309,-0.9574389 c 0.067,-0.09102 0.17286,-0.144639 0.28575,-0.144639 h 1.96038 c 0.12171,0 0.23495,0.06244 0.29986,0.165806 l 0.5895,0.9362719 h -3.83858"
       style="fill:#d9d7d4;fill-opacity:1;fill-rule:nonzero;stroke:none;stroke-width:0.0352777"
       id="path514" />
    <path
       d="m 199.72112,10.633329 0.33973,4.073878 c 0.0201,0.245533 0.22542,0.43427 0.47131,0.43427 h 2.37067 c 0.24165,0 0.44414,-0.182387 0.4706,-0.422628 l 0.44239,-4.08552 h -4.0947"
       style="fill:#d9d7d4;fill-opacity:1;fill-rule:nonzero;stroke:none;stroke-width:0.0352777"
       id="path516" />
    <path
       d="m 203.89272,10.182832 h -4.30459 c -0.0794,0 -0.14323,0.06421 -0.14323,0.143228 v 0.276577 c 0,0.07938 0.0639,0.143581 0.14323,0.143581 h 4.30459 c 0.0794,0 0.14323,-0.06421 0.14323,-0.143581 V 10.32606 c 0,-0.07902 -0.0639,-0.143228 -0.14323,-0.143228"
       style="fill:#859cbe;fill-opacity:1;fill-rule:nonzero;stroke:none;stroke-width:0.0352777"
       id="path518" />
    <path
       d="m 203.5223,12.437435 -0.51364,-0.179564 c -0.2734,-0.09596 -0.57079,0.05644 -0.65299,0.33408 -0.0494,0.166159 -0.0106,0.345723 0.10301,0.47625 l 1.35714,1.561748 0.22013,-1.851731 -0.51365,-0.340783"
       style="fill:#ed808d;fill-opacity:1;fill-rule:nonzero;stroke:none;stroke-width:0.0352777"
       id="path520" />
    <path
       d="m 218.09697,15.728499 -4.04531,8.128 c -0.45191,0.90805 -1.49966,1.381125 -2.49414,1.126067 -1.21143,-0.31115 -1.87818,-1.569508 -1.44145,-2.722739 l 3.19088,-8.431389 4.79002,1.900061"
       style="fill:#ed808d;fill-opacity:1;fill-rule:nonzero;stroke:none;stroke-width:0.0352777"
       id="path522" />
    <path
       d="m 218.75278,14.153346 -1.143,3.540125 -5.83106,-2.475794 1.74342,-3.258256 c 0.57891,-1.10737 1.75119,-1.640417 3.24697,-1.598436 l -0.20602,0.119239 c 1.68839,0.312913 2.71709,2.039055 2.18969,3.673122"
       style="fill:#f8efcd;fill-opacity:1;fill-rule:nonzero;stroke:none;stroke-width:0.0352777"
       id="path524" />
    <path
       d="m 216.76911,10.360985 7.99818,-0.0025 c 1.17898,0 0.20038,0.892528 0.32455,2.065161 l 1.23402,16.209473 -13.06477,-1.077383 1.21214,-15.091834 c 0.10478,-1.190273 1.10102,-2.102909 2.29588,-2.102909"
       style="fill:#f8efcd;fill-opacity:1;fill-rule:nonzero;stroke:none;stroke-width:0.0352777"
       id="path526" />
    <path
       d="m 214.23652,16.238263 0.30303,-3.769078 -0.13264,-0.01058 -0.30268,3.769078"
       style="fill:#45283d;fill-opacity:1;fill-rule:nonzero;stroke:none;stroke-width:0.0352777"
       id="path528" />
    <path
       d="m 228.15854,13.744476 2.0828,8.837084 c 0.23284,0.98672 -0.27058,2.020712 -1.19839,2.459567 -1.1303,0.535517 -2.44757,-0.0067 -2.84867,-1.17228 l -2.93406,-8.524876 4.89832,-1.599495"
       style="fill:#ed808d;fill-opacity:1;fill-rule:nonzero;stroke:none;stroke-width:0.0352777"
       id="path530" />
    <path
       d="m 227.65619,12.113938 1.38359,3.453341 -6.15844,1.23437 -0.65052,-3.032478 c -0.26176,-1.22167 0.30339,-2.471209 1.39382,-3.080809 1.4986,-0.8381999 3.39266,-0.168627 4.03155,1.425576"
       style="fill:#f8efcd;fill-opacity:1;fill-rule:nonzero;stroke:none;stroke-width:0.0352777"
       id="path532" />
    <path
       d="m 223.76787,16.615029 -0.44485,-1.292577 -0.12559,0.04304 0.44485,1.292578"
       style="fill:#45283d;fill-opacity:1;fill-rule:nonzero;stroke:none;stroke-width:0.0352777"
       id="path534" />
    <path
       d="m 226.03235,22.513121 c -1.91064,3.815644 -5.24722,10.35544 -5.24722,10.35544 l 1.95192,1.743427 7.25417,-9.710561 c 0.85549,-1.195917 0.39582,-2.876197 -0.94897,-3.469922 -1.13171,-0.499534 -2.45569,-0.02434 -3.0099,1.081616"
       style="fill:#ed808d;fill-opacity:1;fill-rule:nonzero;stroke:none;stroke-width:0.0352777"
       id="path536" />
    <path
       d="m 223.26446,35.613171 c 0.53975,-1.051277 0.12523,-2.340679 -0.92569,-2.880429 -1.05128,-0.53975 -2.34068,-0.125237 -2.88043,0.925688 -0.54011,1.050925 -0.12559,2.341033 0.92568,2.880783 1.05093,0.539398 2.34069,0.124883 2.88044,-0.926042"
       style="fill:#ed808d;fill-opacity:1;fill-rule:nonzero;stroke:none;stroke-width:0.0352777"
       id="path538" />
    <path
       d="m 219.30982,35.238521 c 0,0 -0.96027,-0.170037 -0.52564,-1.205087 0.43462,-1.03505 1.56845,-2.131483 3.55459,-1.300692 l -3.02895,2.505779"
       style="fill:#ed808d;fill-opacity:1;fill-rule:nonzero;stroke:none;stroke-width:0.0352777"
       id="path540" />
    <path
       d="m 225.69157,23.193277 c -2.66418,-2.44475 -4.01991,-5.014384 -3.93806,-7.536745 0.10901,-3.383139 1.99425,-5.20947 2.10361,-5.297664 l 0.9779,-0.02822 c -0.0243,0.01976 -2.26977,2.306461 -2.36431,5.356931 -0.0713,2.301522 0.89535,4.10598 3.11114,6.402211 l 0.27023,0.784225 -0.16051,0.319264"
       style="fill:#45283d;fill-opacity:1;fill-rule:nonzero;stroke:none;stroke-width:0.0352777"
       id="path542" />
    <path
       d="m 217.26476,4.8431872 c 0.0222,0.6364113 -0.47589,1.170164 -1.11231,1.1920363 -0.63641,0.022225 -1.16981,-0.4758973 -1.19203,-1.1123086 -0.0219,-0.636411 0.47625,-1.1701637 1.11266,-1.192036 0.63606,-0.022225 1.16981,0.47625 1.19168,1.1123083"
       style="fill:#45283d;fill-opacity:1;fill-rule:nonzero;stroke:none;stroke-width:0.0352777"
       id="path544" />
    <path
       d="m 217.51912,6.6282429 0.0833,4.1091561 c 0.0303,1.1557 0.82585,1.214966 1.9625,1.175455 0.97084,-0.03351 1.79176,-0.346428 1.87889,-1.313392 l 0.0603,-4.4467635 -3.98498,0.4755444"
       style="fill:#ed808d;fill-opacity:1;fill-rule:nonzero;stroke:none;stroke-width:0.0352777"
       id="path546" />
    <path
       d="m 217.58473,9.9605821 3.00708,-2.4182919 -3.05611,0.068086 z"
       style="fill:#45283d;fill-opacity:1;fill-rule:nonzero;stroke:none;stroke-width:0.0352777"
       id="path548" />
    <path
       d="m 219.49467,8.2012792 -1.61113,0.055386 c -1.20968,0.041981 -2.21404,-0.9263944 -2.2158,-2.137128 l -0.006,-2.9710946 c -0.002,-1.5172972 1.19874,-2.76295556 2.71533,-2.81551946 1.55222,-0.053622 3.12632,1.15181956 3.17994,2.70404176 l -0.0533,3.1157336 c -0.0169,1.1091333 -0.90064,2.009775 -2.00942,2.0485807"
       style="fill:#ed808d;fill-opacity:1;fill-rule:nonzero;stroke:none;stroke-width:0.0352777"
       id="path550" />
    <path
       d="m 221.19788,4.7444095 c 0,0 -2.19357,0.3234973 -1.09678,-2.1692306 0,0 -0.47026,-0.8311446 -1.96356,-0.432153 -1.49331,0.3989917 -2.96792,0.333728 -3.17783,-0.8540749 -0.2099,-1.18780282 0.95991,-2.8028196 3.81177,-1.78611398 0,0 1.00965,0.35842226 1.74872,0.95920282 0.73871,0.60078056 1.89265,0.59301946 2.026,1.73284446 0.13194,1.1303002 -0.42333,3.0395336 -1.34832,2.5495252"
       style="fill:#45283d;fill-opacity:1;fill-rule:nonzero;stroke:none;stroke-width:0.0352777"
       id="path552" />
    <path
       d="m 223.00446,4.7045456 c 0.0222,0.6360583 -0.47555,1.1698112 -1.11231,1.1920362 -0.63641,0.021873 -1.16981,-0.47625 -1.19204,-1.1126612 -0.0219,-0.6360584 0.47625,-1.1698111 1.11266,-1.1920361 0.63642,-0.021873 1.17017,0.47625 1.19169,1.1126611"
       style="fill:#ed808d;fill-opacity:1;fill-rule:nonzero;stroke:none;stroke-width:0.0352777"
       id="path554" />
    <path
       d="m 221.53655,5.0978929 -3.4e-4,-0.00776 c -3.5e-4,-0.039158 0.006,-0.2127252 0.0811,-0.3661836 0.0776,-0.1531053 0.20355,-0.2861027 0.48612,-0.288572 0.0381,0 0.079,0.00246 0.12312,0.00811 0.0409,0.00529 0.0783,-0.023635 0.0836,-0.064558 0.005,-0.041275 -0.0236,-0.078669 -0.0646,-0.083961 -0.0497,-0.00635 -0.0974,-0.00953 -0.14217,-0.00953 -0.33761,-0.00246 -0.53269,0.18415 -0.62089,0.373239 -0.091,0.188736 -0.0956,0.3802943 -0.096,0.4314473 v 0.013052 c 0.002,0.041628 0.0363,0.073731 0.0776,0.072319 0.0413,-0.0014 0.0737,-0.036336 0.0723,-0.077611"
       style="fill:#45283d;fill-opacity:1;fill-rule:nonzero;stroke:none;stroke-width:0.0352777"
       id="path556" />
    <path
       d="m 217.04886,5.1783262 -0.0427,0.6039556 0.0208,0.05715 0.0564,0.022932 0.36971,-0.0127 c 0.0413,-0.0014 0.0737,-0.035983 0.0723,-0.077258 -0.002,-0.041628 -0.0363,-0.07373 -0.0776,-0.072319 l -0.28645,0.00988 0.0367,-0.5210527 c 0.003,-0.041275 -0.0282,-0.076906 -0.0695,-0.080081 -0.0413,-0.00282 -0.0769,0.028222 -0.0797,0.069497"
       style="fill:#45283d;fill-opacity:1;fill-rule:nonzero;stroke:none;stroke-width:0.0352777"
       id="path558" />
    <path
       d="m 216.67069,4.7359429 c 0.005,0.13335 -0.0995,0.2448277 -0.23284,0.2494137 -0.133,0.00459 -0.24483,-0.099836 -0.24941,-0.2328334 -0.005,-0.132997 0.0998,-0.2448276 0.23283,-0.2494137 0.133,-0.00459 0.24483,0.099836 0.24942,0.2328334"
       style="fill:#45283d;fill-opacity:1;fill-rule:nonzero;stroke:none;stroke-width:0.0352777"
       id="path560" />
    <path
       d="m 218.61978,4.6685622 c 0.005,0.1329973 -0.0995,0.2448277 -0.23248,0.249414 -0.13335,0.00459 -0.24518,-0.099483 -0.24941,-0.2328333 -0.005,-0.1329973 0.0995,-0.244475 0.23248,-0.249414 0.13335,-0.00459 0.24483,0.099483 0.24941,0.2328333"
       style="fill:#45283d;fill-opacity:1;fill-rule:nonzero;stroke:none;stroke-width:0.0352777"
       id="path562" />
    <path
       d="m 218.50548,3.2384009 c 0,0 -0.62477,-0.072319 -0.62794,0.2614086 0,0 0.003,0.2257777 0.54786,0.2751667 0.54504,0.049742 0.68615,-0.00177 0.73378,-0.2137833 0.048,-0.211314 -0.36089,-0.3182057 -0.6537,-0.322792"
       style="fill:#45283d;fill-opacity:1;fill-rule:nonzero;stroke:none;stroke-width:0.0352777"
       id="path564" />
    <path
       d="m 216.26111,3.2976679 c 0,0 0.5147,-0.065264 0.55986,0.2487083 0,0 0.0265,0.2120194 -0.42439,0.2561167 -0.4505,0.044097 -0.59831,-0.032456 -0.64241,-0.2039057 -0.0501,-0.1947333 0.26176,-0.2977443 0.50694,-0.3009193"
       style="fill:#45283d;fill-opacity:1;fill-rule:nonzero;stroke:none;stroke-width:0.0352777"
       id="path566" />
    <path
       d="m 216.9208,6.3707152 c 0.006,0.00212 0.28752,0.1375833 0.64206,0.1382887 0.24694,3.439e-4 0.53411,-0.068792 0.77153,-0.3026833 l 7.1e-4,-0.1061861 -0.10583,-7.143e-4 c -0.20426,0.2003779 -0.44521,0.2589389 -0.6664,0.2596446 -0.15805,0 -0.30374,-0.031045 -0.40922,-0.062442 -0.0529,-0.015523 -0.0956,-0.031397 -0.12489,-0.042686 l -0.0434,-0.018698 c -0.0374,-0.01764 -0.0819,-0.00177 -0.0998,0.03563 -0.0176,0.037042 -0.002,0.081845 0.0353,0.099836"
       style="fill:#45283d;fill-opacity:1;fill-rule:nonzero;stroke:none;stroke-width:0.0352777"
       id="path568" />
    <path
       d="m 217.06297,10.358515 5.21089,-0.02787 c 0,0 -0.34326,2.350205 -3.57964,2.161117 -0.42192,-0.02469 -0.84526,-0.101248 -1.2252,-0.287162 -0.58702,-0.286455 -1.12677,-0.817033 -0.40605,-1.846086"
       style="fill:#ed808d;fill-opacity:1;fill-rule:nonzero;stroke:none;stroke-width:0.0352777"
       id="path570" />
  </g>
</svg>
