<?xml version="1.0" encoding="UTF-8" standalone="no"?>
<svg
   xmlns:dc="http://purl.org/dc/elements/1.1/"
   xmlns:cc="http://creativecommons.org/ns#"
   xmlns:rdf="http://www.w3.org/1999/02/22-rdf-syntax-ns#"
   xmlns:svg="http://www.w3.org/2000/svg"
   xmlns="http://www.w3.org/2000/svg"
   xmlns:sodipodi="http://sodipodi.sourceforge.net/DTD/sodipodi-0.dtd"
   xmlns:inkscape="http://www.inkscape.org/namespaces/inkscape"
   width="30.464392mm"
   height="67.083893mm"
   viewBox="0 0 30.464392 67.083893"
   version="1.1"
   id="svg1651"
   inkscape:version="1.0.1 (3bc2e813f5, 2020-09-07)"
   sodipodi:docname="student-phone-female.svg">
  <defs
     id="defs1645" />
  <sodipodi:namedview
     id="base"
     pagecolor="#ffffff"
     bordercolor="#666666"
     borderopacity="1.0"
     inkscape:pageopacity="0.0"
     inkscape:pageshadow="2"
     inkscape:zoom="2.8"
     inkscape:cx="80.727032"
     inkscape:cy="120.03712"
     inkscape:document-units="mm"
     inkscape:current-layer="layer5"
     inkscape:document-rotation="0"
     showgrid="false"
     fit-margin-top="0"
     fit-margin-left="0"
     fit-margin-right="0"
     fit-margin-bottom="0"
     inkscape:pagecheckerboard="true"
     showborder="false"
     inkscape:window-width="1920"
     inkscape:window-height="1017"
     inkscape:window-x="-8"
     inkscape:window-y="89"
     inkscape:window-maximized="1" />
  <metadata
     id="metadata1648">
    <rdf:RDF>
      <cc:Work
         rdf:about="">
        <dc:format>image/svg+xml</dc:format>
        <dc:type
           rdf:resource="http://purl.org/dc/dcmitype/StillImage" />
        <dc:title></dc:title>
      </cc:Work>
    </rdf:RDF>
  </metadata>
  <g
     inkscape:groupmode="layer"
     id="layer4"
     inkscape:label="Layer 2">
    <ellipse
       style="fill:#c8beb7;fill-rule:evenodd;stroke-width:0.264583"
       id="path1772"
       cx="18.379093"
       cy="66.854538"
       rx="19.22954"
       ry="2.5040922" />
  </g>
  <g
     inkscape:groupmode="layer"
     id="layer5"
     inkscape:label="Layer 3">
    <ellipse
       style="fill:#917c6f;fill-rule:evenodd;stroke-width:0.364659"
       id="path1775"
       cx="17.75308"
       cy="66.345451"
       rx="11.634569"
       ry="1.3122884" />
  </g>
  <g
     inkscape:label="Layer 1"
     inkscape:groupmode="layer"
     id="layer1"
     transform="translate(-314.36304,20.690755)">
    <path
       d="m 331.25514,-16.317352 c 0,0 -3.39312,4.63797 -0.83503,9.0085345 h 8.13612 c 0,0 1.58115,-2.353734 -0.63253,-5.4613535 0,0 -0.72814,-1.579386 -0.508,-4.154664 0.22048,-2.575278 -4.84541,-1.579034 -4.84541,-1.579034 l -1.31515,2.186517"
       style="fill:#542b45;fill-opacity:1;fill-rule:nonzero;stroke:none;stroke-width:0.0352777"
       id="path248" />
    <path
       d="m 330.18199,34.779302 -0.92322,7.202027 -2.6797,0.369324 0.002,-7.571351 h 3.60072"
       style="fill:#ed808d;fill-opacity:1;fill-rule:nonzero;stroke:none;stroke-width:0.0352777"
       id="path250" />
    <path
       d="m 330.2409,41.388911 h -5.26464 l 0.0277,1.668003 c 0,0 -2.65822,0.156247 -2.55404,3.336221 h 7.86331 l -0.0723,-5.004224"
       style="fill:#b22876;fill-opacity:1;fill-rule:nonzero;stroke:none;stroke-width:0.0352777"
       id="path252" />
    <path
       d="m 322.27694,45.476335 h 8.03628 v 0.9168 h -8.03628 v -0.9168"
       style="fill:#432d52;fill-opacity:1;fill-rule:nonzero;stroke:none;stroke-width:0.0352777"
       id="path254" />
    <path
       d="m 325.02254,43.148954 0.0363,-0.0067 c 0.0739,-0.01199 0.25577,-0.03665 0.49774,-0.03665 0.37288,0 0.88734,0.05923 1.37061,0.309067 l 0.0858,-0.166439 c -0.52102,-0.268888 -1.06426,-0.329496 -1.45644,-0.329919 -0.33955,5.29e-4 -0.56678,0.04618 -0.57119,0.04685 l 0.0372,0.183832"
       style="fill:#45283d;fill-opacity:1;fill-rule:nonzero;stroke:none;stroke-width:0.0352777"
       id="path256" />
    <path
       d="m 329.03624,2.2740375 c 0,0 -0.57411,2.294467 -2.16299,16.3113865 -1.57826,13.925198 -1.83952,19.919952 -1.83952,19.919952 h 6.38086 l 5.16467,-34.7775405 -2.22426,-1.512711 -5.31876,0.05891"
       style="fill:#8facdf;fill-opacity:1;fill-rule:nonzero;stroke:none;stroke-width:0.0352777"
       id="path258" />
    <path
       d="m 324.20262,39.103721 h 7.85297 l 0.35878,-3.247353 h -7.85263 l -0.35912,3.247353"
       style="fill:#a6bee7;fill-opacity:1;fill-rule:nonzero;stroke:none;stroke-width:0.0352777"
       id="path260" />
    <path
       d="m 325.15871,35.927628 h 6.64916 v -0.142213 h -6.64916 z"
       style="fill:#45283d;fill-opacity:1;fill-rule:nonzero;stroke:none;stroke-width:0.0352777"
       id="path262" />
    <path
       d="m 339.88761,34.779302 0.15381,7.202027 -2.6797,0.369324 -1.07491,-7.571351 h 3.6008"
       style="fill:#ed808d;fill-opacity:1;fill-rule:nonzero;stroke:none;stroke-width:0.0352777"
       id="path264" />
    <path
       d="m 341.02356,41.388911 h -5.26451 l 0.38665,1.668003 c 0,0 -2.65818,0.156247 -2.55411,3.336221 h 8.22254 l -0.79057,-5.004224"
       style="fill:#b22876;fill-opacity:1;fill-rule:nonzero;stroke:none;stroke-width:0.0352777"
       id="path266" />
    <path
       d="m 333.41872,45.476335 h 8.39541 v 0.9168 h -8.39541 v -0.9168"
       style="fill:#432d52;fill-opacity:1;fill-rule:nonzero;stroke:none;stroke-width:0.0352777"
       id="path268" />
    <path
       d="m 336.16439,43.148954 0.0363,-0.0067 c 0.0737,-0.01199 0.25577,-0.03665 0.49742,-0.03665 0.37324,0 0.88759,0.05923 1.3709,0.309067 l 0.0857,-0.166439 c -0.52106,-0.268888 -1.06433,-0.329496 -1.45662,-0.329919 -0.33938,5.29e-4 -0.56657,0.04618 -0.57115,0.04685 l 0.0374,0.183832"
       style="fill:#45283d;fill-opacity:1;fill-rule:nonzero;stroke:none;stroke-width:0.0352777"
       id="path270" />
    <path
       d="m 337.8034,2.3431825 c 0,0 3.00249,4.410075 3.14784,9.9179935 0.20496,7.766756 0.85266,26.630878 0.85266,26.630878 l -6.46007,-0.180374 -4.439,-36.4545755 6.89857,0.08608"
       style="fill:#8facdf;fill-opacity:1;fill-rule:nonzero;stroke:none;stroke-width:0.0352777"
       id="path272" />
    <path
       d="m 333.51362,24.398849 -0.91581,-12.651317 -2.21721,-2.6010305 -0.10795,0.09208 2.18687,2.5657535 0.91264,12.60475 0.14146,-0.01024"
       style="fill:#45283d;fill-opacity:1;fill-rule:nonzero;stroke:none;stroke-width:0.0352777"
       id="path274" />
    <path
       d="m 334.2795,39.103721 h 8.11283 v -3.247353 h -8.11283 v 3.247353"
       style="fill:#a6bee7;fill-opacity:1;fill-rule:nonzero;stroke:none;stroke-width:0.0352777"
       id="path276" />
    <path
       d="m 334.99599,35.927628 h 6.70458 v -0.142213 h -6.70458 z"
       style="fill:#45283d;fill-opacity:1;fill-rule:nonzero;stroke:none;stroke-width:0.0352777"
       id="path278" />
    <path
       d="m 332.58052,-6.6660565 c 0.23566,-1.173339 -0.47166,-2.330098 -1.62348,-2.655712 -1.24319,-0.351366 -2.53072,0.392642 -2.84547,1.645709 -0.22532,0.897114 -0.39342,2.477206 -0.55495,4.159603 l 4.71417,0.197555 0.30973,-3.347155"
       style="fill:#b22876;fill-opacity:1;fill-rule:nonzero;stroke:none;stroke-width:0.0352777"
       id="path280" />
    <path
       d="m 332.27079,-3.3220765 -4.71417,-0.198261 c -0.21372,2.226734 -0.416,4.631267 -0.72401,5.870928 -0.34727,1.397706 0.57189,2.794 1.99305,3.028598 1.31153,0.216252 2.55895,-0.645584 2.82036,-1.949451 l 0.62477,-6.751814"
       style="fill:#ed808d;fill-opacity:1;fill-rule:nonzero;stroke:none;stroke-width:0.0352777"
       id="path282" />
    <path
       d="m 318.14327,4.4704325 10.59998,-3.087511 c 1.13535,-0.293864 2.28611,0.420511 2.526,1.56845 0.24306,1.160639 -0.54469,2.285647 -1.71838,2.454628 l -10.55296,1.424516 -0.85464,-2.360083"
       style="fill:#ed808d;fill-opacity:1;fill-rule:nonzero;stroke:none;stroke-width:0.0352777"
       id="path284" />
    <path
       d="m 319.27339,7.4485825 c 1.05569,-0.494948 1.51032,-1.752247 1.01547,-2.808111 -0.49512,-1.055864 -1.75217,-1.510242 -2.80818,-1.015295 -1.05569,0.494595 -1.51031,1.752248 -1.01519,2.807758 0.49484,1.055865 1.7519,1.510242 2.8079,1.015648"
       style="fill:#ed808d;fill-opacity:1;fill-rule:nonzero;stroke:none;stroke-width:0.0352777"
       id="path286" />
    <path
       d="m 316.69039,4.4711385 c 0,0 -0.64851,-0.522817 0.31542,-1.068564 0.96407,-0.5461 2.23368,-0.609248 3.28305,1.237897 l -3.59847,-0.169333"
       style="fill:#ed808d;fill-opacity:1;fill-rule:nonzero;stroke:none;stroke-width:0.0352777"
       id="path288" />
    <path
       d="m 316.76479,-0.03348153 -2.24716,0.637469 c -0.12513,0.03528 -0.18672,0.169686 -0.13779,0.299861 l 2.09751,5.59329203 c 0.0489,0.130175 0.1899,0.207082 0.31489,0.17145 l 2.2473,-0.637468 c 0.12499,-0.03528 0.18672,-0.169688 0.13765,-0.299862 l -2.09751,-5.59329203 c -0.0489,-0.130175 -0.18976,-0.207081 -0.31489,-0.17145"
       style="fill:#3b3261;fill-opacity:1;fill-rule:nonzero;stroke:none;stroke-width:0.0352777"
       id="path290" />
    <path
       d="m 317.19807,-0.15660153 -2.24719,0.63747 c -0.12513,0.03563 -0.18673,0.169686 -0.1378,0.300214 l 2.09751,5.59294003 c 0.0489,0.130175 0.18976,0.207433 0.31489,0.171802 l 2.24716,-0.637117 c 0.12513,-0.035631 0.18673,-0.170039 0.1378,-0.300214 l -2.09751,-5.59293903 c -0.0489,-0.130528 -0.18976,-0.207433 -0.31486,-0.172156"
       style="fill:#2d2445;fill-opacity:1;fill-rule:nonzero;stroke:none;stroke-width:0.0352777"
       id="path292" />
    <path
       d="m 317.36688,0.40678547 -1.97475,0.559858 1.7096,4.55859503 1.9746,-0.560212 -1.70945,-4.55824103"
       style="fill:#e5e3e2;fill-opacity:1;fill-rule:nonzero;stroke:none;stroke-width:0.0352777"
       id="path294" />
    <path
       d="m 315.39213,0.96664347 3.6842,3.99838303 -1.70945,-4.55824103 z"
       style="fill:#ffffff;fill-opacity:1;fill-rule:nonzero;stroke:none;stroke-width:0.0352777"
       id="path296" />
    <path
       d="m 331.3391,-9.7211125 -1.8736,0.459669 c -0.29503,0.126295 -0.44345,0.738012 -0.42859,1.058687 l 0.4935,10.476794 8.32026,-0.615597 2.18052,-7.300031 c 0.0152,-0.57785 -1.3342,-4.286955 -1.91029,-4.331758 l -4.15819,-0.059971 -2.62361,0.3122095"
       style="fill:#b22876;fill-opacity:1;fill-rule:nonzero;stroke:none;stroke-width:0.0352777"
       id="path298" />
    <path
       d="m 329.03624,2.2740375 -0.43438,-3.18170203 c 0,0 1.45913,-0.71331697 1.51381,-5.95347797 l 6.17572,-0.211314 c 0,0 -0.40922,5.264855 2.23767,6.45230497 l -0.72566,2.96333403 -8.76716,-0.06915"
       style="fill:#8facdf;fill-opacity:1;fill-rule:nonzero;stroke:none;stroke-width:0.0352777"
       id="path300" />
    <path
       d="m 335.66662,-6.8325675 1.03823,-3.160889 -1.06045,-0.0063 -0.88089,3.167239 h 0.90311"
       style="fill:#8facdf;fill-opacity:1;fill-rule:nonzero;stroke:none;stroke-width:0.0352777"
       id="path302" />
    <path
       d="m 330.83392,-6.8611425 -0.65264,-2.575984 0.82762,-0.202847 0.66322,3.178528 -0.8382,-0.399697"
       style="fill:#8facdf;fill-opacity:1;fill-rule:nonzero;stroke:none;stroke-width:0.0352777"
       id="path304" />
    <path
       d="m 334.76351,-4.4918875 h -3.62408 v 1.029406 c 0,1.150408 0.81103,2.083153 1.81186,2.083153 1.00083,0 1.81222,-0.932745 1.81222,-2.083153 v -1.029406"
       style="fill:#a6bee7;fill-opacity:1;fill-rule:nonzero;stroke:none;stroke-width:0.0352777"
       id="path306" />
    <path
       d="m 334.99635,-6.4614455 c 0,0.129469 0.10512,0.234597 0.23424,0.234597 0.12982,0 0.2346,-0.105128 0.2346,-0.234597 0,-0.12947 -0.10478,-0.234597 -0.2346,-0.234597 -0.12912,0 -0.23424,0.105127 -0.23424,0.234597"
       style="fill:#45283d;fill-opacity:1;fill-rule:nonzero;stroke:none;stroke-width:0.0352777"
       id="path308" />
    <path
       d="m 331.07205,-6.3637265 c 0,0.12947 0.10477,0.234245 0.23424,0.234245 0.12982,0 0.2346,-0.104775 0.2346,-0.234245 0,-0.129822 -0.10478,-0.234597 -0.2346,-0.234597 -0.12947,0 -0.23424,0.104775 -0.23424,0.234597"
       style="fill:#45283d;fill-opacity:1;fill-rule:nonzero;stroke:none;stroke-width:0.0352777"
       id="path310" />
    <path
       d="m 329.41046,-1.4569395 -0.61482,7.994649 9.5401,3.4861495 0.66322,-7.2862715 -9.5885,-4.194527"
       style="fill:#dd1863;fill-opacity:1;fill-rule:nonzero;stroke:none;stroke-width:0.0352777"
       id="path312" />
    <path
       d="m 330.4247,-1.5631265 -0.61489,7.994651 9.54017,3.485798 0.66287,-7.285568 -9.58815,-4.194881"
       style="fill:#dd1863;fill-opacity:1;fill-rule:nonzero;stroke:none;stroke-width:0.0352777"
       id="path314" />
    <path
       d="m 339.34998,9.9173225 -1.01424,0.1065365 -9.5401,-3.4861495 1.01417,-0.106185 9.54017,3.485798"
       style="fill:#c31a60;fill-opacity:1;fill-rule:nonzero;stroke:none;stroke-width:0.0352777"
       id="path316" />
    <path
       d="m 330.38413,-1.0350175 -0.66428,0.0695 -0.67095,7.476772 0.76091,-0.07973 0.57432,-7.466542"
       style="fill:#ffffff;fill-opacity:1;fill-rule:nonzero;stroke:none;stroke-width:0.0352777"
       id="path318" />
    <path
       d="m 340.46934,-8.3576265 c -0.4258,-1.195211 -1.69933,-1.8623145 -2.92453,-1.530703 -1.32185,0.35807 -1.31268,3.696053 -0.91581,5.007328 0.28399,0.938742 0.21767,0.508353 0.98743,2.126192 l 4.39561,-2.389364 -1.5427,-3.213453"
       style="fill:#b22876;fill-opacity:1;fill-rule:nonzero;stroke:none;stroke-width:0.0352777"
       id="path320" />
    <path
       d="m 342.01204,-5.1441735 -4.39561,2.389364 c 1.01917,2.14171397 2.01965,3.22191997 2.41511,4.516967 0.44592,1.4605 1.7205,2.133247 3.14114,1.571625 1.31092,-0.518231 1.97555,-1.981906 1.50248,-3.31011403 l -2.66312,-5.16784197"
       style="fill:#ed808d;fill-opacity:1;fill-rule:nonzero;stroke:none;stroke-width:0.0352777"
       id="path322" />
    <path
       d="m 332.83943,6.7667035 8.96433,-7.926125 c 0.99397,-0.5849696 2.16135,0.55594494 2.64764,1.67230109 0.49172,1.12900671 0.0122,2.47868151 -1.04657,2.94531771 l -9.22869,5.5136792 -1.33671,-2.205173"
       style="fill:#ed808d;fill-opacity:1;fill-rule:nonzero;stroke:none;stroke-width:0.0355357"
       id="path324" />
    <path
       d="m 334.17614,8.9718765 c 0.9084,-0.730954 1.05198,-2.060221 0.32103,-2.968625 -0.73131,-0.908402 -2.06058,-1.051983 -2.96863,-0.321027 -0.9084,0.731308 -1.05233,2.060223 -0.32103,2.968625 0.73096,0.908402 2.06023,1.052335 2.96863,0.321027"
       style="fill:#ed808d;fill-opacity:1;fill-rule:nonzero;stroke:none;stroke-width:0.0352777"
       id="path326" />
    <path
       d="m 330.96092,6.6915225 c 0,0 -0.75388,-0.353838 0.0533,-1.113015 0.80751,-0.758472 2.0253,-1.121128 3.48298,0.424744 l -3.53625,0.688271"
       style="fill:#ed808d;fill-opacity:1;fill-rule:nonzero;stroke:none;stroke-width:0.0352777"
       id="path328" />
    <path
       d="m 330.75172,-20.331258 c 0,0 5.22041,-0.262466 6.25123,1.633009 1.03081,1.895475 0.0878,4.933244 -2.34668,5.856464 -2.31846,0.879828 -1.55469,-6.622698 -1.55469,-6.622698 l -2.34986,-0.866775"
       style="fill:#542b45;fill-opacity:1;fill-rule:nonzero;stroke:none;stroke-width:0.0352777"
       id="path330" />
    <path
       d="m 332.99927,-20.279752 c 0,0 -4.00685,-1.518356 -4.46507,1.281642 -0.30565,1.8669 2.72094,2.680758 2.72094,2.680758 l 1.74413,-3.9624"
       style="fill:#542b45;fill-opacity:1;fill-rule:nonzero;stroke:none;stroke-width:0.0352777"
       id="path332" />
    <path
       d="m 331.30559,-15.652366 c 0.0434,0.620536 -0.4251,1.159228 -1.04599,1.20262 -0.62124,0.04304 -1.15958,-0.425098 -1.20283,-1.046339 -0.0433,-0.621242 0.42531,-1.159581 1.0462,-1.20262 0.62124,-0.04339 1.15958,0.425097 1.20262,1.046339"
       style="fill:#45283d;fill-opacity:1;fill-rule:nonzero;stroke:none;stroke-width:0.0352777"
       id="path334" />
    <path
       d="m 331.63614,-12.49571 0.15557,2.451453 c 0.0533,0.8607775 0.61207,1.2883445 1.45909,1.2294305 0.7232,-0.05009 1.37654,-0.470605 1.41605,-1.1941535 l -0.43074,-3.846336 -2.59997,1.359606"
       style="fill:#ed808d;fill-opacity:1;fill-rule:nonzero;stroke:none;stroke-width:0.0352777"
       id="path336" />
    <path
       d="m 331.74338,-10.452421 2.86597,-2.804936 -2.99438,0.510469 z"
       style="fill:#45283d;fill-opacity:1;fill-rule:nonzero;stroke:none;stroke-width:0.0352777"
       id="path338" />
    <path
       d="m 332.38191,-12.099893 v 0 c -1.44815,0.0046 -2.64442,-1.136298 -2.68746,-2.318809 l -0.0854,-2.790825 c -0.0543,-1.482725 1.07703,-2.740731 2.55658,-2.843742 1.51518,-0.10548 3.09386,1.018823 3.19934,2.53365 l 0.0444,2.245431 c 0.0339,1.736725 -1.29469,3.053997 -3.02754,3.174295"
       style="fill:#ed808d;fill-opacity:1;fill-rule:nonzero;stroke:none;stroke-width:0.0352777"
       id="path340" />
    <path
       d="m 331.14049,-15.408596 -0.0836,0.691444 0.0169,0.05645 0.0529,0.02575 0.35806,0.01305 c 0.0406,0.0014 0.0744,-0.02999 0.0762,-0.07056 0.001,-0.04057 -0.0303,-0.07444 -0.0706,-0.07585 l -0.27868,-0.01023 0.0741,-0.612422 c 0.005,-0.04022 -0.0236,-0.07655 -0.0639,-0.08149 -0.0402,-0.0049 -0.0765,0.02399 -0.0815,0.06385"
       style="fill:#45283d;fill-opacity:1;fill-rule:nonzero;stroke:none;stroke-width:0.0352777"
       id="path342" />
    <path
       d="m 332.78584,-16.821471 c 0,0 -0.6103,-0.0501 -0.6163,0.198613 0,0 3.4e-4,0.167923 0.53269,0.201437 0.53234,0.03316 0.67063,-0.006 0.71932,-0.163689 0.0487,-0.158045 -0.34961,-0.234598 -0.63571,-0.236361"
       style="fill:#45283d;fill-opacity:1;fill-rule:nonzero;stroke:none;stroke-width:0.0352777"
       id="path344" />
    <path
       d="m 330.32839,-16.754444 c 0,0 0.50377,-0.05221 0.54469,0.180975 0,0 0.0243,0.158045 -0.41663,0.193675 -0.44097,0.03563 -0.58455,-0.02046 -0.62618,-0.147814 -0.0473,-0.144638 0.25894,-0.223308 0.49812,-0.226836"
       style="fill:#45283d;fill-opacity:1;fill-rule:nonzero;stroke:none;stroke-width:0.0352777"
       id="path346" />
    <path
       d="m 330.67623,-15.665771 c 0.005,0.141464 -0.10654,0.259997 -0.24765,0.26423 -0.14146,0.0049 -0.26,-0.105833 -0.26458,-0.24765 -0.005,-0.141111 0.10618,-0.259644 0.24765,-0.26423 0.14146,-0.0042 0.25999,0.106186 0.26458,0.24765"
       style="fill:#45283d;fill-opacity:1;fill-rule:nonzero;stroke:none;stroke-width:0.0352777"
       id="path348" />
    <path
       d="m 332.82641,-15.735974 c 0.005,0.141464 -0.10619,0.259997 -0.24765,0.26423 -0.14146,0.0046 -0.25964,-0.106186 -0.26423,-0.24765 -0.005,-0.141111 0.10619,-0.259644 0.2473,-0.26423 0.14146,-0.0049 0.25999,0.106186 0.26458,0.24765"
       style="fill:#45283d;fill-opacity:1;fill-rule:nonzero;stroke:none;stroke-width:0.0352777"
       id="path350" />
    <path
       d="m 330.9267,-14.292055 h 1.72579 c 0,0 0.005,0.603956 -0.99836,0.605367 -0.66499,0.0011 -0.72743,-0.605367 -0.72743,-0.605367"
       style="fill:#ffffff;fill-opacity:1;fill-rule:nonzero;stroke:none;stroke-width:0.0352777"
       id="path352" />
    <path
       d="m 330.33227,-19.16956 c 0,0 -0.35913,2.470855 4.78085,2.227791 0.109,-0.0049 1.97732,-2.836333 -2.11385,-3.337983 0,0 -1.37371,-0.414867 -2.667,1.110192"
       style="fill:#542b45;fill-opacity:1;fill-rule:nonzero;stroke:none;stroke-width:0.0352777"
       id="path354" />
    <path
       d="m 333.42578,-17.790905 c 0.23107,1.710972 1.38148,2.176639 1.38148,2.176639 l 1.52576,-1.780469 c 0,0 -3.02683,-1.281995 -2.90724,-0.39617"
       style="fill:#542b45;fill-opacity:1;fill-rule:nonzero;stroke:none;stroke-width:0.0352777"
       id="path356" />
    <path
       d="m 336.76129,-15.593452 c 0.0434,0.620536 -0.42509,1.159228 -1.04598,1.20262 -0.62124,0.04304 -1.15958,-0.42545 -1.20297,-1.046339 -0.043,-0.621242 0.42545,-1.159581 1.04633,-1.20262 0.62125,-0.04339 1.15959,0.425097 1.20262,1.046339"
       style="fill:#ed808d;fill-opacity:1;fill-rule:nonzero;stroke:none;stroke-width:0.0352777"
       id="path358" />
    <path
       d="m 335.34031,-15.15883 -7.2e-4,-0.02999 c -3.4e-4,-0.06773 0.0102,-0.235655 0.0854,-0.376766 0.0773,-0.140406 0.20214,-0.258587 0.4759,-0.261056 0.0289,0 0.0593,0.0014 0.0914,0.0046 0.0402,0.0039 0.0759,-0.02575 0.0797,-0.06597 0.004,-0.04057 -0.0258,-0.0762 -0.066,-0.08008 -0.0367,-0.0032 -0.0716,-0.0049 -0.10513,-0.0049 -0.32173,-0.0025 -0.514,0.160867 -0.60537,0.33902 -0.0931,0.177094 -0.10195,0.364772 -0.1023,0.445205 l 10e-4,0.04022 c 0.003,0.04022 0.0377,0.07091 0.078,0.06809 0.0406,-0.0028 0.0709,-0.03775 0.0681,-0.07832"
       style="fill:#45283d;fill-opacity:1;fill-rule:nonzero;stroke:none;stroke-width:0.0352777"
       id="path360" />
  </g>
</svg>
