<?xml version="1.0" encoding="UTF-8" standalone="no"?>
<svg
   xmlns:dc="http://purl.org/dc/elements/1.1/"
   xmlns:cc="http://creativecommons.org/ns#"
   xmlns:rdf="http://www.w3.org/1999/02/22-rdf-syntax-ns#"
   xmlns:svg="http://www.w3.org/2000/svg"
   xmlns="http://www.w3.org/2000/svg"
   xmlns:sodipodi="http://sodipodi.sourceforge.net/DTD/sodipodi-0.dtd"
   xmlns:inkscape="http://www.inkscape.org/namespaces/inkscape"
   width="61.071087mm"
   height="97.191147mm"
   viewBox="0 0 61.071087 97.191147"
   version="1.1"
   id="svg1460"
   inkscape:version="1.0.1 (3bc2e813f5, 2020-09-07)"
   sodipodi:docname="student-sunglasses-male.svg">
  <defs
     id="defs1454" />
  <sodipodi:namedview
     id="base"
     pagecolor="#ffffff"
     bordercolor="#666666"
     borderopacity="1.0"
     inkscape:pageopacity="0.0"
     inkscape:pageshadow="2"
     inkscape:zoom="1.4"
     inkscape:cx="129.90566"
     inkscape:cy="170.32675"
     inkscape:document-units="mm"
     inkscape:current-layer="layer1"
     inkscape:document-rotation="0"
     showgrid="false"
     fit-margin-top="0"
     fit-margin-left="0"
     fit-margin-right="0"
     fit-margin-bottom="0"
     inkscape:pagecheckerboard="true"
     showborder="false"
     inkscape:window-width="1920"
     inkscape:window-height="1017"
     inkscape:window-x="-8"
     inkscape:window-y="89"
     inkscape:window-maximized="1" />
  <metadata
     id="metadata1457">
    <rdf:RDF>
      <cc:Work
         rdf:about="">
        <dc:format>image/svg+xml</dc:format>
        <dc:type
           rdf:resource="http://purl.org/dc/dcmitype/StillImage" />
        <dc:title></dc:title>
      </cc:Work>
    </rdf:RDF>
  </metadata>
  <g
     inkscape:groupmode="layer"
     id="layer2"
     inkscape:label="Layer 2"
     transform="translate(16.57071,7.3885756)">
    <ellipse
       style="fill:#00aad4;fill-rule:evenodd;stroke-width:0.309974"
       id="path1575"
       cx="13.964833"
       cy="86.331459"
       rx="30.535543"
       ry="3.471112" />
  </g>
  <g
     inkscape:groupmode="layer"
     id="layer3"
     inkscape:label="Layer 3"
     transform="translate(16.57071,7.3885756)">
    <ellipse
       style="fill:#0088aa;fill-rule:evenodd;stroke-width:0.347448"
       id="path1578"
       cx="14.22434"
       cy="85.263412"
       rx="18.857643"
       ry="1.8690603" />
  </g>
  <g
     inkscape:label="Layer 1"
     inkscape:groupmode="layer"
     id="layer1"
     transform="translate(-272.11913,70.441297)">
    <path
       d="m 301.93122,-59.682772 0.10681,5.448619 c 0.0397,1.531441 1.06459,1.609917 2.52973,1.558226 1.25047,-0.04464 2.30822,-0.459573 2.42012,-1.74196 l 0.0781,-5.895036 -5.13483,0.630151"
       style="fill:#ed808d;fill-opacity:1;fill-rule:nonzero;stroke:none;stroke-width:0.0463264"
       id="path24" />
    <path
       d="m 302.00749,-55.670201 3.88297,-2.80067 -3.93823,0.0907 z"
       style="fill:#45283d;fill-opacity:1;fill-rule:nonzero;stroke:none;stroke-width:0.0463264"
       id="path26" />
    <path
       d="m 304.47693,-57.597307 -2.07621,0.07425 c -1.55876,0.05497 -2.85249,-1.228817 -2.855,-2.833563 l -0.006,-4.433614 c -0.004,-2.011688 1.54497,-3.662958 3.49833,-3.732504 2.00039,-0.07096 4.02865,1.527212 4.09762,3.584953 l -0.0685,4.624866 c -0.0219,1.470353 -1.16051,2.665336 -2.5891,2.715617"
       style="fill:#ed808d;fill-opacity:1;fill-rule:nonzero;stroke:none;stroke-width:0.0463264"
       id="path28" />
    <path
       d="m 308.37132,-66.31087 c 0,0 0,-1.565743 -1.37882,-1.855208 -0.33705,-0.0705 -0.68688,-0.145204 -0.97645,-0.203943 -0.0511,-0.41822 -0.21145,-0.814356 -0.59555,-1.006549 -0.74307,-0.371231 -1.42128,-0.157421 -1.91682,0.15319 -0.28773,-0.652236 -0.76407,-1.243385 -1.55145,-1.21707 -1.73186,0.05734 -3.90494,1.609916 -2.93817,4.07742 0.69452,1.772035 3.96668,0.574701 4.63714,0.402244 0.67046,-0.172457 0.99517,-0.168229 0.84766,0.808717 -0.11548,0.762667 0.90932,0.892831 1.3441,0.913977 l 0.27084,1.918178 c 0,0 1.67202,0.21475 1.40119,0 -0.34026,-0.269729 0.23932,-2.248055 0.60696,-2.796911 0.23339,-0.348205 0.24937,-1.194045 0.24937,-1.194045"
       style="fill:#45283d;fill-opacity:1;fill-rule:nonzero;stroke:none;stroke-width:0.0463264"
       id="path30" />
    <path
       d="m 302.19977,-63.719779 c -0.42155,0 -0.73759,0.390966 -0.66634,0.818114 0.13245,0.789922 0.5348,1.861789 1.74601,1.828426 1.24271,-0.03383 1.53684,-1.144234 1.59072,-1.915828 0.0274,-0.396606 -0.28818,-0.730712 -0.67501,-0.730712 h -1.99538"
       style="fill:#dd1863;fill-opacity:1;fill-rule:nonzero;stroke:none;stroke-width:0.0463264"
       id="path32" />
    <path
       d="m 299.33805,-63.719779 c -0.40728,0 -0.72699,0.366531 -0.67168,0.781931 0.10564,0.792272 0.43675,1.898442 1.46449,1.864609 1.03902,-0.03383 1.2852,-1.142824 1.3304,-1.914419 0.0228,-0.398954 -0.28818,-0.732121 -0.67638,-0.732121 h -1.44683"
       style="fill:#dd1863;fill-opacity:1;fill-rule:nonzero;stroke:none;stroke-width:0.0463264"
       id="path34" />
    <path
       d="m 303.17531,-62.566617 h -2.77453 v -1.153162 h 2.77453 v 1.153162"
       style="fill:#dd1863;fill-opacity:1;fill-rule:nonzero;stroke:none;stroke-width:0.0463264"
       id="path36" />
    <path
       d="m 304.49886,-62.904014 h 1.84327 v -0.478355 h -1.84327 z"
       style="fill:#dd1863;fill-opacity:1;fill-rule:nonzero;stroke:none;stroke-width:0.0463264"
       id="path38" />
    <path
       d="m 301.32516,-61.604709 -0.0548,0.800728 0.0269,0.07566 0.0726,0.03054 0.47636,-0.01692 c 0.053,-0.0018 0.095,-0.04793 0.0932,-0.102447 -10e-4,-0.05498 -0.0466,-0.09774 -0.10007,-0.09587 l -0.36902,0.01266 0.0475,-0.690298 c 0.004,-0.05498 -0.0361,-0.101968 -0.0895,-0.106204 -0.0529,-0.0037 -0.099,0.0376 -0.10318,0.0921"
       style="fill:#45283d;fill-opacity:1;fill-rule:nonzero;stroke:none;stroke-width:0.0463264"
       id="path40" />
    <path
       d="m 301.93122,-59.583151 h 0.75312 c 0.0535,0 0.0968,-0.04464 0.0968,-0.09962 0,-0.05451 -0.0434,-0.09916 -0.0968,-0.09916 h -0.75312 c -0.053,0 -0.0963,0.04464 -0.0963,0.09916 0,0.05497 0.0434,0.09962 0.0963,0.09962"
       style="fill:#45283d;fill-opacity:1;fill-rule:nonzero;stroke:none;stroke-width:0.0463264"
       id="path42" />
    <path
       d="m 309.00433,-62.052534 c 0.0284,0.84349 -0.61337,1.551177 -1.43317,1.580312 -0.82026,0.02913 -1.50806,-0.631091 -1.53637,-1.475052 -0.0284,-0.843021 0.61381,-1.550708 1.43362,-1.579842 0.81979,-0.02913 1.5076,0.630622 1.53592,1.474582"
       style="fill:#ed808d;fill-opacity:1;fill-rule:nonzero;stroke:none;stroke-width:0.0463264"
       id="path44" />
    <path
       d="m 307.11262,-61.530463 v -0.01079 c -4.4e-4,-0.05216 0.008,-0.282417 0.10409,-0.485888 0.10007,-0.202532 0.26261,-0.378748 0.6266,-0.382038 0.0489,0 0.10137,0.0034 0.15849,0.01079 0.0526,0.007 0.10098,-0.03148 0.10784,-0.08553 0.006,-0.05451 -0.0302,-0.104325 -0.0831,-0.11137 -0.0643,-0.0084 -0.12558,-0.01265 -0.18315,-0.01265 -0.43524,-0.0034 -0.68643,0.243415 -0.80015,0.494348 -0.11742,0.249992 -0.12338,0.503744 -0.12377,0.572352 l 4.4e-4,0.01738 c 10e-4,0.05498 0.0461,0.09774 0.0996,0.09587 0.0535,-0.0018 0.095,-0.04793 0.0932,-0.102446"
       style="fill:#45283d;fill-opacity:1;fill-rule:nonzero;stroke:none;stroke-width:0.0463264"
       id="path46" />
    <path
       d="m 310.16164,-25.305477 h -13.6088 l -0.94289,-5.513 14.55169,0.874504 v 4.638496"
       style="fill:#77babd;fill-opacity:1;fill-rule:nonzero;stroke:none;stroke-width:0.0463264"
       id="path48" />
    <path
       d="m 293.31589,12.682145 0.69183,3.940673 h 3.57077 l -0.67778,-4.149315 -3.58482,0.208642"
       style="fill:#ed808d;fill-opacity:1;fill-rule:nonzero;stroke:none;stroke-width:0.0463264"
       id="path50" />
    <path
       d="m 292.98245,16.373295 v 2.659699 l -4.65313,1.10288 c -0.93681,0.365122 -1.58223,1.256545 -1.65361,2.28471 l -0.051,0.600077 13.38223,-0.02493 -1.16517,-6.668512 -5.8593,0.04605"
       style="fill:#d2b9cb;fill-opacity:1;fill-rule:nonzero;stroke:none;stroke-width:0.0463264"
       id="path52" />
    <path
       d="m 286.81825,21.85716 h 12.96651 v -0.265059 h -12.96651 z"
       style="fill:#45283d;fill-opacity:1;fill-rule:nonzero;stroke:none;stroke-width:0.0463264"
       id="path54" />
    <path
       d="m 297.8516,19.111466 h -0.12895 c -10e-4,0.691243 -0.54449,1.249966 -1.21617,1.251375 -0.67151,-0.0015 -1.21509,-0.560605 -1.21637,-1.251375 10e-4,-0.690769 0.54486,-1.249961 1.21637,-1.25137 0.67168,0.0015 1.21493,0.560601 1.21617,1.25137 h 0.12895 0.12894 c -1.4e-4,-0.837381 -0.6599,-1.5164 -1.47413,-1.516872 -0.81405,3.51e-4 -1.47395,0.679491 -1.47413,1.516872 1.8e-4,0.837855 0.66008,1.516405 1.47413,1.516878 0.81423,-3.53e-4 1.47399,-0.679023 1.47413,-1.516878 h -0.12894"
       style="fill:#45283d;fill-opacity:1;fill-rule:nonzero;stroke:none;stroke-width:0.0463264"
       id="path56" />
    <path
       d="m 290.57151,19.674892 0.80943,0.857589 0.18497,-0.184677 -0.80939,-0.857587"
       style="fill:#45283d;fill-opacity:1;fill-rule:nonzero;stroke:none;stroke-width:0.0463264"
       id="path58" />
    <path
       d="m 291.78303,19.388715 0.80961,0.857588 0.18483,-0.184676 -0.80943,-0.857587"
       style="fill:#45283d;fill-opacity:1;fill-rule:nonzero;stroke:none;stroke-width:0.0463264"
       id="path60" />
    <path
       d="m 295.60995,-30.818477 -6.19662,24.0392454 c -0.26138,0.8481912 -0.31313,1.7504202 -0.15057,2.6244555 l 3.42067,18.3754091 h 5.32341 l -2.54586,-19.5826094 7.89655,-23.1896496 -7.74758,-2.266851"
       style="fill:#77babd;fill-opacity:1;fill-rule:nonzero;stroke:none;stroke-width:0.0463264"
       id="path62" />
    <path
       d="m 302.25183,-25.305477 -3.03097,-0.06579 1.58183,4.320834 z"
       style="fill:#64abb0;fill-opacity:1;fill-rule:nonzero;stroke:none;stroke-width:0.0463264"
       id="path64" />
    <path
       d="m 298.88171,14.220633 h -6.86923 l -0.41908,-2.671446 h 6.86923 l 0.41908,2.671446"
       style="fill:#95d9d6;fill-opacity:1;fill-rule:nonzero;stroke:none;stroke-width:0.0463264"
       id="path66" />
    <path
       d="m 292.18621,11.631421 h 5.47342 v -0.164467 h -5.47342 z"
       style="fill:#45283d;fill-opacity:1;fill-rule:nonzero;stroke:none;stroke-width:0.0463264"
       id="path68" />
    <path
       d="m 310.6316,12.682145 0.6919,3.940673 h 3.57059 l -0.67776,-4.149315 -3.58473,0.208642"
       style="fill:#ed808d;fill-opacity:1;fill-rule:nonzero;stroke:none;stroke-width:0.0463264"
       id="path70" />
    <path
       d="m 310.27171,16.373295 v 2.659699 l -4.65346,1.10288 c -0.9367,0.365122 -1.58204,1.256545 -1.65329,2.28471 l -0.0511,0.600077 13.38257,-0.02493 -1.16553,-6.668512 -5.85915,0.04605"
       style="fill:#d2b9cb;fill-opacity:1;fill-rule:nonzero;stroke:none;stroke-width:0.0463264"
       id="path72" />
    <path
       d="m 304.10746,21.85716 h 12.96652 v -0.265059 h -12.96652 z"
       style="fill:#45283d;fill-opacity:1;fill-rule:nonzero;stroke:none;stroke-width:0.0463264"
       id="path74" />
    <path
       d="m 315.14071,19.111466 h -0.12881 c -0.001,0.691243 -0.54486,1.249966 -1.21623,1.251375 -0.67182,-0.0015 -1.21485,-0.560132 -1.21622,-1.251375 10e-4,-0.690769 0.5444,-1.249961 1.21622,-1.25137 0.67137,0.0015 1.21485,0.560601 1.21623,1.25137 h 0.12881 0.12882 c 0,-0.837381 -0.65995,-1.5164 -1.47381,-1.516872 -0.81431,3.51e-4 -1.47382,0.679491 -1.47427,1.516872 4.5e-4,0.837855 0.65996,1.516405 1.47427,1.516878 0.81386,-3.53e-4 1.47381,-0.679023 1.47381,-1.516878 h -0.12882"
       style="fill:#45283d;fill-opacity:1;fill-rule:nonzero;stroke:none;stroke-width:0.0463264"
       id="path76" />
    <path
       d="m 307.86071,19.674892 0.80976,0.857589 0.18451,-0.184677 -0.80974,-0.857587"
       style="fill:#45283d;fill-opacity:1;fill-rule:nonzero;stroke:none;stroke-width:0.0463264"
       id="path78" />
    <path
       d="m 309.07192,19.388715 0.80976,0.857588 0.18496,-0.184676 -0.80975,-0.857587"
       style="fill:#45283d;fill-opacity:1;fill-rule:nonzero;stroke:none;stroke-width:0.0463264"
       id="path80" />
    <path
       d="m 310.16164,-29.943973 5.42939,44.121373 -5.48329,0.04324 -7.68052,-42.772257 7.73442,-1.392347"
       style="fill:#77babd;fill-opacity:1;fill-rule:nonzero;stroke:none;stroke-width:0.0463264"
       id="path82" />
    <path
       d="m 316.53962,14.220633 h -7.08132 l -0.41926,-2.671446 h 7.08132 l 0.41926,2.671446"
       style="fill:#95d9d6;fill-opacity:1;fill-rule:nonzero;stroke:none;stroke-width:0.0463264"
       id="path84" />
    <path
       d="m 309.79078,11.631421 h 5.47379 v -0.164467 h -5.47379 z"
       style="fill:#45283d;fill-opacity:1;fill-rule:nonzero;stroke:none;stroke-width:0.0463264"
       id="path86" />
    <path
       d="m 289.3018,-56.022634 h 2.95684 c 0.16451,0 0.29797,-0.137214 0.29797,-0.305914 v -7.263886 c 0,-0.169167 -0.13346,-0.306382 -0.29797,-0.306382 h -2.95684 c -0.16432,0 -0.29773,0.137215 -0.29773,0.306382 v 7.263886 c 0,0.1687 0.13341,0.305914 0.29773,0.305914"
       style="fill:#3b3261;fill-opacity:1;fill-rule:nonzero;stroke:none;stroke-width:0.0463264"
       id="path88" />
    <path
       d="m 288.73182,-56.022634 h 2.95685 c 0.16446,0 0.29791,-0.137214 0.29791,-0.305914 v -7.263886 c 0,-0.169167 -0.13345,-0.306382 -0.29791,-0.306382 h -2.95685 c -0.16433,0 -0.29777,0.137215 -0.29777,0.306382 v 7.263886 c 0,0.1687 0.13344,0.305914 0.29777,0.305914"
       style="fill:#2d2445;fill-opacity:1;fill-rule:nonzero;stroke:none;stroke-width:0.0463264"
       id="path90" />
    <path
       d="m 286.01795,-48.656776 0.0897,-5.803874 4.69002,0.31249 -0.0586,5.366858 -4.72108,0.124531"
       style="fill:#ed808d;fill-opacity:1;fill-rule:nonzero;stroke:none;stroke-width:0.0463264"
       id="path92" />
    <path
       d="m 285.50414,-56.016526 c 0.0618,1.64563 1.40815,2.927547 3.00718,2.864109 1.59881,-0.06391 2.84482,-1.449206 2.78307,-3.093895 -0.0618,-1.645629 -1.40813,-2.927545 -3.00699,-2.864107 -1.59904,0.06391 -2.84518,1.449205 -2.78326,3.093893"
       style="fill:#ed808d;fill-opacity:1;fill-rule:nonzero;stroke:none;stroke-width:0.0463264"
       id="path94" />
    <path
       d="m 290.41915,-58.26599 c 0,0 1.24633,-0.450645 1.42133,1.103351 0.17502,1.553996 -0.4337,3.660138 -3.32916,4.010222 l 1.90783,-5.113573"
       style="fill:#ed808d;fill-opacity:1;fill-rule:nonzero;stroke:none;stroke-width:0.0463264"
       id="path96" />
    <path
       d="m 290.8127,-50.576363 v -1.524862 h -4.79475 v 2.321361 l 4.79475,-0.796499"
       style="fill:#f5d588;fill-opacity:1;fill-rule:nonzero;stroke:none;stroke-width:0.0463264"
       id="path98" />
    <path
       d="m 301.17308,-54.56638 c 0,0 -3.4954,-1.173369 -6.35986,5.441572 l -2.95382,6.019093 0.19784,-5.759233 c 0,-0.912566 -0.7138,-1.655496 -1.60064,-1.665364 l -4.04688,-0.04558 c -0.90095,-0.01039 -1.63649,0.73823 -1.63649,1.664895 l -0.19768,11.284919 c 0,2.988635 2.27375,5.454258 5.17424,5.611208 2.15846,0.117005 4.1807,-1.086905 5.15798,-3.0704 l 3.78696,-4.832565 2.47835,-14.648544"
       style="fill:#f5d588;fill-opacity:1;fill-rule:nonzero;stroke:none;stroke-width:0.0463264"
       id="path100" />
    <path
       d="m 286.01795,-50.480972 h 4.79475 v -0.190901 h -4.79475 z"
       style="fill:#45283d;fill-opacity:1;fill-rule:nonzero;stroke:none;stroke-width:0.0463264"
       id="path102" />
    <path
       d="m 291.76664,-43.105715 0.009,4.723547 0.18556,-4.59e-4 -0.009,-4.723076"
       style="fill:#45283d;fill-opacity:1;fill-rule:nonzero;stroke:none;stroke-width:0.0463264"
       id="path104" />
    <path
       d="m 308.62342,-54.56638 h -8.33636 c -0.36615,0 -0.7037,0.2171 -0.85589,0.559665 -3.30471,7.438694 -3.94393,16.329414 -4.06737,19.489567 -0.0264,0.672443 0.23278,1.657378 0.88414,1.717996 2.94168,0.273958 10.99668,0.507973 14.10643,0.762194 0.67183,0.05545 1.2322,-0.511262 1.19019,-1.203913 -0.22928,-3.777614 -0.68872,-14.699761 -0.75357,-19.130554 -0.0179,-1.218948 -0.98285,-2.194955 -2.16757,-2.194955"
       style="fill:#f5d588;fill-opacity:1;fill-rule:nonzero;stroke:none;stroke-width:0.0463264"
       id="path106" />
    <path
       d="m 310.35117,-32.036958 v 2.092985 l -14.74122,-0.736349 0.41283,-3.797354 14.32839,2.440718"
       style="fill:#f5d588;fill-opacity:1;fill-rule:nonzero;stroke:none;stroke-width:0.0463264"
       id="path108" />
    <path
       d="m 297.08856,-48.670404 c -1.8e-4,9.11e-4 -1.35443,9.699908 -1.77013,14.614239 l -0.005,0.111838 c 3.9e-4,0.665393 0.50436,1.228349 1.1591,1.284739 l 10e-4,3.53e-4 13.87226,0.717553 0.009,-0.190783 -13.87054,-0.717553 -0.005,0.09539 0.008,-0.09492 c -0.55885,-0.04793 -0.98949,-0.530527 -0.98916,-1.094893 l 0.004,-0.09492 c 0.20729,-2.451526 0.64958,-6.103676 1.03993,-9.141182 0.19515,-1.519224 0.37747,-2.884785 0.51093,-3.87066 0.13345,-0.986342 0.21785,-1.590649 0.21803,-1.592059 l -0.1836,-0.02725"
       style="fill:#45283d;fill-opacity:1;fill-rule:nonzero;stroke:none;stroke-width:0.0463264"
       id="path110" />
    <path
       d="m 301.36673,-50.986596 h 6.38803 v -4.683605 h -6.38803 v 4.683605"
       style="fill:#f5d588;fill-opacity:1;fill-rule:nonzero;stroke:none;stroke-width:0.0463264"
       id="path112" />
    <path
       d="m 301.36673,-54.449842 h 6.38807 v -0.190901 h -6.38807 z"
       style="fill:#45283d;fill-opacity:1;fill-rule:nonzero;stroke:none;stroke-width:0.0463264"
       id="path114" />
    <path
       d="m 305.76852,-37.197522 1.76428,16.655534 c 0,0 10.05589,0.877324 16.40693,-3.081208 l -3.35181,-15.806403 -14.8194,2.232077"
       style="fill:#45283d;fill-opacity:1;fill-rule:nonzero;stroke:none;stroke-width:0.0463264"
       id="path116" />
    <path
       d="m 318.81451,-25.615619 0.90383,6.747453 -4.66896,0.550266 -1.11621,-6.696234 4.88134,-0.601485"
       style="fill:#ed808d;fill-opacity:1;fill-rule:nonzero;stroke:none;stroke-width:0.0463264"
       id="path118" />
    <path
       d="m 320.58107,-17.448094 c -0.34482,-1.607565 -1.89124,-2.623042 -3.45367,-2.267789 -1.5624,0.354779 -2.54936,1.94637 -2.20453,3.553937 0.34527,1.607566 1.89169,2.623042 3.4541,2.26779 1.56242,-0.355253 2.54937,-1.945901 2.2041,-3.553938"
       style="fill:#ed808d;fill-opacity:1;fill-rule:nonzero;stroke:none;stroke-width:0.0463264"
       id="path120" />
    <path
       d="m 316.1336,-14.334931 c 0,0 -1.14863,0.671502 -1.58981,-0.826103 -0.44073,-1.496669 -0.20552,-3.680815 2.58361,-4.554849 l -0.9938,5.380952"
       style="fill:#ed808d;fill-opacity:1;fill-rule:nonzero;stroke:none;stroke-width:0.0463264"
       id="path122" />
    <path
       d="m 319.24382,-23.415965 0.2658,2.296456 -4.88088,0.601487 -0.4864,-2.514965 5.10148,-0.382978"
       style="fill:#f5d588;fill-opacity:1;fill-rule:nonzero;stroke:none;stroke-width:0.0463264"
       id="path124" />
    <path
       d="m 308.62342,-54.56638 4.24744,30.493009 c 0.10046,0.735881 0.75037,1.256542 1.46833,1.177129 l 4.44746,-0.495759 c 0.75632,-0.08412 1.29204,-0.799318 1.17831,-1.573731 l -3.58336,-23.995547 c -0.53207,-3.236279 -3.25682,-5.605101 -6.44695,-5.605101 h -1.31123"
       style="fill:#f5d588;fill-opacity:1;fill-rule:nonzero;stroke:none;stroke-width:0.0463264"
       id="path126" />
    <path
       d="m 319.19587,-23.504778 -4.98411,0.712383 0.0256,0.188905 4.98411,-0.712385"
       style="fill:#45283d;fill-opacity:1;fill-rule:nonzero;stroke:none;stroke-width:0.0463264"
       id="path128" />
    <path
       d="m 311.76927,-54.322496 c 0,0 -2.13651,0.814356 -1.77205,6.525657 0.364,5.711301 1.10432,11.376551 1.10432,11.376551 l -2.17987,2.808189 -1.04954,-9.687689 c 0,0 -1.00339,-9.824435 2.85994,-11.245916 l 1.0372,0.223208"
       style="fill:#45283d;fill-opacity:1;fill-rule:nonzero;stroke:none;stroke-width:0.0463264"
       id="path130" />
  </g>
</svg>
