<?xml version="1.0" encoding="UTF-8" standalone="no"?>
<svg
   xmlns:dc="http://purl.org/dc/elements/1.1/"
   xmlns:cc="http://creativecommons.org/ns#"
   xmlns:rdf="http://www.w3.org/1999/02/22-rdf-syntax-ns#"
   xmlns:svg="http://www.w3.org/2000/svg"
   xmlns="http://www.w3.org/2000/svg"
   xmlns:sodipodi="http://sodipodi.sourceforge.net/DTD/sodipodi-0.dtd"
   xmlns:inkscape="http://www.inkscape.org/namespaces/inkscape"
   width="80.934158mm"
   height="76.261742mm"
   viewBox="0 0 80.934159 76.261742"
   version="1.1"
   id="svg1651"
   inkscape:version="1.0.1 (3bc2e813f5, 2020-09-07)"
   sodipodi:docname="student-prof.svg">
  <defs
     id="defs1645">
    <clipPath
       clipPathUnits="userSpaceOnUse"
       id="clipPath2321">
      <path
         d="m 4504.52,4015.02 c 0,0 -16.52,60.48 -95.85,15.21 0,0 33.45,-54.85 95.85,-15.21"
         id="path2319" />
    </clipPath>
    <clipPath
       clipPathUnits="userSpaceOnUse"
       id="clipPath2335">
      <path
         d="m 4564.68,4016.35 c 0,0 22.95,60.5 67.35,19.52 0,0 -24.77,-57.4 -67.35,-19.52"
         id="path2333" />
    </clipPath>
  </defs>
  <sodipodi:namedview
     id="base"
     pagecolor="#ffffff"
     bordercolor="#666666"
     borderopacity="1.0"
     inkscape:pageopacity="0.0"
     inkscape:pageshadow="2"
     inkscape:zoom="1.979899"
     inkscape:cx="118.91149"
     inkscape:cy="147.29471"
     inkscape:document-units="mm"
     inkscape:current-layer="layer1"
     inkscape:document-rotation="0"
     showgrid="false"
     fit-margin-top="0"
     fit-margin-left="0"
     fit-margin-right="0"
     fit-margin-bottom="0"
     inkscape:pagecheckerboard="true"
     showborder="false"
     inkscape:window-width="1920"
     inkscape:window-height="1017"
     inkscape:window-x="-8"
     inkscape:window-y="89"
     inkscape:window-maximized="1" />
  <metadata
     id="metadata1648">
    <rdf:RDF>
      <cc:Work
         rdf:about="">
        <dc:format>image/svg+xml</dc:format>
        <dc:type
           rdf:resource="http://purl.org/dc/dcmitype/StillImage" />
        <dc:title></dc:title>
      </cc:Work>
    </rdf:RDF>
  </metadata>
  <g
     inkscape:groupmode="layer"
     id="layer4"
     inkscape:label="Layer 2"
     transform="translate(43.325521,6.4778896)">
    <ellipse
       style="fill:#c8beb7;fill-rule:evenodd;stroke-width:0.264583"
       id="path1772"
       cx="18.379093"
       cy="66.854538"
       rx="19.22954"
       ry="2.5040922" />
    <ellipse
       style="fill:#c8beb7;fill-rule:evenodd;stroke-width:0.264583"
       id="path1772-7"
       cx="-24.095982"
       cy="67.279762"
       rx="19.22954"
       ry="2.5040922" />
  </g>
  <g
     inkscape:groupmode="layer"
     id="layer7"
     inkscape:label="Layer 4"
     transform="translate(43.325521,6.4778896)">
    <ellipse
       style="fill:#916f6f;fill-rule:evenodd;stroke-width:0.264583"
       id="path2679"
       cx="-25.182663"
       cy="66.854538"
       rx="10.441592"
       ry="1.4646577" />
  </g>
  <g
     inkscape:groupmode="layer"
     id="layer5"
     inkscape:label="Layer 3"
     transform="translate(43.325521,6.4778896)">
    <ellipse
       style="fill:#917c6f;fill-rule:evenodd;stroke-width:0.364659"
       id="path1775"
       cx="17.75308"
       cy="66.345451"
       rx="11.634569"
       ry="1.3122884" />
    <path
       d="m -35.542385,65.999643 -1.650733,1.022071 c -0.174995,0.10856 -0.280882,0.356624 -0.226656,0.591776 0.04294,0.185696 0.18372,0.32776 0.551158,0.336035 0.815957,0.01806 5.302016,-0.658748 5.302016,-0.658748 v 0.522091 l 1.687511,0.0049 c 0,0 0.105544,-2.694268 -0.404729,-3.046237 l -5.258567,1.228354"
       style="fill:#000000;fill-opacity:1;fill-rule:nonzero;stroke:none;stroke-width:0.0181439"
       id="path2235" />
    <path
       d="m -32.455944,64.332105 -3.086441,1.667538 c 0,0 1.159447,0.918188 2.419649,0.305955 1.260201,-0.612134 2.838918,-1.53431 2.838918,-1.53431 l -0.230248,-0.6992 -1.941878,0.260017"
       style="fill:#c67b5b;fill-opacity:1;fill-rule:nonzero;stroke:none;stroke-width:0.0181439"
       id="path2237" />
    <path
       d="m -30.514066,64.072088 0.230248,-7.735624 -2.366792,0.163002 v 8.635281 l 2.136544,-1.062659"
       style="fill:#c67b5b;fill-opacity:1;fill-rule:nonzero;stroke:none;stroke-width:0.0181439"
       id="path2239" />
    <path
       d="m -15.016681,65.999643 1.650562,1.022071 c 0.175167,0.10856 0.281053,0.356624 0.226656,0.591776 -0.04294,0.185696 -0.183718,0.32776 -0.550987,0.336035 -0.816128,0.01806 -5.302014,-0.658748 -5.302014,-0.658748 v 0.545761 l -1.663906,-0.02368 c 0,0 -0.129322,-2.689609 0.381122,-3.041578 l 5.258567,1.228354"
       style="fill:#000000;fill-opacity:1;fill-rule:nonzero;stroke:none;stroke-width:0.0181439"
       id="path2241" />
    <path
       d="m -18.103121,64.332105 3.08644,1.667538 c 0,0 -1.159618,0.918188 -2.419818,0.305955 -1.260203,-0.612134 -2.838749,-1.53431 -2.838749,-1.53431 l 0.230076,-0.6992 1.942051,0.260017"
       style="fill:#c67b5b;fill-opacity:1;fill-rule:nonzero;stroke:none;stroke-width:0.0181439"
       id="path2243" />
    <path
       d="m -20.045172,64.072088 -1.73096,-7.735624 2.366963,0.163002 1.691273,8.811795 -2.327276,-1.239173"
       style="fill:#c67b5b;fill-opacity:1;fill-rule:nonzero;stroke:none;stroke-width:0.0181439"
       id="path2245" />
    <path
       d="m -31.186504,19.027211 c 0,0 -3.259898,5.975115 -3.178986,11.249722 0.08125,5.274412 1.231292,31.452317 1.231292,31.452317 h 3.905137 l 0.785851,-33.082734 0.470417,-0.03233 6.094539,33.128154 3.667193,-0.396463 -3.864425,-30.763143 c -0.264459,-1.902152 -0.717599,-3.766778 -1.37601,-5.544032 -0.562618,-1.51899 -1.238648,-4.077196 -2.203086,-5.4174 l -5.531922,-0.594088"
       style="fill:#294286;fill-opacity:1;fill-rule:nonzero;stroke:none;stroke-width:0.0181439"
       id="path2247" />
    <path
       d="m -28.419774,28.710984 2.18256,-0.148567 c 0.02155,-0.0013 0.03797,-0.02232 0.03678,-0.04657 -0.0013,-0.02425 -0.01984,-0.04272 -0.04139,-0.04118 l -2.182559,0.148378 c -0.02155,0.0016 -0.03797,0.02232 -0.03678,0.04657 0.0013,0.02425 0.01984,0.04272 0.04139,0.04139"
       style="fill:#000000;fill-opacity:1;fill-rule:nonzero;stroke:none;stroke-width:0.0181439"
       id="path2249" />
    <path
       d="m -36.658554,12.978582 -2.893658,4.866809 c -1.011821,1.781681 1.407315,3.617824 2.501245,1.909658 l 4.926881,-7.397881 -4.534468,0.621414"
       style="fill:#c67b5b;fill-opacity:1;fill-rule:nonzero;stroke:none;stroke-width:0.0181439"
       id="path2251" />
    <path
       d="m -32.448417,7.3113827 c -1.827096,-0.6762618 -4.610932,4.6260573 -5.710507,6.5397553 l 4.410791,3.26603 c 0.81784,-1.51129 6.266283,-7.6122673 1.299716,-9.8057853"
       style="fill:#ca98be;fill-opacity:1;fill-rule:nonzero;stroke:none;stroke-width:0.0181439"
       id="path2253" />
    <path
       d="m -25.179719,7.2521087 c 0,0 3.161025,0.232477 3.288121,5.4624353 l -2.169556,0.562909 -1.118565,-6.0253443"
       style="fill:#ca98be;fill-opacity:1;fill-rule:nonzero;stroke:none;stroke-width:0.0181439"
       id="path2255" />
    <path
       d="m -32.906517,7.2303627 c 3.533082,-0.7307246 5.487789,-0.7305318 8.140421,0.116045 3.00228,0.958004 0.459981,10.0786773 -0.244787,13.5381163 h -7.034345 l -2.367817,-10.287867 c 0.323989,-0.8232923 0.401308,-3.2904703 1.506528,-3.3662943"
       style="fill:#ca98be;fill-opacity:1;fill-rule:nonzero;stroke:none;stroke-width:0.0181439"
       id="path2257" />
    <path
       d="m -33.006244,16.539055 -0.840933,-4.000024 c -0.0047,-0.0229 -0.02532,-0.03715 -0.04567,-0.03176 -0.02052,0.0055 -0.03302,0.02848 -0.02823,0.05157 l 0.840934,3.999832 c 0.0047,0.0229 0.02532,0.03715 0.04567,0.03176 0.02036,-0.0053 0.03302,-0.02848 0.02823,-0.05139"
       style="fill:#000000;fill-opacity:1;fill-rule:nonzero;stroke:none;stroke-width:0.0181439"
       id="path2259" />
    <path
       d="m -23.938163,15.186533 0.506509,-3.999832 c 0.0029,-0.02328 -0.01164,-0.04503 -0.03233,-0.04831 -0.0207,-0.0034 -0.04003,0.0129 -0.04294,0.03618 l -0.50651,3.999833 c -0.0029,0.02348 0.01145,0.04503 0.03216,0.04831 0.02086,0.0035 0.04003,-0.0129 0.04312,-0.03618"
       style="fill:#000000;fill-opacity:1;fill-rule:nonzero;stroke:none;stroke-width:0.0181439"
       id="path2261" />
    <path
       d="m -27.704741,8.3671507 -2.197785,-1.527457 0.115809,-0.8473472 h -0.362819 c -0.15002,0 -0.293882,0.066968 -0.399939,0.1862894 l -0.659095,0.7397688 1.514055,2.552627 c 0.158401,0.267115 0.488035,0.319847 0.706308,0.112773 l 1.283466,-1.216654"
       style="fill:#ffffff;fill-opacity:1;fill-rule:nonzero;stroke:none;stroke-width:0.0181439"
       id="path2263" />
    <path
       d="m -27.045303,5.9923465 h 0.273182 c 0.189024,0 0.365557,0.1062354 0.470588,0.2827053 l 0.455362,0.7655569 -0.198429,2.212187 c -0.02,0.22497 -0.252315,0.33736 -0.4114,0.199183 l -1.248741,-1.084828 0.703229,-1.323463 -0.04379,-1.0513412"
       style="fill:#ffffff;fill-opacity:1;fill-rule:nonzero;stroke:none;stroke-width:0.0181439"
       id="path2265" />
    <path
       d="m -27.487153,9.4213797 c 0,0.13529 -0.0975,0.244792 -0.217588,0.244792 -0.120256,0 -0.21776,-0.109502 -0.21776,-0.244792 0,-0.135293 0.0975,-0.244793 0.21776,-0.244793 0.120084,0 0.217588,0.1095 0.217588,0.244793"
       style="fill:#ffffff;fill-opacity:1;fill-rule:nonzero;stroke:none;stroke-width:0.0181439"
       id="path2267" />
    <path
       d="m -27.438572,10.39709 c 0,0.13529 -0.0975,0.244793 -0.217759,0.244793 -0.120084,0 -0.217589,-0.109503 -0.217589,-0.244793 0,-0.135293 0.09751,-0.244987 0.217589,-0.244987 0.120254,0 0.217759,0.109694 0.217759,0.244987"
       style="fill:#ffffff;fill-opacity:1;fill-rule:nonzero;stroke:none;stroke-width:0.0181439"
       id="path2269" />
    <path
       d="m -29.624381,15.074145 c 0,0 1.227358,-2.445241 4.444662,-0.999766 l -1.247201,2.984286 -2.813602,-0.10835 -0.383859,-1.87617"
       style="fill:#c67b5b;fill-opacity:1;fill-rule:nonzero;stroke:none;stroke-width:0.0181439"
       id="path2271" />
    <path
       d="m -29.624381,15.074145 -8.644022,1.66775 0.505483,3.626677 8.522398,-3.418257 -0.383859,-1.87617"
       style="fill:#c67b5b;fill-opacity:1;fill-rule:nonzero;stroke:none;stroke-width:0.0181439"
       id="path2273" />
    <path
       d="m -35.160921,16.099121 -2.112766,0.407604 c -0.0207,0.004 -0.03455,0.02598 -0.03096,0.04926 0.0034,0.02328 0.02309,0.03887 0.04379,0.03503 l 2.112766,-0.407604 c 0.0207,-0.004 0.03455,-0.02618 0.03096,-0.04946 -0.0037,-0.02328 -0.02309,-0.03887 -0.04379,-0.03484"
       style="fill:#000000;fill-opacity:1;fill-rule:nonzero;stroke:none;stroke-width:0.0181439"
       id="path2275" />
    <path
       d="m -29.011128,22.850376 -0.586054,-0.732647 3.559594,-9.403185 c 0,0 6.387395,-1.209534 8.999658,-0.213039 l -11.973198,10.348871"
       style="fill:#ffffff;fill-opacity:1;fill-rule:nonzero;stroke:none;stroke-width:0.0181439"
       id="path2277" />
    <path
       d="m -17.03793,12.501505 -1.388496,0.213039 -4.134017,9.12452 c 0,0 1.199134,0.03541 1.735749,-1.13621 l 3.786764,-8.201349"
       style="fill:#000000;fill-opacity:1;fill-rule:nonzero;stroke:none;stroke-width:0.0181439"
       id="path2279" />
    <path
       d="m -18.426426,12.714544 -7.111836,0.710323 -3.472866,9.425509 6.450685,-1.011312 4.134017,-9.12452"
       style="fill:#212e38;fill-opacity:1;fill-rule:nonzero;stroke:none;stroke-width:0.0181439"
       id="path2281" />
    <path
       d="m -20.818707,14.928846 -3.971165,0.396634 -0.389847,1.070781 3.867504,-0.412031 0.493508,-1.055384"
       style="fill:#ffffff;fill-opacity:1;fill-rule:nonzero;stroke:none;stroke-width:0.0181439"
       id="path2283" />
    <path
       d="m -17.03793,12.501505 -0.836826,-4.3327673 h -0.819894 l -1.590177,4.1089493 3.246897,0.223818"
       style="fill:#ffffff;fill-opacity:1;fill-rule:nonzero;stroke:none;stroke-width:0.0181439"
       id="path2285" />
    <path
       d="m -20.038842,19.000461 c 0,0 0.946478,0.259999 1.747897,-1.115619 0.801587,-1.375616 0.02497,-2.10557 0.02497,-2.10557 l -2.007391,-1.589233 c -0.08382,-0.0662 -0.197574,-0.05638 -0.271302,0.02387 -0.0869,0.09468 -0.08672,0.251528 3.85e-4,0.345829 l 1.191435,1.287667 -1.80041,-1.333086 c -0.13719,-0.101421 -0.322107,-0.05407 -0.406441,0.1045 -0.07493,0.14068 -0.04499,0.321772 0.06963,0.422807 l 1.668864,1.469723 -1.499515,-0.874289 c -0.1194,-0.06966 -0.266513,-0.01558 -0.326383,0.120088 -0.05234,0.118354 -0.02104,0.261728 0.07389,0.339477 l 1.526714,1.250718 -1.302624,-0.699355 c -0.124705,-0.06716 -0.274381,-0.01136 -0.339042,0.126052 v 1.45e-4 c -0.06004,0.127209 -0.02771,0.284824 0.07579,0.369884 l 1.756449,1.444512 -0.182863,0.411839"
       style="fill:#c67b5b;fill-opacity:1;fill-rule:nonzero;stroke:none;stroke-width:0.0181439"
       id="path2287" />
    <path
       d="m -26.171528,1.115145 c 0.03063,-0.39163113 0.120769,-0.77671863 0.28225,-1.13659633 0.221524,-0.49382 0.563645,-0.9687816 1.088457,-0.6985849 0.893449,0.4599505 0.03473,2.09960393 -0.874802,2.24432493 -0.267539,0.042527 -0.515063,-0.1624258 -0.495905,-0.4091437"
       style="fill:#a4563a;fill-opacity:1;fill-rule:nonzero;stroke:none;stroke-width:0.0181439"
       id="path2289" />
    <path
       d="m -24.711014,1.2325382 c 0.01011,0.1526105 -0.09185,0.2854 -0.22734,0.2965622 -0.13565,0.011352 -0.253682,-0.1031522 -0.263603,-0.2557638 -0.01011,-0.1524184 0.09168,-0.28520703 0.227339,-0.29656133 0.13548,-0.011158 0.253512,0.10334493 0.263604,0.25576293"
       style="fill:#ffffff;fill-opacity:1;fill-rule:nonzero;stroke:none;stroke-width:0.0181439"
       id="path2291" />
    <path
       d="m -29.373435,1.9072592 c 0,1.4014039 -1.00977,2.5374233 -2.255261,2.5374233 -1.24566,0 -2.25543,-1.1360194 -2.25543,-2.5374233 0,-1.40121123 1.00977,-2.53722923 2.25543,-2.53722923 1.245491,0 2.255261,1.136018 2.255261,2.53722923"
       style="fill:#000000;fill-opacity:1;fill-rule:nonzero;stroke:none;stroke-width:0.0181439"
       id="path2293" />
    <path
       d="m -31.074973,-4.6667527 c 0,0 -0.666451,-0.4051025 -1.364891,0.720909 -0.698438,1.1263958 -0.5905,3.48503517 0.833577,3.91419277 l 0.531314,-4.63510177"
       style="fill:#000000;fill-opacity:1;fill-rule:nonzero;stroke:none;stroke-width:0.0181439"
       id="path2295" />
    <path
       d="m -31.074973,-4.6667527 c 0,0 0.379925,-2.202178 3.323703,-1.7499267 2.943778,0.4520592 4.889419,1.8686666 2.844906,5.0032551 l -6.168609,-3.2533284"
       style="fill:#000000;fill-opacity:1;fill-rule:nonzero;stroke:none;stroke-width:0.0181439"
       id="path2297" />
    <path
       d="m -24.956999,-2.0107819 c 0.02703,2.13539937 -1.388838,3.885133 -3.432669,3.9176568 -2.043828,0.032523 -3.722615,-1.67198603 -3.749472,-3.8073845 -0.02685,-2.1353993 1.608139,-3.8928311 3.651968,-3.9253557 2.043831,-0.032523 3.503316,1.6796831 3.530173,3.8150834"
       style="fill:#000000;fill-opacity:1;fill-rule:nonzero;stroke:none;stroke-width:0.0181439"
       id="path2299" />
    <path
       d="m -29.123003,1.1395863 -0.779523,5.7001074 2.197785,1.527457 0.703229,-1.323463 -0.219983,-5.2738357 -1.901508,-0.6302657"
       style="fill:#c67b5b;fill-opacity:1;fill-rule:nonzero;stroke:none;stroke-width:0.0181439"
       id="path2301" />
    <path
       d="M -27.084648,5.0555106 -28.993339,3.0196071 -27.21089,2.1684118 Z"
       style="fill:#a4563a;fill-opacity:1;fill-rule:nonzero;stroke:none;stroke-width:0.0181439"
       id="path2303" />
    <path
       d="m -29.059368,-4.9438772 c 0.624198,-0.2024557 1.288768,-0.2565323 1.926482,-0.1160455 0.863684,0.19033 1.975404,0.7819145 2.13569,2.5510856 0.267537,2.94868387 -0.02191,5.1629865 -1.309469,5.8517564 -0.988558,0.5286537 -1.715393,0.3421715 -2.870051,-0.3902836 -0.429532,-0.2725061 -0.85171,-1.2805472 -0.974189,-1.8440342 l -0.51147,-1.57114203 c 0,0 -1.379944,-3.51294037 1.603007,-4.48133667"
       style="fill:#c67b5b;fill-opacity:1;fill-rule:nonzero;stroke:none;stroke-width:0.0181439"
       id="path2305" />
    <path
       d="m -26.503213,0.27780527 0.343489,0.7141734 -0.285329,0.26018923 c -0.01625,0.014816 -0.01882,0.041761 -0.0056,0.060235 0.01318,0.01828 0.03712,0.021171 0.05354,0.00619 l 0.309789,-0.2823213 c 0.0142,-0.013089 0.01813,-0.035599 0.0096,-0.053695 l -0.358543,-0.7453504 c -0.0099,-0.020784 -0.03302,-0.028478 -0.05149,-0.017319 -0.01848,0.011158 -0.02532,0.037142 -0.0154,0.057926"
       style="fill:#000000;fill-opacity:1;fill-rule:nonzero;stroke:none;stroke-width:0.0181439"
       id="path2307" />
    <path
       d="m -26.126881,-2.3059973 c 0,0 -0.104178,0.2913664 0.300553,0.3442893 0.307225,0.040218 0.502405,0.06139 0.675004,0.1248983 0.09784,0.036376 0.211089,0.00388 0.268053,-0.076206 0.04619,-0.064465 0.04669,-0.1472225 -10e-4,-0.210346 -0.09666,-0.127978 -0.302272,-0.3258142 -0.675526,-0.3793144 -0.479312,-0.068511 -0.567066,0.1966815 -0.567066,0.1966815"
       style="fill:#000000;fill-opacity:1;fill-rule:nonzero;stroke:none;stroke-width:0.0181439"
       id="path2309" />
    <path
       d="m -27.34158,-2.3142728 c 0,0 0.137704,0.2896343 -0.428677,0.3508328 -0.429875,0.046379 -0.942885,0.1889834 -1.185277,0.2561471 -0.137534,0.038103 -0.294738,0.00813 -0.372228,-0.07082 -0.06278,-0.063699 -0.06141,-0.146453 0.0069,-0.2105381 0.138217,-0.1300951 0.670728,-0.4495578 1.192805,-0.5107562 0.670899,-0.078331 0.786536,0.1851342 0.786536,0.1851342"
       style="fill:#000000;fill-opacity:1;fill-rule:nonzero;stroke:none;stroke-width:0.0181439"
       id="path2311" />
    <path
       d="m -26.159382,1.9261194 c 0,0 -0.10811,0.451867 -0.562788,0.424347 -0.623858,-0.037715 -0.867961,-0.5942779 -0.867961,-0.5942779 l 1.430749,0.1699309"
       style="fill:#be5640;fill-opacity:1;fill-rule:nonzero;stroke:none;stroke-width:0.0181439"
       id="path2341" />
    <path
       d="m -27.532655,1.7561885 c 0,0 1.26961,-0.2482577 1.35018,0.1528036 0,0 -0.884382,0.1508784 -1.35018,-0.1528036"
       style="fill:#be5640;fill-opacity:1;fill-rule:nonzero;stroke:none;stroke-width:0.0181439"
       id="path2343" />
    <path
       d="m -26.10738,1.8314356 -0.0088,0.00443 c -0.04414,0.021551 -0.249406,0.1121973 -0.553721,0.1121973 -0.256418,0 -0.583487,-0.064087 -0.946648,-0.289056 -0.0183,-0.011362 -0.04139,-0.00388 -0.05149,0.016932 -0.01022,0.020589 -0.0034,0.046573 0.01489,0.05812 0.374622,0.2320919 0.715545,0.2996408 0.983254,0.2994486 0.363332,0 0.59204,-0.1231663 0.595632,-0.1250903 0.01882,-0.010203 0.02685,-0.035794 0.01779,-0.056966 -0.009,-0.021365 -0.03181,-0.030408 -0.0508,-0.020017"
       style="fill:#000000;fill-opacity:1;fill-rule:nonzero;stroke:none;stroke-width:0.0181439"
       id="path2345" />
    <path
       d="m -30.182209,0.39750767 c 0,0 1.405946,-3.41440657 -0.524641,-4.50693177 0,0 -0.618555,-0.6889626 -0.932109,1.1596899 -0.502918,2.96581037 1.45675,3.34724187 1.45675,3.34724187"
       style="fill:#000000;fill-opacity:1;fill-rule:nonzero;stroke:none;stroke-width:0.0181439"
       id="path2347" />
    <path
       d="m -29.793901,1.1661439 c -0.08211,-0.40337053 -0.22563,-0.78980583 -0.44014,-1.13871353 -0.294394,-0.4786166 -0.711953,-0.9181679 -1.223936,-0.5513615 -0.872236,0.6248767 0.233498,2.19409563 1.199818,2.19698213 0.28413,7.639e-4 0.515918,-0.2530683 0.464258,-0.5069071"
       style="fill:#c67b5b;fill-opacity:1;fill-rule:nonzero;stroke:none;stroke-width:0.0181439"
       id="path2349" />
    <path
       d="m -31.195913,0.30859707 c 0.08981,-0.035988 0.173284,-0.051192 0.250604,-0.051192 0.242564,-1.874e-4 0.432098,0.1508786 0.562618,0.3061844 0.065,0.077361 0.114781,0.1551128 0.148138,0.2134246 0.01659,0.02906 0.02908,0.053307 0.03747,0.070054 l 0.01215,0.025595 c 0.0092,0.021162 0.03198,0.029827 0.0508,0.019434 0.01882,-0.010394 0.02668,-0.035988 0.01727,-0.057344 -0.001,-0.00231 -0.07236,-0.1651212 -0.210575,-0.3298553 -0.138046,-0.1643508 -0.345713,-0.3327429 -0.61787,-0.332935 -0.08639,0 -0.178587,0.017126 -0.276091,0.056199 -0.01984,0.00785 -0.03011,0.03233 -0.02309,0.054656 0.0071,0.022132 0.02891,0.033872 0.04859,0.025789"
       style="fill:#000000;fill-opacity:1;fill-rule:nonzero;stroke:none;stroke-width:0.0181439"
       id="path2351" />
    <path
       d="m -30.150905,1.5639334 c 0,0.1528026 -0.110162,0.2767393 -0.245984,0.2767393 -0.135993,0 -0.246327,-0.1239367 -0.246327,-0.2767393 0,-0.1529966 0.110334,-0.2769325 0.246327,-0.2769325 0.135822,0 0.245984,0.1239359 0.245984,0.2769325"
       style="fill:#ffffff;fill-opacity:1;fill-rule:nonzero;stroke:none;stroke-width:0.0181439"
       id="path2353" />
    <path
       d="m -30.483617,-3.9612392 c 0,0 1.704275,0.791922 3.156749,0 1.452472,-0.7921149 2.307945,0.7091697 2.307945,0.7091697 0,0 -0.518141,-2.3867367 -2.924789,-2.2002547 -2.406649,0.1864819 -2.539905,1.491085 -2.539905,1.491085"
       style="fill:#000000;fill-opacity:1;fill-rule:nonzero;stroke:none;stroke-width:0.0181439"
       id="path2355" />
  </g>
  <g
     inkscape:label="Layer 1"
     inkscape:groupmode="layer"
     id="layer1"
     transform="translate(-271.03752,27.168645)">
    <path
       d="m 331.25514,-16.317352 c 0,0 -3.39312,4.63797 -0.83503,9.0085345 h 8.13612 c 0,0 1.58115,-2.353734 -0.63253,-5.4613535 0,0 -0.72814,-1.579386 -0.508,-4.154664 0.22048,-2.575278 -4.84541,-1.579034 -4.84541,-1.579034 l -1.31515,2.186517"
       style="fill:#542b45;fill-opacity:1;fill-rule:nonzero;stroke:none;stroke-width:0.0352777"
       id="path248" />
    <path
       d="m 330.18199,34.779302 -0.92322,7.202027 -2.6797,0.369324 0.002,-7.571351 h 3.60072"
       style="fill:#ed808d;fill-opacity:1;fill-rule:nonzero;stroke:none;stroke-width:0.0352777"
       id="path250" />
    <path
       d="m 330.2409,41.388911 h -5.26464 l 0.0277,1.668003 c 0,0 -2.65822,0.156247 -2.55404,3.336221 h 7.86331 l -0.0723,-5.004224"
       style="fill:#b22876;fill-opacity:1;fill-rule:nonzero;stroke:none;stroke-width:0.0352777"
       id="path252" />
    <path
       d="m 322.27694,45.476335 h 8.03628 v 0.9168 h -8.03628 v -0.9168"
       style="fill:#432d52;fill-opacity:1;fill-rule:nonzero;stroke:none;stroke-width:0.0352777"
       id="path254" />
    <path
       d="m 325.02254,43.148954 0.0363,-0.0067 c 0.0739,-0.01199 0.25577,-0.03665 0.49774,-0.03665 0.37288,0 0.88734,0.05923 1.37061,0.309067 l 0.0858,-0.166439 c -0.52102,-0.268888 -1.06426,-0.329496 -1.45644,-0.329919 -0.33955,5.29e-4 -0.56678,0.04618 -0.57119,0.04685 l 0.0372,0.183832"
       style="fill:#45283d;fill-opacity:1;fill-rule:nonzero;stroke:none;stroke-width:0.0352777"
       id="path256" />
    <path
       d="m 329.03624,2.2740375 c 0,0 -0.57411,2.294467 -2.16299,16.3113865 -1.57826,13.925198 -1.83952,19.919952 -1.83952,19.919952 h 6.38086 l 5.16467,-34.7775405 -2.22426,-1.512711 -5.31876,0.05891"
       style="fill:#8facdf;fill-opacity:1;fill-rule:nonzero;stroke:none;stroke-width:0.0352777"
       id="path258" />
    <path
       d="m 324.20262,39.103721 h 7.85297 l 0.35878,-3.247353 h -7.85263 l -0.35912,3.247353"
       style="fill:#a6bee7;fill-opacity:1;fill-rule:nonzero;stroke:none;stroke-width:0.0352777"
       id="path260" />
    <path
       d="m 325.15871,35.927628 h 6.64916 v -0.142213 h -6.64916 z"
       style="fill:#45283d;fill-opacity:1;fill-rule:nonzero;stroke:none;stroke-width:0.0352777"
       id="path262" />
    <path
       d="m 339.88761,34.779302 0.15381,7.202027 -2.6797,0.369324 -1.07491,-7.571351 h 3.6008"
       style="fill:#ed808d;fill-opacity:1;fill-rule:nonzero;stroke:none;stroke-width:0.0352777"
       id="path264" />
    <path
       d="m 341.02356,41.388911 h -5.26451 l 0.38665,1.668003 c 0,0 -2.65818,0.156247 -2.55411,3.336221 h 8.22254 l -0.79057,-5.004224"
       style="fill:#b22876;fill-opacity:1;fill-rule:nonzero;stroke:none;stroke-width:0.0352777"
       id="path266" />
    <path
       d="m 333.41872,45.476335 h 8.39541 v 0.9168 h -8.39541 v -0.9168"
       style="fill:#432d52;fill-opacity:1;fill-rule:nonzero;stroke:none;stroke-width:0.0352777"
       id="path268" />
    <path
       d="m 336.16439,43.148954 0.0363,-0.0067 c 0.0737,-0.01199 0.25577,-0.03665 0.49742,-0.03665 0.37324,0 0.88759,0.05923 1.3709,0.309067 l 0.0857,-0.166439 c -0.52106,-0.268888 -1.06433,-0.329496 -1.45662,-0.329919 -0.33938,5.29e-4 -0.56657,0.04618 -0.57115,0.04685 l 0.0374,0.183832"
       style="fill:#45283d;fill-opacity:1;fill-rule:nonzero;stroke:none;stroke-width:0.0352777"
       id="path270" />
    <path
       d="m 337.8034,2.3431825 c 0,0 3.00249,4.410075 3.14784,9.9179935 0.20496,7.766756 0.85266,26.630878 0.85266,26.630878 l -6.46007,-0.180374 -4.439,-36.4545755 6.89857,0.08608"
       style="fill:#8facdf;fill-opacity:1;fill-rule:nonzero;stroke:none;stroke-width:0.0352777"
       id="path272" />
    <path
       d="m 333.51362,24.398849 -0.91581,-12.651317 -2.21721,-2.6010305 -0.10795,0.09208 2.18687,2.5657535 0.91264,12.60475 0.14146,-0.01024"
       style="fill:#45283d;fill-opacity:1;fill-rule:nonzero;stroke:none;stroke-width:0.0352777"
       id="path274" />
    <path
       d="m 334.2795,39.103721 h 8.11283 v -3.247353 h -8.11283 v 3.247353"
       style="fill:#a6bee7;fill-opacity:1;fill-rule:nonzero;stroke:none;stroke-width:0.0352777"
       id="path276" />
    <path
       d="m 334.99599,35.927628 h 6.70458 v -0.142213 h -6.70458 z"
       style="fill:#45283d;fill-opacity:1;fill-rule:nonzero;stroke:none;stroke-width:0.0352777"
       id="path278" />
    <path
       d="m 332.58052,-6.6660565 c 0.23566,-1.173339 -0.47166,-2.330098 -1.62348,-2.655712 -1.24319,-0.351366 -2.53072,0.392642 -2.84547,1.645709 -0.22532,0.897114 -0.39342,2.477206 -0.55495,4.159603 l 4.71417,0.197555 0.30973,-3.347155"
       style="fill:#b22876;fill-opacity:1;fill-rule:nonzero;stroke:none;stroke-width:0.0352777"
       id="path280" />
    <path
       d="m 332.27079,-3.3220765 -4.71417,-0.198261 c -0.21372,2.226734 -0.416,4.631267 -0.72401,5.870928 -0.34727,1.397706 0.57189,2.794 1.99305,3.028598 1.31153,0.216252 2.55895,-0.645584 2.82036,-1.949451 l 0.62477,-6.751814"
       style="fill:#ed808d;fill-opacity:1;fill-rule:nonzero;stroke:none;stroke-width:0.0352777"
       id="path282" />
    <path
       d="m 318.14327,4.4704325 10.59998,-3.087511 c 1.13535,-0.293864 2.28611,0.420511 2.526,1.56845 0.24306,1.160639 -0.54469,2.285647 -1.71838,2.454628 l -10.55296,1.424516 -0.85464,-2.360083"
       style="fill:#ed808d;fill-opacity:1;fill-rule:nonzero;stroke:none;stroke-width:0.0352777"
       id="path284" />
    <path
       d="m 319.27339,7.4485825 c 1.05569,-0.494948 1.51032,-1.752247 1.01547,-2.808111 -0.49512,-1.055864 -1.75217,-1.510242 -2.80818,-1.015295 -1.05569,0.494595 -1.51031,1.752248 -1.01519,2.807758 0.49484,1.055865 1.7519,1.510242 2.8079,1.015648"
       style="fill:#ed808d;fill-opacity:1;fill-rule:nonzero;stroke:none;stroke-width:0.0352777"
       id="path286" />
    <path
       d="m 316.69039,4.4711385 c 0,0 -0.64851,-0.522817 0.31542,-1.068564 0.96407,-0.5461 2.23368,-0.609248 3.28305,1.237897 l -3.59847,-0.169333"
       style="fill:#ed808d;fill-opacity:1;fill-rule:nonzero;stroke:none;stroke-width:0.0352777"
       id="path288" />
    <path
       d="m 316.76479,-0.03348153 -2.24716,0.637469 c -0.12513,0.03528 -0.18672,0.169686 -0.13779,0.299861 l 2.09751,5.59329203 c 0.0489,0.130175 0.1899,0.207082 0.31489,0.17145 l 2.2473,-0.637468 c 0.12499,-0.03528 0.18672,-0.169688 0.13765,-0.299862 l -2.09751,-5.59329203 c -0.0489,-0.130175 -0.18976,-0.207081 -0.31489,-0.17145"
       style="fill:#3b3261;fill-opacity:1;fill-rule:nonzero;stroke:none;stroke-width:0.0352777"
       id="path290" />
    <path
       d="m 317.19807,-0.15660153 -2.24719,0.63747 c -0.12513,0.03563 -0.18673,0.169686 -0.1378,0.300214 l 2.09751,5.59294003 c 0.0489,0.130175 0.18976,0.207433 0.31489,0.171802 l 2.24716,-0.637117 c 0.12513,-0.035631 0.18673,-0.170039 0.1378,-0.300214 l -2.09751,-5.59293903 c -0.0489,-0.130528 -0.18976,-0.207433 -0.31486,-0.172156"
       style="fill:#2d2445;fill-opacity:1;fill-rule:nonzero;stroke:none;stroke-width:0.0352777"
       id="path292" />
    <path
       d="m 317.36688,0.40678547 -1.97475,0.559858 1.7096,4.55859503 1.9746,-0.560212 -1.70945,-4.55824103"
       style="fill:#e5e3e2;fill-opacity:1;fill-rule:nonzero;stroke:none;stroke-width:0.0352777"
       id="path294" />
    <path
       d="m 315.39213,0.96664347 3.6842,3.99838303 -1.70945,-4.55824103 z"
       style="fill:#ffffff;fill-opacity:1;fill-rule:nonzero;stroke:none;stroke-width:0.0352777"
       id="path296" />
    <path
       d="m 331.3391,-9.7211125 -1.8736,0.459669 c -0.29503,0.126295 -0.44345,0.738012 -0.42859,1.058687 l 0.4935,10.476794 8.32026,-0.615597 2.18052,-7.300031 c 0.0152,-0.57785 -1.3342,-4.286955 -1.91029,-4.331758 l -4.15819,-0.059971 -2.62361,0.3122105"
       style="fill:#b22876;fill-opacity:1;fill-rule:nonzero;stroke:none;stroke-width:0.0352777"
       id="path298" />
    <path
       d="m 329.03624,2.2740375 -0.43438,-3.18170203 c 0,0 1.45913,-0.71331697 1.51381,-5.95347797 l 6.17572,-0.211314 c 0,0 -0.40922,5.264855 2.23767,6.45230497 l -0.72566,2.96333403 -8.76716,-0.06915"
       style="fill:#8facdf;fill-opacity:1;fill-rule:nonzero;stroke:none;stroke-width:0.0352777"
       id="path300" />
    <path
       d="m 335.66662,-6.8325675 1.03823,-3.160889 -1.06045,-0.0063 -0.88089,3.167239 h 0.90311"
       style="fill:#8facdf;fill-opacity:1;fill-rule:nonzero;stroke:none;stroke-width:0.0352777"
       id="path302" />
    <path
       d="m 330.83392,-6.8611425 -0.65264,-2.575984 0.82762,-0.202847 0.66322,3.178528 -0.8382,-0.399697"
       style="fill:#8facdf;fill-opacity:1;fill-rule:nonzero;stroke:none;stroke-width:0.0352777"
       id="path304" />
    <path
       d="m 334.76351,-4.4918875 h -3.62408 v 1.029406 c 0,1.150408 0.81103,2.083153 1.81186,2.083153 1.00083,0 1.81222,-0.932745 1.81222,-2.083153 v -1.029406"
       style="fill:#a6bee7;fill-opacity:1;fill-rule:nonzero;stroke:none;stroke-width:0.0352777"
       id="path306" />
    <path
       d="m 334.99635,-6.4614455 c 0,0.129469 0.10512,0.234597 0.23424,0.234597 0.12982,0 0.2346,-0.105128 0.2346,-0.234597 0,-0.12947 -0.10478,-0.234597 -0.2346,-0.234597 -0.12912,0 -0.23424,0.105127 -0.23424,0.234597"
       style="fill:#45283d;fill-opacity:1;fill-rule:nonzero;stroke:none;stroke-width:0.0352777"
       id="path308" />
    <path
       d="m 331.07205,-6.3637265 c 0,0.12947 0.10477,0.234245 0.23424,0.234245 0.12982,0 0.2346,-0.104775 0.2346,-0.234245 0,-0.129822 -0.10478,-0.234597 -0.2346,-0.234597 -0.12947,0 -0.23424,0.104775 -0.23424,0.234597"
       style="fill:#45283d;fill-opacity:1;fill-rule:nonzero;stroke:none;stroke-width:0.0352777"
       id="path310" />
    <path
       d="m 329.41046,-1.4569395 -0.61482,7.994649 9.5401,3.4861495 0.66322,-7.2862715 -9.5885,-4.194527"
       style="fill:#dd1863;fill-opacity:1;fill-rule:nonzero;stroke:none;stroke-width:0.0352777"
       id="path312" />
    <path
       d="m 330.4247,-1.5631265 -0.61489,7.994651 9.54017,3.485798 0.66287,-7.285568 -9.58815,-4.194881"
       style="fill:#dd1863;fill-opacity:1;fill-rule:nonzero;stroke:none;stroke-width:0.0352777"
       id="path314" />
    <path
       d="m 339.34998,9.9173225 -1.01424,0.1065365 -9.5401,-3.4861495 1.01417,-0.106185 9.54017,3.485798"
       style="fill:#c31a60;fill-opacity:1;fill-rule:nonzero;stroke:none;stroke-width:0.0352777"
       id="path316" />
    <path
       d="m 330.38413,-1.0350175 -0.66428,0.0695 -0.67095,7.476772 0.76091,-0.07973 0.57432,-7.466542"
       style="fill:#ffffff;fill-opacity:1;fill-rule:nonzero;stroke:none;stroke-width:0.0352777"
       id="path318" />
    <path
       d="m 340.46934,-8.3576265 c -0.4258,-1.195211 -1.69933,-1.8623145 -2.92453,-1.530703 -1.32185,0.35807 -1.31268,3.696053 -0.91581,5.007328 0.28399,0.938742 0.21767,0.508353 0.98743,2.126192 l 4.39561,-2.389364 -1.5427,-3.213453"
       style="fill:#b22876;fill-opacity:1;fill-rule:nonzero;stroke:none;stroke-width:0.0352777"
       id="path320" />
    <path
       d="m 342.01204,-5.1441735 -4.39561,2.389364 c 1.01917,2.14171397 2.01965,3.22191997 2.41511,4.516967 0.44592,1.4605 1.7205,2.133247 3.14114,1.571625 1.31092,-0.518231 1.97555,-1.981906 1.50248,-3.31011403 l -2.66312,-5.16784197"
       style="fill:#ed808d;fill-opacity:1;fill-rule:nonzero;stroke:none;stroke-width:0.0352777"
       id="path322" />
    <path
       d="m 332.83943,6.7667035 8.96433,-7.926125 c 0.99397,-0.5849696 2.16135,0.55594494 2.64764,1.67230109 0.49172,1.12900671 0.0122,2.47868151 -1.04657,2.94531771 l -9.22869,5.5136792 -1.33671,-2.205173"
       style="fill:#ed808d;fill-opacity:1;fill-rule:nonzero;stroke:none;stroke-width:0.0355357"
       id="path324" />
    <path
       d="m 334.17614,8.9718765 c 0.9084,-0.730954 1.05198,-2.060221 0.32103,-2.968625 -0.73131,-0.908402 -2.06058,-1.051983 -2.96863,-0.321027 -0.9084,0.731308 -1.05233,2.060223 -0.32103,2.968625 0.73096,0.908402 2.06023,1.052335 2.96863,0.321027"
       style="fill:#ed808d;fill-opacity:1;fill-rule:nonzero;stroke:none;stroke-width:0.0352777"
       id="path326" />
    <path
       d="m 330.96092,6.6915225 c 0,0 -0.75388,-0.353838 0.0533,-1.113015 0.80751,-0.758472 2.0253,-1.121128 3.48298,0.424744 l -3.53625,0.688271"
       style="fill:#ed808d;fill-opacity:1;fill-rule:nonzero;stroke:none;stroke-width:0.0352777"
       id="path328" />
    <path
       d="m 330.75172,-20.331258 c 0,0 5.22041,-0.262466 6.25123,1.633009 1.03081,1.895475 0.0878,4.933244 -2.34668,5.856464 -2.31846,0.879828 -1.55469,-6.622698 -1.55469,-6.622698 l -2.34986,-0.866775"
       style="fill:#542b45;fill-opacity:1;fill-rule:nonzero;stroke:none;stroke-width:0.0352777"
       id="path330" />
    <path
       d="m 332.99927,-20.279752 c 0,0 -4.00685,-1.518356 -4.46507,1.281642 -0.30565,1.8669 2.72094,2.680758 2.72094,2.680758 l 1.74413,-3.9624"
       style="fill:#542b45;fill-opacity:1;fill-rule:nonzero;stroke:none;stroke-width:0.0352777"
       id="path332" />
    <path
       d="m 331.30559,-15.652366 c 0.0434,0.620536 -0.4251,1.159228 -1.04599,1.20262 -0.62124,0.04304 -1.15958,-0.425098 -1.20283,-1.046339 -0.0433,-0.621242 0.42531,-1.159581 1.0462,-1.20262 0.62124,-0.04339 1.15958,0.425097 1.20262,1.046339"
       style="fill:#45283d;fill-opacity:1;fill-rule:nonzero;stroke:none;stroke-width:0.0352777"
       id="path334" />
    <path
       d="m 331.63614,-12.49571 0.15557,2.451453 c 0.0533,0.8607775 0.61207,1.2883445 1.45909,1.2294305 0.7232,-0.05009 1.37654,-0.470605 1.41605,-1.1941535 l -0.43074,-3.846336 -2.59997,1.359606"
       style="fill:#ed808d;fill-opacity:1;fill-rule:nonzero;stroke:none;stroke-width:0.0352777"
       id="path336" />
    <path
       d="m 331.74338,-10.452421 2.86597,-2.804936 -2.99438,0.510469 z"
       style="fill:#45283d;fill-opacity:1;fill-rule:nonzero;stroke:none;stroke-width:0.0352777"
       id="path338" />
    <path
       d="m 332.38191,-12.099893 v 0 c -1.44815,0.0046 -2.64442,-1.136298 -2.68746,-2.318809 l -0.0854,-2.790825 c -0.0543,-1.482725 1.07703,-2.740731 2.55658,-2.843742 1.51518,-0.10548 3.09386,1.018823 3.19934,2.53365 l 0.0444,2.245431 c 0.0339,1.736725 -1.29469,3.053997 -3.02754,3.174295"
       style="fill:#ed808d;fill-opacity:1;fill-rule:nonzero;stroke:none;stroke-width:0.0352777"
       id="path340" />
    <path
       d="m 331.14049,-15.408596 -0.0836,0.691444 0.0169,0.05645 0.0529,0.02575 0.35806,0.01305 c 0.0406,0.0014 0.0744,-0.02999 0.0762,-0.07056 0.001,-0.04057 -0.0303,-0.07444 -0.0706,-0.07585 l -0.27868,-0.01023 0.0741,-0.612422 c 0.005,-0.04022 -0.0236,-0.07655 -0.0639,-0.08149 -0.0402,-0.0049 -0.0765,0.02399 -0.0815,0.06385"
       style="fill:#45283d;fill-opacity:1;fill-rule:nonzero;stroke:none;stroke-width:0.0352777"
       id="path342" />
    <path
       d="m 332.78584,-16.821471 c 0,0 -0.6103,-0.0501 -0.6163,0.198613 0,0 3.4e-4,0.167923 0.53269,0.201437 0.53234,0.03316 0.67063,-0.006 0.71932,-0.163689 0.0487,-0.158045 -0.34961,-0.234598 -0.63571,-0.236361"
       style="fill:#45283d;fill-opacity:1;fill-rule:nonzero;stroke:none;stroke-width:0.0352777"
       id="path344" />
    <path
       d="m 330.32839,-16.754444 c 0,0 0.50377,-0.05221 0.54469,0.180975 0,0 0.0243,0.158045 -0.41663,0.193675 -0.44097,0.03563 -0.58455,-0.02046 -0.62618,-0.147814 -0.0473,-0.144638 0.25894,-0.223308 0.49812,-0.226836"
       style="fill:#45283d;fill-opacity:1;fill-rule:nonzero;stroke:none;stroke-width:0.0352777"
       id="path346" />
    <path
       d="m 330.67623,-15.665771 c 0.005,0.141464 -0.10654,0.259997 -0.24765,0.26423 -0.14146,0.0049 -0.26,-0.105833 -0.26458,-0.24765 -0.005,-0.141111 0.10618,-0.259644 0.24765,-0.26423 0.14146,-0.0042 0.25999,0.106186 0.26458,0.24765"
       style="fill:#45283d;fill-opacity:1;fill-rule:nonzero;stroke:none;stroke-width:0.0352777"
       id="path348" />
    <path
       d="m 332.82641,-15.735974 c 0.005,0.141464 -0.10619,0.259997 -0.24765,0.26423 -0.14146,0.0046 -0.25964,-0.106186 -0.26423,-0.24765 -0.005,-0.141111 0.10619,-0.259644 0.2473,-0.26423 0.14146,-0.0049 0.25999,0.106186 0.26458,0.24765"
       style="fill:#45283d;fill-opacity:1;fill-rule:nonzero;stroke:none;stroke-width:0.0352777"
       id="path350" />
    <path
       d="m 330.9267,-14.292055 h 1.72579 c 0,0 0.005,0.603956 -0.99836,0.605367 -0.66499,0.0011 -0.72743,-0.605367 -0.72743,-0.605367"
       style="fill:#ffffff;fill-opacity:1;fill-rule:nonzero;stroke:none;stroke-width:0.0352777"
       id="path352" />
    <path
       d="m 330.33227,-19.16956 c 0,0 -0.35913,2.470855 4.78085,2.227791 0.109,-0.0049 1.97732,-2.836333 -2.11385,-3.337983 0,0 -1.37371,-0.414867 -2.667,1.110192"
       style="fill:#542b45;fill-opacity:1;fill-rule:nonzero;stroke:none;stroke-width:0.0352777"
       id="path354" />
    <path
       d="m 333.42578,-17.790905 c 0.23107,1.710972 1.38148,2.176639 1.38148,2.176639 l 1.52576,-1.780469 c 0,0 -3.02683,-1.281995 -2.90724,-0.39617"
       style="fill:#542b45;fill-opacity:1;fill-rule:nonzero;stroke:none;stroke-width:0.0352777"
       id="path356" />
    <path
       d="m 336.76129,-15.593452 c 0.0434,0.620536 -0.42509,1.159228 -1.04598,1.20262 -0.62124,0.04304 -1.15958,-0.42545 -1.20297,-1.046339 -0.043,-0.621242 0.42545,-1.159581 1.04633,-1.20262 0.62125,-0.04339 1.15959,0.425097 1.20262,1.046339"
       style="fill:#ed808d;fill-opacity:1;fill-rule:nonzero;stroke:none;stroke-width:0.0352777"
       id="path358" />
    <path
       d="m 335.34031,-15.15883 -7.2e-4,-0.02999 c -3.4e-4,-0.06773 0.0102,-0.235655 0.0854,-0.376766 0.0773,-0.140406 0.20214,-0.258587 0.4759,-0.261056 0.0289,0 0.0593,0.0014 0.0914,0.0046 0.0402,0.0039 0.0759,-0.02575 0.0797,-0.06597 0.004,-0.04057 -0.0258,-0.0762 -0.066,-0.08008 -0.0367,-0.0032 -0.0716,-0.0049 -0.10513,-0.0049 -0.32173,-0.0025 -0.514,0.160867 -0.60537,0.33902 -0.0931,0.177094 -0.10195,0.364772 -0.1023,0.445205 l 10e-4,0.04022 c 0.003,0.04022 0.0377,0.07091 0.078,0.06809 0.0406,-0.0028 0.0709,-0.03775 0.0681,-0.07832"
       style="fill:#45283d;fill-opacity:1;fill-rule:nonzero;stroke:none;stroke-width:0.0352777"
       id="path360" />
    <path
       d="m 287.02538,-21.693797 c 0.005,0.141464 -0.10654,0.259997 -0.24765,0.26423 -0.14146,0.0049 -0.26,-0.105833 -0.26458,-0.24765 -0.005,-0.141111 0.10618,-0.259644 0.24765,-0.26423 0.14146,-0.0042 0.25999,0.106186 0.26458,0.24765"
       style="fill:#241c1c;fill-opacity:1;fill-rule:nonzero;stroke:none;stroke-width:0.0352777"
       id="path348-9" />
    <path
       d="m 288.89208,-21.716753 c 0.005,0.141464 -0.10619,0.259997 -0.24765,0.26423 -0.14146,0.0046 -0.25964,-0.106186 -0.26423,-0.24765 -0.005,-0.141111 0.10619,-0.259644 0.2473,-0.26423 0.14146,-0.0049 0.25999,0.106186 0.26458,0.24765"
       style="fill:#241c1c;fill-opacity:1;fill-rule:nonzero;stroke:none;stroke-width:0.0352777"
       id="path350-5" />
    <path
       style="fill:#241c1c;fill-rule:evenodd;stroke-width:0.264583"
       id="path2685"
       d="m 327.56721,-17.55842 c -0.33446,-0.22632 -0.66879,-0.451123 -0.99312,-0.69206 -0.28903,-0.22208 -0.56094,-0.468316 -0.76223,-0.775359 -0.19311,-0.294553 -0.21787,-0.390343 -0.36538,-0.723647 -0.1854,-0.507668 -0.29027,-1.039385 -0.35876,-1.57424 -0.0233,-0.182251 -0.036,-0.365708 -0.054,-0.548561 0,0 -0.54428,0.284418 -0.54428,0.284418 v 0 c 0.0784,0.725469 0.16115,1.455671 0.40526,2.14831 0.13794,0.33225 0.17002,0.450317 0.35371,0.747241 0.19682,0.318145 0.46946,0.570705 0.76273,0.798126 0.31731,0.237713 0.64434,0.461482 0.96002,0.701058 0,0 0.59609,-0.365286 0.59609,-0.365286 z" />
    <path
       style="fill:#241c1c;fill-rule:evenodd;stroke-width:0.264583"
       id="path2687"
       d="m 327.8757,-15.811411 c -0.24982,-0.133284 -0.49077,-0.284789 -0.74786,-0.404284 -0.25156,-0.116921 -0.49232,-0.205054 -0.75122,-0.305371 -0.171,-0.04543 -0.34021,-0.09824 -0.513,-0.136279 -0.6282,-0.138275 -1.27307,-0.212289 -1.91305,-0.267468 -0.21663,-0.01868 -0.43337,-0.03722 -0.65055,-0.04749 -0.20182,-0.0095 -0.404,-0.008 -0.606,-0.01194 -0.56778,0.06189 -0.62333,0.03358 -1.16708,0.232094 -0.18947,0.06917 -0.36879,0.163473 -0.55318,0.245209 0,0 -0.47412,0.376141 -0.47412,0.376141 v 0 c 0.18256,-0.08371 0.36003,-0.179566 0.54768,-0.25114 0.54168,-0.206612 0.58835,-0.177663 1.1572,-0.247684 0.20338,0.0016 0.40692,-0.0033 0.61015,0.0047 0.33816,0.01334 0.97365,0.07078 1.30829,0.111139 0.38928,0.04695 0.84726,0.116355 1.23018,0.206774 0.16681,0.03939 0.32968,0.09389 0.49452,0.140833 0.12876,0.05105 0.2589,0.09874 0.38627,0.153153 0.37064,0.158355 0.72121,0.357063 1.05624,0.580451 0,0 0.58553,-0.378851 0.58553,-0.378851 z" />
    <path
       style="fill:#241c1c;fill-rule:evenodd;stroke-width:0.264583"
       id="path2702"
       d="m 327.61119,-12.924511 c -0.24898,0.265558 -0.40192,0.606669 -0.56472,0.928155 -0.24992,0.537275 -0.37018,1.127642 -0.40804,1.717201 -0.007,0.113961 -0.006,0.228314 -0.009,0.3424717 0,0 0.58033,-0.2941777 0.58033,-0.2941777 v 0 c 0.002,-0.111633 -0.002,-0.223457 0.005,-0.334899 0.0357,-0.588838 0.17467,-1.173555 0.43588,-1.703375 0.16803,-0.324322 0.3321,-0.67199 0.61041,-0.917807 0,0 -0.65017,0.262431 -0.65017,0.262431 z" />
    <path
       style="fill:#241c1c;fill-rule:evenodd;stroke-width:0.264583"
       id="path2708"
       d="m 327.52767,-14.574405 c -0.61795,-0.120916 -1.24753,-0.219325 -1.87875,-0.225914 -0.24392,-0.0025 -0.48759,0.01623 -0.73138,0.02435 -0.84395,0.12093 -0.8153,0.08391 -1.65974,0.346609 -0.27278,0.08486 -0.53843,0.191154 -0.80765,0.286731 0,0 -0.44268,0.345525 -0.44268,0.345525 v 0 c 0.2694,-0.09761 0.53496,-0.206542 0.8082,-0.292825 0.81692,-0.257964 0.8119,-0.224379 1.62971,-0.340867 0.23756,-0.0061 0.4751,-0.02366 0.71267,-0.01818 0.20106,0.0046 0.40141,0.02711 0.60138,0.04846 0.40269,0.04298 0.80404,0.114829 1.19471,0.221712 0,0 0.57353,-0.395593 0.57353,-0.395593 z" />
  </g>
</svg>
