<?xml version="1.0" encoding="UTF-8" standalone="no"?>
<svg
   xmlns:dc="http://purl.org/dc/elements/1.1/"
   xmlns:cc="http://creativecommons.org/ns#"
   xmlns:rdf="http://www.w3.org/1999/02/22-rdf-syntax-ns#"
   xmlns:svg="http://www.w3.org/2000/svg"
   xmlns="http://www.w3.org/2000/svg"
   xmlns:sodipodi="http://sodipodi.sourceforge.net/DTD/sodipodi-0.dtd"
   xmlns:inkscape="http://www.inkscape.org/namespaces/inkscape"
   width="33.542328mm"
   height="69.623711mm"
   viewBox="0 0 33.542327 69.62371"
   version="1.1"
   id="svg1995"
   inkscape:version="1.0.1 (3bc2e813f5, 2020-09-07)"
   sodipodi:docname="student-idle-female.svg">
  <defs
     id="defs1989" />
  <sodipodi:namedview
     id="base"
     pagecolor="#ffffff"
     bordercolor="#666666"
     borderopacity="1.0"
     inkscape:pageopacity="0.0"
     inkscape:pageshadow="2"
     inkscape:zoom="1.4"
     inkscape:cx="-19.398209"
     inkscape:cy="94.328536"
     inkscape:document-units="mm"
     inkscape:current-layer="layer4"
     inkscape:document-rotation="0"
     showgrid="false"
     fit-margin-top="0"
     fit-margin-left="0"
     fit-margin-right="0"
     fit-margin-bottom="0"
     inkscape:pagecheckerboard="true"
     showborder="false"
     inkscape:window-width="1920"
     inkscape:window-height="1017"
     inkscape:window-x="-8"
     inkscape:window-y="89"
     inkscape:window-maximized="1" />
  <metadata
     id="metadata1992">
    <rdf:RDF>
      <cc:Work
         rdf:about="">
        <dc:format>image/svg+xml</dc:format>
        <dc:type
           rdf:resource="http://purl.org/dc/dcmitype/StillImage" />
        <dc:title></dc:title>
      </cc:Work>
    </rdf:RDF>
  </metadata>
  <g
     inkscape:groupmode="layer"
     id="layer3"
     inkscape:label="Layer 2"
     transform="translate(3.7417746)">
    <ellipse
       style="fill:#ff7f2a;fill-rule:evenodd;stroke-width:0.264583"
       id="path2681"
       cx="13.029389"
       cy="67.351921"
       rx="16.771164"
       ry="2.271791" />
  </g>
  <g
     inkscape:groupmode="layer"
     id="layer4"
     inkscape:label="Layer 3"
     transform="translate(3.7417746)">
    <ellipse
       style="fill:#ff6600;fill-rule:evenodd;stroke-width:0.291812"
       id="path2684"
       cx="9.9520435"
       cy="66.935196"
       rx="13.057257"
       ry="1.1005199" />
  </g>
  <g
     inkscape:label="Layer 1"
     inkscape:groupmode="layer"
     id="layer1"
     transform="translate(-343.0946,21.731126)">
    <path
       d="m 361.51722,12.873731 c 0.0593,-0.03104 -0.31397,28.080054 -0.31397,28.080054 h 2.34491 l 2.35056,-29.449186 -4.3815,1.369132"
       style="fill:#ed808d;fill-opacity:1;fill-rule:nonzero;stroke:none;stroke-width:0.0352777"
       id="path362" />
    <path
       d="m 361.46854,19.623074 c 0,0 2.56328,-0.120295 3.81882,-0.458258 l 0.14816,-1.859137 -3.96698,0.609245 v 1.70815"
       style="fill:#da677c;fill-opacity:1;fill-rule:nonzero;stroke:none;stroke-width:0.0352777"
       id="path364" />
    <path
       d="m 361.20325,40.548089 0.0755,-5.384411 h 2.7312 l -0.42862,5.414044 -2.37808,-0.02963"
       style="fill:#f5d588;fill-opacity:1;fill-rule:nonzero;stroke:none;stroke-width:0.0352777"
       id="path366" />
    <path
       d="m 361.27909,36.180665 h 2.65535 v -0.198988 h -2.65535 z"
       style="fill:#45283d;fill-opacity:1;fill-rule:nonzero;stroke:none;stroke-width:0.0352777"
       id="path368" />
    <path
       d="m 364.55499,40.571372 v 1.997041 l 3.59445,0.827651 c 0.72355,0.274497 1.22202,0.943258 1.27706,1.715524 l 0.0395,0.450498 -9.97762,-0.01863 0.89994,-5.006272 4.16666,0.03418"
       style="fill:#c57cb4;fill-opacity:1;fill-rule:nonzero;stroke:none;stroke-width:0.0352777"
       id="path370" />
    <path
       d="m 359.65949,44.688678 h 9.65687 V 44.48969 h -9.65687 z"
       style="fill:#45283d;fill-opacity:1;fill-rule:nonzero;stroke:none;stroke-width:0.0352777"
       id="path372" />
    <path
       d="m 360.79402,42.627397 h -0.0995 c 0,0.628933 0.50977,1.138414 1.13877,1.138414 0.6283,0 1.13842,-0.509481 1.13842,-1.138414 0,-0.62865 -0.50977,-1.138801 -1.13842,-1.138801 -0.62935,0 -1.13877,0.510151 -1.13877,1.138801 h 0.0995 0.0995 c 10e-4,-0.51869 0.42087,-0.938848 0.9398,-0.939552 0.51823,7.94e-4 0.93839,0.420862 0.93945,0.939552 -10e-4,0.518549 -0.42086,0.938318 -0.93945,0.939413 -0.51893,-0.0011 -0.93874,-0.420581 -0.9398,-0.939413 h -0.0995"
       style="fill:#45283d;fill-opacity:1;fill-rule:nonzero;stroke:none;stroke-width:0.0352777"
       id="path374" />
    <path
       d="m 366.27443,42.911702 -0.62512,0.643395 0.14287,0.138782 0.62512,-0.643572"
       style="fill:#45283d;fill-opacity:1;fill-rule:nonzero;stroke:none;stroke-width:0.0352777"
       id="path376" />
    <path
       d="m 365.33886,42.69686 -0.62547,0.643819 0.14287,0.138642 0.62548,-0.643819"
       style="fill:#45283d;fill-opacity:1;fill-rule:nonzero;stroke:none;stroke-width:0.0352777"
       id="path378" />
    <path
       d="m 356.27635,13.484037 c 0.0596,-0.03105 -1.24072,27.828841 -1.24072,27.828841 h 2.34456 l 3.99592,-29.557099 -5.09976,1.728258"
       style="fill:#ed808d;fill-opacity:1;fill-rule:nonzero;stroke:none;stroke-width:0.0352777"
       id="path380" />
    <path
       d="m 356.04846,19.330271 c 0,0 2.15723,0.44097 4.26473,0.28857 l 0.48436,-3.581752 -4.53143,-0.461433 -0.21766,3.754615"
       style="fill:#da677c;fill-opacity:1;fill-rule:nonzero;stroke:none;stroke-width:0.0352777"
       id="path382" />
    <path
       d="m 355.05539,40.895895 0.24976,-5.384414 h 2.90054 l -0.77293,5.414047 -2.37737,-0.02963"
       style="fill:#f5d588;fill-opacity:1;fill-rule:nonzero;stroke:none;stroke-width:0.0352777"
       id="path384" />
    <path
       d="m 355.30621,36.603718 h 2.65507 v -0.198991 h -2.65507 z"
       style="fill:#45283d;fill-opacity:1;fill-rule:nonzero;stroke:none;stroke-width:0.0352777"
       id="path386" />
    <path
       d="m 358.02825,40.930502 v 1.996758 l 3.59445,0.828357 c 0.72355,0.273648 1.22202,0.943255 1.27706,1.714818 l 0.0395,0.451167 -9.97797,-0.01902 0.90029,-5.006691 4.16666,0.03461"
       style="fill:#c57cb4;fill-opacity:1;fill-rule:nonzero;stroke:none;stroke-width:0.0352777"
       id="path388" />
    <path
       d="m 353.13275,45.047771 h 9.65659 V 44.84837 h -9.65659 z"
       style="fill:#45283d;fill-opacity:1;fill-rule:nonzero;stroke:none;stroke-width:0.0352777"
       id="path390" />
    <path
       d="m 354.26693,42.986103 h -0.0995 c 0,0.629073 0.51011,1.138801 1.13876,1.138801 0.62865,0 1.13842,-0.509728 1.13842,-1.138801 0,-0.62865 -0.50977,-1.137992 -1.13842,-1.137992 -0.62865,0 -1.13876,0.509342 -1.13876,1.137992 h 0.0995 0.0998 c 7.1e-4,-0.518549 0.42086,-0.938038 0.93944,-0.939131 0.51894,0.0011 0.93839,0.420582 0.93945,0.939131 -10e-4,0.518969 -0.42051,0.938704 -0.93945,0.939411 -0.51858,-7.94e-4 -0.93874,-0.420442 -0.93944,-0.939411 h -0.0998"
       style="fill:#45283d;fill-opacity:1;fill-rule:nonzero;stroke:none;stroke-width:0.0352777"
       id="path392" />
    <path
       d="m 359.74769,43.270546 -0.62513,0.643821 0.14288,0.138605 0.62512,-0.643536"
       style="fill:#45283d;fill-opacity:1;fill-rule:nonzero;stroke:none;stroke-width:0.0352777"
       id="path394" />
    <path
       d="m 358.81212,43.055564 -0.62548,0.643818 0.14288,0.139031 0.62547,-0.644102"
       style="fill:#45283d;fill-opacity:1;fill-rule:nonzero;stroke:none;stroke-width:0.0352777"
       id="path396" />
    <path
       d="m 355.31186,7.3682811 -1.79741,10.4471599 c 0,0 6.69714,2.38619 13.96754,-0.336902 l -2.75555,-25.1400039 -2.75802,-4.0661171 -2.92347,0.443442 -3.73309,18.6524211"
       style="fill:#f5d588;fill-opacity:1;fill-rule:nonzero;stroke:none;stroke-width:0.0352777"
       id="path398" />
    <path
       d="m 353.75787,16.540504 c 0.004,0.0011 2.86068,0.851604 6.54227,0.851604 2.20909,0 4.71628,-0.306211 7.0813,-1.289754 l -0.0543,-0.130882 c -2.34209,0.973667 -4.83093,1.278819 -7.02698,1.278819 -1.82985,0 -3.45651,-0.211667 -4.62491,-0.423333 -0.5842,-0.105834 -1.05375,-0.211667 -1.37725,-0.291042 -0.32349,-0.07902 -0.49918,-0.131585 -0.49953,-0.131585 l -0.0406,0.136173"
       style="fill:#45283d;fill-opacity:1;fill-rule:nonzero;stroke:none;stroke-width:0.0352777"
       id="path400" />
    <path
       d="m 359.44536,-14.04639 c 0,1.317272 -1.06786,2.38513 -2.38514,2.38513 -1.31727,0 -2.38513,-1.067858 -2.38513,-2.38513 0,-1.317273 1.06786,-2.385131 2.38513,-2.385131 1.31728,0 2.38514,1.067858 2.38514,2.385131"
       style="fill:#542b45;fill-opacity:1;fill-rule:nonzero;stroke:none;stroke-width:0.0352777"
       id="path402" />
    <path
       d="m 362.96043,-21.606066 c 0,0 -4.65843,-0.796925 -6.25157,1.632656 -1.18287,1.804458 -0.0981,3.919714 2.33609,4.842934 2.31881,0.879827 1.56563,-5.608815 1.56563,-5.608815 l 2.34985,-0.866775"
       style="fill:#542b45;fill-opacity:1;fill-rule:nonzero;stroke:none;stroke-width:0.0352777"
       id="path404" />
    <path
       d="m 360.8159,-21.644871 c 0,0 4.21322,-0.645584 4.36209,2.089855 0.10266,1.888773 -2.8769,2.552348 -2.8769,2.552348 l -1.48519,-4.642203"
       style="fill:#542b45;fill-opacity:1;fill-rule:nonzero;stroke:none;stroke-width:0.0352777"
       id="path406" />
    <path
       d="m 362.40657,-16.824868 c -0.0437,0.621241 0.4251,1.15958 1.04599,1.202619 0.62089,0.04304 1.15923,-0.425097 1.20297,-1.045986 0.043,-0.620889 -0.4258,-1.159581 -1.04634,-1.202972 -0.62124,-0.04304 -1.15958,0.42545 -1.20262,1.046339"
       style="fill:#45283d;fill-opacity:1;fill-rule:nonzero;stroke:none;stroke-width:0.0352777"
       id="path408" />
    <path
       d="m 362.07602,-13.771224 -0.15593,2.451806 c -0.0529,0.861131 -0.40499,1.292578 -1.25201,1.233664 -0.72319,-0.05045 -1.58326,-0.474486 -1.62313,-1.198386 l 0.4311,-3.846336 2.59997,1.359252"
       style="fill:#ed808d;fill-opacity:1;fill-rule:nonzero;stroke:none;stroke-width:0.0352777"
       id="path410" />
    <path
       d="m 361.96842,-11.727582 -2.86561,-2.805289 2.99438,0.511175 z"
       style="fill:#45283d;fill-opacity:1;fill-rule:nonzero;stroke:none;stroke-width:0.0352777"
       id="path412" />
    <path
       d="m 361.33025,-13.374701 v 0 c 1.44815,0.0042 2.64442,-1.136298 2.68746,-2.319162 l 0.0854,-2.791178 c 0.054,-1.482019 -1.07738,-2.740025 -2.55693,-2.843036 -1.51483,-0.10548 -3.09351,1.01847 -3.19899,2.533298 l -0.0444,2.24543 c -0.0342,1.736725 1.29469,3.053998 3.02754,3.174648"
       style="fill:#ed808d;fill-opacity:1;fill-rule:nonzero;stroke:none;stroke-width:0.0352777"
       id="path414" />
    <path
       d="m 360.05496,-19.592057 c 0.38735,1.682397 -1.15006,2.702983 -1.15006,2.702983 l -1.52576,-1.780469 c 0,0 2.35761,-2.304345 2.67582,-0.922514"
       style="fill:#542b45;fill-opacity:1;fill-rule:nonzero;stroke:none;stroke-width:0.0352777"
       id="path416" />
    <path
       d="m 356.95051,-16.509485 c -0.043,0.620889 0.42545,1.159228 1.04634,1.20262 0.62089,0.04304 1.15958,-0.42545 1.20262,-1.046339 0.0434,-0.621242 -0.4251,-1.159581 -1.04599,-1.20262 -0.62124,-0.04339 -1.15958,0.425097 -1.20297,1.046339"
       style="fill:#ed808d;fill-opacity:1;fill-rule:nonzero;stroke:none;stroke-width:0.0352777"
       id="path418" />
    <path
       d="m 358.5179,-16.064632 10e-4,-0.04022 c -3.4e-4,-0.08008 -0.009,-0.267758 -0.1023,-0.444853 -0.0914,-0.178153 -0.28364,-0.341842 -0.60537,-0.339372 -0.0335,0 -0.0688,0.0018 -0.10513,0.0053 -0.0402,0.0035 -0.0699,0.03951 -0.066,0.07973 0.004,0.04022 0.0395,0.06985 0.0797,0.06597 0.0321,-0.0032 0.0624,-0.0046 0.0914,-0.0046 0.27376,0.0025 0.39864,0.12065 0.4759,0.261408 0.0751,0.141111 0.0857,0.309034 0.0854,0.376414 l -7.1e-4,0.03034 c -0.003,0.04022 0.0279,0.07514 0.0681,0.07796 0.0402,0.0028 0.0751,-0.02787 0.078,-0.06809"
       style="fill:#45283d;fill-opacity:1;fill-rule:nonzero;stroke:none;stroke-width:0.0352777"
       id="path420" />
    <path
       d="m 359.62845,-19.320066 c 0,0 3.27801,-0.901347 4.47639,-0.122413 0,0 -0.85125,-2.548114 -4.47639,-1.892653 -3.6255,0.655461 -1.55364,2.710744 -1.55364,2.710744 l 1.55364,-0.695678"
       style="fill:#542b45;fill-opacity:1;fill-rule:nonzero;stroke:none;stroke-width:0.0352777"
       id="path422" />
    <path
       d="m 362.38646,-16.993849 0.1136,0.940506 -0.27834,0.01023 c -0.0402,0.0014 -0.072,0.03528 -0.0706,0.07585 0.002,0.04022 0.0356,0.07197 0.0762,0.07056 l 0.35771,-0.01341 0.0529,-0.0254 0.0173,-0.05645 -0.12347,-1.019528 c -0.005,-0.03986 -0.0413,-0.06879 -0.0815,-0.06385 -0.0402,0.0049 -0.0688,0.04128 -0.0639,0.08149"
       style="fill:#45283d;fill-opacity:1;fill-rule:nonzero;stroke:none;stroke-width:0.0352777"
       id="path424" />
    <path
       d="m 361.06813,-18.212696 c 0,0 0.79975,-0.06597 0.80822,0.259997 0,0 -7.2e-4,0.220486 -0.69886,0.264231 -0.69814,0.04374 -0.87982,-0.0074 -0.94368,-0.214489 -0.0635,-0.207434 0.45861,-0.307975 0.83432,-0.309739"
       style="fill:#45283d;fill-opacity:1;fill-rule:nonzero;stroke:none;stroke-width:0.0352777"
       id="path426" />
    <path
       d="m 363.388,-18.202466 c 0,0 -0.60643,-0.04868 -0.66322,0.244123 0,0 -0.0342,0.198261 0.49671,0.2286 0.53093,0.03034 0.69532,-0.03563 0.7052,-0.202848 0.012,-0.200025 -0.25012,-0.272697 -0.53869,-0.269875"
       style="fill:#45283d;fill-opacity:1;fill-rule:nonzero;stroke:none;stroke-width:0.0352777"
       id="path428" />
    <path
       d="m 363.03593,-16.940932 c -0.005,0.141817 0.10618,0.259644 0.24765,0.264583 0.14146,0.0046 0.25964,-0.106186 0.26423,-0.24765 0.005,-0.141111 -0.10619,-0.259644 -0.2473,-0.26423 -0.14182,-0.0049 -0.26,0.106186 -0.26458,0.247297"
       style="fill:#45283d;fill-opacity:1;fill-rule:nonzero;stroke:none;stroke-width:0.0352777"
       id="path430" />
    <path
       d="m 360.88575,-17.011135 c -0.005,0.141464 0.10618,0.259645 0.24729,0.264583 0.14182,0.0046 0.25965,-0.106538 0.26459,-0.24765 0.005,-0.141816 -0.10654,-0.259997 -0.24765,-0.264583 -0.14111,-0.0046 -0.25965,0.106539 -0.26423,0.24765"
       style="fill:#45283d;fill-opacity:1;fill-rule:nonzero;stroke:none;stroke-width:0.0352777"
       id="path432" />
    <path
       d="m 361.87635,-15.112838 h 0.70626 c 0.0402,0 0.073,-0.03281 0.073,-0.07302 0,-0.04057 -0.0328,-0.07338 -0.073,-0.07338 h -0.70626 c -0.0406,0 -0.0734,0.03281 -0.0734,0.07338 0,0.04022 0.0328,0.07302 0.0734,0.07302"
       style="fill:#45283d;fill-opacity:1;fill-rule:nonzero;stroke:none;stroke-width:0.0352777"
       id="path434" />
    <path
       d="m 360.26239,-7.7454259 c 0,0 0.623,-2.7417891 -1.0227,-5.3844481 l -1.82069,2.064809 c 0,0 -0.55316,3.3894891 2.84339,3.3196391"
       style="fill:#171215;fill-opacity:1;fill-rule:nonzero;stroke:none;stroke-width:0.0352777"
       id="path436" />
    <path
       d="m 360.26239,-7.7454259 -0.13653,20.9701719 c -0.004,0.631118 -0.60113,1.090083 -1.21249,0.931685 l -2.79365,-0.724607 c -1.25095,-0.324202 -2.12408,-1.452737 -2.12408,-2.744964 V -5.2498759 c 0,-1.398058 0.53305,-2.7432 1.49084,-3.761317 l 1.93252,-2.0538721 2.84339,3.3196391"
       style="fill:#f1415c;fill-opacity:1;fill-rule:nonzero;stroke:none;stroke-width:0.0352777"
       id="path438" />
    <path
       d="m 359.91596,6.0742911 -1.61607,8.1410549 -10.48209,0.814562 1.37089,-7.4474919 10.72727,-1.508125"
       style="fill:#61a9b3;fill-opacity:1;fill-rule:nonzero;stroke:none;stroke-width:0.0352777"
       id="path440" />
    <path
       d="m 358.93489,5.6858831 -1.61643,8.1406999 -10.48209,0.814916 1.37125,-7.4481979 10.72727,-1.507418"
       style="fill:#7eb7bc;fill-opacity:1;fill-rule:nonzero;stroke:none;stroke-width:0.0352777"
       id="path442" />
    <path
       d="m 346.83637,14.641499 0.98143,0.388409 10.48209,-0.814562 -0.98143,-0.388763 -10.48209,0.814916"
       style="fill:#61a9b3;fill-opacity:1;fill-rule:nonzero;stroke:none;stroke-width:0.0352777"
       id="path444" />
    <path
       d="m 358.82799,6.2235161 0.64277,0.254706 -1.41605,7.6401089 -0.73625,-0.291748 1.50953,-7.6030669"
       style="fill:#ffffff;fill-opacity:1;fill-rule:nonzero;stroke:none;stroke-width:0.0352777"
       id="path446" />
    <path
       d="m 349.62155,14.409021 c -0.24483,-1.1049 0.45226,-2.199572 1.55716,-2.44475 1.1049,-0.245534 2.19993,0.451553 2.44511,1.556808 0.24518,1.105252 -0.45191,2.199568 -1.55681,2.44475 -1.10526,0.245533 -2.19992,-0.451557 -2.44546,-1.556808"
       style="fill:#ed808d;fill-opacity:1;fill-rule:nonzero;stroke:none;stroke-width:0.0352777"
       id="path448" />
    <path
       d="m 353.44178,14.629858 c 0,0 0.78634,0.189089 0.6343,-0.875594 -0.15134,-1.065035 -0.85514,-2.078567 -2.89737,-1.789993 l 2.26307,2.665587"
       style="fill:#ed808d;fill-opacity:1;fill-rule:nonzero;stroke:none;stroke-width:0.0352777"
       id="path450" />
    <path
       d="m 349.57428,9.4810661 v 2.9735649 c 0,0 2.27365,0.673452 3.80189,-0.224367 V 8.8894581 l -3.80189,0.591608"
       style="fill:#171215;fill-opacity:1;fill-rule:nonzero;stroke:none;stroke-width:0.0352777"
       id="path452" />
    <path
       d="m 357.419,-11.065065 c 0,0 -3.72463,1.1818061 -5.19501,5.5400221 -1.37301,4.071056 -4.88385,11.919303 -3.42582,15.190611 0.19614,0.4392079 0.58808,0.7584729 1.05375,0.8798289 0.93521,0.243417 3.29847,0.729896 4.83411,-1.0706809 1.20474,-1.42381 1.56951,-4.003675 1.65841,-5.865989 L 357.419,-11.065065"
       style="fill:#f1415c;fill-opacity:1;fill-rule:nonzero;stroke:none;stroke-width:0.0352777"
       id="path454" />
    <path
       d="m 357.31493,-6.1307619 -1.15746,10.815814 v 0.0014 c 0,3.44e-4 -0.006,0.07726 -0.0205,0.215901 -0.0526,0.485775 -0.2219,1.71591 -0.67205,2.91465 -0.45049,1.200502 -1.1811,2.3600839 -2.33609,2.7301459 l 0.0434,0.135114 c 1.39841,-0.453318 2.17135,-1.9579159 2.60421,-3.3362179 0.4325,-1.380421 0.52246,-2.646188 0.52281,-2.649363 l -0.0709,-0.0053 0.0705,0.0078 1.15711,-10.814756 -0.14111,-0.01517"
       style="fill:#45283d;fill-opacity:1;fill-rule:nonzero;stroke:none;stroke-width:0.0352777"
       id="path456" />
    <path
       d="m 352.60923,-6.4838929 c 0,0 0.0353,0.01517 0.10336,0.04868 0.4766,0.236713 2.51248,1.371247 4.19665,4.227689 l 0.12241,-0.07232 c -1.94486,-3.298115 -4.35751,-4.330696 -4.36668,-4.334577 l -0.0557,0.130528"
       style="fill:#45283d;fill-opacity:1;fill-rule:nonzero;stroke:none;stroke-width:0.0352777"
       id="path458" />
    <path
       d="m 370.14687,14.409021 c 0.24518,-1.1049 -0.45156,-2.199572 -1.55681,-2.44475 -1.10525,-0.245534 -2.19957,0.451553 -2.4451,1.556808 -0.24518,1.105252 0.45155,2.199568 1.55681,2.44475 1.10525,0.245533 2.19992,-0.451557 2.4451,-1.556808"
       style="fill:#ed808d;fill-opacity:1;fill-rule:nonzero;stroke:none;stroke-width:0.0352777"
       id="path460" />
    <path
       d="m 366.32699,14.629858 c 0,0 -0.78669,0.189089 -0.63465,-0.875594 0.15205,-1.065035 0.85549,-2.078567 2.89772,-1.789993 l -2.26307,2.665587"
       style="fill:#ed808d;fill-opacity:1;fill-rule:nonzero;stroke:none;stroke-width:0.0352777"
       id="path462" />
    <path
       d="m 370.19485,9.3427761 v 2.9739199 c 0,0 -2.27436,0.6731 -3.80259,-0.224722 V 8.7511681 l 3.80259,0.591608"
       style="fill:#171215;fill-opacity:1;fill-rule:nonzero;stroke:none;stroke-width:0.0352777"
       id="path464" />
    <path
       d="m 362.34942,-11.065065 c 0,0 3.72463,1.1818061 5.19501,5.5400221 1.37371,4.071056 4.88456,11.919303 3.42582,15.190611 -0.19579,0.4392079 -0.58808,0.7584729 -1.05339,0.8798289 -0.93557,0.243417 -2.76648,0.424392 -4.92125,-0.8985249 l -0.89077,-13.08347 -1.75542,-7.6284671"
       style="fill:#f1415c;fill-opacity:1;fill-rule:nonzero;stroke:none;stroke-width:0.0352777"
       id="path466" />
    <path
       d="m 366.09945,-2.9088429 1.50636,-2.580216 -0.12277,-0.07161 -1.506,2.580216"
       style="fill:#45283d;fill-opacity:1;fill-rule:nonzero;stroke:none;stroke-width:0.0352777"
       id="path468" />
    <path
       d="m 361.97089,-7.7454259 c 0,0 1.45768,12.642144 1.90712,20.9324229 0.0272,0.497065 0.514,0.833261 0.98919,0.685449 l 1.19486,-0.37183 c 0.8703,-0.270227 1.32468,-1.10631 1.36348,-2.016831 0.40323,-9.4061129 -2.44686,-18.4587439 -2.44686,-18.4587439 -0.0388,-0.478014 0.73448,-0.880534 0.41521,-1.238956 l -2.09232,-2.3502061 -1.33068,2.8186951"
       style="fill:#f1415c;fill-opacity:1;fill-rule:nonzero;stroke:none;stroke-width:0.0352777"
       id="path470" />
    <path
       d="m 365.11203,-6.5304589 c 0,3.43e-4 0.0367,0.135819 0.10124,0.386644 0.45297,1.757186 2.26484,9.156348 2.26448,14.912623 0,1.3320889 -0.097,2.5756309 -0.32914,3.6392559 l 0.13864,0.02999 c 0.23495,-1.077735 0.33232,-2.33045 0.33232,-3.6692409 -3.4e-4,-6.609292 -2.37031,-15.333487 -2.37067,-15.336662 l -0.13687,0.0374"
       style="fill:#45283d;fill-opacity:1;fill-rule:nonzero;stroke:none;stroke-width:0.0352777"
       id="path472" />
    <path
       d="m 362.01287,-12.521332 c -0.24024,1.321506 -0.042,4.7759061 -0.042,4.7759061 0,0 1.54058,-0.201436 1.33068,-2.8186951 l -1.2887,-1.957211"
       style="fill:#171215;fill-opacity:1;fill-rule:nonzero;stroke:none;stroke-width:0.0352777"
       id="path474" />
  </g>
</svg>
