<?xml version="1.0" encoding="UTF-8" standalone="no"?>
<svg
   xmlns:dc="http://purl.org/dc/elements/1.1/"
   xmlns:cc="http://creativecommons.org/ns#"
   xmlns:rdf="http://www.w3.org/1999/02/22-rdf-syntax-ns#"
   xmlns:svg="http://www.w3.org/2000/svg"
   xmlns="http://www.w3.org/2000/svg"
   xmlns:sodipodi="http://sodipodi.sourceforge.net/DTD/sodipodi-0.dtd"
   xmlns:inkscape="http://www.inkscape.org/namespaces/inkscape"
   width="70.880341mm"
   height="71.287292mm"
   viewBox="0 0 70.880341 71.287292"
   version="1.1"
   id="svg1463"
   inkscape:version="1.0.1 (3bc2e813f5, 2020-09-07)"
   sodipodi:docname="uni-students.svg">
  <defs
     id="defs1457" />
  <sodipodi:namedview
     id="base"
     pagecolor="#ffffff"
     bordercolor="#666666"
     borderopacity="0"
     inkscape:pageopacity="0.0"
     inkscape:pageshadow="2"
     inkscape:zoom="2.4588797"
     inkscape:cx="111.57593"
     inkscape:cy="120.28547"
     inkscape:document-units="mm"
     inkscape:current-layer="layer1"
     inkscape:document-rotation="0"
     showgrid="false"
     inkscape:pagecheckerboard="true"
     inkscape:showpageshadow="false"
     showborder="false"
     fit-margin-top="0"
     fit-margin-left="0"
     fit-margin-right="0"
     fit-margin-bottom="0"
     inkscape:window-width="1920"
     inkscape:window-height="1017"
     inkscape:window-x="1912"
     inkscape:window-y="-8"
     inkscape:window-maximized="1" />
  <metadata
     id="metadata1460">
    <rdf:RDF>
      <cc:Work
         rdf:about="">
        <dc:format>image/svg+xml</dc:format>
        <dc:type
           rdf:resource="http://purl.org/dc/dcmitype/StillImage" />
        <dc:title></dc:title>
      </cc:Work>
    </rdf:RDF>
  </metadata>
  <g
     inkscape:groupmode="layer"
     id="layer2"
     inkscape:label="Layer 2"
     style="display:inline"
     transform="translate(-73.263201,-121.33071)">
    <ellipse
       style="fill:#666666;fill-rule:evenodd;stroke-width:0.264583"
       id="path1764"
       cx="110.83679"
       cy="191.09964"
       rx="31.351046"
       ry="1.5183598" />
  </g>
  <g
     inkscape:label="Layer 1"
     inkscape:groupmode="layer"
     id="layer1"
     style="display:inline"
     transform="translate(-73.263201,-121.33071)">
    <path
       d="m 130.57124,128.03808 c 0,0 -3.39312,4.63797 -0.83502,9.00853 h 8.13611 c 0,0 1.58115,-2.35373 -0.63253,-5.46135 0,0 -0.72813,-1.57939 -0.508,-4.15466 0.22049,-2.57528 -4.8454,-1.57904 -4.8454,-1.57904 l -1.31516,2.18652"
       style="fill:#542b45;fill-opacity:1;fill-rule:nonzero;stroke:none;stroke-width:0.0352777"
       id="path248" />
    <path
       d="m 129.49809,179.13473 -0.92322,7.20203 -2.6797,0.36933 0.002,-7.57136 h 3.60072"
       style="fill:#ed808d;fill-opacity:1;fill-rule:nonzero;stroke:none;stroke-width:0.0352777"
       id="path250" />
    <path
       d="m 129.557,185.74434 h -5.26464 l 0.0277,1.66801 c 0,0 -2.65822,0.15624 -2.55404,3.33622 h 7.86331 l -0.0723,-5.00423"
       style="fill:#b22876;fill-opacity:1;fill-rule:nonzero;stroke:none;stroke-width:0.0352777"
       id="path252" />
    <path
       d="m 121.59305,189.83177 h 8.03627 v 0.9168 h -8.03627 v -0.9168"
       style="fill:#432d52;fill-opacity:1;fill-rule:nonzero;stroke:none;stroke-width:0.0352777"
       id="path254" />
    <path
       d="m 124.33864,187.50439 0.0363,-0.007 c 0.0739,-0.012 0.25577,-0.0367 0.49774,-0.0367 0.37288,0 0.88734,0.0592 1.37061,0.30906 l 0.0858,-0.16644 c -0.52102,-0.26888 -1.06426,-0.32949 -1.45644,-0.32991 -0.33955,5.2e-4 -0.56678,0.0462 -0.57119,0.0469 l 0.0372,0.18383"
       style="fill:#45283d;fill-opacity:1;fill-rule:nonzero;stroke:none;stroke-width:0.0352777"
       id="path256" />
    <path
       d="m 128.35234,146.62947 c 0,0 -0.57411,2.29447 -2.16299,16.31139 -1.57826,13.92519 -1.83952,19.91995 -1.83952,19.91995 h 6.38087 l 5.16466,-34.77754 -2.22426,-1.51271 -5.31876,0.0589"
       style="fill:#8facdf;fill-opacity:1;fill-rule:nonzero;stroke:none;stroke-width:0.0352777"
       id="path258" />
    <path
       d="m 123.51872,183.45915 h 7.85297 l 0.35878,-3.24735 h -7.85262 l -0.35913,3.24735"
       style="fill:#a6bee7;fill-opacity:1;fill-rule:nonzero;stroke:none;stroke-width:0.0352777"
       id="path260" />
    <path
       d="m 124.47482,180.28306 h 6.64915 v -0.14221 h -6.64915 z"
       style="fill:#45283d;fill-opacity:1;fill-rule:nonzero;stroke:none;stroke-width:0.0352777"
       id="path262" />
    <path
       d="m 139.20371,179.13473 0.15381,7.20203 -2.6797,0.36933 -1.07491,-7.57136 h 3.6008"
       style="fill:#ed808d;fill-opacity:1;fill-rule:nonzero;stroke:none;stroke-width:0.0352777"
       id="path264" />
    <path
       d="m 140.33966,185.74434 h -5.26451 l 0.38665,1.66801 c 0,0 -2.65818,0.15624 -2.55411,3.33622 h 8.22254 l -0.79057,-5.00423"
       style="fill:#b22876;fill-opacity:1;fill-rule:nonzero;stroke:none;stroke-width:0.0352777"
       id="path266" />
    <path
       d="m 132.73483,189.83177 h 8.3954 v 0.9168 h -8.3954 v -0.9168"
       style="fill:#432d52;fill-opacity:1;fill-rule:nonzero;stroke:none;stroke-width:0.0352777"
       id="path268" />
    <path
       d="m 135.4805,187.50439 0.0363,-0.007 c 0.0737,-0.012 0.25576,-0.0367 0.49741,-0.0367 0.37324,0 0.88759,0.0592 1.3709,0.30906 l 0.0857,-0.16644 c -0.52106,-0.26888 -1.06433,-0.32949 -1.45662,-0.32991 -0.33937,5.2e-4 -0.56656,0.0462 -0.57115,0.0469 l 0.0374,0.18383"
       style="fill:#45283d;fill-opacity:1;fill-rule:nonzero;stroke:none;stroke-width:0.0352777"
       id="path270" />
    <path
       d="m 137.1195,146.69861 c 0,0 3.00249,4.41008 3.14784,9.918 0.20496,7.76675 0.85266,26.63088 0.85266,26.63088 l -6.46006,-0.18038 -4.43901,-36.45457 6.89857,0.0861"
       style="fill:#8facdf;fill-opacity:1;fill-rule:nonzero;stroke:none;stroke-width:0.0352777"
       id="path272" />
    <path
       d="m 132.82972,168.75428 -0.91581,-12.65132 -2.21721,-2.60103 -0.10795,0.0921 2.18687,2.56576 0.91264,12.60475 0.14146,-0.0102"
       style="fill:#45283d;fill-opacity:1;fill-rule:nonzero;stroke:none;stroke-width:0.0352777"
       id="path274" />
    <path
       d="m 133.5956,183.45915 h 8.11284 v -3.24735 h -8.11284 v 3.24735"
       style="fill:#a6bee7;fill-opacity:1;fill-rule:nonzero;stroke:none;stroke-width:0.0352777"
       id="path276" />
    <path
       d="m 134.3121,180.28306 h 6.70457 v -0.14221 h -6.70457 z"
       style="fill:#45283d;fill-opacity:1;fill-rule:nonzero;stroke:none;stroke-width:0.0352777"
       id="path278" />
    <path
       d="m 131.89663,137.68938 c 0.23565,-1.17334 -0.47167,-2.3301 -1.62349,-2.65572 -1.24319,-0.35136 -2.53072,0.39265 -2.84547,1.64571 -0.22532,0.89712 -0.39341,2.47721 -0.55495,4.15961 l 4.71417,0.19755 0.30974,-3.34715"
       style="fill:#b22876;fill-opacity:1;fill-rule:nonzero;stroke:none;stroke-width:0.0352777"
       id="path280" />
    <path
       d="m 131.58689,141.03336 -4.71417,-0.19827 c -0.21371,2.22674 -0.416,4.63127 -0.72401,5.87093 -0.34727,1.39771 0.57189,2.794 1.99306,3.0286 1.31152,0.21625 2.55894,-0.64558 2.82035,-1.94945 l 0.62477,-6.75181"
       style="fill:#ed808d;fill-opacity:1;fill-rule:nonzero;stroke:none;stroke-width:0.0352777"
       id="path282" />
    <path
       d="m 117.45937,148.82586 10.59999,-3.08751 c 1.13534,-0.29386 2.2861,0.42051 2.52599,1.56845 0.24307,1.16064 -0.54469,2.28565 -1.71838,2.45463 l -10.55296,1.42452 -0.85464,-2.36009"
       style="fill:#ed808d;fill-opacity:1;fill-rule:nonzero;stroke:none;stroke-width:0.0352777"
       id="path284" />
    <path
       d="m 118.5895,151.80401 c 1.05568,-0.49494 1.51031,-1.75224 1.01547,-2.80811 -0.49513,-1.05586 -1.75218,-1.51024 -2.80819,-1.01529 -1.05568,0.49459 -1.51031,1.75225 -1.01518,2.80776 0.49484,1.05586 1.75189,1.51024 2.8079,1.01564"
       style="fill:#ed808d;fill-opacity:1;fill-rule:nonzero;stroke:none;stroke-width:0.0352777"
       id="path286" />
    <path
       d="m 116.00649,148.82657 c 0,0 -0.64851,-0.52282 0.31542,-1.06856 0.96407,-0.5461 2.23368,-0.60925 3.28306,1.23789 l -3.59848,-0.16933"
       style="fill:#ed808d;fill-opacity:1;fill-rule:nonzero;stroke:none;stroke-width:0.0352777"
       id="path288" />
    <path
       d="m 116.08089,144.32195 -2.24716,0.63747 c -0.12513,0.0353 -0.18672,0.16969 -0.13779,0.29986 l 2.09751,5.59329 c 0.0489,0.13018 0.1899,0.20708 0.31489,0.17145 l 2.2473,-0.63747 c 0.12499,-0.0353 0.18672,-0.16968 0.13765,-0.29986 l -2.09751,-5.59329 c -0.0489,-0.13017 -0.18976,-0.20708 -0.31489,-0.17145"
       style="fill:#3b3261;fill-opacity:1;fill-rule:nonzero;stroke:none;stroke-width:0.0352777"
       id="path290" />
    <path
       d="m 116.51417,144.19883 -2.24719,0.63747 c -0.12513,0.0356 -0.18673,0.16969 -0.13779,0.30021 l 2.09751,5.59294 c 0.0489,0.13018 0.18976,0.20744 0.31489,0.17181 l 2.24715,-0.63712 c 0.12513,-0.0356 0.18673,-0.17004 0.1378,-0.30021 l -2.09751,-5.59294 c -0.0489,-0.13053 -0.18976,-0.20744 -0.31486,-0.17216"
       style="fill:#2d2445;fill-opacity:1;fill-rule:nonzero;stroke:none;stroke-width:0.0352777"
       id="path292" />
    <path
       d="m 116.68298,144.76222 -1.97475,0.55986 1.7096,4.55859 1.9746,-0.56021 -1.70945,-4.55824"
       style="fill:#e5e3e2;fill-opacity:1;fill-rule:nonzero;stroke:none;stroke-width:0.0352777"
       id="path294" />
    <path
       d="m 114.70823,145.32208 3.6842,3.99838 -1.70945,-4.55824 z"
       style="fill:#ffffff;fill-opacity:1;fill-rule:nonzero;stroke:none;stroke-width:0.0352777"
       id="path296" />
    <path
       d="m 130.6552,134.63432 -1.8736,0.45967 c -0.29503,0.12629 -0.44344,0.73801 -0.42859,1.05869 l 0.4935,10.47679 8.32026,-0.6156 2.18052,-7.30003 c 0.0152,-0.57785 -1.3342,-4.28695 -1.91029,-4.33176 l -4.15819,-0.06 -2.62361,0.31221"
       style="fill:#b22876;fill-opacity:1;fill-rule:nonzero;stroke:none;stroke-width:0.0352777"
       id="path298" />
    <path
       d="m 128.35234,146.62947 -0.43438,-3.1817 c 0,0 1.45913,-0.71332 1.51381,-5.95348 l 6.17573,-0.21131 c 0,0 -0.40923,5.26485 2.23767,6.4523 l -0.72567,2.96333 -8.76716,-0.0692"
       style="fill:#8facdf;fill-opacity:1;fill-rule:nonzero;stroke:none;stroke-width:0.0352777"
       id="path300" />
    <path
       d="m 134.98273,137.52286 1.03822,-3.16088 -1.06045,-0.006 -0.88088,3.16723 h 0.90311"
       style="fill:#8facdf;fill-opacity:1;fill-rule:nonzero;stroke:none;stroke-width:0.0352777"
       id="path302" />
    <path
       d="m 130.15002,137.49429 -0.65264,-2.57598 0.82762,-0.20285 0.66322,3.17853 -0.8382,-0.3997"
       style="fill:#8facdf;fill-opacity:1;fill-rule:nonzero;stroke:none;stroke-width:0.0352777"
       id="path304" />
    <path
       d="m 134.07962,139.86354 h -3.62409 v 1.02941 c 0,1.15041 0.81104,2.08315 1.81187,2.08315 1.00083,0 1.81222,-0.93274 1.81222,-2.08315 v -1.02941"
       style="fill:#a6bee7;fill-opacity:1;fill-rule:nonzero;stroke:none;stroke-width:0.0352777"
       id="path306" />
    <path
       d="m 134.31245,137.89399 c 0,0.12947 0.10513,0.23459 0.23424,0.23459 0.12983,0 0.2346,-0.10512 0.2346,-0.23459 0,-0.12947 -0.10477,-0.2346 -0.2346,-0.2346 -0.12911,0 -0.23424,0.10513 -0.23424,0.2346"
       style="fill:#45283d;fill-opacity:1;fill-rule:nonzero;stroke:none;stroke-width:0.0352777"
       id="path308" />
    <path
       d="m 130.38815,137.99171 c 0,0.12947 0.10477,0.23424 0.23424,0.23424 0.12983,0 0.2346,-0.10477 0.2346,-0.23424 0,-0.12983 -0.10477,-0.2346 -0.2346,-0.2346 -0.12947,0 -0.23424,0.10477 -0.23424,0.2346"
       style="fill:#45283d;fill-opacity:1;fill-rule:nonzero;stroke:none;stroke-width:0.0352777"
       id="path310" />
    <path
       d="m 128.72657,142.89849 -0.61483,7.99465 9.5401,3.48615 0.66323,-7.28627 -9.5885,-4.19453"
       style="fill:#dd1863;fill-opacity:1;fill-rule:nonzero;stroke:none;stroke-width:0.0352777"
       id="path312" />
    <path
       d="m 129.7408,142.79231 -0.61489,7.99465 9.54017,3.48579 0.66287,-7.28556 -9.58815,-4.19488"
       style="fill:#dd1863;fill-opacity:1;fill-rule:nonzero;stroke:none;stroke-width:0.0352777"
       id="path314" />
    <path
       d="m 138.66608,154.27275 -1.01424,0.10654 -9.5401,-3.48615 1.01417,-0.10618 9.54017,3.48579"
       style="fill:#c31a60;fill-opacity:1;fill-rule:nonzero;stroke:none;stroke-width:0.0352777"
       id="path316" />
    <path
       d="m 129.70023,143.32041 -0.66428,0.0695 -0.67095,7.47678 0.76091,-0.0797 0.57432,-7.46655"
       style="fill:#ffffff;fill-opacity:1;fill-rule:nonzero;stroke:none;stroke-width:0.0352777"
       id="path318" />
    <path
       d="m 139.78544,135.99781 c -0.4258,-1.19522 -1.69933,-1.86232 -2.92452,-1.53071 -1.32186,0.35807 -1.31269,3.69606 -0.91582,5.00733 0.28399,0.93874 0.21767,0.50835 0.98743,2.12619 l 4.39561,-2.38936 -1.5427,-3.21345"
       style="fill:#b22876;fill-opacity:1;fill-rule:nonzero;stroke:none;stroke-width:0.0352777"
       id="path320" />
    <path
       d="m 141.32814,139.21126 -4.39561,2.38936 c 1.01917,2.14172 2.01965,3.22192 2.41512,4.51697 0.44591,1.4605 1.7205,2.13325 3.14113,1.57162 1.31092,-0.51823 1.97556,-1.9819 1.50248,-3.31011 l -2.66312,-5.16784"
       style="fill:#ed808d;fill-opacity:1;fill-rule:nonzero;stroke:none;stroke-width:0.0352777"
       id="path322" />
    <path
       d="m 131.68849,150.70194 9.31898,-7.51417 c 1.03328,-0.55457 2.24684,0.52705 2.75237,1.58538 0.51117,1.07033 0.0127,2.34986 -1.08797,2.79224 l -9.59379,5.22711 -1.38959,-2.09056"
       style="fill:#ed808d;fill-opacity:1;fill-rule:nonzero;stroke:none;stroke-width:0.0352777"
       id="path324" />
    <path
       d="m 133.49224,153.32731 c 0.9084,-0.73096 1.05198,-2.06022 0.32103,-2.96863 -0.73131,-0.9084 -2.06058,-1.05198 -2.96863,-0.32102 -0.9084,0.7313 -1.05233,2.06022 -0.32102,2.96862 0.73095,0.9084 2.06022,1.05234 2.96862,0.32103"
       style="fill:#ed808d;fill-opacity:1;fill-rule:nonzero;stroke:none;stroke-width:0.0352777"
       id="path326" />
    <path
       d="m 130.27702,151.04695 c 0,0 -0.75388,-0.35383 0.0533,-1.11301 0.80751,-0.75847 2.0253,-1.12113 3.48298,0.42474 l -3.53625,0.68827"
       style="fill:#ed808d;fill-opacity:1;fill-rule:nonzero;stroke:none;stroke-width:0.0352777"
       id="path328" />
    <path
       d="m 130.06783,124.02417 c 0,0 5.2204,-0.26246 6.25122,1.63301 1.03082,1.89548 0.0878,4.93325 -2.34668,5.85647 -2.31845,0.87982 -1.55469,-6.6227 -1.55469,-6.6227 l -2.34985,-0.86678"
       style="fill:#542b45;fill-opacity:1;fill-rule:nonzero;stroke:none;stroke-width:0.0352777"
       id="path330" />
    <path
       d="m 132.31537,124.07568 c 0,0 -4.00685,-1.51836 -4.46507,1.28164 -0.30565,1.8669 2.72094,2.68076 2.72094,2.68076 l 1.74413,-3.9624"
       style="fill:#542b45;fill-opacity:1;fill-rule:nonzero;stroke:none;stroke-width:0.0352777"
       id="path332" />
    <path
       d="m 130.62169,128.70307 c 0.0434,0.62053 -0.4251,1.15922 -1.04599,1.20262 -0.62124,0.043 -1.15958,-0.4251 -1.20283,-1.04634 -0.0433,-0.62124 0.42531,-1.15958 1.0462,-1.20262 0.62124,-0.0434 1.15958,0.42509 1.20262,1.04634"
       style="fill:#45283d;fill-opacity:1;fill-rule:nonzero;stroke:none;stroke-width:0.0352777"
       id="path334" />
    <path
       d="m 130.95224,131.85972 0.15558,2.45146 c 0.0533,0.86077 0.61206,1.28834 1.45908,1.22943 0.7232,-0.0501 1.37654,-0.47061 1.41605,-1.19416 l -0.43074,-3.84633 -2.59997,1.3596"
       style="fill:#ed808d;fill-opacity:1;fill-rule:nonzero;stroke:none;stroke-width:0.0352777"
       id="path336" />
    <path
       d="m 131.05948,133.90301 2.86597,-2.80494 -2.99438,0.51047 z"
       style="fill:#45283d;fill-opacity:1;fill-rule:nonzero;stroke:none;stroke-width:0.0352777"
       id="path338" />
    <path
       d="m 131.69801,132.25554 v 0 c -1.44815,0.005 -2.64442,-1.1363 -2.68746,-2.31881 l -0.0854,-2.79082 c -0.0543,-1.48273 1.07703,-2.74074 2.55658,-2.84375 1.51518,-0.10548 3.09386,1.01883 3.19934,2.53365 l 0.0445,2.24543 c 0.0339,1.73673 -1.29469,3.054 -3.02754,3.1743"
       style="fill:#ed808d;fill-opacity:1;fill-rule:nonzero;stroke:none;stroke-width:0.0352777"
       id="path340" />
    <path
       d="m 130.45659,128.94684 -0.0836,0.69144 0.0169,0.0564 0.0529,0.0258 0.35807,0.013 c 0.0406,0.001 0.0744,-0.03 0.0762,-0.0706 0.001,-0.0406 -0.0303,-0.0744 -0.0706,-0.0758 l -0.27869,-0.0102 0.0741,-0.61242 c 0.005,-0.0402 -0.0236,-0.0765 -0.0639,-0.0815 -0.0402,-0.005 -0.0765,0.024 -0.0815,0.0639"
       style="fill:#45283d;fill-opacity:1;fill-rule:nonzero;stroke:none;stroke-width:0.0352777"
       id="path342" />
    <path
       d="m 132.10194,127.53396 c 0,0 -0.6103,-0.0501 -0.6163,0.19861 0,0 3.4e-4,0.16793 0.53269,0.20144 0.53235,0.0332 0.67064,-0.006 0.71932,-0.16369 0.0487,-0.15804 -0.3496,-0.2346 -0.63571,-0.23636"
       style="fill:#45283d;fill-opacity:1;fill-rule:nonzero;stroke:none;stroke-width:0.0352777"
       id="path344" />
    <path
       d="m 129.64449,127.60099 c 0,0 0.50377,-0.0522 0.54469,0.18097 0,0 0.0243,0.15805 -0.41663,0.19368 -0.44097,0.0356 -0.58455,-0.0205 -0.62618,-0.14782 -0.0473,-0.14463 0.25894,-0.2233 0.49812,-0.22683"
       style="fill:#45283d;fill-opacity:1;fill-rule:nonzero;stroke:none;stroke-width:0.0352777"
       id="path346" />
    <path
       d="m 129.99233,128.68966 c 0.005,0.14146 -0.10654,0.26 -0.24765,0.26423 -0.14146,0.005 -0.26,-0.10583 -0.26458,-0.24765 -0.005,-0.14111 0.10618,-0.25964 0.24765,-0.26423 0.14146,-0.004 0.26,0.10619 0.26458,0.24765"
       style="fill:#45283d;fill-opacity:1;fill-rule:nonzero;stroke:none;stroke-width:0.0352777"
       id="path348" />
    <path
       d="m 132.14251,128.61946 c 0.005,0.14146 -0.10618,0.26 -0.24765,0.26423 -0.14146,0.005 -0.25964,-0.10619 -0.26423,-0.24765 -0.005,-0.14111 0.10619,-0.25965 0.2473,-0.26423 0.14146,-0.005 0.26,0.10618 0.26458,0.24765"
       style="fill:#45283d;fill-opacity:1;fill-rule:nonzero;stroke:none;stroke-width:0.0352777"
       id="path350" />
    <path
       d="m 130.2428,130.06338 h 1.72579 c 0,0 0.005,0.60395 -0.99836,0.60536 -0.66498,10e-4 -0.72743,-0.60536 -0.72743,-0.60536"
       style="fill:#ffffff;fill-opacity:1;fill-rule:nonzero;stroke:none;stroke-width:0.0352777"
       id="path352" />
    <path
       d="m 129.64837,125.18587 c 0,0 -0.35912,2.47086 4.78085,2.22779 0.10901,-0.005 1.97732,-2.83633 -2.11385,-3.33798 0,0 -1.37371,-0.41487 -2.667,1.11019"
       style="fill:#542b45;fill-opacity:1;fill-rule:nonzero;stroke:none;stroke-width:0.0352777"
       id="path354" />
    <path
       d="m 132.74188,126.56453 c 0.23107,1.71097 1.38148,2.17664 1.38148,2.17664 l 1.52576,-1.78047 c 0,0 -3.02683,-1.282 -2.90724,-0.39617"
       style="fill:#542b45;fill-opacity:1;fill-rule:nonzero;stroke:none;stroke-width:0.0352777"
       id="path356" />
    <path
       d="m 136.0774,128.76198 c 0.0434,0.62054 -0.4251,1.15923 -1.04599,1.20262 -0.62124,0.043 -1.15958,-0.42545 -1.20297,-1.04634 -0.043,-0.62124 0.42545,-1.15958 1.04634,-1.20262 0.62124,-0.0434 1.15958,0.4251 1.20262,1.04634"
       style="fill:#ed808d;fill-opacity:1;fill-rule:nonzero;stroke:none;stroke-width:0.0352777"
       id="path358" />
    <path
       d="m 134.65641,129.1966 -7.2e-4,-0.03 c -3.4e-4,-0.0677 0.0102,-0.23566 0.0854,-0.37677 0.0773,-0.14041 0.20215,-0.25859 0.4759,-0.26106 0.0289,0 0.0593,0.001 0.0914,0.005 0.0402,0.004 0.0759,-0.0257 0.0797,-0.066 0.004,-0.0406 -0.0258,-0.0762 -0.066,-0.0801 -0.0367,-0.003 -0.0716,-0.005 -0.10513,-0.005 -0.32173,-0.002 -0.51399,0.16087 -0.60536,0.33902 -0.0931,0.1771 -0.10196,0.36478 -0.10231,0.44521 l 0.001,0.0402 c 0.003,0.0402 0.0377,0.0709 0.078,0.0681 0.0406,-0.003 0.0709,-0.0377 0.0681,-0.0783"
       style="fill:#45283d;fill-opacity:1;fill-rule:nonzero;stroke:none;stroke-width:0.0352777"
       id="path360" />
    <path
       d="m 90.263211,129.41015 -0.08255,4.08755 c -0.03069,1.14863 -0.822325,1.17971 -1.954036,1.10112 -0.965906,-0.0675 -1.782939,-0.40771 -1.86937,-1.37348 l -0.06032,-4.42772 3.966281,0.61253"
       style="fill:#ed808d;fill-opacity:1;fill-rule:nonzero;stroke:none;stroke-width:0.0352777"
       id="path24" />
    <path
       d="m 90.204297,132.42045 -2.999317,-2.20802 3.042003,0.17506 z"
       style="fill:#45283d;fill-opacity:1;fill-rule:nonzero;stroke:none;stroke-width:0.0352777"
       id="path26" />
    <path
       d="m 88.296828,130.90663 1.603728,0.11209 c 1.20403,0.0836 2.203344,-0.84504 2.205284,-2.04971 l 0.0055,-3.32827 c 0.0026,-1.51015 -1.193376,-2.79186 -2.702207,-2.89712 -1.545167,-0.10763 -3.111853,1.03712 -3.165122,2.58006 l 0.05292,3.4739 c 0.01693,1.10443 0.896409,2.03248 1.999898,2.10901"
       style="fill:#ed808d;fill-opacity:1;fill-rule:nonzero;stroke:none;stroke-width:0.0352777"
       id="path28" />
    <path
       d="m 85.288691,124.25932 c 0,0 0,-1.17546 1.065037,-1.35533 0.26035,-0.0437 0.530577,-0.0904 0.754239,-0.12659 0.03951,-0.31258 0.163336,-0.60561 0.460022,-0.73947 0.573969,-0.25851 1.097844,-0.0796 1.480608,0.16707 0.22225,-0.48185 0.590197,-0.9127 1.198386,-0.87157 1.337734,0.09 3.016286,1.31467 2.269526,3.14086 -0.536469,1.31146 -3.063981,0.32371 -3.581859,0.17603 -0.517878,-0.14767 -0.768703,-0.15332 -0.654756,0.58412 0.08925,0.57569 -0.70238,0.64557 -1.038225,0.64964 l -0.209197,1.43269 c 0,0 -1.291519,0.11581 -1.082322,-0.038 0.262819,-0.19326 -0.184856,-1.69419 -0.468842,-2.11623 -0.180269,-0.26774 -0.192617,-0.90317 -0.192617,-0.90317"
       style="fill:#45283d;fill-opacity:1;fill-rule:nonzero;stroke:none;stroke-width:0.0352777"
       id="path30" />
    <path
       d="m 90.055778,126.37214 c 0.325614,0.0114 0.569736,0.31354 0.514703,0.63229 -0.102306,0.58942 -0.413103,1.38317 -1.34867,1.32524 -0.959908,-0.0592 -1.187097,-0.90076 -1.228725,-1.48149 -0.02117,-0.29848 0.222603,-0.54074 0.521406,-0.53023 l 1.541286,0.0542"
       style="fill:#dd1863;fill-opacity:1;fill-rule:nonzero;stroke:none;stroke-width:0.0352777"
       id="path32" />
    <path
       d="m 92.266248,126.44986 c 0.314607,0.0111 0.561552,0.29491 0.518831,0.60526 -0.0816,0.59192 -0.337362,1.41337 -1.131218,1.36006 -0.802569,-0.0536 -0.992716,-0.89287 -1.027641,-1.47335 -0.01764,-0.30013 0.222602,-0.54181 0.522463,-0.53126 l 1.117565,0.0393"
       style="fill:#dd1863;fill-opacity:1;fill-rule:nonzero;stroke:none;stroke-width:0.0352777"
       id="path34" />
    <path
       d="m 89.302244,127.21136 2.143126,0.0754 v -0.86572 l -2.143126,-0.0754 v 0.86572"
       style="fill:#dd1863;fill-opacity:1;fill-rule:nonzero;stroke:none;stroke-width:0.0352777"
       id="path36" />
    <path
       d="m 88.279894,126.92212 -1.42379,-0.0501 v -0.35911 l 1.42379,0.0501 z"
       style="fill:#dd1863;fill-opacity:1;fill-rule:nonzero;stroke:none;stroke-width:0.0352777"
       id="path38" />
    <path
       d="m 90.731347,127.98374 0.04233,0.60263 -0.02081,0.0561 -0.05609,0.0209 -0.367947,-0.0256 c -0.04092,-0.002 -0.07338,-0.0386 -0.07197,-0.0794 0.0014,-0.0412 0.03598,-0.0721 0.07726,-0.0693 l 0.285044,0.02 -0.03669,-0.51952 c -0.0028,-0.0414 0.02787,-0.0755 0.06915,-0.0773 0.04092,-0.002 0.07655,0.0309 0.07973,0.0719"
       style="fill:#45283d;fill-opacity:1;fill-rule:nonzero;stroke:none;stroke-width:0.0352777"
       id="path40" />
    <path
       d="m 90.263211,129.48493 -0.58173,-0.0205 c -0.04127,-0.001 -0.07479,-0.0361 -0.07479,-0.0774 0,-0.0409 0.03351,-0.0732 0.07479,-0.0718 l 0.58173,0.0205 c 0.04092,10e-4 0.07444,0.0361 0.07444,0.077 0,0.0413 -0.03351,0.0736 -0.07444,0.0722"
       style="fill:#45283d;fill-opacity:1;fill-rule:nonzero;stroke:none;stroke-width:0.0352777"
       id="path42" />
    <path
       d="m 84.799741,127.439 c -0.02187,0.63246 0.473781,1.18117 1.107017,1.22531 0.633589,0.0442 1.164872,-0.43282 1.186745,-1.06564 0.02187,-0.63212 -0.474134,-1.18085 -1.10737,-1.22498 -0.633236,-0.0442 -1.164519,0.43249 -1.186392,1.06531"
       style="fill:#ed808d;fill-opacity:1;fill-rule:nonzero;stroke:none;stroke-width:0.0352777"
       id="path44" />
    <path
       d="m 86.260947,127.8823 v -0.008 c 3.44e-4,-0.0391 -0.006,-0.21223 -0.08043,-0.3676 -0.07726,-0.15476 -0.202848,-0.29147 -0.484011,-0.30382 -0.03775,-10e-4 -0.07832,-7.6e-4 -0.122414,0.004 -0.04057,0.004 -0.07796,-0.0263 -0.08326,-0.0671 -0.0053,-0.0411 0.02328,-0.0775 0.06421,-0.0813 0.04974,-0.004 0.09701,-0.007 0.141464,-0.005 0.336197,0.01 0.530225,0.20138 0.618066,0.39285 0.09066,0.19087 0.09525,0.38153 0.0956,0.43304 l -3.44e-4,0.0131 c -0.0014,0.0412 -0.03563,0.0721 -0.07691,0.0693 -0.04128,-0.002 -0.07338,-0.0386 -0.07197,-0.0794"
       style="fill:#45283d;fill-opacity:1;fill-rule:nonzero;stroke:none;stroke-width:0.0352777"
       id="path46" />
    <path
       d="m 83.905802,154.99479 10.511827,0.36959 0.728309,-4.11318 -11.240136,0.26132 v 3.48227"
       style="fill:#77babd;fill-opacity:1;fill-rule:nonzero;stroke:none;stroke-width:0.0352777"
       id="path48" />
    <path
       d="m 96.917941,183.97085 -0.534387,2.9396 -2.758159,-0.097 0.523523,-3.09662 2.769023,0.25399"
       style="fill:#ed808d;fill-opacity:1;fill-rule:nonzero;stroke:none;stroke-width:0.0352777"
       id="path50" />
    <path
       d="m 97.175504,186.75098 v 1.99672 l 3.594206,0.95434 c 0.72362,0.29955 1.22216,0.9863 1.2773,1.76012 l 0.0394,0.45188 -10.33681,-0.38215 0.900007,-4.97462 4.525892,0.19373"
       style="fill:#d2b9cb;fill-opacity:1;fill-rule:nonzero;stroke:none;stroke-width:0.0352777"
       id="path52" />
    <path
       d="m 101.93691,191.0353 -10.015714,-0.35215 v -0.19898 l 10.015714,0.35215 z"
       style="fill:#45283d;fill-opacity:1;fill-rule:nonzero;stroke:none;stroke-width:0.0352777"
       id="path54" />
    <path
       d="m 93.414434,188.67437 0.09962,0.004 c 9.52e-4,0.51898 0.420582,0.95318 0.939412,0.97248 0.518689,0.0172 0.938565,-0.38786 0.939553,-0.90641 -9.79e-4,-0.51862 -0.420864,-0.95318 -0.939553,-0.97248 -0.51883,-0.0172 -0.93846,0.38787 -0.939412,0.90641 l -0.09962,-0.004 -0.09962,-0.004 c 1.05e-4,-0.62865 0.509729,-1.12049 1.138661,-1.09873 0.628791,0.0224 1.13852,0.55014 1.138661,1.1788 -1.41e-4,0.629 -0.50987,1.12049 -1.138661,1.09873 -0.628932,-0.0224 -1.138556,-0.54979 -1.138661,-1.1788 l 0.09962,0.004"
       style="fill:#45283d;fill-opacity:1;fill-rule:nonzero;stroke:none;stroke-width:0.0352777"
       id="path56" />
    <path
       d="m 99.037783,189.29507 -0.625228,0.62184 -0.142875,-0.14367 0.625193,-0.62184"
       style="fill:#45283d;fill-opacity:1;fill-rule:nonzero;stroke:none;stroke-width:0.0352777"
       id="path58" />
    <path
       d="m 98.101969,189.04732 -0.625369,0.62184 -0.142769,-0.14366 0.625228,-0.62184"
       style="fill:#45283d;fill-opacity:1;fill-rule:nonzero;stroke:none;stroke-width:0.0352777"
       id="path60" />
    <path
       d="m 95.145938,151.2512 4.786454,18.21534 c 0.201898,0.64387 0.241868,1.32261 0.116308,1.97436 l -2.642232,13.70212 -4.111943,-0.14458 1.96649,-14.63216 -6.099529,-17.62369 5.984452,-1.49139"
       style="fill:#77babd;fill-opacity:1;fill-rule:nonzero;stroke:none;stroke-width:0.0352777"
       id="path62" />
    <path
       d="m 90.015561,155.20961 2.34121,0.0329 -1.221846,3.20083 z"
       style="fill:#64abb0;fill-opacity:1;fill-rule:nonzero;stroke:none;stroke-width:0.0352777"
       id="path64" />
    <path
       d="m 92.618744,184.97468 5.30599,0.18656 0.323709,-1.99416 -5.30599,-0.18656 -0.323709,1.99416"
       style="fill:#95d9d6;fill-opacity:1;fill-rule:nonzero;stroke:none;stroke-width:0.0352777"
       id="path66" />
    <path
       d="m 97.790537,183.21272 -4.227831,-0.14865 v -0.12347 l 4.227831,0.14865 z"
       style="fill:#45283d;fill-opacity:1;fill-rule:nonzero;stroke:none;stroke-width:0.0352777"
       id="path68" />
    <path
       d="m 83.542794,183.50058 -0.534458,2.9396 -2.758017,-0.097 0.523522,-3.09661 2.768953,0.25398"
       style="fill:#ed808d;fill-opacity:1;fill-rule:nonzero;stroke:none;stroke-width:0.0352777"
       id="path70" />
    <path
       d="m 83.820783,186.28143 v 1.99672 l 3.594453,0.95435 c 0.723547,0.29955 1.222022,0.98629 1.277056,1.76011 l 0.03951,0.45188 -10.337095,-0.38215 0.900289,-4.97462 4.525786,0.19373"
       style="fill:#d2b9cb;fill-opacity:1;fill-rule:nonzero;stroke:none;stroke-width:0.0352777"
       id="path72" />
    <path
       d="M 88.582225,190.56575 78.566511,190.2136 v -0.19898 l 10.015714,0.35215 z"
       style="fill:#45283d;fill-opacity:1;fill-rule:nonzero;stroke:none;stroke-width:0.0352777"
       id="path74" />
    <path
       d="m 80.059819,188.20482 0.09948,0.004 c 0.0011,0.51898 0.420864,0.95319 0.939447,0.97248 0.518937,0.0173 0.938389,-0.38752 0.939448,-0.90642 -0.0011,-0.51862 -0.420511,-0.95316 -0.939448,-0.97247 -0.518583,-0.0172 -0.938388,0.38787 -0.939447,0.90641 l -0.09948,-0.004 -0.09948,-0.004 c 0,-0.62865 0.509763,-1.12048 1.138413,-1.09873 0.629003,0.0224 1.138414,0.55014 1.138767,1.1788 -3.44e-4,0.629 -0.509764,1.1205 -1.138767,1.09873 -0.62865,-0.0224 -1.138413,-0.54979 -1.138413,-1.1788 l 0.09948,0.004"
       style="fill:#45283d;fill-opacity:1;fill-rule:nonzero;stroke:none;stroke-width:0.0352777"
       id="path76" />
    <path
       d="m 85.683097,188.82552 -0.625475,0.62183 -0.142522,-0.14366 0.625475,-0.62183"
       style="fill:#45283d;fill-opacity:1;fill-rule:nonzero;stroke:none;stroke-width:0.0352777"
       id="path78" />
    <path
       d="m 84.74753,188.57778 -0.625475,0.62183 -0.142875,-0.14366 0.625475,-0.62183"
       style="fill:#45283d;fill-opacity:1;fill-rule:nonzero;stroke:none;stroke-width:0.0352777"
       id="path80" />
    <path
       d="m 83.905802,151.51252 -4.193822,32.97591 4.23545,0.18142 5.932664,-31.90195 -5.974292,-1.25533"
       style="fill:#77babd;fill-opacity:1;fill-rule:nonzero;stroke:none;stroke-width:0.0352777"
       id="path82" />
    <path
       d="m 78.979261,184.49512 5.469819,0.19232 0.32385,-1.99416 -5.469819,-0.19232 -0.32385,1.99416"
       style="fill:#95d9d6;fill-opacity:1;fill-rule:nonzero;stroke:none;stroke-width:0.0352777"
       id="path84" />
    <path
       d="m 84.192258,182.73461 -4.228112,-0.14866 v -0.12347 l 4.228112,0.14866 z"
       style="fill:#45283d;fill-opacity:1;fill-rule:nonzero;stroke:none;stroke-width:0.0352777"
       id="path86" />
    <path
       d="m 100.01854,132.50093 -2.283953,-0.0803 c -0.127071,-0.004 -0.230153,-0.11111 -0.230153,-0.23776 v -5.45324 c 0,-0.127 0.103082,-0.22638 0.230153,-0.22191 l 2.283953,0.0803 c 0.12693,0.004 0.22998,0.1111 0.22998,0.2381 v 5.45324 c 0,0.12665 -0.10305,0.22603 -0.22998,0.22157"
       style="fill:#3b3261;fill-opacity:1;fill-rule:nonzero;stroke:none;stroke-width:0.0352777"
       id="path88" />
    <path
       d="m 100.45881,132.51641 -2.283957,-0.0803 c -0.127035,-0.004 -0.230117,-0.1111 -0.230117,-0.23775 v -5.45324 c 0,-0.127 0.103082,-0.22639 0.230117,-0.22192 l 2.283957,0.0803 c 0.12693,0.004 0.23001,0.1111 0.23001,0.2381 v 5.45324 c 0,0.12665 -0.10308,0.22603 -0.23001,0.22157"
       style="fill:#2d2445;fill-opacity:1;fill-rule:nonzero;stroke:none;stroke-width:0.0352777"
       id="path90" />
    <path
       d="m 102.55508,138.11991 -0.0693,-4.35959 -3.622707,0.10721 0.04533,4.03068 3.646697,0.22172"
       style="fill:#ed808d;fill-opacity:1;fill-rule:nonzero;stroke:none;stroke-width:0.0352777"
       id="path92" />
    <path
       d="m 102.95196,132.60866 c -0.0477,1.23375 -1.08769,2.15956 -2.32283,2.06851 -1.234971,-0.0914 -2.197419,-1.16523 -2.149724,-2.39828 0.0477,-1.23375 1.087685,-2.15956 2.322694,-2.06851 1.23514,0.0914 2.1977,1.16524 2.14986,2.39828"
       style="fill:#ed808d;fill-opacity:1;fill-rule:nonzero;stroke:none;stroke-width:0.0352777"
       id="path94" />
    <path
       d="m 99.15547,130.78643 c 0,0 -0.962696,-0.37216 -1.09788,0.78971 -0.135185,1.16189 0.334998,2.75957 2.57154,3.10103 l -1.47366,-3.89074"
       style="fill:#ed808d;fill-opacity:1;fill-rule:nonzero;stroke:none;stroke-width:0.0352777"
       id="path96" />
    <path
       d="m 98.851481,136.5486 v -1.14477 l 3.703599,0.13022 v 1.74273 l -3.703599,-0.72818"
       style="fill:#f5d588;fill-opacity:1;fill-rule:nonzero;stroke:none;stroke-width:0.0352777"
       id="path98" />
    <path
       d="m 90.848822,133.27178 c 0,0 2.69995,-0.78596 4.912537,4.2579 l 2.281626,4.59895 -0.152823,-4.32902 c 0,-0.68509 0.551356,-1.22345 1.23638,-1.20677 l 3.125928,0.0757 c 0.69593,0.0165 1.26407,0.59865 1.26407,1.29433 l 0.15269,8.47733 c 0,2.24367 -1.75631,4.03294 -3.996729,4.07199 -1.667263,0.0292 -3.229293,-0.92952 -3.984167,-2.44513 l -2.925163,-3.73082 -1.914349,-11.06445"
       style="fill:#f5d588;fill-opacity:1;fill-rule:nonzero;stroke:none;stroke-width:0.0352777"
       id="path100" />
    <path
       d="m 102.55508,136.75043 -3.703599,-0.13022 v -0.14331 l 3.703599,0.13022 z"
       style="fill:#45283d;fill-opacity:1;fill-rule:nonzero;stroke:none;stroke-width:0.0352777"
       id="path102" />
    <path
       d="m 98.114634,142.13115 -0.0066,3.54589 -0.143333,-0.005 0.0066,-3.54554"
       style="fill:#45283d;fill-opacity:1;fill-rule:nonzero;stroke:none;stroke-width:0.0352777"
       id="path104" />
    <path
       d="m 85.093958,133.06944 6.439253,0.22641 c 0.282822,0.01 0.54356,0.18209 0.661106,0.4434 2.552665,5.67422 3.046413,12.36614 3.141769,14.74193 0.02043,0.50553 -0.179811,1.23792 -0.682943,1.26573 -2.272242,0.12578 -8.494149,0.0827 -10.896213,0.1891 -0.518936,0.0234 -0.951794,-0.41728 -0.919339,-0.93614 0.177095,-2.82976 0.531989,-11.01689 0.582084,-14.34147 0.01376,-0.91462 0.759177,-1.62113 1.674283,-1.58896"
       style="fill:#f5d588;fill-opacity:1;fill-rule:nonzero;stroke:none;stroke-width:0.0352777"
       id="path106" />
    <path
       d="m 83.7594,149.9361 v 1.57127 l 11.386538,-0.15245 -0.318876,-2.86201 -11.067662,1.44319"
       style="fill:#f5d588;fill-opacity:1;fill-rule:nonzero;stroke:none;stroke-width:0.0352777"
       id="path108" />
    <path
       d="m 94.00382,137.80901 c 1.41e-4,7.3e-4 1.046198,7.31883 1.367296,11.01947 l 0.0037,0.0841 c -2.91e-4,0.49953 -0.389572,0.90847 -0.895314,0.93302 l -0.0012,2.2e-4 -10.715345,0.16194 -0.0071,-0.14348 10.714003,-0.16198 0.0036,0.0717 -0.0059,-0.0715 c 0.431676,-0.0208 0.76431,-0.37142 0.764063,-0.79511 l -0.0032,-0.0714 c -0.160126,-1.84608 -0.501756,-4.59987 -0.803275,-6.89083 -0.150742,-1.14583 -0.291571,-2.17596 -0.394652,-2.91971 -0.103082,-0.7441 -0.168275,-1.20007 -0.168417,-1.20113 l 0.141817,-0.0155"
       style="fill:#45283d;fill-opacity:1;fill-rule:nonzero;stroke:none;stroke-width:0.0352777"
       id="path110" />
    <path
       d="m 90.699245,135.95398 -4.934304,-0.17349 v -3.51613 l 4.934304,0.17349 v 3.51613"
       style="fill:#f5d588;fill-opacity:1;fill-rule:nonzero;stroke:none;stroke-width:0.0352777"
       id="path112" />
    <path
       d="m 90.699245,133.35401 -4.934339,-0.17349 v -0.14332 l 4.934339,0.17349 z"
       style="fill:#45283d;fill-opacity:1;fill-rule:nonzero;stroke:none;stroke-width:0.0352777"
       id="path114" />
    <path
       d="m 87.299172,146.18635 -1.362781,12.45594 c 0,0 -7.767461,0.38554 -12.67319,-2.75875 l 2.589038,-11.77536 11.446933,2.07817"
       style="fill:#45283d;fill-opacity:1;fill-rule:nonzero;stroke:none;stroke-width:0.0352777"
       id="path116" />
    <path
       d="m 77.222074,154.52696 -0.698148,5.04098 3.606448,0.53991 0.862189,-4.99677 -3.770489,-0.58412"
       style="fill:#ed808d;fill-opacity:1;fill-rule:nonzero;stroke:none;stroke-width:0.0352777"
       id="path118" />
    <path
       d="m 75.85753,160.61061 c 0.266346,-1.19749 1.460853,-1.91785 2.667706,-1.60872 1.206852,0.30879 1.969205,1.53045 1.702858,2.72794 -0.2667,1.19747 -1.461206,1.91783 -2.668058,1.6087 -1.206854,-0.30914 -1.969206,-1.5301 -1.702506,-2.72792"
       style="fill:#ed808d;fill-opacity:1;fill-rule:nonzero;stroke:none;stroke-width:0.0352777"
       id="path120" />
    <path
       d="m 79.29288,163.06854 c 0,0 0.887236,0.53532 1.228019,-0.577 0.340431,-1.11163 0.15875,-2.75773 -1.995663,-3.48965 l 0.767644,4.06665"
       style="fill:#ed808d;fill-opacity:1;fill-rule:nonzero;stroke:none;stroke-width:0.0352777"
       id="path122" />
    <path
       d="m 76.890464,156.16665 -0.205317,1.71681 3.770136,0.58411 0.375708,-1.87485 -3.940527,-0.42607"
       style="fill:#f5d588;fill-opacity:1;fill-rule:nonzero;stroke:none;stroke-width:0.0352777"
       id="path124" />
    <path
       d="m 85.093958,133.06944 -3.280833,22.77676 c -0.07761,0.54972 -0.579614,0.92294 -1.134181,0.84382 l -3.43535,-0.49297 c -0.584201,-0.0837 -0.99801,-0.63516 -0.910168,-1.21345 l 2.767896,-17.91693 c 0.410986,-2.41513 2.515658,-4.11948 4.979811,-4.03284 l 1.012825,0.0356"
       style="fill:#f5d588;fill-opacity:1;fill-rule:nonzero;stroke:none;stroke-width:0.0352777"
       id="path126" />
    <path
       d="m 76.927505,156.10128 3.849864,0.67017 -0.01976,0.14111 -3.849864,-0.67017"
       style="fill:#45283d;fill-opacity:1;fill-rule:nonzero;stroke:none;stroke-width:0.0352777"
       id="path128" />
    <path
       d="m 82.664025,133.16709 c 0,0 1.650294,0.6694 1.368777,4.94716 -0.281163,4.27778 -0.853016,8.51076 -0.853016,8.51076 l 1.683808,2.1674 0.810684,-7.24436 c 0,0 0.775052,-7.34827 -2.209095,-8.52036 l -0.801158,0.1394"
       style="fill:#45283d;fill-opacity:1;fill-rule:nonzero;stroke:none;stroke-width:0.0352777"
       id="path130" />
  </g>
</svg>
