<?xml version="1.0" encoding="UTF-8" standalone="no"?>
<!-- Created with Inkscape (http://www.inkscape.org/) -->

<svg
   width="91.561676mm"
   height="22.427885mm"
   viewBox="0 0 91.561676 22.427885"
   version="1.1"
   id="svg5"
   inkscape:version="1.1 (c68e22c387, 2021-05-23)"
   sodipodi:docname="brock-logo-white.svg"
   xmlns:inkscape="http://www.inkscape.org/namespaces/inkscape"
   xmlns:sodipodi="http://sodipodi.sourceforge.net/DTD/sodipodi-0.dtd"
   xmlns="http://www.w3.org/2000/svg"
   xmlns:svg="http://www.w3.org/2000/svg">
  <sodipodi:namedview
     id="namedview7"
     pagecolor="#ffffff"
     bordercolor="#666666"
     borderopacity="1.0"
     inkscape:pageshadow="2"
     inkscape:pageopacity="0.0"
     inkscape:pagecheckerboard="true"
     inkscape:document-units="mm"
     showgrid="false"
     fit-margin-top="0"
     fit-margin-left="0"
     fit-margin-right="0"
     fit-margin-bottom="0"
     inkscape:zoom="1.0482005"
     inkscape:cx="176.96996"
     inkscape:cy="13.833231"
     inkscape:window-width="1920"
     inkscape:window-height="1017"
     inkscape:window-x="-8"
     inkscape:window-y="-8"
     inkscape:window-maximized="1"
     inkscape:current-layer="layer1" />
  <defs
     id="defs2">
    <rect
       x="333.42792"
       y="517.52728"
       width="217.03847"
       height="84.208046"
       id="rect4503" />
  </defs>
  <g
     inkscape:label="Layer 1"
     inkscape:groupmode="layer"
     id="layer1"
     transform="translate(-45.287742,-136.92909)">
    <g
       id="g385"
       transform="matrix(0.07227564,0,0,0.06229968,45.287742,136.92909)">
      <g
         class="st3"
         id="g268">
	<g
   class="st4"
   id="g254">
		<path
   class="st2"
   d="m 129.3,114.4 c 25.9,0 40.9,15 40.9,35.1 0,13.5 -8.5,24.6 -19.2,28.1 11.8,2.8 23.3,13.7 23.3,30.7 0,21.5 -16.3,37.2 -41.1,37.2 H 80.3 V 114.4 Z m -4.6,52.6 c 10.2,0 16.8,-5.4 16.8,-14.2 0,-8.5 -5.7,-14.1 -17.2,-14.1 H 108.8 V 167 Z m 2.4,54.7 c 11.3,0 18.1,-5.9 18.1,-15.3 0,-9.1 -6.7,-15.4 -18.1,-15.4 h -18.3 v 30.7 z"
   id="path244" />

		<path
   class="st2"
   d="m 248.8,181.4 c -3.1,-0.7 -6.1,-0.9 -8.9,-0.9 -11.3,0 -21.5,6.7 -21.5,25 v 40.1 h -28.1 v -91.9 h 27.2 V 166 c 4.8,-10.4 16.5,-13.3 23.9,-13.3 2.8,0 5.5,0.4 7.4,0.9 z"
   id="path246" />

		<path
   class="st2"
   d="m 352.7,199.5 c 0,28.5 -21.3,48.8 -48.8,48.8 -27.4,0 -48.8,-20.3 -48.8,-48.8 0,-28.5 21.5,-48.6 48.8,-48.6 27.5,0 48.8,20.1 48.8,48.6 z m -28.1,0 c 0,-15.5 -10,-22.7 -20.7,-22.7 -10.5,0 -20.7,7.2 -20.7,22.7 0,15.3 10.2,22.9 20.7,22.9 10.7,0 20.7,-7.4 20.7,-22.9 z"
   id="path248" />

		<path
   class="st2"
   d="m 390.6,199.7 c 0,14.6 9.8,22.7 21.5,22.7 10.9,0 17,-6.8 19.1,-13.7 l 24.8,7.6 c -4.1,16.1 -19.2,32 -43.8,32 -27.4,0 -49.4,-20.2 -49.4,-48.6 0,-28.7 21.5,-48.8 48.5,-48.8 25.3,0 40.1,15.5 44.2,32 l -25.2,7.6 c -2,-7 -7.6,-13.7 -18.5,-13.7 -11.8,0 -21.2,8.1 -21.2,22.9 z"
   id="path250" />

		<path
   class="st2"
   d="m 526,192.3 36.6,53.3 h -34.4 l -21.6,-32.4 -9.1,9.8 v 22.6 H 469.4 V 111.7 h 28.1 v 72.9 l 27.9,-30.9 h 36.4 z"
   id="path252" />

	</g>

	<g
   class="st4"
   id="g266">
		<path
   class="st2"
   d="m 129.3,114.4 c 25.9,0 40.9,15 40.9,35.1 0,13.5 -8.5,24.6 -19.2,28.1 11.8,2.8 23.3,13.7 23.3,30.7 0,21.5 -16.3,37.2 -41.1,37.2 H 80.3 V 114.4 Z m -4.6,52.6 c 10.2,0 16.8,-5.4 16.8,-14.2 0,-8.5 -5.7,-14.1 -17.2,-14.1 H 108.8 V 167 Z m 2.4,54.7 c 11.3,0 18.1,-5.9 18.1,-15.3 0,-9.1 -6.7,-15.4 -18.1,-15.4 h -18.3 v 30.7 z"
   id="path256" />

		<path
   class="st2"
   d="m 248.8,181.4 c -3.1,-0.7 -6.1,-0.9 -8.9,-0.9 -11.3,0 -21.5,6.7 -21.5,25 v 40.1 h -28.1 v -91.9 h 27.2 V 166 c 4.8,-10.4 16.5,-13.3 23.9,-13.3 2.8,0 5.5,0.4 7.4,0.9 z"
   id="path258" />

		<path
   class="st2"
   d="m 352.7,199.5 c 0,28.5 -21.3,48.8 -48.8,48.8 -27.4,0 -48.8,-20.3 -48.8,-48.8 0,-28.5 21.5,-48.6 48.8,-48.6 27.5,0 48.8,20.1 48.8,48.6 z m -28.1,0 c 0,-15.5 -10,-22.7 -20.7,-22.7 -10.5,0 -20.7,7.2 -20.7,22.7 0,15.3 10.2,22.9 20.7,22.9 10.7,0 20.7,-7.4 20.7,-22.9 z"
   id="path260" />

		<path
   class="st2"
   d="m 390.6,199.7 c 0,14.6 9.8,22.7 21.5,22.7 10.9,0 17,-6.8 19.1,-13.7 l 24.8,7.6 c -4.1,16.1 -19.2,32 -43.8,32 -27.4,0 -49.4,-20.2 -49.4,-48.6 0,-28.7 21.5,-48.8 48.5,-48.8 25.3,0 40.1,15.5 44.2,32 l -25.2,7.6 c -2,-7 -7.6,-13.7 -18.5,-13.7 -11.8,0 -21.2,8.1 -21.2,22.9 z"
   id="path262" />

		<path
   class="st2"
   d="m 526,192.3 36.6,53.3 h -34.4 l -21.6,-32.4 -9.1,9.8 v 22.6 H 469.4 V 111.7 h 28.1 v 72.9 l 27.9,-30.9 h 36.4 z"
   id="path264" />

	</g>

</g>
      <rect
         class="st5"
         width="594"
         height="360"
         id="rect270"
         x="0"
         y="0" />
      <g
         id="g320">
	<g
   id="g318">
		<g
   id="g316">
			<g
   id="g292">
				<path
   class="st2"
   d="m 259.7,289.4 v -31.3 h 6.5 v 31.1 c 0,7.2 4,11.3 10.6,11.3 6.7,0 10.5,-4.1 10.5,-11.3 v -31.1 h 6.6 v 31.3 c 0,11.2 -7.4,17.2 -17.1,17.2 -9.7,0 -17.1,-6 -17.1,-17.2 z"
   id="path272" />

				<path
   class="st2"
   d="m 307.8,305.6 h -6.3 v -32.2 h 6.2 v 4.6 c 2.3,-4 6.2,-5.6 9.9,-5.6 7.7,0 11.5,5.6 11.5,12.7 v 20.4 h -6.3 v -19.4 c 0,-4.5 -1.9,-8.1 -7.5,-8.1 -5,0 -7.5,4 -7.5,8.8 z"
   id="path274" />

				<path
   class="st2"
   d="m 340.3,256.7 c 2.5,0 4.6,2 4.6,4.6 0,2.5 -2,4.5 -4.6,4.5 -2.5,0 -4.5,-2 -4.5,-4.5 0,-2.6 2,-4.6 4.5,-4.6 z m -3.1,48.9 v -32.2 h 6.2 v 32.2 z"
   id="path276" />

				<path
   class="st2"
   d="m 367.8,305.6 h -6.4 l -13.1,-32.2 h 7.1 l 9.2,24.8 9.2,-24.8 h 6.8 z"
   id="path278" />

				<path
   class="st2"
   d="m 413,296.5 c -1.8,5.7 -7,10.2 -14.5,10.2 -8.6,0 -16.2,-6.3 -16.2,-17.2 0,-10.1 7.3,-17 15.4,-17 9.9,0 15.5,6.8 15.5,16.9 0,0.8 -0.1,1.6 -0.1,2 h -24.2 c 0.1,5.8 4.3,9.8 9.7,9.8 5.2,0 7.8,-2.9 9,-6.5 z m -6.3,-10.3 c -0.1,-4.6 -3.1,-8.2 -8.8,-8.2 -5.3,0 -8.5,4.1 -8.8,8.2 z"
   id="path280" />

				<path
   class="st2"
   d="m 437.3,279.8 c -0.9,-0.1 -1.9,-0.2 -2.7,-0.2 -5.3,0 -8.8,2.8 -8.8,9.9 v 16.1 h -6.3 v -32.2 h 6.2 v 5.6 c 2.3,-5 6.4,-6.2 9.6,-6.2 0.9,0 1.7,0.1 2.1,0.2 v 6.8 z"
   id="path282" />

				<path
   class="st2"
   d="m 446.9,295.3 c 0.4,3.3 2.9,6 7.5,6 3.5,0 5.5,-2 5.5,-4.3 0,-2 -1.5,-3.5 -4.2,-4.2 l -5.5,-1.2 c -5,-1.1 -8,-4.5 -8,-9 0,-5.5 5.2,-10.2 11.5,-10.2 8.8,0 11.6,5.8 12.3,8.6 l -5.6,2.1 c -0.3,-1.7 -1.6,-5.4 -6.7,-5.4 -3.2,0 -5.4,2.1 -5.4,4.3 0,1.9 1.2,3.3 3.7,3.9 l 5.2,1.1 c 5.8,1.3 8.9,4.8 8.9,9.6 0,4.6 -3.8,10 -11.8,10 -8.8,0 -12.6,-5.7 -13.1,-9.4 z"
   id="path284" />

				<path
   class="st2"
   d="m 475.6,256.7 c 2.5,0 4.6,2 4.6,4.6 0,2.5 -2,4.5 -4.6,4.5 -2.5,0 -4.5,-2 -4.5,-4.5 0,-2.6 2,-4.6 4.5,-4.6 z m -3.1,48.9 v -32.2 h 6.2 v 32.2 z"
   id="path286" />

				<path
   class="st2"
   d="m 496,273.4 h 7 v 5.7 h -7 v 16.7 c 0,2.9 1.2,4.4 4.5,4.4 0.8,0 1.9,-0.1 2.5,-0.3 v 5.4 c -0.5,0.2 -2.1,0.6 -4.3,0.6 -5.5,0 -9,-3.3 -9,-9.2 V 279 h -6.2 v -5.7 h 1.7 c 3.5,0 5,-2.1 5,-5 v -5.2 h 5.8 z"
   id="path288" />

				<path
   class="st2"
   d="m 512.5,319.1 8,-17 -13.9,-28.7 h 7.2 l 10,22.2 9.6,-22.2 h 6.8 l -21,45.7 z"
   id="path290" />

			</g>

			<g
   id="g314">
				<path
   class="st2"
   d="m 259.7,289.4 v -31.3 h 6.5 v 31.1 c 0,7.2 4,11.3 10.6,11.3 6.7,0 10.5,-4.1 10.5,-11.3 v -31.1 h 6.6 v 31.3 c 0,11.2 -7.4,17.2 -17.1,17.2 -9.7,0 -17.1,-6 -17.1,-17.2 z"
   id="path294" />

				<path
   class="st2"
   d="m 307.8,305.6 h -6.3 v -32.2 h 6.2 v 4.6 c 2.3,-4 6.2,-5.6 9.9,-5.6 7.7,0 11.5,5.6 11.5,12.7 v 20.4 h -6.3 v -19.4 c 0,-4.5 -1.9,-8.1 -7.5,-8.1 -5,0 -7.5,4 -7.5,8.8 z"
   id="path296" />

				<path
   class="st2"
   d="m 340.3,256.7 c 2.5,0 4.6,2 4.6,4.6 0,2.5 -2,4.5 -4.6,4.5 -2.5,0 -4.5,-2 -4.5,-4.5 0,-2.6 2,-4.6 4.5,-4.6 z m -3.1,48.9 v -32.2 h 6.2 v 32.2 z"
   id="path298" />

				<path
   class="st2"
   d="m 367.8,305.6 h -6.4 l -13.1,-32.2 h 7.1 l 9.2,24.8 9.2,-24.8 h 6.8 z"
   id="path300" />

				<path
   class="st2"
   d="m 413,296.5 c -1.8,5.7 -7,10.2 -14.5,10.2 -8.6,0 -16.2,-6.3 -16.2,-17.2 0,-10.1 7.3,-17 15.4,-17 9.9,0 15.5,6.8 15.5,16.9 0,0.8 -0.1,1.6 -0.1,2 h -24.2 c 0.1,5.8 4.3,9.8 9.7,9.8 5.2,0 7.8,-2.9 9,-6.5 z m -6.3,-10.3 c -0.1,-4.6 -3.1,-8.2 -8.8,-8.2 -5.3,0 -8.5,4.1 -8.8,8.2 z"
   id="path302" />

				<path
   class="st2"
   d="m 437.3,279.8 c -0.9,-0.1 -1.9,-0.2 -2.7,-0.2 -5.3,0 -8.8,2.8 -8.8,9.9 v 16.1 h -6.3 v -32.2 h 6.2 v 5.6 c 2.3,-5 6.4,-6.2 9.6,-6.2 0.9,0 1.7,0.1 2.1,0.2 v 6.8 z"
   id="path304" />

				<path
   class="st2"
   d="m 446.9,295.3 c 0.4,3.3 2.9,6 7.5,6 3.5,0 5.5,-2 5.5,-4.3 0,-2 -1.5,-3.5 -4.2,-4.2 l -5.5,-1.2 c -5,-1.1 -8,-4.5 -8,-9 0,-5.5 5.2,-10.2 11.5,-10.2 8.8,0 11.6,5.8 12.3,8.6 l -5.6,2.1 c -0.3,-1.7 -1.6,-5.4 -6.7,-5.4 -3.2,0 -5.4,2.1 -5.4,4.3 0,1.9 1.2,3.3 3.7,3.9 l 5.2,1.1 c 5.8,1.3 8.9,4.8 8.9,9.6 0,4.6 -3.8,10 -11.8,10 -8.8,0 -12.6,-5.7 -13.1,-9.4 z"
   id="path306" />

				<path
   class="st2"
   d="m 475.6,256.7 c 2.5,0 4.6,2 4.6,4.6 0,2.5 -2,4.5 -4.6,4.5 -2.5,0 -4.5,-2 -4.5,-4.5 0,-2.6 2,-4.6 4.5,-4.6 z m -3.1,48.9 v -32.2 h 6.2 v 32.2 z"
   id="path308" />

				<path
   class="st2"
   d="m 496,273.4 h 7 v 5.7 h -7 v 16.7 c 0,2.9 1.2,4.4 4.5,4.4 0.8,0 1.9,-0.1 2.5,-0.3 v 5.4 c -0.5,0.2 -2.1,0.6 -4.3,0.6 -5.5,0 -9,-3.3 -9,-9.2 V 279 h -6.2 v -5.7 h 1.7 c 3.5,0 5,-2.1 5,-5 v -5.2 h 5.8 z"
   id="path310" />

				<path
   class="st2"
   d="m 512.5,319.1 8,-17 -13.9,-28.7 h 7.2 l 10,22.2 9.6,-22.2 h 6.8 l -21,45.7 z"
   id="path312" />

			</g>

		</g>

	</g>

</g>
      <g
         id="g332">
	<path
   class="st2"
   d="m 104.7,98.8 c 6.7,0 12.7,0.9 18,2.8 5.3,1.9 9.8,4.4 13.4,7.7 3.6,3.3 6.4,7.1 8.3,11.6 1.9,4.4 2.9,9.3 2.9,14.6 0,7.1 -1.9,13.3 -5.8,18.6 -3.9,5.3 -8.6,8.9 -14.3,10.7 3.1,0.8 6.1,2 9,3.8 2.9,1.7 5.5,4 7.8,6.7 2.3,2.7 4.1,5.9 5.5,9.5 1.4,3.7 2,7.7 2,12 0,5.7 -1,10.8 -3.1,15.5 -2.1,4.7 -4.9,8.8 -8.7,12.2 -3.7,3.5 -8.2,6.2 -13.5,8.1 -5.3,1.9 -11.1,2.9 -17.5,2.9 H 53.6 V 98.8 Z m -4.8,54.7 c 5.4,0 9.7,-1.3 12.8,-4 3.1,-2.6 4.7,-6.3 4.7,-10.9 0,-4.5 -1.5,-8.1 -4.4,-10.7 -3,-2.6 -7.5,-4 -13.5,-4 H 83.3 v 29.5 h 16.6 z m 2.5,57.1 c 5.9,0 10.5,-1.4 13.9,-4.3 3.3,-2.9 5,-6.8 5,-11.7 0,-4.8 -1.6,-8.6 -4.9,-11.6 -3.3,-3 -7.9,-4.4 -14,-4.4 H 83.3 v 32 z"
   id="path322" />

	<path
   class="st2"
   d="m 223,168.5 c -1.7,-0.4 -3.3,-0.6 -4.8,-0.8 -1.5,-0.1 -3,-0.2 -4.4,-0.2 -3,0 -5.8,0.5 -8.5,1.4 -2.7,0.9 -5.1,2.4 -7.1,4.4 -2.1,2.1 -3.7,4.8 -4.9,8.1 -1.2,3.3 -1.8,7.4 -1.8,12.1 v 41.8 h -29.3 v -95.8 h 28.3 v 12.9 c 1.3,-2.7 2.9,-4.9 4.9,-6.7 2,-1.8 4.1,-3.2 6.5,-4.2 2.3,-1 4.7,-1.8 7,-2.2 2.4,-0.4 4.5,-0.7 6.5,-0.7 3,0 5.5,0.3 7.7,1 v 28.9 z"
   id="path324" />

	<path
   class="st2"
   d="m 277.3,136.7 c 7.2,0 13.9,1.3 20,3.8 6.2,2.5 11.5,6 16.1,10.5 4.6,4.5 8.2,9.8 10.8,16 2.6,6.2 4,13 4,20.4 0,7.5 -1.3,14.3 -4,20.5 -2.6,6.2 -6.2,11.6 -10.8,16.1 -4.6,4.5 -9.9,8 -16.1,10.5 -6.2,2.5 -12.9,3.8 -20,3.8 -7.2,0 -13.9,-1.3 -20.1,-3.8 -6.2,-2.5 -11.5,-6 -16.1,-10.5 -4.6,-4.5 -8.2,-9.9 -10.8,-16.1 -2.6,-6.2 -4,-13.1 -4,-20.5 0,-7.5 1.3,-14.3 4,-20.4 2.6,-6.2 6.2,-11.5 10.8,-16 4.6,-4.5 9.9,-8 16.1,-10.5 6.2,-2.5 12.9,-3.8 20.1,-3.8 m 0,74.6 c 2.8,0 5.5,-0.5 8.1,-1.4 2.6,-1 4.8,-2.4 6.8,-4.4 2,-2 3.6,-4.5 4.8,-7.4 1.2,-3 1.8,-6.5 1.8,-10.6 0,-4 -0.6,-7.5 -1.8,-10.5 -1.2,-3 -2.8,-5.5 -4.8,-7.4 -2,-1.9 -4.3,-3.4 -6.8,-4.3 -2.6,-1 -5.3,-1.4 -8.1,-1.4 -2.7,0 -5.4,0.5 -8,1.4 -2.6,1 -4.9,2.4 -6.9,4.3 -2,1.9 -3.6,4.4 -4.8,7.4 -1.2,3 -1.8,6.5 -1.8,10.5 0,4 0.6,7.5 1.8,10.5 1.2,3 2.8,5.5 4.8,7.5 2,2 4.3,3.5 6.9,4.4 2.7,1 5.3,1.4 8,1.4"
   id="path326" />

	<path
   class="st2"
   d="m 386.6,163.7 c -3.1,0 -5.9,0.5 -8.6,1.5 -2.6,1 -4.9,2.6 -6.9,4.6 -2,2.1 -3.6,4.6 -4.7,7.5 -1.2,3 -1.7,6.4 -1.7,10.2 0,3.8 0.6,7.2 1.8,10.1 1.2,2.9 2.8,5.4 4.8,7.4 2,2.1 4.3,3.6 7,4.6 2.7,1 5.6,1.5 8.7,1.5 5.7,0 10.1,-1.5 13.4,-4.4 3.3,-3 5.4,-6.2 6.5,-9.8 l 25.8,7.9 c -1,4.2 -2.8,8.4 -5.3,12.3 -2.5,4 -5.7,7.5 -9.5,10.6 -3.9,3.1 -8.4,5.6 -13.5,7.5 -5.1,1.9 -10.9,2.9 -17.3,2.9 -7.2,0 -13.9,-1.3 -20.1,-3.8 -6.2,-2.5 -11.7,-6 -16.3,-10.5 -4.6,-4.5 -8.3,-9.8 -11,-16 -2.7,-6.2 -4,-13 -4,-20.4 0,-7.4 1.3,-14.3 4,-20.5 2.6,-6.2 6.2,-11.6 10.8,-16.1 4.6,-4.5 9.9,-8 16,-10.5 6.1,-2.5 12.7,-3.8 19.8,-3.8 6.6,0 12.5,0.9 17.7,2.8 5.2,1.9 9.8,4.3 13.7,7.4 3.9,3.1 7,6.7 9.4,10.7 2.4,4.1 4.2,8.2 5.2,12.4 l -26.2,7.9 c -0.5,-1.8 -1.3,-3.6 -2.3,-5.3 -1,-1.7 -2.3,-3.3 -3.9,-4.6 -1.5,-1.4 -3.4,-2.4 -5.6,-3.2 -2.4,-0.5 -4.9,-0.9 -7.7,-0.9"
   id="path328" />

	<polygon
   class="st2"
   points="443.2,235.4 443.2,95.9 472.5,95.9 472.5,171.8 501.7,139.6 539.6,139.6 502.2,179.9 540.4,235.4 504.5,235.4 482,201.7 472.5,211.9 472.5,235.4 "
   id="polygon330" />

</g>
    </g>
    <text
       xml:space="preserve"
       transform="matrix(0.26458333,0,0,0.26458333,1.0834935,5.1572116)"
       id="text4501"
       style="font-style:normal;font-weight:normal;font-size:26.6667px;line-height:1.15;font-family:sans-serif;white-space:pre;shape-inside:url(#rect4503);fill:#ffffff;fill-opacity:1;stroke:none"><tspan
         x="333.42773"
         y="540.52285"
         id="tspan20166"><tspan
           style="font-weight:bold;font-family:'Trebuchet MS';-inkscape-font-specification:'Trebuchet MS Bold'"
           id="tspan20164">Library Digital </tspan></tspan><tspan
         x="333.42773"
         y="571.32149"
         id="tspan20170"><tspan
           style="font-weight:bold;font-family:'Trebuchet MS';-inkscape-font-specification:'Trebuchet MS Bold'"
           id="tspan20168">Learning</tspan></tspan></text>
  </g>
  <style
     type="text/css"
     id="style9">
	.st0{fill:none;}
	.st1{fill:#F7BC60;}
	.st2{fill:#FFFFFF;}
	.st3{display:none;}
	.st4{display:inline;}
	.st5{fill:#CC0000;}
</style>
</svg>
