<?xml version="1.0" encoding="UTF-8" standalone="no"?>
<!-- Created with Inkscape (http://www.inkscape.org/) -->

<svg
   xmlns:dc="http://purl.org/dc/elements/1.1/"
   xmlns:cc="http://creativecommons.org/ns#"
   xmlns:rdf="http://www.w3.org/1999/02/22-rdf-syntax-ns#"
   xmlns:svg="http://www.w3.org/2000/svg"
   xmlns="http://www.w3.org/2000/svg"
   xmlns:sodipodi="http://sodipodi.sourceforge.net/DTD/sodipodi-0.dtd"
   xmlns:inkscape="http://www.inkscape.org/namespaces/inkscape"
   width="172.73624mm"
   height="59.469959mm"
   viewBox="0 0 172.73624 59.469959"
   version="1.1"
   id="svg771"
   sodipodi:docname="path-ribbon.svg">
  <defs
     id="defs765">
    <inkscape:path-effect
       effect="bspline" />
    <rect
       x="289.77"
       y="-55.467481"
       width="82.853554"
       height="15.768902"
       id="rect789" />
    <rect
       x="289.76999"
       y="-55.46748"
       width="82.853554"
       height="15.768902"
       id="rect789-7" />
    <rect
       x="289.76999"
       y="-55.46748"
       width="82.853554"
       height="15.768902"
       id="rect802" />
  </defs>
  <sodipodi:namedview
     id="base"
     pagecolor="#ffffff"
     bordercolor="#666666"
     borderopacity="1.0"
     inkscape:pageopacity="0.0"
     inkscape:pageshadow="2"
     inkscape:zoom="0.98994949"
     inkscape:cx="241.47672"
     inkscape:cy="97.160681"
     inkscape:document-units="mm"
     inkscape:current-layer="text787-0"
     inkscape:document-rotation="0"
     showgrid="false"
     fit-margin-top="0"
     fit-margin-left="0"
     fit-margin-right="0"
     fit-margin-bottom="0"
     inkscape:pagecheckerboard="true"
     showborder="false"
     inkscape:window-width="1920"
     inkscape:window-height="1017"
     inkscape:window-x="-8"
     inkscape:window-y="89"
     inkscape:window-maximized="1" />
  <metadata
     id="metadata768">
    <rdf:RDF>
      <cc:Work
         rdf:about="">
        <dc:format>image/svg+xml</dc:format>
        <dc:type
           rdf:resource="http://purl.org/dc/dcmitype/StillImage" />
        <dc:title></dc:title>
      </cc:Work>
    </rdf:RDF>
  </metadata>
  <g
     inkscape:label="Layer 1"
     inkscape:groupmode="layer"
     id="layer1"
     transform="translate(-247.00688,63.752836)">
    <path
       d="m 366.62184,-22.218101 c 13.19318,4.025196 25.2857,9.97303 36.54566,17.935223 -0.85655,-6.2865 -2.11984,-12.43189 -3.78354,-18.55611 6.70877,-1.919113 13.44577,-3.312586 20.35916,-4.25803 -13.89098,-9.863666 -28.91755,-17.254361 -45.22576,-22.19325 -2.63173,9.024056 -5.26345,18.048111 -7.89552,27.072167"
       style="fill:#c3171f;fill-opacity:1;fill-rule:nonzero;stroke:none;stroke-width:0.0352777"
       id="path230" />
    <path
       d="m 391.90754,-21.628961 c -7.36777,-3.70064 -14.91016,-6.71689 -22.80003,-9.11225 -0.82832,2.843387 -1.657,5.68325 -2.48567,8.52311 8.48783,-0.64911 16.83455,-0.433917 25.2857,0.58914"
       style="fill:#a30814;fill-opacity:1;fill-rule:nonzero;stroke:none;stroke-width:0.0352777"
       id="path232" />
    <path
       d="m 300.12816,-22.218101 c -13.19318,4.025196 -25.2857,9.97303 -36.54601,17.935223 0.74436,-6.448777 1.91276,-12.756443 3.49708,-19.053527 -6.62552,-1.739196 -13.26868,-2.970389 -20.07235,-3.760613 13.89133,-9.863666 28.9179,-17.254361 45.22541,-22.19325 2.63207,9.024056 5.26415,18.048111 7.89587,27.072167"
       style="fill:#c3171f;fill-opacity:1;fill-rule:nonzero;stroke:none;stroke-width:0.0352777"
       id="path234" />
    <path
       d="m 274.84281,-21.628961 c 7.36706,-3.70064 14.90945,-6.71689 22.79968,-9.11225 0.82867,2.843387 1.65735,5.68325 2.48567,8.52311 -8.48854,-0.64911 -16.83491,-0.433917 -25.28535,0.58914"
       style="fill:#a30814;fill-opacity:1;fill-rule:nonzero;stroke:none;stroke-width:0.0352777"
       id="path236" />
    <path
       d="m 391.94211,-21.611321 c -37.12069,-18.616086 -79.97226,-18.623141 -117.0993,-0.01764 -4.31165,-8.35378 -8.62295,-16.707557 -12.93424,-25.061335 45.17849,-22.757695 97.80341,-22.75064 142.97484,0.0247 -4.31377,8.35025 -8.62753,16.704027 -12.9413,25.05428"
       style="fill:#e81c2c;fill-opacity:1;fill-rule:nonzero;stroke:none;stroke-width:0.0352777"
       id="path238" />
  </g>
  <g
     inkscape:groupmode="layer"
     id="layer2"
     inkscape:label="Layer 2">
    <text
       xml:space="preserve"
       id="text787-0"
       style="font-style:normal;font-variant:normal;font-weight:bold;font-stretch:normal;font-size:12.7px;line-height:1.25;font-family:sans-serif;-inkscape-font-specification:'sans-serif Bold';white-space:pre;shape-inside:url(#rect789-7);fill:#000000;fill-opacity:1;stroke:none"
       transform="matrix(1.4289534,0,0,1.3895402,-365.77881,125.36175)"><tspan
         x="289.76953"
         y="-44.230274"
         id="tspan814"><tspan
           style="font-style:normal;font-variant:normal;font-weight:bold;font-stretch:normal;font-size:12.7px;font-family:sans-serif;-inkscape-font-specification:'sans-serif Bold';fill:#ffffff"
           id="tspan812">LESSON</tspan></tspan></text>
    <path
       style="fill:none;stroke:#000000;stroke-width:0.264583px;stroke-linecap:butt;stroke-linejoin:miter;stroke-opacity:1"
       d="m 31.537804,25.123335 c 35.458021,2.65e-4 70.915776,2.65e-4 106.373266,0"
       id="path823" />
  </g>
</svg>
