<?xml version="1.0" encoding="UTF-8" standalone="no"?>
<svg
   xmlns:dc="http://purl.org/dc/elements/1.1/"
   xmlns:cc="http://creativecommons.org/ns#"
   xmlns:rdf="http://www.w3.org/1999/02/22-rdf-syntax-ns#"
   xmlns:svg="http://www.w3.org/2000/svg"
   xmlns="http://www.w3.org/2000/svg"
   xmlns:sodipodi="http://sodipodi.sourceforge.net/DTD/sodipodi-0.dtd"
   xmlns:inkscape="http://www.inkscape.org/namespaces/inkscape"
   width="168.38983mm"
   height="168.67651mm"
   viewBox="0 0 168.38983 168.67651"
   version="1.1"
   id="svg8"
   inkscape:version="1.0.1 (3bc2e813f5, 2020-09-07)"
   sodipodi:docname="path-logo.svg">
  <defs
     id="defs2" />
  <sodipodi:namedview
     id="base"
     pagecolor="#ffffff"
     bordercolor="#666666"
     borderopacity="1.0"
     inkscape:pageopacity="0.0"
     inkscape:pageshadow="2"
     inkscape:zoom="0.49497475"
     inkscape:cx="-609.14939"
     inkscape:cy="283.01224"
     inkscape:document-units="mm"
     inkscape:current-layer="layer1"
     inkscape:document-rotation="0"
     showgrid="false"
     fit-margin-top="0"
     fit-margin-left="0"
     fit-margin-right="0"
     fit-margin-bottom="0"
     inkscape:pagecheckerboard="true"
     showborder="false"
     inkscape:window-width="1920"
     inkscape:window-height="1017"
     inkscape:window-x="-8"
     inkscape:window-y="89"
     inkscape:window-maximized="1" />
  <metadata
     id="metadata5">
    <rdf:RDF>
      <cc:Work
         rdf:about="">
        <dc:format>image/svg+xml</dc:format>
        <dc:type
           rdf:resource="http://purl.org/dc/dcmitype/StillImage" />
        <dc:title></dc:title>
      </cc:Work>
    </rdf:RDF>
  </metadata>
  <g
     inkscape:label="Layer 1"
     inkscape:groupmode="layer"
     id="layer1"
     transform="translate(-198.68546,23.666758)">
    <path
       style="fill:#ff0000;stroke-width:0.32987"
       d="m 235.02758,142.22364 v -2.78594 l 15.42143,-0.1104 15.42143,-0.1104 2.899,-0.89939 c 11.66201,-3.618 19.62009,-12.30708 22.01545,-24.03767 0.58011,-2.84094 0.65048,-4.54191 0.65048,-15.722282 0,-13.484121 0.16811,-15.359308 1.75376,-19.562714 2.17254,-5.759166 6.66233,-10.664791 12.29055,-13.428848 4.12794,-2.02726 6.27247,-2.515663 11.02583,-2.511058 3.62149,0.0035 5.08699,0.199681 12.04026,1.61172 4.35428,0.884249 7.96918,1.649043 8.0331,1.699547 0.28262,0.223289 -0.77031,4.834289 -1.13596,4.9746 -0.22413,0.08601 -3.87164,-0.552421 -8.10558,-1.418736 -11.21992,-2.295728 -14.52587,-2.163526 -20.23312,0.809112 -2.99056,1.557644 -6.23265,4.8089 -7.8158,7.837903 -2.35208,4.500164 -2.32885,4.31264 -2.57028,20.753484 -0.21628,14.729052 -0.22483,14.869732 -1.10231,18.142852 -1.06122,3.95852 -3.83552,9.75172 -6.0819,12.7 -3.71742,4.87897 -9.25618,9.26503 -14.64759,11.59918 -6.38765,2.76547 -10.43122,3.23813 -27.73602,3.24216 l -12.12273,0.003 z m -7.63685,-4.05886 c -1.53335,-1.66982 -7.9222,-10.93045 -11.983,-17.36935 -8.79516,-13.94582 -14.09375,-24.597542 -16.01238,-32.189589 -1.75899,-6.960312 -0.18711,-15.548372 4.0275,-22.004498 4.19855,-6.431535 10.19785,-10.912012 17.65508,-13.185401 2.62209,-0.799361 3.40316,-0.884293 8.17692,-0.889136 4.38719,-0.0045 5.70651,0.113479 7.81742,0.698784 13.25527,3.67536 22.35198,14.903605 22.91464,28.283983 0.14691,3.493585 0.0691,4.334236 -0.66294,7.158494 -2.1066,8.127891 -7.93332,19.633613 -17.34501,34.250323 -3.72284,5.78171 -9.43784,14.02322 -10.68686,15.41132 -0.98169,1.09102 -2.81939,1.01333 -3.90137,-0.16493 z m 7.51947,-14.34996 c 6.88922,-10.34747 9.71319,-15.09035 13.80274,-23.18185 5.5522,-10.985453 6.86331,-16.174388 5.6288,-22.276913 -2.92619,-14.46503 -17.08729,-23.515766 -31.2082,-19.945987 -1.16899,0.295521 -3.53563,1.226342 -5.2592,2.06849 -2.67568,1.307348 -3.59776,1.993198 -6.30783,4.691803 -2.82315,2.811199 -3.35906,3.54266 -4.84738,6.616152 -2.58509,5.338391 -3.33466,10.615182 -2.19477,15.450672 1.18599,5.0311 5.74253,14.715403 11.3513,24.125643 3.19555,5.3614 13.16351,20.45238 13.50861,20.45134 0.11025,-3.3e-4 2.59692,-3.60004 5.52593,-7.99935 z m -9.59378,-24.526272 c -8.15169,-1.9716 -13.88856,-10.676845 -12.42675,-18.856635 1.11021,-6.212332 5.66219,-11.452985 11.53435,-13.279384 2.54932,-0.792909 7.09975,-0.873318 9.47663,-0.167462 12.33983,3.664534 16.24572,18.87668 7.14716,27.83581 -4.37573,4.308671 -9.90098,5.877833 -15.73139,4.467671 z m 8.8177,-5.989491 c 2.45596,-1.08142 4.87293,-3.67125 5.84709,-6.265261 1.4814,-3.944733 0.37782,-8.934332 -2.64454,-11.956691 -2.20795,-2.207956 -4.54889,-3.133766 -7.92382,-3.133766 -2.51193,0 -3.0454,0.115477 -5.01667,1.085932 -8.30511,4.088592 -8.3857,15.884516 -0.13719,20.081736 3.16417,1.61008 6.50128,1.67362 9.87513,0.18805 z M 335.08397,62.777752 c -1.1162,-0.62204 -8.12799,-10.625295 -13.69174,-19.533115 -8.32338,-13.326114 -13.59419,-24.204406 -15.17165,-31.312385 -1.56594,-7.0560394 0.10472,-15.187699 4.467,-21.7424509 10.1042,-15.1825481 30.41011,-18.3994021 44.85775,-7.1063461 7.819,6.111752 12.4851,16.93650763 11.36481,26.364924 -1.09306,9.19927 -10.67465,27.571216 -24.89419,47.732681 -4.38651,6.219497 -4.96961,6.690281 -6.93198,5.596692 z m 6.31113,-14.275157 c 10.00919,-15.148757 16.72863,-27.86368 19.52704,-36.428367 3.71834,-11.38019959 -5.79264,-26.971932 -19.41506,-29.829096 -5.66181,-1.187508 49.56509,8.0599686 -16.41684,2.178061 -3.25015,-0.289732 12.33239,-3.244853 -5.9665,4.965499 -0.31235,0.140146 1.73625,2.0698995 -1.39059,0.403076 -0.31781,-0.169414 0.39765,0.6193558 0.28297,0.8242874 -0.43971,0.7857149 -0.62232,3.0218812 -1.2313,3.8128673 -2.02538,2.6307216 -4.02764,3.070466 -3.00253,1.149479 6.73319,-12.6175937 -4.00344,9.2818347 -2.57365,14.2218793 0.54884,1.896295 5.27722,13.915156 12.06791,26.222321 3.44904,6.250903 12.73892,19.631268 13.1345,19.499409 0.18497,-0.06166 2.45983,-3.19904 4.98405,-7.019416 z M 333.32888,23.57801 c -6.60252,-1.062996 -12.55681,-7.296816 -13.55856,-14.195094 -1.42489,-9.81219037 6.67453,-19.1058441 16.6261,-19.0775607 8.9493,0.025436 16.69436,7.7704922 16.7198,16.7197977 0.0219,7.711998 -5.80395,14.820656 -13.47956,16.447612 -2.42945,0.514957 -3.63775,0.535115 -6.30778,0.105245 z m 7.06388,-5.916039 c 2.23636,-0.836729 4.92121,-3.198401 5.95473,-5.237962 5.03983,-9.9456354 -5.40429,-20.3897618 -15.34993,-15.349927 -2.03956,1.0335227 -4.40123,3.71836863 -5.23796,5.9547276 -0.82065,2.193385 -0.89752,5.6504004 -0.17226,7.7473234 1.04434,3.019466 3.93773,5.937847 7.00349,7.063968 1.91428,0.703157 5.67604,0.617269 7.80193,-0.17813 z"
       id="path42"
       sodipodi:nodetypes="ccccsssssssssssssssscccsssssssscsssssssssssssssssssssssssssssssssssssssssssssssssssssssssssss" />
    <path
       style="fill:#ffaaaa;fill-rule:evenodd;stroke-width:1.01015"
       d="m 1291.6123,261.08613 c -12.6125,-17.78874 -35.9772,-53.78945 -45.9853,-70.85508 -18.6542,-31.80861 -35.167,-67.54927 -40.0748,-86.73845 -4.5536,-17.804399 -1.165,-38.199205 10.0086,-60.238744 3.9835,-7.857177 6.2632,-10.744471 16.7931,-21.268473 9.9965,-9.990916 13.6492,-12.9310408 20.3455,-16.3765681 32.5046,-16.7248329 65.4166,-16.0857389 95.6183,1.8567412 9.0165,5.3566419 23.6832,19.3574039 29.4913,28.1523959 12.7792,19.351055 18.2913,40.162336 15.7555,59.485731 -3.4665,26.414797 -25.4239,71.582657 -63.8108,131.263027 -10.6147,16.50277 -29.9568,44.67654 -30.6717,44.67654 -0.2255,0 -3.5869,-4.4807 -7.4697,-9.95712 z m 20.9971,-110.27598 c 12.1397,-2.9102 21.3695,-8.09368 30.5143,-17.13686 12.7878,-12.64564 19.1363,-27.05704 19.3619,-43.952417 0.1516,-11.359376 -1.3494,-17.873914 -6.6337,-28.789348 -5.7518,-11.88131 -16.8225,-23.00215 -28.9867,-29.118053 -25.2292,-12.684715 -53.6711,-7.481909 -73.5849,13.460689 -12.0309,12.652468 -17.7308,26.615944 -17.7308,43.436559 0,16.69905 5.6608,30.66029 17.5746,43.34461 16.5959,17.66913 37.0773,24.12661 59.4853,18.75482 z"
       id="path44"
       transform="matrix(0.26458333,0,0,0.26458333,-7.3396115,-16.411039)" />
    <path
       style="fill:#ffaaaa;fill-rule:evenodd;stroke-width:0.178571"
       d=""
       id="path46"
       transform="matrix(0.26458333,0,0,0.26458333,-7.3396115,-16.411039)" />
    <path
       style="fill:#ffaaaa;fill-rule:evenodd;stroke-width:0.178571"
       d=""
       id="path48"
       transform="matrix(0.26458333,0,0,0.26458333,-7.3396115,-16.411039)" />
    <path
       style="fill:#ffaaaa;fill-rule:evenodd;stroke-width:0.178571"
       d="m 1298.4642,271.0637 c -3.9411,-4.14662 -24.5219,-34.34772 -39.7009,-58.25893 -6.3462,-9.99709 -11.4864,-18.5585 -17.6364,-29.375 -18.9488,-33.32683 -30.7874,-59.39533 -35.7631,-78.75 -1.427,-5.550828 -2.1015,-9.666207 -2.3341,-14.24107 -0.1079,-2.122042 -0.088,-2.455357 0.1438,-2.455357 0.2195,0 0.291,0.432934 0.3907,2.366071 0.2511,4.866023 1.0338,9.964686 2.1862,14.241076 5.0033,18.56631 20.1321,51.49283 37.6832,82.01443 5.5686,9.6839 13.4474,22.35318 24.1833,38.88767 14.9232,22.98318 30.3275,45.27515 31.4335,45.48815 0.4226,0.0814 2.6864,-2.96865 9.3817,-12.64025 36.6074,-52.88029 64.7861,-102.06727 77.3402,-135 5.0276,-13.18883 7.598,-23.25715 8.2785,-32.427131 0.2779,-3.745545 0.6132,-3.954147 0.4543,-0.282646 -0.3746,8.654019 -2.4135,17.446337 -6.8194,29.406197 -11.6555,31.63911 -38.025,78.64998 -72.8201,129.82143 -8.0604,11.85406 -15.2352,21.8714 -15.6672,21.87434 -0.054,0 -0.3841,-0.30068 -0.7342,-0.66898 z"
       id="path50"
       transform="matrix(0.26458333,0,0,0.26458333,-7.3396115,-16.411039)" />
    <path
       style="fill:#ffaaaa;fill-rule:evenodd;stroke-width:0.0631345"
       d=""
       id="path52"
       transform="matrix(0.26458333,0,0,0.26458333,-7.3396115,-16.411039)" />
    <path
       style="fill:#ffaaaa;fill-rule:evenodd;stroke-width:0.0631345"
       d=""
       id="path54"
       transform="matrix(0.26458333,0,0,0.26458333,-7.3396115,-16.411039)" />
    <path
       style="fill:#ffaaaa;fill-rule:evenodd;stroke-width:0.0446429"
       d="m 1344.8279,202.33097 c 0,-0.0246 0.02,-0.0571 0.045,-0.0722 0.025,-0.0152 0.045,-0.008 0.045,0.0171 0,0.0246 -0.02,0.0571 -0.045,0.0722 -0.024,0.0152 -0.045,0.008 -0.045,-0.017 z"
       id="path56"
       transform="matrix(0.26458333,0,0,0.26458333,-7.3396115,-16.411039)" />
    <path
       style="fill:#ffaaaa;fill-rule:evenodd;stroke-width:0.0446429"
       d=""
       id="path58"
       transform="matrix(0.26458333,0,0,0.26458333,-7.3396115,-16.411039)" />
    <path
       style="fill:#ffaaaa;fill-rule:evenodd;stroke-width:0.0446429"
       d="m 1340.5084,210.53795 c 0.013,-0.0379 0.2604,-0.44978 0.5494,-0.91518 6.1345,-9.87993 12.9642,-21.41341 18.4309,-31.12519 0.2385,-0.42355 0.4541,-0.77009 0.4793,-0.77009 0.025,0 0.01,0.0653 -0.041,0.14509 -0.048,0.0798 -0.4948,0.8683 -0.9932,1.75223 -5.0207,8.90307 -11.0825,19.12826 -17.3615,29.28571 -0.93,1.50447 -1.1243,1.8018 -1.0637,1.62743 z"
       id="path60"
       transform="matrix(0.26458333,0,0,0.26458333,-7.3396115,-16.411039)" />
    <path
       style="fill:#ff5555;fill-rule:evenodd;stroke-width:2.02031"
       d="m 879.47584,416.18652 c -15.47498,-5.51667 -27.67127,-23.01959 -27.7596,-39.32289 -0.0646,-11.91706 6.26472,-27.2996 16.69317,-34.14093 1.20722,-0.79197 1.85425,-1.43371 2.98745,-2.16555 6.03512,-3.89758 12.03893,-6.89541 22.47016,-6.89541 18.41672,0 30.82194,7.59073 38.62128,23.24197 9.05849,18.17801 5.32032,38.45165 -9.73338,51.66897 -11.67715,10.25267 -28.63135,12.83561 -43.27908,7.61384 z"
       id="path66"
       transform="matrix(0.26458333,0,0,0.26458333,-7.3396115,-16.411039)"
       sodipodi:nodetypes="ssssssss" />
  </g>
</svg>
