<?xml version="1.0" encoding="UTF-8" standalone="no"?>
<svg
   xmlns:dc="http://purl.org/dc/elements/1.1/"
   xmlns:cc="http://creativecommons.org/ns#"
   xmlns:rdf="http://www.w3.org/1999/02/22-rdf-syntax-ns#"
   xmlns:svg="http://www.w3.org/2000/svg"
   xmlns="http://www.w3.org/2000/svg"
   xmlns:sodipodi="http://sodipodi.sourceforge.net/DTD/sodipodi-0.dtd"
   xmlns:inkscape="http://www.inkscape.org/namespaces/inkscape"
   width="54.99966mm"
   height="136.4343mm"
   viewBox="0 0 54.999661 136.4343"
   version="1.1"
   id="svg4269"
   inkscape:version="1.0.1 (3bc2e813f5, 2020-09-07)"
   sodipodi:docname="prof-book-female.svg">
  <defs
     id="defs4263">
    <clipPath
       clipPathUnits="userSpaceOnUse"
       id="clipPath2163">
      <path
         d="m 2999.08,4135.34 c 0,0 -16.64,60.89 -96.5,15.31 0,0 33.3,-63.08 96.5,-15.31"
         id="path2161" />
    </clipPath>
    <clipPath
       clipPathUnits="userSpaceOnUse"
       id="clipPath2177">
      <path
         d="m 3062.73,4134.26 c 0,0 23.11,60.91 67.81,19.65 0,0 -16.44,-59.75 -67.81,-19.65"
         id="path2175" />
    </clipPath>
    <clipPath
       clipPathUnits="userSpaceOnUse"
       id="clipPath2193">
      <path
         d="m 3164.69,4097.52 c -2.24,10.72 -8.9,19.84 -21.32,25.52 -2.11,0.97 -4.18,1.75 -6.2,2.37 0.07,18.81 -0.58,38.42 -1.88,58.69 l 45.15,-49.15 c 0,0 0.23,-23.39 -15.75,-37.43"
         id="path2191" />
    </clipPath>
    <clipPath
       clipPathUnits="userSpaceOnUse"
       id="clipPath2163-8">
      <path
         d="m 2999.08,4135.34 c 0,0 -16.64,60.89 -96.5,15.31 0,0 33.3,-63.08 96.5,-15.31"
         id="path2161-8" />
    </clipPath>
    <clipPath
       clipPathUnits="userSpaceOnUse"
       id="clipPath2177-9">
      <path
         d="m 3062.73,4134.26 c 0,0 23.11,60.91 67.81,19.65 0,0 -16.44,-59.75 -67.81,-19.65"
         id="path2175-9" />
    </clipPath>
    <clipPath
       clipPathUnits="userSpaceOnUse"
       id="clipPath2193-2">
      <path
         d="m 3164.69,4097.52 c -2.24,10.72 -8.9,19.84 -21.32,25.52 -2.11,0.97 -4.18,1.75 -6.2,2.37 0.07,18.81 -0.58,38.42 -1.88,58.69 l 45.15,-49.15 c 0,0 0.23,-23.39 -15.75,-37.43"
         id="path2191-6" />
    </clipPath>
    <clipPath
       clipPathUnits="userSpaceOnUse"
       id="clipPath2321">
      <path
         d="m 4504.52,4015.02 c 0,0 -16.52,60.48 -95.85,15.21 0,0 33.45,-54.85 95.85,-15.21"
         id="path2319" />
    </clipPath>
    <clipPath
       clipPathUnits="userSpaceOnUse"
       id="clipPath2335">
      <path
         d="m 4564.68,4016.35 c 0,0 22.95,60.5 67.35,19.52 0,0 -24.77,-57.4 -67.35,-19.52"
         id="path2333" />
    </clipPath>
  </defs>
  <sodipodi:namedview
     id="base"
     pagecolor="#ffffff"
     bordercolor="#666666"
     borderopacity="1.0"
     inkscape:pageopacity="0.0"
     inkscape:pageshadow="2"
     inkscape:zoom="0.98994949"
     inkscape:cx="185.38734"
     inkscape:cy="223.02498"
     inkscape:document-units="mm"
     inkscape:current-layer="layer1"
     inkscape:document-rotation="0"
     showgrid="false"
     inkscape:pagecheckerboard="true"
     showborder="false"
     fit-margin-top="0"
     fit-margin-left="0"
     fit-margin-right="0"
     fit-margin-bottom="0"
     inkscape:window-width="1346"
     inkscape:window-height="1080"
     inkscape:window-x="182"
     inkscape:window-y="97"
     inkscape:window-maximized="0" />
  <metadata
     id="metadata4266">
    <rdf:RDF>
      <cc:Work
         rdf:about="">
        <dc:format>image/svg+xml</dc:format>
        <dc:type
           rdf:resource="http://purl.org/dc/dcmitype/StillImage" />
        <dc:title></dc:title>
      </cc:Work>
    </rdf:RDF>
  </metadata>
  <g
     inkscape:label="Layer 1"
     inkscape:groupmode="layer"
     id="layer1"
     transform="translate(117.07375,276.39032)">
    <path
       d="m -108.30518,-143.53102 -3.4043,1.87357 c -0.3609,0.19901 -0.57927,0.65373 -0.46743,1.08479 0.0886,0.3404 0.37888,0.60082 1.13665,0.61599 1.68275,0.0331 10.93434,-1.20756 10.93434,-1.20756 v 0.95705 l 3.480155,0.008 c 0,0 0.217664,-4.93888 -0.834672,-5.58408 l -10.844743,2.25171"
       style="fill:#000000;fill-opacity:1;fill-rule:nonzero;stroke:none;stroke-width:0.0352777"
       id="path2235" />
    <path
       d="m -101.94001,-146.5878 -6.36517,3.05678 c 0,0 2.39113,1.68314 4.99004,0.56085 2.59892,-1.12211 5.854703,-2.81256 5.854703,-2.81256 l -0.474839,-1.28171 -4.004734,0.47664"
       style="fill:#c67b5b;fill-opacity:1;fill-rule:nonzero;stroke:none;stroke-width:0.0352777"
       id="path2237" />
    <path
       d="m -97.935276,-147.06444 0.474839,-14.18025 -4.881033,0.2988 v 15.82942 l 4.406194,-1.94797"
       style="fill:#c67b5b;fill-opacity:1;fill-rule:nonzero;stroke:none;stroke-width:0.0352777"
       id="path2239" />
    <path
       d="m -65.975021,-143.53102 3.403952,1.87357 c 0.361246,0.19901 0.579615,0.65373 0.467431,1.08479 -0.08855,0.3404 -0.378883,0.60082 -1.136298,0.61599 -1.683102,0.0331 -10.934345,-1.20756 -10.934345,-1.20756 v 1.00044 l -3.431471,-0.0434 c 0,0 -0.2667,-4.93035 0.785989,-5.57554 l 10.844742,2.25171"
       style="fill:#000000;fill-opacity:1;fill-rule:nonzero;stroke:none;stroke-width:0.0352777"
       id="path2241" />
    <path
       d="m -72.340189,-146.5878 6.365168,3.05678 c 0,0 -2.391481,1.68314 -4.990393,0.56085 -2.598915,-1.12211 -5.854349,-2.81256 -5.854349,-2.81256 l 0.474486,-1.28171 4.005088,0.47664"
       style="fill:#c67b5b;fill-opacity:1;fill-rule:nonzero;stroke:none;stroke-width:0.0352777"
       id="path2243" />
    <path
       d="m -76.345277,-147.06444 -3.569759,-14.18025 4.881388,0.2988 3.487912,16.15299 -4.799541,-2.27154"
       style="fill:#c67b5b;fill-opacity:1;fill-rule:nonzero;stroke:none;stroke-width:0.0352777"
       id="path2245" />
    <path
       d="m -99.322045,-229.63666 c 0,0 -6.722885,10.95304 -6.556025,20.62198 0.16757,9.66858 2.5393,57.65556 2.5393,57.65556 h 8.053561 l 1.620661,-60.6443 0.970139,-0.0593 12.568765,60.72755 7.56285,-0.72676 -7.969602,-56.39223 c -0.545393,-3.48685 -1.479902,-6.90492 -2.837743,-10.16282 -1.160288,-2.78448 -2.554465,-7.47395 -4.543425,-9.93069 l -11.408481,-1.08903"
       style="fill:#294286;fill-opacity:1;fill-rule:nonzero;stroke:none;stroke-width:0.0352777"
       id="path2247" />
    <path
       d="m -93.616218,-211.88524 4.501091,-0.27234 c 0.04445,-0.002 0.07832,-0.0409 0.07585,-0.0854 -0.0028,-0.0444 -0.04092,-0.0783 -0.08537,-0.0755 l -4.501091,0.27199 c -0.04445,0.003 -0.07832,0.0409 -0.07585,0.0854 0.0028,0.0444 0.04092,0.0783 0.08537,0.0758"
       style="fill:#000000;fill-opacity:1;fill-rule:nonzero;stroke:none;stroke-width:0.0352777"
       id="path2249" />
    <path
       d="m -110.60705,-240.72447 -5.96759,8.9214 c -2.08668,3.26602 2.9023,6.63187 5.15831,3.50061 l 10.16071,-13.56112 -9.35143,1.13911"
       style="fill:#c67b5b;fill-opacity:1;fill-rule:nonzero;stroke:none;stroke-width:0.0352777"
       id="path2251" />
    <path
       d="m -101.92449,-251.11307 c -3.76802,-1.23966 -9.50912,8.48008 -11.77678,11.9881 l 9.09638,5.98699 c 1.68663,-2.77036 12.922953,-13.95413 2.6804,-17.97509"
       style="fill:#ca98be;fill-opacity:1;fill-rule:nonzero;stroke:none;stroke-width:0.0352777"
       id="path2253" />
    <path
       d="m -86.934254,-251.22172 c 0,0 6.518981,0.42615 6.781093,10.01324 l -4.474278,1.03188 -2.306815,-11.04512"
       style="fill:#ca98be;fill-opacity:1;fill-rule:nonzero;stroke:none;stroke-width:0.0352777"
       id="path2255" />
    <path
       d="m -102.86923,-251.26158 c 7.286276,-1.3395 11.317468,-1.33915 16.787992,0.21272 6.191602,1.75613 0.948619,18.47533 -0.504825,24.81686 h -14.506927 l -4.88315,-18.8588 c 0.66816,-1.50918 0.82762,-6.03179 3.10691,-6.17078"
       style="fill:#ca98be;fill-opacity:1;fill-rule:nonzero;stroke:none;stroke-width:0.0352777"
       id="path2257" />
    <path
       d="m -103.0749,-234.19772 -1.73425,-7.33249 c -0.01,-0.042 -0.0522,-0.0681 -0.0942,-0.0582 -0.0423,0.0102 -0.0681,0.0522 -0.0582,0.0945 l 1.73425,7.33213 c 0.01,0.042 0.0522,0.0681 0.0942,0.0582 0.042,-0.01 0.0681,-0.0522 0.0582,-0.0942"
       style="fill:#000000;fill-opacity:1;fill-rule:nonzero;stroke:none;stroke-width:0.0352777"
       id="path2259" />
    <path
       d="m -84.373794,-236.67705 1.044575,-7.33213 c 0.006,-0.0427 -0.024,-0.0825 -0.06667,-0.0885 -0.04268,-0.006 -0.08255,0.0236 -0.08855,0.0663 l -1.044575,7.33214 c -0.006,0.043 0.02363,0.0825 0.06632,0.0885 0.04304,0.006 0.08255,-0.0236 0.0889,-0.0663"
       style="fill:#000000;fill-opacity:1;fill-rule:nonzero;stroke:none;stroke-width:0.0352777"
       id="path2261" />
    <path
       d="m -92.141606,-249.17773 -4.532489,-2.79999 0.23883,-1.55328 h -0.748241 c -0.309386,0 -0.606073,0.12276 -0.824795,0.34148 l -1.359252,1.35608 3.122436,4.67925 c 0.326672,0.48965 1.006475,0.58631 1.456619,0.20672 l 2.646892,-2.23026"
       style="fill:#ffffff;fill-opacity:1;fill-rule:nonzero;stroke:none;stroke-width:0.0352777"
       id="path2263" />
    <path
       d="m -90.781648,-253.531 h 0.563385 c 0.389822,0 0.753886,0.19473 0.970492,0.51823 l 0.939094,1.40335 -0.409221,4.05518 c -0.04128,0.41239 -0.520348,0.61842 -0.848431,0.36512 l -2.575277,-1.98861 1.450269,-2.42605 -0.09031,-1.92722"
       style="fill:#ffffff;fill-opacity:1;fill-rule:nonzero;stroke:none;stroke-width:0.0352777"
       id="path2265" />
    <path
       d="m -91.692873,-247.24521 c 0,0.248 -0.201083,0.44873 -0.448733,0.44873 -0.248003,0 -0.449087,-0.20073 -0.449087,-0.44873 0,-0.248 0.201084,-0.44873 0.449087,-0.44873 0.24765,0 0.448733,0.20073 0.448733,0.44873"
       style="fill:#ffffff;fill-opacity:1;fill-rule:nonzero;stroke:none;stroke-width:0.0352777"
       id="path2267" />
    <path
       d="m -91.592684,-245.45663 c 0,0.24801 -0.201084,0.44874 -0.449086,0.44874 -0.24765,0 -0.448734,-0.20073 -0.448734,-0.44874 0,-0.248 0.201084,-0.44908 0.448734,-0.44908 0.248002,0 0.449086,0.20108 0.449086,0.44908"
       style="fill:#ffffff;fill-opacity:1;fill-rule:nonzero;stroke:none;stroke-width:0.0352777"
       id="path2269" />
    <path
       d="m -96.100479,-236.88307 c 0,0 2.531181,-4.48239 9.166225,-1.83268 l -2.572102,5.47053 -5.802489,-0.19862 -0.791634,-3.43923"
       style="fill:#c67b5b;fill-opacity:1;fill-rule:nonzero;stroke:none;stroke-width:0.0352777"
       id="path2271" />
    <path
       d="m -96.100479,-236.88307 -17.826571,3.05717 1.04246,6.6481 17.575745,-6.26604 -0.791634,-3.43923"
       style="fill:#c67b5b;fill-opacity:1;fill-rule:nonzero;stroke:none;stroke-width:0.0352777"
       id="path2273" />
    <path
       d="m -107.51848,-235.00417 -4.35716,0.74718 c -0.0427,0.007 -0.0713,0.0476 -0.0639,0.0903 0.007,0.0427 0.0476,0.0713 0.0903,0.0642 l 4.35716,-0.74719 c 0.0427,-0.007 0.0713,-0.048 0.0639,-0.0907 -0.007,-0.0427 -0.0476,-0.0713 -0.0903,-0.0639"
       style="fill:#000000;fill-opacity:1;fill-rule:nonzero;stroke:none;stroke-width:0.0352777"
       id="path2275" />
    <path
       d="m -94.83577,-222.62838 -1.208617,-1.34302 7.340951,-17.23708 c 0,0 13.172723,-2.2172 18.559992,-0.39052 l -24.692326,18.97062"
       style="fill:#ffffff;fill-opacity:1;fill-rule:nonzero;stroke:none;stroke-width:0.0352777"
       id="path2277" />
    <path
       d="m -70.143444,-241.599 -2.863495,0.39052 -8.525582,16.72626 c 0,0 2.472973,0.0649 3.579635,-2.0828 l 7.809442,-15.03398"
       style="fill:#000000;fill-opacity:1;fill-rule:nonzero;stroke:none;stroke-width:0.0352777"
       id="path2279" />
    <path
       d="m -73.006939,-241.20848 -14.666738,1.30211 -7.162093,17.27799 13.303249,-1.85384 8.525582,-16.72626"
       style="fill:#212e38;fill-opacity:1;fill-rule:nonzero;stroke:none;stroke-width:0.0352777"
       id="path2281" />
    <path
       d="m -77.940538,-237.14942 -8.189735,0.72708 -0.803981,1.96286 7.975952,-0.7553 1.017764,-1.93464"
       style="fill:#ffffff;fill-opacity:1;fill-rule:nonzero;stroke:none;stroke-width:0.0352777"
       id="path2283" />
    <path
       d="m -70.143444,-241.599 -1.725787,-7.94244 h -1.690865 l -3.279423,7.53216 6.696075,0.41028"
       style="fill:#ffffff;fill-opacity:1;fill-rule:nonzero;stroke:none;stroke-width:0.0352777"
       id="path2285" />
    <path
       d="m -76.332223,-229.6857 c 0,0 1.951919,0.47661 3.604684,-2.04505 1.653116,-2.52166 0.0515,-3.85974 0.0515,-3.85974 l -4.139845,-2.91324 c -0.172863,-0.12135 -0.407458,-0.10336 -0.559507,0.0438 -0.17921,0.17356 -0.178858,0.46107 7.94e-4,0.63394 l 2.457096,2.36043 -3.712986,-2.44369 c -0.282926,-0.18591 -0.664281,-0.0991 -0.8382,0.19156 -0.154516,0.25788 -0.09278,0.58984 0.143582,0.77505 l 3.4417,2.69417 -3.09245,-1.60267 c -0.24624,-0.12771 -0.54963,-0.0286 -0.6731,0.22013 -0.10795,0.21696 -0.04339,0.47978 0.1524,0.6223 l 3.148542,2.2927 -2.686405,-1.28199 c -0.257175,-0.12312 -0.565854,-0.0208 -0.699204,0.23107 v 2.6e-4 c -0.123825,0.23319 -0.05715,0.52212 0.156279,0.67804 l 3.622323,2.64795 -0.377118,0.75495"
       style="fill:#c67b5b;fill-opacity:1;fill-rule:nonzero;stroke:none;stroke-width:0.0352777"
       id="path2287" />
    <path
       d="m -88.979661,-262.47145 c 0.06315,-0.7179 0.249063,-1.42381 0.582084,-2.08351 0.456848,-0.90522 1.162404,-1.77588 2.244725,-1.28058 1.842558,0.84314 0.07161,3.84881 -1.804104,4.11409 -0.551746,0.078 -1.062215,-0.29774 -1.022705,-0.75"
       style="fill:#a4563a;fill-opacity:1;fill-rule:nonzero;stroke:none;stroke-width:0.0352777"
       id="path2289" />
    <path
       d="m -85.967644,-262.25626 c 0.02082,0.27976 -0.189442,0.52317 -0.468842,0.54363 -0.279752,0.0208 -0.523168,-0.18908 -0.543628,-0.46884 -0.02082,-0.2794 0.189087,-0.52281 0.468841,-0.54363 0.2794,-0.0205 0.522817,0.18944 0.543629,0.46884"
       style="fill:#ffffff;fill-opacity:1;fill-rule:nonzero;stroke:none;stroke-width:0.0352777"
       id="path2291" />
    <path
       d="m -95.582954,-261.01942 c 0,2.56893 -2.082447,4.65138 -4.651026,4.65138 -2.56892,0 -4.65137,-2.08245 -4.65137,-4.65138 0,-2.56857 2.08245,-4.65102 4.65137,-4.65102 2.568579,0 4.651026,2.08245 4.651026,4.65102"
       style="fill:#000000;fill-opacity:1;fill-rule:nonzero;stroke:none;stroke-width:0.0352777"
       id="path2293" />
    <path
       d="m -99.092034,-273.07031 c 0,0 -1.374426,-0.74259 -2.814816,1.32151 -1.44039,2.06481 -1.21779,6.38845 1.71909,7.17515 l 1.095726,-8.49666"
       style="fill:#000000;fill-opacity:1;fill-rule:nonzero;stroke:none;stroke-width:0.0352777"
       id="path2295" />
    <path
       d="m -99.092034,-273.07031 c 0,0 0.783519,-4.03683 6.854472,-3.2078 6.070951,0.82867 10.083448,3.42547 5.867048,9.17151 l -12.72152,-5.96371"
       style="fill:#000000;fill-opacity:1;fill-rule:nonzero;stroke:none;stroke-width:0.0352777"
       id="path2297" />
    <path
       d="m -86.474938,-268.20162 c 0.05574,3.91442 -2.864201,7.12188 -7.079191,7.1815 -4.214988,0.0596 -7.677151,-3.06494 -7.732541,-6.97936 -0.0554,-3.91442 3.316469,-7.13599 7.531458,-7.19561 4.214989,-0.0596 7.224889,3.07905 7.280274,6.99347"
       style="fill:#000000;fill-opacity:1;fill-rule:nonzero;stroke:none;stroke-width:0.0352777"
       id="path2299" />
    <path
       d="m -95.066487,-262.42665 -1.607608,10.44893 4.532489,2.79999 1.450269,-2.42605 -0.453672,-9.66752 -3.921478,-1.15535"
       style="fill:#c67b5b;fill-opacity:1;fill-rule:nonzero;stroke:none;stroke-width:0.0352777"
       id="path2301" />
    <path
       d="m -90.862787,-255.24833 -3.936294,-3.73203 3.675944,-1.56034 z"
       style="fill:#a4563a;fill-opacity:1;fill-rule:nonzero;stroke:none;stroke-width:0.0352777"
       id="path2303" />
    <path
       d="m -94.935254,-273.57831 c 1.287286,-0.37112 2.657828,-0.47025 3.972984,-0.21272 1.781174,0.3489 4.073876,1.43333 4.404431,4.67642 0.551743,5.40526 -0.04516,9.46432 -2.700515,10.72691 -2.038703,0.96908 -3.537655,0.62724 -5.918905,-0.71543 -0.885825,-0.49953 -1.756481,-2.34738 -2.00907,-3.38032 l -1.054805,-2.88007 c 0,0 -2.845856,-6.43961 3.30588,-8.21479"
       style="fill:#c67b5b;fill-opacity:1;fill-rule:nonzero;stroke:none;stroke-width:0.0352777"
       id="path2305" />
    <path
       d="m -89.663696,-264.00639 0.708377,1.30916 -0.588433,0.47696 c -0.03351,0.0272 -0.0388,0.0765 -0.01164,0.11042 0.02716,0.0335 0.07655,0.0388 0.110421,0.0113 l 0.638879,-0.51753 c 0.02928,-0.024 0.0374,-0.0653 0.01976,-0.0984 l -0.739423,-1.36631 c -0.02045,-0.0381 -0.06808,-0.0522 -0.106185,-0.0317 -0.0381,0.0205 -0.05221,0.0681 -0.03175,0.10618"
       style="fill:#000000;fill-opacity:1;fill-rule:nonzero;stroke:none;stroke-width:0.0352777"
       id="path2307" />
    <path
       d="m -88.887586,-268.74278 c 0,0 -0.214841,0.5341 0.619832,0.63112 0.63359,0.0737 1.036108,0.11253 1.39206,0.22895 0.20179,0.0667 0.43533,0.007 0.552805,-0.1397 0.09525,-0.11818 0.09631,-0.26987 -0.0021,-0.38559 -0.199321,-0.23459 -0.623358,-0.59725 -1.393121,-0.69532 -0.988484,-0.12559 -1.169459,0.36054 -1.169459,0.36054"
       style="fill:#000000;fill-opacity:1;fill-rule:nonzero;stroke:none;stroke-width:0.0352777"
       id="path2309" />
    <path
       d="m -91.392659,-268.75795 c 0,0 0.283986,0.53093 -0.884061,0.64311 -0.886531,0.085 -1.944511,0.34643 -2.444398,0.46955 -0.283633,0.0699 -0.607836,0.0148 -0.767644,-0.12982 -0.129469,-0.11677 -0.126647,-0.26847 0.01411,-0.38594 0.285045,-0.23848 1.383242,-0.82409 2.45992,-0.93627 1.383594,-0.14358 1.622072,0.33937 1.622072,0.33937"
       style="fill:#000000;fill-opacity:1;fill-rule:nonzero;stroke:none;stroke-width:0.0352777"
       id="path2311" />
    <path
       d="m -91.100912,-264.80225 c 0,0 -0.582789,-2.1336 -3.381375,-0.53658 0,0 1.180042,1.93499 3.381375,0.53658"
       style="fill:#ffffff;fill-opacity:1;fill-rule:nonzero;stroke:none;stroke-width:0.0352777"
       id="path2313" />
    <g
       id="g2315"
       transform="matrix(0.03527778,0,0,-0.03527778,-250.01036,-123.16127)">
      <g
         id="g2317"
         clip-path="url(#clipPath2321)">
        <path
           d="m 4485.66,4025.67 c 1.88,-14.1 -7.68,-27 -21.35,-28.82 -13.68,-1.82 -26.28,8.13 -28.16,22.23 -1.87,14.1 7.69,27 21.36,28.82 13.67,1.82 26.28,-8.13 28.15,-22.23"
           style="fill:#000000;fill-opacity:1;fill-rule:nonzero;stroke:none"
           id="path2323" />
      </g>
    </g>
    <path
       d="m -94.519681,-265.38857 c 0.264936,-0.20355 0.566208,-0.35842 0.883002,-0.46143 0.318559,-0.1009 0.642409,-0.1711 0.987425,-0.17004 0.336198,0.008 0.682625,0.079 0.985309,0.2607 0.299861,0.18803 0.53728,0.47272 0.626533,0.84349 0.01658,0.0688 -0.02575,0.13759 -0.09454,0.15417 -0.06879,0.0166 -0.137583,-0.0254 -0.154163,-0.0942 l -0.0011,-0.004 -0.0028,-0.0145 c -0.05362,-0.26776 -0.244827,-0.53764 -0.492125,-0.69921 -0.25153,-0.16439 -0.561622,-0.24377 -0.87383,-0.26211 -0.306564,-0.012 -0.631472,0.0459 -0.934509,0.13264 -0.305858,0.0892 -0.596194,0.2279 -0.854075,0.41381 l -0.08678,-0.0123 0.01164,-0.0868"
       style="fill:#000000;fill-opacity:1;fill-rule:nonzero;stroke:none;stroke-width:0.0352777"
       id="path2325" />
    <path
       d="m -88.978602,-264.84917 c 0,0 0.809625,-2.13431 2.375958,-0.68863 0,0 -0.873477,2.02495 -2.375958,0.68863"
       style="fill:#ffffff;fill-opacity:1;fill-rule:nonzero;stroke:none;stroke-width:0.0352777"
       id="path2327" />
    <g
       id="g2329"
       transform="matrix(0.03527778,0,0,-0.03527778,-250.01036,-123.16127)">
      <g
         id="g2331"
         clip-path="url(#clipPath2335)">
        <path
           d="m 4581.13,4029.57 c -1.94,-12.82 4.72,-24.47 14.88,-26.01 10.15,-1.54 19.97,7.61 21.91,20.44 1.94,12.83 -4.72,24.48 -14.87,26.02 -10.16,1.54 -19.97,-7.61 -21.92,-20.45"
           style="fill:#000000;fill-opacity:1;fill-rule:nonzero;stroke:none"
           id="path2337" />
      </g>
    </g>
    <path
       d="m -86.645681,-265.50781 c -0.120298,-0.16475 -0.27658,-0.30092 -0.459671,-0.37641 -0.179917,-0.0762 -0.394404,-0.09 -0.572911,-0.0427 l -0.01024,0.002 c -0.12982,0.0296 -0.259995,0.0631 -0.37606,0.12876 -0.117475,0.061 -0.227894,0.13723 -0.323144,0.23072 -0.192264,0.18097 -0.347133,0.4191 -0.438856,0.65899 l -0.0024,0.007 c -0.02151,0.0557 -0.08396,0.0836 -0.1397,0.0621 -0.05574,-0.0212 -0.08361,-0.0836 -0.06244,-0.13935 l 0.0013,-0.003 c 0.06032,-0.14605 0.133702,-0.26953 0.219781,-0.39194 0.08608,-0.12065 0.185912,-0.23213 0.297392,-0.33055 0.11077,-0.0998 0.238125,-0.18204 0.373237,-0.24589 0.133705,-0.0684 0.281517,-0.10195 0.427215,-0.12876 l -0.01024,0.002 c 0.120299,-0.0282 0.229659,-0.0303 0.343607,-0.0183 0.111831,0.013 0.223308,0.0413 0.32526,0.0896 0.205317,0.0945 0.372182,0.25435 0.49389,0.43533 l -0.01447,0.0727 -0.07161,-0.0127"
       style="fill:#000000;fill-opacity:1;fill-rule:nonzero;stroke:none;stroke-width:0.0352777"
       id="path2339" />
    <path
       d="m -88.954613,-260.98485 c 0,0 -0.222956,0.82833 -1.160637,0.77788 -1.286582,-0.0691 -1.789995,-1.08938 -1.789995,-1.08938 l 2.950632,0.3115"
       style="fill:#be5640;fill-opacity:1;fill-rule:nonzero;stroke:none;stroke-width:0.0352777"
       id="path2341" />
    <path
       d="m -91.786712,-261.29635 c 0,0 2.618316,-0.45508 2.784474,0.28011 0,0 -1.82386,0.27658 -2.784474,-0.28011"
       style="fill:#be5640;fill-opacity:1;fill-rule:nonzero;stroke:none;stroke-width:0.0352777"
       id="path2343" />
    <path
       d="m -88.847369,-261.15841 -0.01834,0.008 c -0.09102,0.0395 -0.51435,0.20567 -1.141941,0.20567 -0.528812,0 -1.203325,-0.11747 -1.952272,-0.52987 -0.03775,-0.0208 -0.08537,-0.007 -0.106186,0.031 -0.02117,0.0378 -0.0071,0.0854 0.03069,0.10654 0.772583,0.42545 1.47567,0.54928 2.027766,0.54893 0.7493,0 1.220964,-0.22578 1.228373,-0.22931 0.0388,-0.0187 0.05539,-0.0656 0.03669,-0.10442 -0.01871,-0.0392 -0.06562,-0.0557 -0.104775,-0.0367"
       style="fill:#000000;fill-opacity:1;fill-rule:nonzero;stroke:none;stroke-width:0.0352777"
       id="path2345" />
    <path
       d="m -97.250887,-263.78696 c 0,0 2.899481,-6.25898 -1.081969,-8.2617 0,0 -1.275645,-1.26295 -1.922284,2.12584 -1.03717,5.43666 3.004253,6.13586 3.004253,6.13586"
       style="fill:#000000;fill-opacity:1;fill-rule:nonzero;stroke:none;stroke-width:0.0352777"
       id="path2347" />
    <path
       d="m -96.450081,-262.37796 c -0.169334,-0.73943 -0.465314,-1.4478 -0.907698,-2.08739 -0.60713,-0.87736 -1.468261,-1.6831 -2.524124,-1.01071 -1.798817,1.14547 0.481541,4.02202 2.474383,4.02731 0.585964,0.001 1.063978,-0.4639 0.957439,-0.92921"
       style="fill:#c67b5b;fill-opacity:1;fill-rule:nonzero;stroke:none;stroke-width:0.0352777"
       id="path2349" />
    <path
       d="m -99.341448,-263.94994 c 0.185208,-0.066 0.357364,-0.0938 0.51682,-0.0938 0.500238,-3.5e-4 0.891116,0.27658 1.160286,0.56127 0.134055,0.14181 0.236713,0.28434 0.305505,0.39123 0.03422,0.0533 0.05997,0.0977 0.07726,0.12841 l 0.02505,0.0469 c 0.01905,0.0388 0.06597,0.0547 0.104775,0.0356 0.03881,-0.019 0.05503,-0.066 0.03563,-0.10513 -0.0021,-0.004 -0.149225,-0.30268 -0.43427,-0.60466 -0.284691,-0.30127 -0.712963,-0.60995 -1.274233,-0.6103 -0.178153,0 -0.3683,0.0314 -0.569383,0.10301 -0.04092,0.0145 -0.06209,0.0593 -0.04763,0.10019 0.01447,0.0406 0.05962,0.0621 0.100189,0.0473"
       style="fill:#000000;fill-opacity:1;fill-rule:nonzero;stroke:none;stroke-width:0.0352777"
       id="path2351" />
    <path
       d="m -97.186329,-261.64877 c 0,0.2801 -0.227188,0.50729 -0.507294,0.50729 -0.280458,0 -0.508,-0.22719 -0.508,-0.50729 0,-0.28046 0.227542,-0.50765 0.508,-0.50765 0.280106,0 0.507294,0.22719 0.507294,0.50765"
       style="fill:#ffffff;fill-opacity:1;fill-rule:nonzero;stroke:none;stroke-width:0.0352777"
       id="path2353" />
    <path
       d="m -97.872481,-271.77702 c 0,0 3.514725,1.45168 6.510161,0 2.995434,-1.45204 4.759676,1.29998 4.759676,1.29998 0,0 -1.068562,-4.37515 -6.031793,-4.03331 -4.96323,0.34185 -5.238044,2.73333 -5.238044,2.73333"
       style="fill:#000000;fill-opacity:1;fill-rule:nonzero;stroke:none;stroke-width:0.0352777"
       id="path2355" />
  </g>
</svg>
