<?xml version="1.0" encoding="UTF-8" standalone="no"?>
<svg
   xmlns:dc="http://purl.org/dc/elements/1.1/"
   xmlns:cc="http://creativecommons.org/ns#"
   xmlns:rdf="http://www.w3.org/1999/02/22-rdf-syntax-ns#"
   xmlns:svg="http://www.w3.org/2000/svg"
   xmlns="http://www.w3.org/2000/svg"
   xmlns:sodipodi="http://sodipodi.sourceforge.net/DTD/sodipodi-0.dtd"
   xmlns:inkscape="http://www.inkscape.org/namespaces/inkscape"
   width="25.324406mm"
   height="69.358635mm"
   viewBox="0 0 25.324406 69.358635"
   version="1.1"
   id="svg2238"
   inkscape:version="1.0.1 (3bc2e813f5, 2020-09-07)"
   sodipodi:docname="student-glasses-female.svg">
  <defs
     id="defs2232">
    <clipPath
       clipPathUnits="userSpaceOnUse"
       id="clipPath194">
      <path
         d="m 2486.99,4521.8 c 0,-18.22 14.78,-33 33.01,-33 18.23,0 33,14.78 33,33 0,18.23 -14.77,33.01 -33,33.01 -18.23,0 -33.01,-14.78 -33.01,-33.01"
         id="path192" />
    </clipPath>
    <clipPath
       clipPathUnits="userSpaceOnUse"
       id="clipPath210">
      <path
         d="m 2573.31,4521.8 c 0,-17.37 14.09,-31.46 31.46,-31.46 17.38,0 31.47,14.09 31.47,31.46 0,17.38 -14.09,31.47 -31.47,31.47 -17.37,0 -31.46,-14.09 -31.46,-31.47"
         id="path208" />
    </clipPath>
  </defs>
  <sodipodi:namedview
     id="base"
     pagecolor="#ffffff"
     bordercolor="#666666"
     borderopacity="1.0"
     inkscape:pageopacity="0.0"
     inkscape:pageshadow="2"
     inkscape:zoom="2.8"
     inkscape:cx="87.730656"
     inkscape:cy="129.1342"
     inkscape:document-units="mm"
     inkscape:current-layer="layer8"
     inkscape:document-rotation="0"
     showgrid="false"
     inkscape:pagecheckerboard="true"
     showborder="false"
     fit-margin-top="0"
     fit-margin-left="0"
     fit-margin-right="0"
     fit-margin-bottom="0"
     inkscape:window-width="1920"
     inkscape:window-height="1017"
     inkscape:window-x="-8"
     inkscape:window-y="89"
     inkscape:window-maximized="1" />
  <metadata
     id="metadata2235">
    <rdf:RDF>
      <cc:Work
         rdf:about="">
        <dc:format>image/svg+xml</dc:format>
        <dc:type
           rdf:resource="http://purl.org/dc/dcmitype/StillImage" />
        <dc:title></dc:title>
      </cc:Work>
    </rdf:RDF>
  </metadata>
  <g
     inkscape:groupmode="layer"
     id="layer7"
     inkscape:label="Layer 2"
     transform="translate(1.2284231)">
    <ellipse
       style="fill:#ffdd55;fill-rule:evenodd;stroke-width:0.264583"
       id="path2693"
       cx="11.43378"
       cy="68.082962"
       rx="12.662203"
       ry="1.2756697" />
  </g>
  <g
     inkscape:groupmode="layer"
     id="layer8"
     inkscape:label="Layer 3"
     transform="translate(1.2284231)">
    <ellipse
       style="fill:#ffcc00;fill-rule:evenodd;stroke-width:0.264583"
       id="path2699"
       cx="11.965308"
       cy="68.047523"
       rx="9.5320873"
       ry="0.57877606" />
  </g>
  <g
     inkscape:label="Layer 1"
     inkscape:groupmode="layer"
     id="layer1"
     transform="translate(-264.82736,-66.483994)">
    <path
       d="m 274.07552,69.885075 6.66185,1.509889 c 0,0 2.4758,3.510139 1.19521,8.529814 h -11.04406 c 0,0 -0.90135,-2.021064 1.09432,-4.818945 1.22625,-1.719086 2.09268,-5.220758 2.09268,-5.220758"
       style="fill:#f2d389;fill-opacity:1;fill-rule:nonzero;stroke:none;stroke-width:0.0352777"
       id="path132" />
    <path
       d="m 279.45996,80.083175 c -0.21625,-1.141589 0.48225,-2.257072 1.60373,-2.561167 1.21003,-0.328436 2.45251,0.407459 2.74497,1.627012 0.20955,0.873125 0.3563,2.409119 0.49565,4.043539 l -4.57835,1.397353 -0.266,-4.506737"
       style="fill:#7eb7bc;fill-opacity:1;fill-rule:nonzero;stroke:none;stroke-width:0.0352777"
       id="path134" />
    <path
       d="m 279.72596,84.589912 4.57835,-1.397353 0.89535,9.328856 c 0,0 -0.83785,-0.916517 -2.21968,-0.703792 -1.27529,0.19685 -2.4772,-0.652992 -2.71745,-1.920875 l -0.53657,-5.306836"
       style="fill:#ed808d;fill-opacity:1;fill-rule:nonzero;stroke:none;stroke-width:0.0352777"
       id="path136" />
    <path
       d="m 285.92673,100.27618 -1.21214,-12.807249 c 0,0 -0.83397,0.197908 -1.95827,0.377825 -1.13665,0.182033 -1.88383,1.285875 -1.63089,2.40912 l 2.36467,10.063334 2.43663,-0.043"
       style="fill:#ed808d;fill-opacity:1;fill-rule:nonzero;stroke:none;stroke-width:0.0352777"
       id="path138" />
    <path
       d="m 282.98421,99.625302 c 0.41417,-1.053396 1.60409,-1.571625 2.65748,-1.157465 1.05375,0.41416 1.57162,1.604083 1.15746,2.657473 -0.41416,1.0534 -1.60372,1.57163 -2.65747,1.15747 -1.0534,-0.41417 -1.57163,-1.60408 -1.15747,-2.657478"
       style="fill:#ed808d;fill-opacity:1;fill-rule:nonzero;stroke:none;stroke-width:0.0352777"
       id="path140" />
    <path
       d="m 286.02869,101.9434 c 0,0 0.54645,0.5962 1.01564,-0.37182 0.4692,-0.96767 0.45191,-2.201337 -1.40264,-3.103743 l 0.387,3.475563"
       style="fill:#ed808d;fill-opacity:1;fill-rule:nonzero;stroke:none;stroke-width:0.0352777"
       id="path142" />
    <path
       d="m 277.11152,97.330129 1.95016,32.458031 2.53577,0.24588 1.21884,-32.574088 -5.70477,-0.129823"
       style="fill:#ed808d;fill-opacity:1;fill-rule:nonzero;stroke:none;stroke-width:0.0352777"
       id="path144" />
    <path
       d="m 277.87493,110.11162 4.33282,-5.81836 -4.65631,-0.65017 z"
       style="fill:#da677c;fill-opacity:1;fill-rule:nonzero;stroke:none;stroke-width:0.0352777"
       id="path146" />
    <path
       d="m 282.92248,129.35071 h -4.27143 l -0.55245,5.24863 h 7.46618 c 0.52741,0 0.74295,-0.67663 0.31327,-0.98143 l -3.19652,-2.26801 0.24095,-1.99919"
       style="fill:#7db8bc;fill-opacity:1;fill-rule:nonzero;stroke:none;stroke-width:0.0352777"
       id="path148" />
    <path
       d="m 278.19631,133.76502 h 7.76041 v -0.18273 h -7.76041 z"
       style="fill:#45283d;fill-opacity:1;fill-rule:nonzero;stroke:none;stroke-width:0.0352777"
       id="path150" />
    <path
       d="m 282.80042,131.47267 0.0815,0.0409 c 0,-2.7e-4 0.0109,-0.0215 0.0324,-0.061 0.0748,-0.13829 0.27728,-0.48789 0.55351,-0.79798 0.27622,-0.31221 0.62441,-0.57468 0.97014,-0.57186 0.17956,8e-4 0.36618,0.0653 0.5655,0.23954 0.21696,0.19121 0.29774,0.37571 0.2981,0.54398 10e-4,0.22331 -0.14958,0.44591 -0.4057,0.61525 -0.2547,0.16898 -0.60713,0.27799 -0.97472,0.27763 -0.36442,0 -0.7426,-0.10548 -1.06433,-0.35842 l -0.0564,0.072 0.0815,0.0409 -0.0815,-0.0409 -0.0568,0.0716 c 0.35806,0.28152 0.77822,0.39793 1.17757,0.39758 0.40358,0 0.78704,-0.11712 1.07562,-0.30762 0.28716,-0.18979 0.48683,-0.45932 0.48754,-0.768 3.4e-4,-0.23107 -0.11572,-0.46813 -0.35984,-0.68157 -0.22472,-0.1979 -0.46002,-0.28539 -0.6865,-0.28469 -0.5013,0.004 -0.92146,0.39829 -1.22626,0.7747 -0.30409,0.37889 -0.49142,0.75354 -0.49318,0.75707 l -0.0335,0.0667 0.0586,0.0459 0.0568,-0.0716"
       style="fill:#45283d;fill-opacity:1;fill-rule:nonzero;stroke:none;stroke-width:0.0352777"
       id="path152" />
    <path
       d="m 282.80042,131.47267 0.0815,-0.0409 c -0.002,-0.004 -0.18874,-0.37818 -0.49283,-0.75706 -0.3048,-0.37642 -0.72496,-0.77082 -1.22626,-0.7747 -0.22648,-8e-4 -0.46179,0.0868 -0.6865,0.28469 -0.24413,0.21343 -0.36019,0.4505 -0.35984,0.68156 7.2e-4,0.30869 0.20038,0.57821 0.48754,0.768 0.28857,0.1905 0.67204,0.30763 1.07527,0.30763 0.39934,2.6e-4 0.8195,-0.11607 1.17757,-0.39759 l 0.0586,-0.0459 -0.0335,-0.0667 -0.0815,0.0409 -0.0568,-0.072 c -0.32173,0.25294 -0.69991,0.35843 -1.06433,0.35843 -0.36759,2.6e-4 -0.72002,-0.10866 -0.97437,-0.27764 -0.25612,-0.16933 -0.40676,-0.39194 -0.4057,-0.61525 3.5e-4,-0.16827 0.0811,-0.35277 0.2981,-0.54398 0.19932,-0.17427 0.38559,-0.23883 0.5655,-0.23953 0.39476,-0.004 0.7934,0.34219 1.08338,0.70661 0.14535,0.18062 0.26388,0.36265 0.34573,0.49883 0.0413,0.0681 0.073,0.12488 0.0946,0.16439 0.0212,0.0395 0.0321,0.061 0.0321,0.061 l 0.0818,-0.0409 -0.0568,-0.072 0.0568,0.072"
       style="fill:#45283d;fill-opacity:1;fill-rule:nonzero;stroke:none;stroke-width:0.0352777"
       id="path154" />
    <path
       d="m 277.93067,97.330129 -1.95015,32.458031 -2.53577,0.24588 -1.21885,-32.574088 5.70477,-0.129823"
       style="fill:#ed808d;fill-opacity:1;fill-rule:nonzero;stroke:none;stroke-width:0.0352777"
       id="path156" />
    <path
       d="m 272.12007,129.35071 h 4.27143 l 0.5521,5.24863 h -7.46654 c -0.5267,0 -0.7426,-0.67663 -0.31256,-0.98143 l 3.19652,-2.26801 -0.24095,-1.99919"
       style="fill:#7db8bc;fill-opacity:1;fill-rule:nonzero;stroke:none;stroke-width:0.0352777"
       id="path158" />
    <path
       d="m 269.08583,133.76502 h 7.7604 v -0.18273 h -7.7604 z"
       style="fill:#45283d;fill-opacity:1;fill-rule:nonzero;stroke:none;stroke-width:0.0352777"
       id="path160" />
    <path
       d="m 272.24178,131.47267 0.0818,-0.0409 c -0.002,-0.004 -0.18909,-0.37818 -0.49318,-0.75706 -0.30445,-0.37642 -0.72461,-0.77082 -1.22626,-0.7747 -0.22613,-8e-4 -0.46143,0.0868 -0.68615,0.28469 -0.24412,0.21343 -0.36054,0.4505 -0.36019,0.68156 0.001,0.30869 0.20073,0.57821 0.48754,0.768 0.28858,0.1905 0.67204,0.30763 1.07562,0.30763 0.39935,2.6e-4 0.81951,-0.11607 1.17722,-0.39759 l 0.0589,-0.0459 -0.0335,-0.0667 -0.0818,0.0409 -0.0564,-0.072 c -0.32208,0.25295 -0.69991,0.35844 -1.06433,0.35844 -0.36759,2.6e-4 -0.72002,-0.10866 -0.97472,-0.27764 -0.25577,-0.16933 -0.4064,-0.39194 -0.4057,-0.61525 7.2e-4,-0.16827 0.0815,-0.35277 0.2981,-0.54398 0.19932,-0.17427 0.38594,-0.23883 0.5655,-0.23953 0.39511,-0.004 0.79375,0.34219 1.08374,0.70661 0.14534,0.18062 0.26387,0.36265 0.34572,0.49883 0.0409,0.0681 0.0727,0.12488 0.0942,0.16439 0.0215,0.0395 0.0321,0.061 0.0321,0.061 l 0.0819,-0.0409 -0.0564,-0.072 0.0564,0.072"
       style="fill:#45283d;fill-opacity:1;fill-rule:nonzero;stroke:none;stroke-width:0.0352777"
       id="path162" />
    <path
       d="m 272.24178,131.47267 0.0818,0.0409 c 0,-2.7e-4 0.0106,-0.0215 0.0321,-0.061 0.0752,-0.13829 0.27764,-0.48789 0.55387,-0.79798 0.27622,-0.31221 0.62441,-0.57468 0.97013,-0.57186 0.17957,8e-4 0.36619,0.0653 0.56551,0.23954 0.21696,0.19121 0.29739,0.37571 0.29809,0.54398 7.2e-4,0.22331 -0.14993,0.44591 -0.40569,0.61525 -0.25471,0.16898 -0.60713,0.27799 -0.97472,0.27763 -0.36442,0 -0.7426,-0.10548 -1.06469,-0.35842 l -0.0564,0.072 0.0818,0.0409 -0.0818,-0.0409 -0.0564,0.0716 c 0.35807,0.28152 0.77823,0.39793 1.17758,0.39793 0.40357,-2.6e-4 0.78704,-0.11747 1.07561,-0.30797 0.28681,-0.18979 0.48649,-0.45931 0.48754,-0.768 3.5e-4,-0.23106 -0.11606,-0.46813 -0.36018,-0.68156 -0.22472,-0.19791 -0.46002,-0.2854 -0.68615,-0.28469 -0.50166,0.004 -0.92181,0.39828 -1.22661,0.7747 -0.3041,0.37888 -0.49107,0.75353 -0.49319,0.75706 l -0.0332,0.0667 0.0586,0.0459 0.0564,-0.0716"
       style="fill:#45283d;fill-opacity:1;fill-rule:nonzero;stroke:none;stroke-width:0.0352777"
       id="path164" />
    <path
       d="m 274.06987,87.037484 c 0,0 -4.78684,8.437738 -4.69794,18.599856 0,0 9.62096,1.10878 16.40099,-0.41804 0,0 -1.53352,-12.385677 -4.80271,-18.181816 h -6.90034"
       style="fill:#f1415c;fill-opacity:1;fill-rule:nonzero;stroke:none;stroke-width:0.0352777"
       id="path166" />
    <path
       d="m 278.00546,67.229011 c 0.14817,-0.259292 -0.0423,-0.744361 -0.0423,-0.744361 -1.4605,0 -2.72062,0.467783 -3.44664,1.802694 -1.06786,1.963561 -0.29245,4.99992 2.22038,5.923845 2.41159,0.886178 1.12713,-6.734528 1.12713,-6.734528 l 0.14146,-0.24765"
       style="fill:#f2d389;fill-opacity:1;fill-rule:nonzero;stroke:none;stroke-width:0.0352777"
       id="path168" />
    <path
       d="m 279.38235,74.695553 -0.16157,2.539647 c -0.0547,0.891822 -0.63394,1.334911 -1.5113,1.273881 -0.74895,-0.05221 -1.42593,-0.487539 -1.46685,-1.237192 l 0.44626,-3.984625 2.69346,1.408289"
       style="fill:#ed808d;fill-opacity:1;fill-rule:nonzero;stroke:none;stroke-width:0.0352777"
       id="path170" />
    <path
       d="m 279.27123,76.812572 -2.96863,-2.906183 3.10163,0.529166 z"
       style="fill:#45283d;fill-opacity:1;fill-rule:nonzero;stroke:none;stroke-width:0.0352777"
       id="path172" />
    <path
       d="m 278.60977,75.105833 c 1.50036,0.0046 2.73932,-1.176866 2.78412,-2.402064 l 0.0882,-2.891366 c 0.0564,-1.535642 -1.11548,-2.839156 -2.64865,-2.945695 -1.15252,-0.08043 -3.24485,1.632303 -3.31399,2.624667 l -0.0459,2.326217 c -0.0353,1.799166 1.3409,3.163358 3.13619,3.288241"
       style="fill:#ed808d;fill-opacity:1;fill-rule:nonzero;stroke:none;stroke-width:0.0352777"
       id="path174" />
    <path
       d="m 279.74536,71.696236 0.0765,0.634647 -0.28822,0.01058 c -0.042,0.0014 -0.0748,0.03669 -0.073,0.07867 10e-4,0.04198 0.0367,0.07479 0.0783,0.07303 l 0.37077,-0.01341 0.055,-0.02681 0.0176,-0.05821 -0.0864,-0.716491 c -0.005,-0.04163 -0.043,-0.07126 -0.0847,-0.06632 -0.0413,0.0049 -0.0713,0.04269 -0.066,0.08431"
       style="fill:#45283d;fill-opacity:1;fill-rule:nonzero;stroke:none;stroke-width:0.0352777"
       id="path176" />
    <path
       d="m 279.88083,72.964825 -0.0399,0.01693 c -0.0811,0.0321 -0.27552,0.09772 -0.4946,0.09737 -0.20496,-7.15e-4 -0.42721,-0.05468 -0.61595,-0.239889 l -0.10724,7.15e-4 7.1e-4,0.107244 c 0.22225,0.219075 0.49142,0.283986 0.72249,0.283281 0.33161,-3.44e-4 0.59408,-0.126648 0.59973,-0.129117 0.0378,-0.01799 0.054,-0.06315 0.036,-0.100895 -0.018,-0.03775 -0.0635,-0.05397 -0.10125,-0.03563"
       style="fill:#45283d;fill-opacity:1;fill-rule:nonzero;stroke:none;stroke-width:0.0352777"
       id="path178" />
    <path
       d="m 278.99289,71.426361 h 1.30886 v -0.198575 h -1.30886 z"
       style="fill:#131113;fill-opacity:1;fill-rule:nonzero;stroke:none;stroke-width:0.0352777"
       id="path180" />
    <path
       d="m 276.35376,71.155075 h 0.90799 V 70.9565 h -0.90799 z"
       style="fill:#131113;fill-opacity:1;fill-rule:nonzero;stroke:none;stroke-width:0.0352777"
       id="path182" />
    <path
       d="m 276.85929,71.169539 c 0,0.754944 0.61207,1.367366 1.36736,1.367366 0.75495,0 1.36737,-0.612422 1.36737,-1.367366 0,-0.755297 -0.61242,-1.367367 -1.36737,-1.367367 -0.75529,0 -1.36736,0.61207 -1.36736,1.367367"
       style="fill:#f1415c;fill-opacity:1;fill-rule:nonzero;stroke:none;stroke-width:0.0352777"
       id="path184" />
    <path
       d="m 277.06213,71.169539 c 0,0.642761 0.52141,1.164166 1.16452,1.164166 0.64312,0 1.16417,-0.521405 1.16417,-1.164166 0,-0.643114 -0.52105,-1.16452 -1.16417,-1.16452 -0.64311,0 -1.16452,0.521406 -1.16452,1.16452"
       style="fill:#131113;fill-opacity:1;fill-rule:nonzero;stroke:none;stroke-width:0.0352777"
       id="path186" />
    <g
       id="g188"
       transform="matrix(0.03527778,0,0,-0.03527778,189.32665,230.6886)">
      <g
         id="g190"
         clip-path="url(#clipPath194)">
        <path
           d="m 2546.33,4501.89 c -8.19,5.88 -16.84,14.02 -22.56,24.72 -6.21,11.58 -17.59,16.56 -26.97,18.67 4.3,4.25 9.77,7.33 15.87,8.72 9.81,-5.46 17.09,-15.64 21.39,-27.39 3.61,-9.89 9.54,-16.62 14.74,-20.94 -0.74,-1.32 -1.57,-2.58 -2.47,-3.78"
           style="fill:#abb0ab;fill-opacity:1;fill-rule:nonzero;stroke:none"
           id="path196" />
        <path
           d="m 2541.31,4496.6 c -9.19,3.89 -17.32,10.38 -23.71,18.07 -4.63,6.06 -8.6,11.72 -14.46,15.17 -4.19,2.56 -8.97,3.47 -14.03,3.64 0.84,2.21 1.9,4.3 3.17,6.25 4.84,-0.83 9.68,-2.43 13.79,-5.45 6.61,-4.55 10.44,-11.76 14.43,-17.34 4.22,-5.72 9.42,-10.73 15.35,-14.72 2.27,-1.51 4.67,-2.89 7.17,-4.07 -0.55,-0.54 -1.12,-1.05 -1.71,-1.55"
           style="fill:#abb0ab;fill-opacity:1;fill-rule:nonzero;stroke:none"
           id="path198" />
      </g>
    </g>
    <path
       d="m 279.93939,71.299361 c 0.0716,0.705556 0.70203,1.219553 1.40758,1.147939 0.70591,-0.07161 1.21991,-0.702028 1.14794,-1.407583 -0.0716,-0.705909 -0.70167,-1.219553 -1.40758,-1.147939 -0.70556,0.07161 -1.21955,0.701675 -1.14794,1.407583"
       style="fill:#f1415c;fill-opacity:1;fill-rule:nonzero;stroke:none;stroke-width:0.0352777"
       id="path200" />
    <path
       d="m 280.10731,71.169539 c 0,0.612775 0.49707,1.109839 1.10984,1.109839 0.61313,0 1.11019,-0.497064 1.11019,-1.109839 0,-0.613128 -0.49706,-1.110192 -1.11019,-1.110192 -0.61277,0 -1.10984,0.497064 -1.10984,1.110192"
       style="fill:#131113;fill-opacity:1;fill-rule:nonzero;stroke:none;stroke-width:0.0352777"
       id="path202" />
    <g
       id="g204"
       transform="matrix(0.03527778,0,0,-0.03527778,189.32665,230.6886)">
      <g
         id="g206"
         clip-path="url(#clipPath210)">
        <path
           d="m 2629.87,4502.82 c -7.8,5.61 -16.05,13.37 -21.5,23.56 -5.92,11.05 -16.77,15.79 -25.71,17.8 4.1,4.06 9.31,6.99 15.13,8.31 9.35,-5.2 16.29,-14.9 20.39,-26.11 3.45,-9.43 9.1,-15.84 14.05,-19.96 -0.71,-1.25 -1.49,-2.46 -2.36,-3.6"
           style="fill:#abb0ab;fill-opacity:1;fill-rule:nonzero;stroke:none"
           id="path212" />
        <path
           d="m 2625.09,4497.77 c -8.76,3.72 -16.5,9.9 -22.59,17.23 -4.43,5.79 -8.21,11.17 -13.79,14.46 -4,2.44 -8.55,3.31 -13.38,3.47 0.8,2.11 1.81,4.11 3.02,5.96 4.62,-0.78 9.23,-2.31 13.15,-5.19 6.3,-4.34 9.95,-11.21 13.76,-16.53 4.02,-5.46 8.97,-10.23 14.62,-14.04 2.17,-1.43 4.46,-2.75 6.84,-3.87 -0.52,-0.51 -1.07,-1.01 -1.63,-1.49"
           style="fill:#abb0ab;fill-opacity:1;fill-rule:nonzero;stroke:none"
           id="path214" />
      </g>
    </g>
    <path
       d="m 277.95643,66.488177 0.0212,-0.0035 -0.0212,0.0035"
       style="fill:#f2d389;fill-opacity:1;fill-rule:nonzero;stroke:none;stroke-width:0.0352777"
       id="path216" />
    <path
       d="m 281.32933,68.78088 c -0.47025,-2.399947 -3.35174,-2.29623 -3.35174,-2.29623 l -0.38347,0.655814 c -0.29951,-0.511528 0.25048,-0.633589 0.36231,-0.652287 -2.82646,0.389114 -2.86597,1.713442 -2.5647,2.643012 -0.46284,0.228953 -0.87524,0.489303 -0.87524,0.489303 l 1.72614,2.066572 c 0,0 0.12488,-0.568678 0.30515,-1.783997 0.90065,-0.355953 1.20403,-1.082323 1.29682,-1.648884 1.26294,0.788811 3.48473,0.526697 3.48473,0.526697"
       style="fill:#f2d389;fill-opacity:1;fill-rule:nonzero;stroke:none;stroke-width:0.0352777"
       id="path218" />
    <path
       d="m 274.07305,71.486333 c -0.0448,0.643467 0.44026,1.201209 1.08373,1.246011 0.64311,0.0448 1.20121,-0.440619 1.24566,-1.083733 0.0448,-0.643467 -0.44027,-1.201208 -1.08373,-1.246011 -0.64312,-0.0448 -1.20121,0.440619 -1.24566,1.083733"
       style="fill:#ed808d;fill-opacity:1;fill-rule:nonzero;stroke:none;stroke-width:0.0352777"
       id="path220" />
    <path
       d="m 275.69618,71.947414 10e-4,-0.04198 c -7.1e-4,-0.08326 -0.01,-0.277283 -0.10619,-0.46108 -0.0945,-0.18415 -0.29386,-0.353131 -0.62688,-0.350661 -0.0349,0 -0.0713,0.0018 -0.10901,0.0053 -0.0416,0.0039 -0.0723,0.04092 -0.0684,0.08255 0.004,0.04163 0.0409,0.07232 0.0829,0.06844 0.0332,-0.0032 0.0646,-0.0046 0.0946,-0.0046 0.28328,0.0025 0.41275,0.12453 0.49248,0.269875 0.078,0.14605 0.0892,0.319969 0.0889,0.390172 l -10e-4,0.0314 c -0.003,0.04198 0.0289,0.07796 0.0706,0.08114 0.042,0.0028 0.078,-0.02893 0.0808,-0.07056"
       style="fill:#45283d;fill-opacity:1;fill-rule:nonzero;stroke:none;stroke-width:0.0352777"
       id="path222" />
    <path
       d="m 277.62058,77.014714 -4.28696,0.599722 c -0.49671,0.0695 -0.83643,0.536928 -0.7493,1.030817 l 1.48555,8.392231 h 6.90034 l 1.79987,-8.047567 c 0.13405,-0.750359 -0.39511,-1.457325 -1.15288,-1.539875 l -3.99662,-0.435328"
       style="fill:#7eb7bc;fill-opacity:1;fill-rule:nonzero;stroke:none;stroke-width:0.0352777"
       id="path224" />
    <path
       d="m 281.7181,84.018412 0.71966,-3.218745 -0.13864,-0.03104 -0.71967,3.218745"
       style="fill:#45283d;fill-opacity:1;fill-rule:nonzero;stroke:none;stroke-width:0.0352777"
       id="path226" />
    <path
       d="m 280.92858,89.512573 -1.5614,7.864829 -10.12684,0.7874 1.32468,-7.195257 10.36356,-1.456972"
       style="fill:#dd1863;fill-opacity:1;fill-rule:nonzero;stroke:none;stroke-width:0.0352777"
       id="path228" />
    <path
       d="m 279.98066,89.136864 -1.56139,7.864829 -10.12684,0.7874 1.32468,-7.195256 10.36355,-1.456973"
       style="fill:#dd1863;fill-opacity:1;fill-rule:nonzero;stroke:none;stroke-width:0.0352777"
       id="path230" />
    <path
       d="m 268.29243,97.789093 0.94791,0.375709 10.12684,-0.7874 -0.94791,-0.375709 -10.12684,0.7874"
       style="fill:#c31a60;fill-opacity:1;fill-rule:nonzero;stroke:none;stroke-width:0.0352777"
       id="path232" />
    <path
       d="m 279.8773,89.656506 0.62124,0.246239 -1.36807,7.381169 -0.7112,-0.282221 1.45803,-7.345187"
       style="fill:#ffffff;fill-opacity:1;fill-rule:nonzero;stroke:none;stroke-width:0.0352777"
       id="path234" />
    <path
       d="m 275.3561,96.321889 -5.63563,-9.116483 c -0.62723,-0.950031 -1.92122,-1.182864 -2.84056,-0.511175 -0.92992,0.679097 -0.99695,2.257072 -0.26035,3.142192 l 6.58601,7.631641 2.15053,-1.146175"
       style="fill:#ed808d;fill-opacity:1;fill-rule:nonzero;stroke:none;stroke-width:0.0352777"
       id="path236" />
    <path
       d="m 272.60549,97.734412 c -0.43956,-1.043165 0.0501,-2.245077 1.09326,-2.684285 1.04316,-0.439563 2.24508,0.04974 2.68464,1.092904 0.43921,1.043164 -0.0501,2.245079 -1.09326,2.684639 -1.04316,0.439561 -2.24508,-0.05009 -2.68464,-1.093258"
       style="fill:#ed808d;fill-opacity:1;fill-rule:nonzero;stroke:none;stroke-width:0.0352777"
       id="path238" />
    <path
       d="m 276.40314,97.266629 c 0,0 0.80751,0.0448 0.46708,-0.975432 -0.34008,-1.020233 -1.21391,-1.890887 -3.17147,-1.24107 l 2.70439,2.216502"
       style="fill:#ed808d;fill-opacity:1;fill-rule:nonzero;stroke:none;stroke-width:0.0352777"
       id="path240" />
    <path
       d="m 269.74729,81.654448 3.7726,2.597502 c -1.13347,1.852084 -2.9718,4.119387 -3.45652,5.260623 -0.5461,1.287286 -1.48166,1.550458 -2.72097,0.903111 v -3.44e-4 c -1.14406,-0.597615 -1.60867,-1.993909 -1.05093,-3.157723 l 3.45582,-5.603169"
       style="fill:#ed808d;fill-opacity:1;fill-rule:nonzero;stroke:none;stroke-width:0.0352777"
       id="path242" />
    <path
       d="m 271.46002,78.877028 c 0.502,-1.04775 1.72579,-1.53282 2.80917,-1.113367 1.16946,0.452967 1.73426,1.781881 1.24742,2.937581 -0.34889,0.827264 -1.14053,2.151592 -1.99672,3.550708 l -3.7726,-2.597502 1.71273,-2.77742"
       style="fill:#7eb7bc;fill-opacity:1;fill-rule:nonzero;stroke:none;stroke-width:0.0352777"
       id="path244" />
    <path
       d="m 273.57845,84.292167 1.80658,-2.640894 -0.11748,-0.08008 -1.80622,2.640895"
       style="fill:#45283d;fill-opacity:1;fill-rule:nonzero;stroke:none;stroke-width:0.0352777"
       id="path246" />
  </g>
</svg>
