<?xml version="1.0" encoding="UTF-8" standalone="no"?>
<svg
   xmlns:dc="http://purl.org/dc/elements/1.1/"
   xmlns:cc="http://creativecommons.org/ns#"
   xmlns:rdf="http://www.w3.org/1999/02/22-rdf-syntax-ns#"
   xmlns:svg="http://www.w3.org/2000/svg"
   xmlns="http://www.w3.org/2000/svg"
   xmlns:sodipodi="http://sodipodi.sourceforge.net/DTD/sodipodi-0.dtd"
   xmlns:inkscape="http://www.inkscape.org/namespaces/inkscape"
   width="81.715767mm"
   height="145.70982mm"
   viewBox="0 0 81.715767 145.70982"
   version="1.1"
   id="svg3999"
   inkscape:version="1.0.1 (3bc2e813f5, 2020-09-07)"
   sodipodi:docname="student-male-pointing.svg">
  <defs
     id="defs3993">
    <clipPath
       clipPathUnits="userSpaceOnUse"
       id="clipPath1987">
      <path
         d="m 5903.94,3727.71 c 0,0 269.53,-215.86 350.85,-498.08 0,0 29.85,346.97 -151.65,556.85 l -117.07,1.41 -82.13,-60.18"
         id="path1985" />
    </clipPath>
    <clipPath
       clipPathUnits="userSpaceOnUse"
       id="clipPath2043">
      <path
         d="m 6098.52,4125.81 c 0,0 -15.48,59.5 -93.8,16.05 0,0 31.7,-61.84 93.8,-16.05"
         id="path2041" />
    </clipPath>
    <clipPath
       clipPathUnits="userSpaceOnUse"
       id="clipPath2057">
      <path
         d="m 6157.53,4126.4 c 0,0 23.22,59.06 66.28,18.35 0,0 -16.72,-58 -66.28,-18.35"
         id="path2055" />
    </clipPath>
  </defs>
  <sodipodi:namedview
     id="base"
     pagecolor="#ffffff"
     bordercolor="#666666"
     borderopacity="1.0"
     inkscape:pageopacity="0.0"
     inkscape:pageshadow="2"
     inkscape:zoom="1.4"
     inkscape:cx="65.901304"
     inkscape:cy="264.49961"
     inkscape:document-units="mm"
     inkscape:current-layer="layer1"
     inkscape:document-rotation="0"
     showgrid="false"
     fit-margin-top="0"
     fit-margin-left="0"
     fit-margin-right="0"
     fit-margin-bottom="0"
     inkscape:pagecheckerboard="true"
     showborder="false"
     inkscape:window-width="1920"
     inkscape:window-height="1017"
     inkscape:window-x="-8"
     inkscape:window-y="89"
     inkscape:window-maximized="1" />
  <metadata
     id="metadata3996">
    <rdf:RDF>
      <cc:Work
         rdf:about="">
        <dc:format>image/svg+xml</dc:format>
        <dc:type
           rdf:resource="http://purl.org/dc/dcmitype/StillImage" />
        <dc:title></dc:title>
      </cc:Work>
    </rdf:RDF>
  </metadata>
  <g
     inkscape:groupmode="layer"
     id="layer12"
     inkscape:label="Layer 2"
     transform="translate(17.387366)">
    <ellipse
       style="fill:#e9afaf;fill-rule:evenodd;stroke-width:0.196526"
       id="path4173"
       cx="25.916994"
       cy="140.21516"
       rx="38.55357"
       ry="5.5783515"
       transform="matrix(1,0,-0.03387884,0.99942595,0,0)" />
  </g>
  <g
     inkscape:groupmode="layer"
     id="layer13"
     inkscape:label="Layer 3"
     transform="translate(17.387366)">
    <ellipse
       style="fill:#de8787;fill-rule:evenodd;stroke-width:0.264583"
       id="path4176"
       cx="22.489584"
       cy="137.77232"
       rx="25.702381"
       ry="3.0238097" />
  </g>
  <g
     inkscape:label="Layer 1"
     inkscape:groupmode="layer"
     id="layer1"
     transform="translate(-137.16867,-14.867292)">
    <path
       d="m 178.50056,148.94824 0.38488,-19.54671 7.1829,1.33527 -1.47637,17.28261 -6.09141,0.92883"
       style="fill:#ffffff;fill-opacity:1;fill-rule:nonzero;stroke:none;stroke-width:0.0352777"
       id="path1927" />
    <path
       d="m 178.36156,145.83219 c 0,0 4.64397,2.52084 6.64246,-1.13742 l 13.00867,7.77599 -21.7237,-0.13973 2.07257,-6.49884"
       style="fill:#101010;fill-opacity:1;fill-rule:nonzero;stroke:none;stroke-width:0.0352777"
       id="path1929" />
    <path
       d="m 197.99858,154.46604 -21.72335,-0.13974 0.0138,-1.99527 21.72371,0.13973 -0.0141,1.99528"
       style="fill:#ffffff;fill-opacity:1;fill-rule:nonzero;stroke:none;stroke-width:0.0352777"
       id="path1931" />
    <path
       d="m 186.19252,148.49912 c 0.061,-0.0251 0.11607,-0.0652 0.1584,-0.1203 0.88653,-1.16198 1.77694,-1.73524 1.78611,-1.74127 0.17533,-0.11152 0.22296,-0.33765 0.10548,-0.50479 -0.11747,-0.16799 -0.35736,-0.20849 -0.52987,-0.10199 -0.0413,0.0261 -1.00824,0.64495 -1.9819,1.91975 -0.12383,0.16344 -0.0861,0.39094 0.085,0.50905 0.11324,0.078 0.25682,0.0886 0.37676,0.0396"
       style="fill:#ffffff;fill-opacity:1;fill-rule:nonzero;stroke:none;stroke-width:0.0352777"
       id="path1933" />
    <path
       d="m 188.05695,149.4319 c 0.061,-0.0247 0.11607,-0.0653 0.1584,-0.1203 0.88653,-1.16208 1.77694,-1.73563 1.78611,-1.74127 0.17533,-0.11148 0.22296,-0.33761 0.10548,-0.50518 -0.11676,-0.16732 -0.35842,-0.21029 -0.52951,-0.10128 -0.0413,0.0253 -1.0086,0.64449 -1.98191,1.91946 -0.12418,0.16302 -0.0864,0.39081 0.085,0.50902 0.11289,0.078 0.25647,0.0889 0.37641,0.0395"
       style="fill:#ffffff;fill-opacity:1;fill-rule:nonzero;stroke:none;stroke-width:0.0352777"
       id="path1935" />
    <path
       d="m 189.92138,150.36457 c 0.061,-0.0254 0.11607,-0.0656 0.1584,-0.12057 0.88653,-1.16142 1.7773,-1.73497 1.78611,-1.74103 0.17534,-0.11148 0.22296,-0.33761 0.10549,-0.50476 -0.11678,-0.16715 -0.35772,-0.21057 -0.52953,-0.10156 -0.0413,0.0257 -1.00823,0.64449 -1.9819,1.91904 -0.12453,0.16263 -0.0861,0.39095 0.0847,0.50906 0.11324,0.078 0.25647,0.0886 0.37677,0.0398"
       style="fill:#ffffff;fill-opacity:1;fill-rule:nonzero;stroke:none;stroke-width:0.0352777"
       id="path1937" />
    <path
       d="m 159.98643,148.43961 2.84162,-19.34323 6.95748,2.2285 -3.6396,16.9594 -6.1595,0.15533"
       style="fill:#ffffff;fill-opacity:1;fill-rule:nonzero;stroke:none;stroke-width:0.0352777"
       id="path1939" />
    <path
       d="m 160.22102,145.83219 c 0,0 4.64432,2.52084 6.64246,-1.13742 l 13.00868,7.77599 -21.72335,-0.13973 2.07221,-6.49884"
       style="fill:#101010;fill-opacity:1;fill-rule:nonzero;stroke:none;stroke-width:0.0352777"
       id="path1941" />
    <path
       d="m 179.85805,154.46604 -21.72335,-0.13974 0.0141,-1.99527 21.72335,0.13973 -0.0141,1.99528"
       style="fill:#ffffff;fill-opacity:1;fill-rule:nonzero;stroke:none;stroke-width:0.0352777"
       id="path1943" />
    <path
       d="m 168.05234,148.49912 c 0.061,-0.0251 0.11571,-0.0652 0.15804,-0.1203 0.88689,-1.16198 1.77694,-1.73524 1.78612,-1.74127 0.17568,-0.11152 0.22295,-0.33765 0.10548,-0.50479 -0.11677,-0.16799 -0.35737,-0.20849 -0.52952,-0.10199 -0.0416,0.0261 -1.00824,0.64495 -1.98191,1.91975 -0.12418,0.16344 -0.0861,0.39094 0.085,0.50905 0.11324,0.078 0.25647,0.0886 0.37677,0.0396"
       style="fill:#ffffff;fill-opacity:1;fill-rule:nonzero;stroke:none;stroke-width:0.0352777"
       id="path1945" />
    <path
       d="m 169.91677,149.4319 c 0.061,-0.0247 0.11606,-0.0653 0.15804,-0.1203 0.88689,-1.16208 1.77765,-1.73563 1.78612,-1.74127 0.17568,-0.11148 0.22295,-0.33761 0.10548,-0.50518 -0.11677,-0.16732 -0.35807,-0.21029 -0.52952,-0.10128 -0.0413,0.0253 -1.00824,0.64449 -1.98191,1.91946 -0.12418,0.16302 -0.0857,0.39081 0.085,0.50902 0.11324,0.078 0.25647,0.0889 0.37677,0.0395"
       style="fill:#ffffff;fill-opacity:1;fill-rule:nonzero;stroke:none;stroke-width:0.0352777"
       id="path1947" />
    <path
       d="m 171.78085,150.36457 c 0.061,-0.0254 0.11641,-0.0656 0.15875,-0.12057 0.88653,-1.16142 1.77729,-1.73497 1.78576,-1.74103 0.17568,-0.11148 0.2233,-0.33761 0.10583,-0.50476 -0.11677,-0.16715 -0.35807,-0.21057 -0.52987,-0.10156 -0.0413,0.0257 -1.00789,0.64449 -1.98191,1.91904 -0.12453,0.16263 -0.0861,0.39095 0.0847,0.50906 0.11324,0.078 0.25718,0.0886 0.37677,0.0398"
       style="fill:#ffffff;fill-opacity:1;fill-rule:nonzero;stroke:none;stroke-width:0.0352777"
       id="path1949" />
    <path
       d="m 186.86139,72.424044 c 0,0 2.19534,-0.05468 2.53612,10.08662 0.0699,2.084565 0.0286,4.980165 -0.1016,7.0612 l -2.79788,53.708616 H 176.3151 l 2.62431,-55.483441 -9.63189,55.483441 -10.59709,-0.22818 11.29242,-70.628256 7.83025,-0.994482 9.02829,0.994482"
       style="fill:#6c5353;fill-opacity:1;fill-rule:nonzero;stroke:none;stroke-width:0.0352777"
       id="path1951" />
    <path
       d="m 178.96658,87.913104 4.40196,-1.027642 c 0.0639,-0.01516 0.10371,-0.07902 0.0889,-0.143226 -0.0152,-0.06386 -0.079,-0.103717 -0.14323,-0.0889 l -4.40161,1.027641 c -0.0642,0.01516 -0.10407,0.07902 -0.0889,0.143227 0.0148,0.06385 0.079,0.103717 0.14288,0.0889"
       style="fill:#434141;fill-opacity:1;fill-rule:nonzero;stroke:none;stroke-width:0.0352777"
       id="path1953" />
    <path
       d="m 172.85717,43.079284 c 0,0 3.83293,3.894312 8.26347,5.576003 4.43053,1.68134 12.97164,7.089424 19.45569,7.585782 l -2.15653,-9.049102 -14.06737,-7.673976 -11.49526,3.561293"
       style="fill:#212e38;fill-opacity:1;fill-rule:nonzero;stroke:none;stroke-width:0.0352777"
       id="path1955" />
    <path
       d="m 209.4187,33.479847 0.32103,-2.373842 c 0.0642,-0.472722 0.399,-0.864658 0.85655,-1.001888 l 2.81305,-0.841375 c 0.40851,-0.122414 0.84702,0.05362 1.05762,0.424391 v 0 c 0.25259,0.4445 0.0917,1.010003 -0.35736,1.255183 l -1.3469,0.734484 c 0,0 1.86901,1.486605 0.0656,3.480858 l -3.4096,-1.677811"
       style="fill:#e9b089;fill-opacity:1;fill-rule:nonzero;stroke:none;stroke-width:0.0352777"
       id="path1957" />
    <path
       d="m 210.59628,30.104117 3.67277,-5.011209 c 0.24659,-0.336903 0.73025,-0.386997 1.04069,-0.107597 0.23813,0.214136 0.30233,0.561975 0.15558,0.846667 l -2.31034,4.497211 -2.5587,-0.225072"
       style="fill:#e9b089;fill-opacity:1;fill-rule:nonzero;stroke:none;stroke-width:0.0352777"
       id="path1959" />
    <path
       d="m 213.54973,28.882094 1.41006,-0.479425 c 0.29739,-0.0762 0.61312,-0.0081 0.85266,0.183798 l 0.32526,0.259997 c 0.36971,0.295628 0.47413,0.813505 0.24871,1.22943 l -1.79987,3.207456 -2.31528,-1.704975 1.27846,-2.696281"
       style="fill:#e9b089;fill-opacity:1;fill-rule:nonzero;stroke:none;stroke-width:0.0352777"
       id="path1961" />
    <path
       d="m 216.12148,29.34635 h 0.52494 c 0.25153,0 0.49318,0.09878 0.67239,0.274814 l 0.43427,0.42545 c 0.18415,0.180622 0.28822,0.427919 0.28822,0.686153 0,0.208138 -0.0674,0.41028 -0.19226,0.576791 l -2.30576,3.071636 -1.99884,-1.488369 2.57704,-3.546475"
       style="fill:#e9b089;fill-opacity:1;fill-rule:nonzero;stroke:none;stroke-width:0.0352777"
       id="path1963" />
    <path
       d="m 216.96462,30.562728 h 0.52493 c 0.25154,0 0.49284,0.09842 0.6724,0.274461 l 0.43427,0.42545 c 0.1845,0.180622 0.28822,0.427919 0.28822,0.686152 0,0.208139 -0.0677,0.410634 -0.19226,0.576792 l -0.80963,1.078442 c -0.82726,1.102077 -2.38936,1.327855 -3.49462,0.504825 l 2.57669,-3.546122"
       style="fill:#e9b089;fill-opacity:1;fill-rule:nonzero;stroke:none;stroke-width:0.0352777"
       id="path1965" />
    <path
       d="m 216.77306,34.234086 -1.07773,1.190978 c -1.02588,1.133827 -2.77707,1.221669 -3.91125,0.195438 l -2.36538,-2.140655 1.8341,-2.345619 h 2.29164 l 1.99884,1.3843 1.22978,1.715558"
       style="fill:#e9b089;fill-opacity:1;fill-rule:nonzero;stroke:none;stroke-width:0.0352777"
       id="path1967" />
    <path
       d="m 210.821,30.166205 3.05964,-1.016705 -0.0317,-0.0949 0.0293,0.0956 c 0.0716,-0.02187 0.14358,-0.0321 0.21484,-0.0321 0.31221,0 0.60184,0.201083 0.69991,0.515055 v 0 c 0.0226,0.07232 0.0335,0.14605 0.0335,0.219075 0,0.220839 -0.0998,0.434622 -0.2794,0.575734 l 0.0621,0.07867 -0.0536,-0.08431 -1.84609,1.169811 c -0.031,0.0194 -0.0487,0.05362 -0.0466,0.08996 0.002,0.03634 0.0233,0.06844 0.0561,0.08431 l 0.007,0.0035 c 0.0395,0.02081 0.23813,0.131234 0.42228,0.335492 0.1845,0.204611 0.35419,0.497417 0.35454,0.897114 0,0.347486 -0.12947,0.784225 -0.514,1.320447 -0.0321,0.0448 -0.0219,0.107245 0.0229,0.1397 0.0448,0.0321 0.1076,0.02187 0.1397,-0.02328 0.40182,-0.559506 0.55175,-1.038225 0.5514,-1.436864 2.6e-4,-0.490008 -0.22614,-0.847372 -0.44803,-1.075972 -0.22225,-0.229306 -0.44133,-0.33655 -0.44768,-0.339725 l -0.0441,0.08996 0.0536,0.08431 1.84644,-1.169811 0.008,-0.006 c 0.2286,-0.180269 0.3556,-0.452261 0.3556,-0.733072 0,-0.09313 -0.0138,-0.186972 -0.0427,-0.278695 v 0 c -0.12488,-0.399344 -0.49283,-0.655461 -0.89076,-0.655461 -0.0907,0 -0.18239,0.01305 -0.27305,0.04092 l -0.002,7.15e-4 -3.05965,1.016706 c -0.0526,0.01728 -0.0808,0.07408 -0.0635,0.126294 0.0177,0.05256 0.0741,0.08079 0.12665,0.0635"
       style="fill:#000000;fill-opacity:1;fill-rule:nonzero;stroke:none;stroke-width:0.0352777"
       id="path1969" />
    <path
       d="m 209.4187,33.479847 -3.9377,5.40385 4.39173,3.278715 4.0259,-6.668204 -4.47993,-2.014361"
       style="fill:#e9b089;fill-opacity:1;fill-rule:nonzero;stroke:none;stroke-width:0.0352777"
       id="path1971" />
    <path
       d="m 196.65909,48.583675 10.2182,-13.421784 6.38316,4.941359 -8.82932,13.996811 c -1.79105,2.281766 -4.38855,2.840918 -6.44842,1.183216 -1.84679,-1.4859 -3.67277,-4.893733 -1.32362,-6.699602"
       style="fill:#212e38;fill-opacity:1;fill-rule:nonzero;stroke:none;stroke-width:0.0352777"
       id="path1973" />
    <path
       d="m 168.06715,43.573171 8.1086,-5.940777 4.12997,0.04974 c 0,0 4.11621,0.670983 7.12999,4.973108 3.01378,4.302125 2.40348,38.90645 2.40348,38.90645 0,0 -3.12385,-0.28928 -3.19159,-5.271558 0,0 -1.05233,6.757103 -6.77015,7.454545 -5.71782,0.697442 -15.00964,-1.09361 -15.00964,-1.09361 l 6.362,-16.646875 -5.11387,-14.404269 c -0.90734,-2.829983 -0.15416,-5.929138 1.95121,-8.026754"
       style="fill:#212e38;fill-opacity:1;fill-rule:nonzero;stroke:none;stroke-width:0.0352777"
       id="path1975" />
    <path
       d="m 184.35243,39.517991 2.43523,4.288013 -1.24354,-0.01516 1.35996,1.752952 c 0,0 0.83396,5.344584 -1.24849,11.78278 l -5.79649,-18.611851 0.44662,-1.03258 c 0,0 1.57797,0.307622 2.81235,1.071739"
       style="fill:#39505e;fill-opacity:1;fill-rule:nonzero;stroke:none;stroke-width:0.0352777"
       id="path1977" />
    <path
       d="m 173.27839,39.755411 c 0,0 9.50842,7.61506 12.3772,17.571156 0,0 1.05305,-12.240331 -5.34987,-19.644431 l -4.12997,-0.04974 -2.89736,2.123017"
       style="fill:#e3dbdb;fill-opacity:1;fill-rule:nonzero;stroke:none;stroke-width:0.0352777"
       id="path1979" />
    <g
       id="g1981"
       transform="matrix(0.03527778,0,0,-0.03527778,-34.999492,171.26073)">
      <g
         id="g1983"
         clip-path="url(#clipPath1987)">
        <path
           d="m 5915.89,3677.41 c 0,0 268.78,-116.16 258.17,69.69 l -82.26,158.5 c 0,0 -183.72,-57.23 -194.77,-60.06 l -48.38,-64.8 -13.57,-44.41 80.81,-58.92"
           style="fill:#e9b089;fill-opacity:1;fill-rule:nonzero;stroke:none"
           id="path1989" />
      </g>
    </g>
    <path
       d="m 173.27839,39.755411 -2.00061,1.465791 2.65501,4.589285 2.65183,0.03175 -1.84856,1.823863 c 0,0 7.00899,5.504744 10.91953,9.660467 0,0 -2.59573,-10.082742 -12.3772,-17.571156"
       style="fill:#39505e;fill-opacity:1;fill-rule:nonzero;stroke:none;stroke-width:0.0352777"
       id="path1991" />
    <path
       d="m 189.34953,52.498096 c -2.6e-4,-0.0035 -0.13688,-3.153127 -0.82197,-5.628217 -0.0148,-0.05327 -0.0699,-0.08431 -0.12312,-0.06985 -0.0533,0.01482 -0.0843,0.06985 -0.0699,0.123121 0.33831,1.220611 0.54257,2.618317 0.66181,3.709459 0.0596,0.545393 0.0981,1.014587 0.12136,1.346903 0.0233,0.332317 0.0317,0.52705 0.0321,0.527405 0.002,0.05539 0.049,0.09807 0.10406,0.0956 0.0554,-0.0024 0.0981,-0.04904 0.0956,-0.104423"
       style="fill:#000000;fill-opacity:1;fill-rule:nonzero;stroke:none;stroke-width:0.0352777"
       id="path1993" />
    <path
       d="m 171.04742,41.403587 c 0,0 -4.04001,1.224847 -6.23005,5.427134 -2.1904,4.20229 -8.84062,14.173554 -10.09509,20.554598 l 9.2396,-1.078794 8.95562,-13.069006 -1.87008,-11.833932"
       style="fill:#212e38;fill-opacity:1;fill-rule:nonzero;stroke:none;stroke-width:0.0352777"
       id="path1995" />
    <path
       d="m 168.90253,59.273546 4.09752,-5.979584 c 0.0314,-0.04551 0.0198,-0.10795 -0.0261,-0.138993 -0.0455,-0.0314 -0.1076,-0.01976 -0.139,0.02574 l -4.09751,5.979583 c -0.0314,0.04551 -0.0198,0.10795 0.0261,0.138996 0.0455,0.0314 0.10759,0.01976 0.13899,-0.02574"
       style="fill:#000000;fill-opacity:1;fill-rule:nonzero;stroke:none;stroke-width:0.0352777"
       id="path1997" />
    <path
       d="m 192.81416,62.889519 -15.02445,-6.035323 -1.51518,3.598688 14.67485,5.7277 1.86478,-3.291065"
       style="fill:#c27f22;fill-opacity:1;fill-rule:nonzero;stroke:none;stroke-width:0.0352777"
       id="path1999" />
    <path
       d="m 177.39248,59.288717 0.77964,-1.710267 14.08924,5.786612 -0.84526,1.712384 -14.02362,-5.788729"
       style="fill:#ffffff;fill-opacity:1;fill-rule:nonzero;stroke:none;stroke-width:0.0352777"
       id="path2001" />
    <path
       d="m 191.50077,64.019467 -8.65117,20.718989 -14.82055,-6.247342 8.35237,-20.669247 15.11935,6.1976"
       style="fill:#d59934;fill-opacity:1;fill-rule:nonzero;stroke:none;stroke-width:0.0352777"
       id="path2003" />
    <path
       d="m 191.50077,64.019467 1.31339,-1.129948 -8.56474,20.667837 -1.39982,1.1811 8.65117,-20.718989"
       style="fill:#c27f22;fill-opacity:1;fill-rule:nonzero;stroke:none;stroke-width:0.0352777"
       id="path2005" />
    <path
       d="m 176.49078,65.958686 9.47138,3.885845 1.05128,-2.480379 -9.47103,-3.885493 -1.05163,2.480027"
       style="fill:#ffffff;fill-opacity:1;fill-rule:nonzero;stroke:none;stroke-width:0.0352777"
       id="path2007" />
    <path
       d="m 169.60385,69.697071 10.47045,5.660673 -1.16558,4.063293 -10.99996,-3.792714 1.69509,-5.931252"
       style="fill:#e9b089;fill-opacity:1;fill-rule:nonzero;stroke:none;stroke-width:0.0352777"
       id="path2009" />
    <path
       d="m 180.0743,75.357744 c 0,0 7.42103,-1.345848 7.14234,1.323268 -0.27905,2.669117 -1.61044,8.970786 -8.30792,2.740025 l 1.16558,-4.063293"
       style="fill:#e9b089;fill-opacity:1;fill-rule:nonzero;stroke:none;stroke-width:0.0352777"
       id="path2011" />
    <path
       d="m 179.83194,75.660427 1.00436,-1.076325 c 0.57926,-0.621241 1.33173,-1.053748 2.15935,-1.242131 l 1.53317,-0.34925 c 0.36795,-0.08361 0.74472,0.0956 0.91229,0.433565 0.18273,0.368651 0.0617,0.81562 -0.28187,1.042458 l -2.20733,1.45697 -3.11997,-0.265287"
       style="fill:#e9b089;fill-opacity:1;fill-rule:nonzero;stroke:none;stroke-width:0.0352777"
       id="path2013" />
    <path
       d="m 161.95351,63.403517 16.67122,8.886822 -3.2459,7.80415 -17.49637,-7.36247 c -2.70122,-1.057275 -3.98533,-3.383492 -2.99191,-5.833885 0.89076,-2.196748 4.65667,-5.223934 7.06296,-3.494617"
       style="fill:#212e38;fill-opacity:1;fill-rule:nonzero;stroke:none;stroke-width:0.0352777"
       id="path2015" />
    <path
       d="m 164.91473,64.868602 -2.9143,-1.553633 c -0.0487,-0.02574 -0.10936,-0.0074 -0.13511,0.04127 -0.0261,0.04868 -0.008,0.10936 0.0413,0.135467 l 2.91394,1.553286 c 0.0487,0.02611 0.10936,0.0078 0.13547,-0.04127 0.0261,-0.04868 0.007,-0.109363 -0.0413,-0.135115"
       style="fill:#000000;fill-opacity:1;fill-rule:nonzero;stroke:none;stroke-width:0.0352777"
       id="path2017" />
    <path
       d="m 182.17932,29.375278 c 0.0699,-0.703439 0.26071,-1.393473 0.59549,-2.036586 0.45861,-0.881945 1.16099,-1.727906 2.21615,-1.229431 1.7967,0.848783 0.0243,3.775428 -1.81786,4.0132 -0.54187,0.06985 -1.03823,-0.304447 -0.99378,-0.747183"
       style="fill:#d7896d;fill-opacity:1;fill-rule:nonzero;stroke:none;stroke-width:0.0352777"
       id="path2019" />
    <path
       d="m 185.45451,22.271391 c -0.36265,3.821995 -3.64067,8.156576 -7.77451,8.165395 -4.13385,0.0088 -6.82414,-3.227564 -7.80698,-6.938786 -1.10313,-4.164895 3.64349,-7.01287 7.77734,-6.963128 2.6028,0.0314 8.19891,1.580445 7.80415,5.736519"
       style="fill:#744028;fill-opacity:1;fill-rule:nonzero;stroke:none;stroke-width:0.0352777"
       id="path2021" />
    <path
       d="m 175.59966,29.032378 -1.05445,11.32593 5.85435,0.01058 -0.35419,-10.149769 -4.44571,-1.186744"
       style="fill:#e9b089;fill-opacity:1;fill-rule:nonzero;stroke:none;stroke-width:0.0352777"
       id="path2023" />
    <path
       d="m 180.25069,36.128502 -3.81529,-3.70593 3.62267,-1.486958 z"
       style="fill:#d7896d;fill-opacity:1;fill-rule:nonzero;stroke:none;stroke-width:0.0352777"
       id="path2025" />
    <path
       d="m 176.4742,18.106497 c 1.26683,-0.348897 2.61161,-0.430036 3.8982,-0.161925 1.74237,0.363008 3.97757,1.453445 4.26367,4.637617 0.47695,5.306836 -0.15946,9.587441 -2.77813,10.793941 -2.01048,0.926042 -3.47662,0.573264 -5.79578,-0.771525 -0.8629,-0.500239 -1.69087,-2.629605 -1.92652,-3.645605 l -1.00048,-2.836686 c 0,0 -2.71463,-6.347884 3.33904,-8.015817"
       style="fill:#e9b089;fill-opacity:1;fill-rule:nonzero;stroke:none;stroke-width:0.0352777"
       id="path2027" />
    <path
       d="m 181.3951,25.994608 0.82973,1.804459 -0.58561,0.462844 c -0.0332,0.02611 -0.0388,0.07479 -0.0124,0.10795 0.0261,0.03316 0.0744,0.03881 0.10795,0.0127 l 0.63288,-0.500592 c 0.0275,-0.02187 0.0367,-0.05997 0.0219,-0.09243 L 181.53444,25.9304 c -0.0177,-0.03881 -0.0631,-0.05539 -0.1016,-0.03775 -0.0388,0.01764 -0.0557,0.06315 -0.0377,0.101952"
       style="fill:#000000;fill-opacity:1;fill-rule:nonzero;stroke:none;stroke-width:0.0352777"
       id="path2029" />
    <path
       d="m 182.35783,22.0502 c 0,0 -0.21978,0.765175 0.59655,0.9144 0.62018,0.113241 1.01388,0.173566 1.36101,0.345369 0.19685,0.09772 0.42722,0.01482 0.54504,-0.19438 0.0949,-0.168981 0.0988,-0.386292 0.004,-0.553861 -0.19117,-0.339373 -0.6011,-0.865364 -1.35428,-1.014942 -0.96696,-0.192617 -1.15252,0.503414 -1.15252,0.503414"
       style="fill:#744028;fill-opacity:1;fill-rule:nonzero;stroke:none;stroke-width:0.0352777"
       id="path2031" />
    <path
       d="m 179.90144,21.9994 c 0,0 0.26917,0.765528 -0.87771,0.912989 -0.87066,0.11183 -1.91277,0.474486 -2.40524,0.645583 -0.27976,0.09737 -0.59655,0.01411 -0.75107,-0.195439 -0.12417,-0.169333 -0.11888,-0.386997 0.0212,-0.554567 0.28364,-0.339019 1.37019,-1.167341 2.42853,-1.315155 1.3589,-0.1905 1.58432,0.506589 1.58432,0.506589"
       style="fill:#744028;fill-opacity:1;fill-rule:nonzero;stroke:none;stroke-width:0.0352777"
       id="path2033" />
    <path
       d="m 177.31625,24.450705 c 0.24402,-0.248251 0.52089,-0.435888 0.81124,-0.5589 0.2923,-0.120337 0.58855,-0.202344 0.90353,-0.196105 0.30643,0.01515 0.62206,0.10831 0.89663,0.337836 0.2713,0.237555 0.4851,0.593663 0.56229,1.054064 0.0144,0.08557 -0.0249,0.170699 -0.0877,0.190311 -0.063,0.01917 -0.12546,-0.03431 -0.13992,-0.119453 l -9.3e-4,-0.0053 -0.002,-0.01783 c -0.0463,-0.332933 -0.21743,-0.669877 -0.44142,-0.873559 -0.22827,-0.207692 -0.51007,-0.310202 -0.79515,-0.337836 -0.2795,-0.01961 -0.57673,0.04725 -0.85459,0.150645 -0.27983,0.106073 -0.54653,0.27321 -0.78432,0.499623 l -0.0788,-0.01649 0.0114,-0.106971"
       style="fill:#000000;fill-opacity:1;fill-rule:nonzero;stroke:none;stroke-width:0.0382599"
       id="path2047" />
    <path
       d="m 184.38811,24.527844 c -0.10226,-0.168888 -0.23662,-0.309934 -0.39437,-0.389066 -0.15524,-0.07949 -0.34074,-0.09598 -0.49599,-0.05019 l -0.009,0.0022 c -0.22789,0.04726 -0.44143,0.170354 -0.60978,0.357194 -0.16834,0.182442 -0.30489,0.422769 -0.38688,0.665294 l -0.003,0.0073 c -0.019,0.05642 -0.0733,0.0839 -0.12159,0.06155 -0.048,-0.02235 -0.0714,-0.08647 -0.0524,-0.142878 l 8.9e-4,-0.0026 c 0.0543,-0.148372 0.11878,-0.272933 0.19454,-0.39676 0.0761,-0.121628 0.16367,-0.234099 0.26155,-0.333015 0.097,-0.100378 0.20794,-0.182442 0.32547,-0.245822 0.11691,-0.06777 0.24504,-0.100379 0.37161,-0.125658 l -0.009,0.0022 c 0.20233,-0.04946 0.40029,-0.01649 0.57892,0.08096 0.17707,0.09855 0.31986,0.263409 0.42336,0.449517 l -0.0131,0.07364 -0.062,-0.01392"
       style="fill:#000000;fill-opacity:1;fill-rule:nonzero;stroke:none;stroke-width:0.033795"
       id="path2061" />
    <path
       d="m 179.42977,29.332592 c 0.006,0.0025 0.75671,0.402519 1.66582,0.403225 0.54398,3.44e-4 1.14829,-0.146403 1.66864,-0.614187 l 0.006,-0.108302 -0.10866,-0.006 c -0.48789,0.437797 -1.0481,0.574322 -1.56598,0.574675 -0.4318,0 -0.83185,-0.09631 -1.12324,-0.193322 -0.1457,-0.04833 -0.26388,-0.09666 -0.34572,-0.132645 -0.0815,-0.03634 -0.12489,-0.05962 -0.12489,-0.05927 -0.0378,-0.01976 -0.084,-0.0056 -0.10407,0.03175 -0.0198,0.0374 -0.006,0.08396 0.0321,0.10407"
       style="fill:#000000;fill-opacity:1;fill-rule:nonzero;stroke:none;stroke-width:0.0352777"
       id="path2063" />
    <path
       d="m 174.19667,27.659719 c 0,0 2.54106,-8.07085 -1.2192,-8.275814 l -2.05881,4.020609 1.10419,3.357739 2.17382,0.897466"
       style="fill:#744028;fill-opacity:1;fill-rule:nonzero;stroke:none;stroke-width:0.0352777"
       id="path2065" />
    <path
       d="m 174.85248,29.378453 c -0.15698,-0.727075 -0.43921,-1.425575 -0.86536,-2.057753 -0.58491,-0.867481 -1.41958,-1.667581 -2.46345,-1.020586 -1.77694,1.101725 0.4251,3.949347 2.37913,3.978275 0.57503,0.0085 1.04916,-0.442384 0.94968,-0.899936"
       style="fill:#e9b089;fill-opacity:1;fill-rule:nonzero;stroke:none;stroke-width:0.0352777"
       id="path2067" />
    <path
       d="m 172.03626,27.802947 c 0.17639,-0.06033 0.33972,-0.08608 0.49177,-0.08608 0.49565,-3.44e-4 0.87912,0.27552 1.14265,0.559506 0.13123,0.141464 0.23142,0.283633 0.29809,0.390172 0.0335,0.05292 0.0586,0.09737 0.0751,0.128058 l 0.0243,0.04657 c 0.018,0.03845 0.0639,0.05468 0.10231,0.03634 0.0381,-0.01834 0.0547,-0.0642 0.0363,-0.102305 -0.002,-0.0046 -0.14429,-0.302331 -0.42333,-0.603603 -0.27835,-0.300214 -0.69956,-0.608189 -1.25554,-0.608542 -0.16933,0 -0.35031,0.02893 -0.54151,0.09455 -0.0402,0.01376 -0.0614,0.05715 -0.0476,0.09737 0.0138,0.04022 0.0575,0.06174 0.0974,0.04798"
       style="fill:#000000;fill-opacity:1;fill-rule:nonzero;stroke:none;stroke-width:0.0352777"
       id="path2069" />
    <path
       d="m 173.52533,19.550417 c 0,0 9.37613,2.422172 12.60934,-2.023887 0,0 -5.94219,-3.315405 -11.00032,-0.583141 l -1.60902,2.607028"
       style="fill:#744028;fill-opacity:1;fill-rule:nonzero;stroke:none;stroke-width:0.0352777"
       id="path2071" />
    <path
       d="m 173.54226,18.128017 c 0,0 2.04224,-3.219098 5.77604,-3.260725 0,0 -1.02235,2.577394 -3.23992,3.285419 -2.21756,0.708731 -2.53612,-0.02469 -2.53612,-0.02469"
       style="fill:#744028;fill-opacity:1;fill-rule:nonzero;stroke:none;stroke-width:0.0352777"
       id="path2073" />
    <path
       d="m 172.3594,19.343336 c 0,0 0.1076,-2.112786 1.90041,-3.153128 0,0 0.20991,1.524706 -0.66816,2.472267 -0.87806,0.948267 -1.23225,0.680861 -1.23225,0.680861"
       style="fill:#744028;fill-opacity:1;fill-rule:nonzero;stroke:none;stroke-width:0.0352777"
       id="path2075" />
    <ellipse
       style="fill:#280b0b;fill-rule:evenodd;stroke-width:0.323206"
       id="path4155"
       cx="179.03525"
       cy="24.710421"
       rx="0.50189781"
       ry="0.3316406" />
    <ellipse
       style="fill:#280b0b;fill-rule:evenodd;stroke-width:0.274973"
       id="path4155-2"
       cx="183.46892"
       cy="24.646469"
       rx="0.4236269"
       ry="0.28439358" />
  </g>
</svg>
