<?xml version="1.0" encoding="UTF-8" standalone="no"?>
<svg
   xmlns:dc="http://purl.org/dc/elements/1.1/"
   xmlns:cc="http://creativecommons.org/ns#"
   xmlns:rdf="http://www.w3.org/1999/02/22-rdf-syntax-ns#"
   xmlns:svg="http://www.w3.org/2000/svg"
   xmlns="http://www.w3.org/2000/svg"
   xmlns:sodipodi="http://sodipodi.sourceforge.net/DTD/sodipodi-0.dtd"
   xmlns:inkscape="http://www.inkscape.org/namespaces/inkscape"
   width="37.703125mm"
   height="70.870537mm"
   viewBox="0 0 37.703125 70.870537"
   version="1.1"
   id="svg1826"
   sodipodi:docname="student-phone-male.svg"
   inkscape:version="1.0.1 (3bc2e813f5, 2020-09-07)">
  <defs
     id="defs1820" />
  <sodipodi:namedview
     id="base"
     pagecolor="#ffffff"
     bordercolor="#666666"
     borderopacity="1.0"
     inkscape:pageopacity="0.0"
     inkscape:pageshadow="2"
     inkscape:zoom="1.4"
     inkscape:cx="245.30977"
     inkscape:cy="37.156893"
     inkscape:document-units="mm"
     inkscape:current-layer="layer6"
     inkscape:document-rotation="0"
     showgrid="false"
     inkscape:pagecheckerboard="true"
     showborder="false"
     fit-margin-top="0"
     fit-margin-left="0"
     fit-margin-right="0"
     fit-margin-bottom="0"
     inkscape:window-width="1920"
     inkscape:window-height="1017"
     inkscape:window-x="-8"
     inkscape:window-y="89"
     inkscape:window-maximized="1" />
  <metadata
     id="metadata1823">
    <rdf:RDF>
      <cc:Work
         rdf:about="">
        <dc:format>image/svg+xml</dc:format>
        <dc:type
           rdf:resource="http://purl.org/dc/dcmitype/StillImage" />
        <dc:title></dc:title>
      </cc:Work>
    </rdf:RDF>
  </metadata>
  <g
     inkscape:groupmode="layer"
     id="layer5"
     inkscape:label="Layer 2">
    <ellipse
       style="fill:#2ad4ff;fill-rule:evenodd;stroke-width:0.264583"
       id="path2687"
       cx="19.22954"
       cy="69.878349"
       rx="18.473585"
       ry="0.9921875" />
  </g>
  <g
     inkscape:groupmode="layer"
     id="layer6"
     inkscape:label="Layer 3">
    <ellipse
       style="fill:#006680;fill-rule:evenodd;stroke-width:0.304698"
       id="path2690"
       cx="23.412802"
       cy="69.724243"
       rx="12.18783"
       ry="0.76831472" />
  </g>
  <g
     inkscape:label="Layer 1"
     inkscape:groupmode="layer"
     id="layer1"
     transform="translate(-390.85926,4.8444298)">
    <path
       d="m 406.44063,61.323295 h 2.30835 l -0.24913,-5.496631 h -2.44752 l 0.3883,5.496631"
       style="fill:#ed808d;fill-opacity:1;fill-rule:nonzero;stroke:none;stroke-width:0.0346031"
       id="path572" />
    <path
       d="m 409.39455,60.585989 h -3.73696 l 0.0295,1.709208 c 0,0 -2.95223,0.142171 -2.8616,3.025423 h 6.8555 l -0.28648,-4.734631"
       style="fill:#f1415c;fill-opacity:1;fill-rule:nonzero;stroke:none;stroke-width:0.0346031"
       id="path574" />
    <path
       d="m 402.67482,64.489476 h 7.2017 v 0.831144 h -7.2017 v -0.831144"
       style="fill:#45283d;fill-opacity:1;fill-rule:nonzero;stroke:none;stroke-width:0.0346031"
       id="path576" />
    <path
       d="m 405.4923,62.230639 c 0.004,-7.94e-4 0.27187,-0.05397 0.64557,-0.05397 0.38116,2.64e-4 0.87263,0.05468 1.30504,0.286456 l -0.0804,0.162631 c -0.39338,-0.211666 -0.85973,-0.2667 -1.22461,-0.266348 -0.17886,0 -0.33297,0.01304 -0.44157,0.02574 -0.0546,0.0063 -0.0978,0.0127 -0.12694,0.01765 l -0.0442,0.0078 -0.0329,-0.179916"
       style="fill:#45283d;fill-opacity:1;fill-rule:nonzero;stroke:none;stroke-width:0.0346031"
       id="path578" />
    <path
       d="m 404.57995,27.711332 1.44421,31.751765 h 2.98346 l 0.88858,-31.898167 -5.31625,0.146402"
       style="fill:#5c8394;fill-opacity:1;fill-rule:nonzero;stroke:none;stroke-width:0.0346031"
       id="path580" />
    <path
       d="m 409.8962,31.515334 h -2.50046 l 2.2123,6.39939 z"
       style="fill:#4d7585;fill-opacity:1;fill-rule:nonzero;stroke:none;stroke-width:0.0346031"
       id="path582" />
    <path
       d="m 405.49908,57.653701 h 4.05262 v 1.809396 h -4.05262 v -1.809396"
       style="fill:#84b1b1;fill-opacity:1;fill-rule:nonzero;stroke:none;stroke-width:0.0346031"
       id="path584" />
    <path
       d="m 412.63155,61.323295 h 2.30869 v -5.496631 h -2.44785 l 0.13916,5.496631"
       style="fill:#ed808d;fill-opacity:1;fill-rule:nonzero;stroke:none;stroke-width:0.0346031"
       id="path586" />
    <path
       d="m 415.63435,60.585989 h -3.73662 l 0.0291,1.709208 c 0,0 -2.95257,0.142171 -2.86126,3.025423 h 6.85549 l -0.2868,-4.734631"
       style="fill:#f1415c;fill-opacity:1;fill-rule:nonzero;stroke:none;stroke-width:0.0346031"
       id="path588" />
    <path
       d="m 408.91462,64.489476 h 7.20135 v 0.831144 h -7.20135 v -0.831144"
       style="fill:#45283d;fill-opacity:1;fill-rule:nonzero;stroke:none;stroke-width:0.0346031"
       id="path590" />
    <path
       d="m 411.73209,62.230639 c 0.004,-7.94e-4 0.27222,-0.05397 0.64558,-0.05397 0.38116,2.64e-4 0.87263,0.05468 1.30504,0.286456 l -0.0808,0.162631 c -0.39305,-0.211666 -0.85941,-0.2667 -1.22427,-0.266348 -0.17853,0 -0.33263,0.01304 -0.44159,0.02574 -0.0543,0.0063 -0.0974,0.0127 -0.12694,0.01765 l -0.0438,0.0078 -0.0333,-0.179916"
       style="fill:#45283d;fill-opacity:1;fill-rule:nonzero;stroke:none;stroke-width:0.0346031"
       id="path592" />
    <path
       d="m 416.99846,27.711332 -1.64957,31.751765 h -2.97904 l -1.78192,-31.751765 h 6.41053"
       style="fill:#5c8394;fill-opacity:1;fill-rule:nonzero;stroke:none;stroke-width:0.0346031"
       id="path594" />
    <path
       d="m 411.83595,57.653701 h 4.05228 v 1.809396 h -4.05228 v -1.809396"
       style="fill:#84b1b1;fill-opacity:1;fill-rule:nonzero;stroke:none;stroke-width:0.0346031"
       id="path596" />
    <path
       d="m 406.66261,31.515334 h 8.72431 V 27.56493 h -8.72431 v 3.950404"
       style="fill:#5c8394;fill-opacity:1;fill-rule:nonzero;stroke:none;stroke-width:0.0346031"
       id="path598" />
    <path
       d="m 420.00465,12.552118 c 0,0 2.75401,12.812183 -1.28707,13.609814 -6.40101,1.26365 -4.83156,-7.202311 -4.83156,-7.202311 l 0.40831,-7.290859 5.71032,0.883356"
       style="fill:#372131;fill-opacity:1;fill-rule:nonzero;stroke:none;stroke-width:0.0346031"
       id="path600" />
    <path
       d="m 411.96901,5.6676592 c 0,0 9.97437,-1.4555613 9.48121,7.9780698 -0.0333,0.64523 -0.25728,1.284111 -0.84447,1.49613 -0.73313,0.264584 -2.00288,0.310798 -4.15104,-0.563033 l -4.4857,-8.9111668"
       style="fill:#45283d;fill-opacity:1;fill-rule:nonzero;stroke:none;stroke-width:0.0346031"
       id="path602" />
    <path
       d="m 409.57614,10.102781 c 0.2644,-1.2386028 1.22358,-3.2092188 0.0557,-3.5792828 -1.26059,-0.399698 -3.87,0.52705 -4.59296,2.410883 -0.34959,0.911225 -0.45312,2.6179638 -0.65337,4.3977278 l 4.80407,0.312561 0.38659,-3.541889"
       style="fill:#f1415c;fill-opacity:1;fill-rule:nonzero;stroke:none;stroke-width:0.0346031"
       id="path604" />
    <path
       d="m 409.21194,13.46052 -4.80441,-0.312914 c -0.26475,2.355498 -0.52168,4.900437 -0.86212,6.207831 -0.38354,1.474259 0.52474,2.974622 1.96929,3.254377 1.33356,0.257878 2.62367,-0.62865 2.91795,-2.004838 l 0.77929,-7.144456"
       style="fill:#ed808d;fill-opacity:1;fill-rule:nonzero;stroke:none;stroke-width:0.0346031"
       id="path606" />
    <path
       d="m 394.63816,21.412837 10.87654,-3.04165 c 1.16419,-0.286808 2.32295,0.496006 2.54358,1.718028 0.22333,1.236133 -0.60348,2.41159 -1.80434,2.565049 l -10.79372,1.279525 -0.82206,-2.520952"
       style="fill:#ed808d;fill-opacity:1;fill-rule:nonzero;stroke:none;stroke-width:0.0346031"
       id="path608" />
    <path
       d="m 395.72803,24.594892 c 1.08713,-0.502002 1.57725,-1.824566 1.09495,-2.954866 -0.48265,-1.1303 -1.75546,-1.639358 -2.84261,-1.138061 -1.08748,0.502003 -1.5776,1.824567 -1.09495,2.954867 0.48265,1.129948 1.75546,1.639358 2.84261,1.13806"
       style="fill:#ed808d;fill-opacity:1;fill-rule:nonzero;stroke:none;stroke-width:0.0346031"
       id="path610" />
    <path
       d="m 393.15628,21.381793 c 0,0 -0.65066,-0.568325 0.34417,-1.126067 0.99482,-0.557389 2.29105,-0.5969 3.32253,1.3843 l -3.6667,-0.258233"
       style="fill:#ed808d;fill-opacity:1;fill-rule:nonzero;stroke:none;stroke-width:0.0346031"
       id="path612" />
    <path
       d="m 393.32701,16.608004 -2.30565,0.626533 c -0.1283,0.03493 -0.19381,0.176036 -0.14697,0.315031 l 2.02189,5.975349 c 0.0471,0.138997 0.18906,0.224015 0.31736,0.188738 l 2.30564,-0.626181 c 0.1283,-0.03528 0.19415,-0.176035 0.14697,-0.315384 l -2.0219,-5.97535 c -0.0468,-0.138994 -0.18904,-0.223661 -0.31734,-0.188736"
       style="fill:#3b3261;fill-opacity:1;fill-rule:nonzero;stroke:none;stroke-width:0.0346031"
       id="path614" />
    <path
       d="m 393.77129,16.487354 -2.30564,0.626181 c -0.1283,0.03492 -0.19415,0.176036 -0.14663,0.315383 l 2.02156,5.975349 c 0.0471,0.138997 0.18905,0.223663 0.31735,0.188738 l 2.30564,-0.626533 c 0.1283,-0.03492 0.19449,-0.176038 0.14697,-0.315032 l -2.02155,-5.97535 c -0.0472,-0.138994 -0.1894,-0.224014 -0.3177,-0.188736"
       style="fill:#2d2445;fill-opacity:1;fill-rule:nonzero;stroke:none;stroke-width:0.0346031"
       id="path616" />
    <path
       d="m 393.9315,17.087782 -2.02597,0.550686 1.6482,4.869746 2.02563,-0.550688 -1.64786,-4.869744"
       style="fill:#e5e3e2;fill-opacity:1;fill-rule:nonzero;stroke:none;stroke-width:0.0346031"
       id="path618" />
    <path
       d="m 391.90553,17.638468 3.67383,4.319058 -1.64786,-4.869744 z"
       style="fill:#ffffff;fill-opacity:1;fill-rule:nonzero;stroke:none;stroke-width:0.0346031"
       id="path620" />
    <path
       d="m 410.84894,5.7861922 5.03284,1.079853 c 0.44871,0.09631 0.77081,0.507294 0.77081,0.983897 l 0.34587,19.8613898 h -12.41851 l 1.21409,-18.3927758 c 0.0974,-1.363839 1.02877,-2.507544 2.307,-2.832805 l 2.7479,-0.699559"
       style="fill:#f1415c;fill-opacity:1;fill-rule:nonzero;stroke:none;stroke-width:0.0346031"
       id="path622" />
    <path
       d="m 408.10104,6.4857512 c 0,0 -2.49809,1.179336 -2.83004,10.7530198 0,0 -0.3703,-2.782006 -0.32414,-4.330701 0,0 -0.004,-2.39783 1.00297,-4.9537058 0.35503,-0.900994 1.64853,-1.41605 2.15121,-1.468613"
       style="fill:#45283d;fill-opacity:1;fill-rule:nonzero;stroke:none;stroke-width:0.0346031"
       id="path624" />
    <path
       d="m 412.53447,11.586565 c 0.31973,-3.0709308 1.48902,-5.1191588 1.48902,-5.1191588 0,0 0.74535,-0.105481 1.85829,0.398639 0,0 -3.38396,5.1544358 -1.43878,10.0813308 l -6.8e-4,1.593497 c 0,0 -2.26899,-3.48615 -1.90786,-6.954308"
       style="fill:#45283d;fill-opacity:1;fill-rule:nonzero;stroke:none;stroke-width:0.0346031"
       id="path626" />
    <path
       d="m 419.25692,13.368798 -0.61943,9.056159 c -0.0693,1.011767 -0.82784,1.848557 -1.80569,1.991432 -1.19202,0.17427 -2.24591,-0.735542 -2.28052,-1.967797 l -0.25151,-9.011708 4.95715,-0.06809"
       style="fill:#ed808d;fill-opacity:1;fill-rule:nonzero;stroke:none;stroke-width:0.0346031"
       id="path628" />
    <path
       d="m 415.03766,20.304762 c -3.23666,2.62502 -8.83768,7.097889 -8.83768,7.097889 l 0.97514,2.412648 10.31548,-5.653617 c 1.23751,-0.712965 1.53246,-2.427465 0.60892,-3.541536 -0.77659,-0.937331 -2.12372,-1.076325 -3.06186,-0.315384"
       style="fill:#ed808d;fill-opacity:1;fill-rule:nonzero;stroke:none;stroke-width:0.0346031"
       id="path630" />
    <path
       d="m 407.21958,30.945951 c 0.90352,-0.717196 1.07595,-2.059869 0.38591,-2.998962 -0.69037,-0.938742 -1.98218,-1.117955 -2.88536,-0.400757 -0.90318,0.717198 -1.07595,2.060223 -0.38591,2.998965 0.69037,0.938742 1.98218,1.118304 2.88536,0.400754"
       style="fill:#ed808d;fill-opacity:1;fill-rule:nonzero;stroke:none;stroke-width:0.0346031"
       id="path632" />
    <path
       d="m 403.93846,28.909365 c 0,0 -0.76437,-0.565856 0.0414,-1.314098 0.80543,-0.747887 2.24319,-1.251302 3.62562,0.351722 l -3.66703,0.962376"
       style="fill:#ed808d;fill-opacity:1;fill-rule:nonzero;stroke:none;stroke-width:0.0346031"
       id="path634" />
    <path
       d="m 415.88178,6.8660452 c 0,0 4.74162,0.284339 4.07942,10.6090868 l -6.62435,-0.633589 2.54493,-9.9754978"
       style="fill:#f1415c;fill-opacity:1;fill-rule:nonzero;stroke:none;stroke-width:0.0346031"
       id="path636" />
    <path
       d="m 412.77716,-0.07803296 c 0,0 1.90479,-3.02260014 -0.38863,-3.37114464 -1.3692,-0.2077861 -1.76428,-0.6540499 -3.43929,-1.26365 -1.93704,-0.7052028 -4.60213,1.5486945 -1.72898,3.78318894 l 4.49079,-1.01564704 1.06611,1.86725274"
       style="fill:#45283d;fill-opacity:1;fill-rule:nonzero;stroke:none;stroke-width:0.0346031"
       id="path638" />
    <path
       d="m 408.73134,0.73088664 c 0.0207,0.62335826 -0.44872,1.14652766 -1.04845,1.16804726 -0.6001,0.021519 -1.1031,-0.466725 -1.12381,-1.09008356 -0.0207,-0.6233583 0.44871,-1.146175 1.04845,-1.1676943 0.60009,-0.021873 1.1031,0.4660193 1.12381,1.0897306"
       style="fill:#45283d;fill-opacity:1;fill-rule:nonzero;stroke:none;stroke-width:0.0346031"
       id="path640" />
    <path
       d="m 408.97096,2.479606 0.078,4.0262532 c 0.0289,1.131711 0.77895,1.189919 1.85048,1.151467 0.91507,-0.032809 1.68859,-0.339373 1.77073,-1.287287 l 0.0571,-4.3560999 -3.7563,0.4656667"
       style="fill:#ed808d;fill-opacity:1;fill-rule:nonzero;stroke:none;stroke-width:0.0346031"
       id="path642" />
    <path
       d="m 410.83333,4.0205396 -1.51922,0.05468 c -1.1401,0.040922 -2.08672,-0.907697 -2.08842,-2.093736 l -0.006,-2.91112256 c -0.002,-1.48660524 1.13022,-2.70721644 2.55949,-2.75836914 1.46321,-0.052564 2.94679,1.1285361 2.99737,2.6493611 l -0.0499,3.0525863 c -0.0163,1.0865556 -0.84922,1.9692056 -1.89394,2.0066003"
       style="fill:#ed808d;fill-opacity:1;fill-rule:nonzero;stroke:none;stroke-width:0.0346031"
       id="path644" />
    <path
       d="m 408.54906,0.86882264 -0.0346,0.51046956 0.27018,-0.00953 c 0.0387,-0.0014 0.0716,0.030339 0.073,0.070555 9.7e-4,0.04057 -0.0291,0.074789 -0.0682,0.0762 l -0.34859,0.012348 -0.0529,-0.022577 -0.0197,-0.056092 0.04,-0.59125566 c 0.003,-0.04057 0.0363,-0.071261 0.0753,-0.068086 0.0391,0.00282 0.0682,0.037747 0.0655,0.077964"
       style="fill:#45283d;fill-opacity:1;fill-rule:nonzero;stroke:none;stroke-width:0.0346031"
       id="path646" />
    <path
       d="m 408.09969,0.57919204 c 0.005,0.130175 -0.0937,0.239889 -0.21927,0.2441223 -0.12524,0.00459 -0.2308,-0.097367 -0.23521,-0.2278944 -0.004,-0.1305279 0.094,-0.2398889 0.21959,-0.244475 0.12559,-0.00423 0.23081,0.097719 0.23489,0.2282471"
       style="fill:#45283d;fill-opacity:1;fill-rule:nonzero;stroke:none;stroke-width:0.0346031"
       id="path648" />
    <path
       d="m 409.93693,0.51322264 c 0.005,0.130175 -0.0937,0.239889 -0.21926,0.2441223 -0.12525,0.00459 -0.2308,-0.097367 -0.23522,-0.2278946 -0.004,-0.1305277 0.094,-0.2398887 0.21961,-0.244475 0.12558,-0.00423 0.2308,0.09772 0.23487,0.2282473"
       style="fill:#45283d;fill-opacity:1;fill-rule:nonzero;stroke:none;stroke-width:0.0346031"
       id="path650" />
    <path
       d="m 409.90062,-0.84144396 c 0,0 -0.58888,-0.070908 -0.59194,0.2561166 0,0 0.003,0.2215444 0.51625,0.269875 0.51387,0.048331 0.64692,-0.00177 0.69206,-0.2091973 0.0448,-0.207786 -0.34043,-0.3122083 -0.61637,-0.3167943"
       style="fill:#45283d;fill-opacity:1;fill-rule:nonzero;stroke:none;stroke-width:0.0346031"
       id="path652" />
    <path
       d="m 407.78471,-0.78323566 c 0,0 0.48536,-0.064206 0.52779,0.243064 0,0 0.0251,0.2084916 -0.39983,0.2515303 -0.42495,0.043039 -0.56411,-0.03175 -0.60552,-0.200025 -0.0471,-0.1905 0.24709,-0.2917473 0.47756,-0.2945693"
       style="fill:#45283d;fill-opacity:1;fill-rule:nonzero;stroke:none;stroke-width:0.0346031"
       id="path654" />
    <path
       d="m 411.38861,-0.78888026 c 0,0 0.205,2.33785856 -0.53967,2.80281956 -0.74468,0.4649613 -1.54026,-0.70485 -3.62325,-0.032455 0,0 -0.45278,2.3964194 2.32805,2.5784527 4.27017,0.2797526 2.41527,-4.63796996 2.41527,-4.63796996 l -0.5804,-0.7108473"
       style="fill:#45283d;fill-opacity:1;fill-rule:nonzero;stroke:none;stroke-width:0.0346031"
       id="path656" />
    <path
       d="m 412.21101,0.35094494 c 0,0 -1.68757,-0.8893529 -1.12142,-2.36043634 0,0 -2.47706,-1.3490223 -3.65483,-0.00988 l 0.0146,-1.8873613 3.90836,0.2497666 1.69436,1.940278 -0.27492,1.63865274 -0.56615,0.4289779"
       style="fill:#45283d;fill-opacity:1;fill-rule:nonzero;stroke:none;stroke-width:0.0346031"
       id="path658" />
    <path
       d="m 414.1416,0.59471434 c 0.0211,0.62371126 -0.44837,1.14652786 -1.04845,1.16804726 -0.59974,0.021519 -1.10309,-0.4663723 -1.12346,-1.08973056 -0.0211,-0.6237111 0.4487,-1.1465277 1.04811,-1.1680474 0.60009,-0.0215185 1.10309,0.4663724 1.1238,1.0897307"
       style="fill:#ed808d;fill-opacity:1;fill-rule:nonzero;stroke:none;stroke-width:0.0346031"
       id="path660" />
    <path
       d="m 412.61661,0.98559204 -3.3e-4,-0.0127 c 6.8e-4,-0.050447 0.005,-0.238125 0.0906,-0.4229804 0.0835,-0.1852083 0.26713,-0.3683 0.58549,-0.365478 0.0421,0 0.0869,0.00282 0.13407,0.00917 0.0387,0.00529 0.0658,0.042333 0.0611,0.082197 -0.005,0.040217 -0.0407,0.068792 -0.0791,0.0635 -0.0418,-0.00564 -0.0804,-0.00811 -0.11608,-0.00811 -0.26644,0.00246 -0.38523,0.1326443 -0.45821,0.282575 -0.0709,0.1502833 -0.0771,0.3203223 -0.0764,0.3591277 v 0.00811 c 9.6e-4,0.040217 -0.0295,0.074436 -0.0682,0.075494 -0.0391,0.0014 -0.0716,-0.030339 -0.073,-0.070908"
       style="fill:#45283d;fill-opacity:1;fill-rule:nonzero;stroke:none;stroke-width:0.0346031"
       id="path662" />
  </g>
</svg>
